<svg width="82" height="91" viewBox="0 0 82 91" fill="none" xmlns="http://www.w3.org/2000/svg">
<path d="M40.152 63.1778H39.5799C38.6321 63.1778 37.8638 62.4095 37.8638 61.4617V53.1354H29.5375C28.5897 53.1354 27.8214 53.9038 27.8214 54.8516V55.3119C27.8214 58.0049 25.6179 60.29 22.9251 60.2538C20.2985 60.2183 18.1604 58.0587 18.1604 55.4237V54.8516C18.1604 53.9038 17.392 53.1354 16.4442 53.1354H8.11816V81.165C8.11816 82.1129 8.88652 82.8812 9.83433 82.8812H16.4444C17.3922 82.8812 18.1605 83.6496 18.1605 84.5974V85.0577C18.1605 87.7508 20.3642 90.036 23.057 89.9996C25.6836 89.9639 27.8216 87.8043 27.8216 85.1694V84.5974C27.8216 83.6496 28.5899 82.8812 29.5377 82.8812H37.8639V74.555C37.8639 73.6072 38.6323 72.8388 39.5801 72.8388H40.1522C42.8089 72.8388 44.9827 70.6651 44.9827 68.0083C44.9823 65.3516 42.8087 63.1778 40.152 63.1778Z" stroke="white" stroke-miterlimit="10" stroke-linecap="round" stroke-linejoin="round"/>
<path d="M69.7854 63.1778H69.3252C68.3774 63.1778 67.6091 62.4095 67.6091 61.4617V54.8516C67.6091 53.9038 66.8407 53.1354 65.8929 53.1354H59.2828C58.335 53.1354 57.5667 52.3671 57.5667 51.4193V50.959C57.5667 48.266 55.3632 45.9809 52.6704 46.0171C50.0438 46.0526 47.9057 48.2122 47.9057 50.847V51.4191C47.9057 52.3669 47.1373 53.1353 46.1895 53.1353H37.8633V61.4615C37.8633 62.4093 38.6316 63.1776 39.5794 63.1776H40.0396C42.7327 63.1776 45.018 65.3813 44.9815 68.0741C44.946 70.7007 42.7863 72.8387 40.1515 72.8387H39.5794C38.6316 72.8387 37.8633 73.607 37.8633 74.5548V82.881H65.8929C66.8407 82.881 67.6091 82.1127 67.6091 81.1649V74.5548C67.6091 73.607 68.3774 72.8387 69.3252 72.8387H69.8973C72.5321 72.8387 74.6917 70.7009 74.7272 68.0741C74.7638 65.3815 72.4785 63.1778 69.7854 63.1778Z" stroke="white" stroke-miterlimit="10" stroke-linecap="round" stroke-linejoin="round"/>
<path d="M19.1371 23.3899H9.83429C8.88648 23.3899 8.11813 24.1582 8.11813 25.106V31.7161C8.11813 32.6639 7.34977 33.4322 6.40196 33.4322H5.94182C3.24869 33.4322 0.963365 35.6359 0.999945 38.3287C1.03544 40.9553 3.19509 43.0933 5.82991 43.0933H6.40196C7.34977 43.0933 8.11813 43.8616 8.11813 44.8094V53.1356H16.4443C17.3922 53.1356 18.1605 53.904 18.1605 54.8518V55.3121C18.1605 58.0052 20.3642 60.2904 23.0569 60.2538C25.6836 60.2181 27.8215 58.0585 27.8215 55.4238V54.8516C27.8215 53.9038 28.5899 53.1354 29.5377 53.1354H37.8639V44.8092C37.8639 43.8614 37.0955 43.0931 36.1477 43.0931H35.5757C32.9409 43.0931 30.7812 40.9553 30.7457 38.3285C30.7091 35.6355 32.9945 33.4321 35.6876 33.4321H36.1477C37.0955 33.4321 37.8639 32.6637 37.8639 31.7159V25.1058C37.8639 24.158 37.0955 23.3897 36.1477 23.3897H25.4752" stroke="white" stroke-miterlimit="10" stroke-linecap="round" stroke-linejoin="round"/>
<path d="M81.8468 17.521V8.83496C81.8468 7.88715 81.0785 7.11879 80.1306 7.11879H73.5206C72.5728 7.11879 71.8044 6.35044 71.8044 5.40263V4.9423C71.8044 2.24917 69.601 -0.0359696 66.9082 0.000428936C64.2815 0.0359221 62.1434 2.19557 62.1434 4.83039V5.40245C62.1434 6.35026 61.3751 7.11861 60.4273 7.11861H53.6265C52.7841 7.11861 52.101 7.80149 52.101 8.64409V15.4448C52.101 16.3926 51.3327 17.161 50.3849 17.161H49.9247C47.2316 17.161 44.9463 19.3645 44.9829 22.0574C45.0183 24.6841 47.178 26.822 49.8128 26.822H50.3849C51.3325 26.822 52.101 27.5904 52.101 28.5382V35.3389C52.101 36.1813 52.7839 36.8644 53.6265 36.8644H60.4273C61.3749 36.8644 62.1434 36.096 62.1434 35.1482V34.6879C62.1434 31.9948 64.3469 29.7096 67.0398 29.746C69.6665 29.7817 71.8044 31.9413 71.8044 34.576V35.148C71.8044 36.0958 72.5728 36.8642 73.5206 36.8642H80.3213C81.1637 36.8642 81.8468 36.1811 81.8468 35.3387V23.8589" fill="#09B6AA"/>
</svg>
