<svg width="82" height="92" viewBox="0 0 82 92" fill="none" xmlns="http://www.w3.org/2000/svg">
<path d="M40.152 64.1102H39.5799C38.6321 64.1102 37.8638 63.3418 37.8638 62.394V54.0678H29.5375C28.5897 54.0678 27.8214 54.8362 27.8214 55.784V56.2443C27.8214 58.9372 25.6179 61.2224 22.9251 61.1862C20.2985 61.1507 18.1604 58.991 18.1604 56.356V55.784C18.1604 54.8362 17.392 54.0678 16.4442 54.0678H8.11816V82.0974C8.11816 83.0452 8.88652 83.8136 9.83433 83.8136H16.4444C17.3922 83.8136 18.1605 84.5819 18.1605 85.5297V85.9901C18.1605 88.6832 20.3642 90.9683 23.057 90.9319C25.6836 90.8963 27.8216 88.7366 27.8216 86.1018V85.5297C27.8216 84.5819 28.5899 83.8136 29.5377 83.8136H37.8639V75.4874C37.8639 74.5396 38.6323 73.7712 39.5801 73.7712H40.1522C42.8089 73.7712 44.9827 71.5974 44.9827 68.9407C44.9823 66.284 42.8087 64.1102 40.152 64.1102Z" stroke="#023540" stroke-miterlimit="10" stroke-linecap="round" stroke-linejoin="round"/>
<path d="M69.7854 64.1102H69.3252C68.3774 64.1102 67.6091 63.3418 67.6091 62.394V55.784C67.6091 54.8362 66.8407 54.0678 65.8929 54.0678H59.2828C58.335 54.0678 57.5667 53.2995 57.5667 52.3517V51.8913C57.5667 49.1984 55.3632 46.9132 52.6704 46.9495C50.0438 46.985 47.9057 49.1446 47.9057 51.7794V52.3515C47.9057 53.2993 47.1373 54.0676 46.1895 54.0676H37.8633V62.3939C37.8633 63.3417 38.6316 64.11 39.5794 64.11H40.0396C42.7327 64.11 45.018 66.3137 44.9815 69.0064C44.946 71.6331 42.7863 73.771 40.1515 73.771H39.5794C38.6316 73.771 37.8633 74.5394 37.8633 75.4872V83.8134H65.8929C66.8407 83.8134 67.6091 83.0451 67.6091 82.0972V75.4872C67.6091 74.5394 68.3774 73.771 69.3252 73.771H69.8973C72.5321 73.771 74.6917 71.6333 74.7272 69.0064C74.7638 66.3138 72.4785 64.1102 69.7854 64.1102Z" stroke="#023540" stroke-miterlimit="10" stroke-linecap="round" stroke-linejoin="round"/>
<path d="M19.1371 24.3222H9.83429C8.88648 24.3222 8.11813 25.0906 8.11813 26.0384V32.6484C8.11813 33.5962 7.34977 34.3646 6.40196 34.3646H5.94182C3.24869 34.3646 0.963365 36.5682 0.999945 39.261C1.03544 41.8877 3.19509 44.0256 5.82991 44.0256H6.40196C7.34977 44.0256 8.11813 44.7939 8.11813 45.7418V54.068H16.4443C17.3922 54.068 18.1605 54.8363 18.1605 55.7841V56.2445C18.1605 58.9376 20.3642 61.2227 23.0569 61.1862C25.6836 61.1505 27.8215 58.9908 27.8215 56.3562V55.784C27.8215 54.8361 28.5899 54.0678 29.5377 54.0678H37.8639V45.7416C37.8639 44.7938 37.0955 44.0254 36.1477 44.0254H35.5757C32.9409 44.0254 30.7812 41.8877 30.7457 39.2608C30.7091 36.5679 32.9945 34.3644 35.6876 34.3644H36.1477C37.0955 34.3644 37.8639 33.596 37.8639 32.6482V26.0382C37.8639 25.0904 37.0955 24.322 36.1477 24.322H25.4752" stroke="#023540" stroke-miterlimit="10" stroke-linecap="round" stroke-linejoin="round"/>
<path d="M81.8468 18.4534V9.76733C81.8468 8.81952 81.0785 8.05116 80.1306 8.05116H73.5206C72.5728 8.05116 71.8044 7.28281 71.8044 6.335V5.87468C71.8044 3.18154 69.601 0.896403 66.9082 0.932802C64.2815 0.968295 62.1434 3.12794 62.1434 5.76276V6.33482C62.1434 7.28263 61.3751 8.05098 60.4273 8.05098H53.6265C52.7841 8.05098 52.101 8.73386 52.101 9.57646V16.3772C52.101 17.325 51.3327 18.0934 50.3849 18.0934H49.9247C47.2316 18.0934 44.9463 20.2968 44.9829 22.9898C45.0183 25.6165 47.178 27.7544 49.8128 27.7544H50.3849C51.3325 27.7544 52.101 28.5227 52.101 29.4705V36.2713C52.101 37.1137 52.7839 37.7968 53.6265 37.7968H60.4273C61.3749 37.7968 62.1434 37.0284 62.1434 36.0806V35.6203C62.1434 32.9271 64.3469 30.642 67.0398 30.6784C69.6665 30.7141 71.8044 32.8737 71.8044 35.5084V36.0804C71.8044 37.0282 72.5728 37.7966 73.5206 37.7966H80.3213C81.1637 37.7966 81.8468 37.1135 81.8468 36.2711V24.7912" fill="#09B6AA"/>
</svg>
