<svg width="90" height="91" viewBox="0 0 90 91" fill="none" xmlns="http://www.w3.org/2000/svg">
<mask id="mask0_317_465" style="mask-type:luminance" maskUnits="userSpaceOnUse" x="-1" y="0" width="91" height="91">
<path d="M-0.000488281 0.932373H89.9995V90.9324H-0.000488281V0.932373Z" fill="white"/>
</mask>
<g mask="url(#mask0_317_465)">
<path d="M39.5503 88.2957C39.5503 78.1021 31.2868 69.8386 21.0933 69.8386C10.8997 69.8386 2.63623 78.1021 2.63623 88.2957H87.3628C87.3628 78.1021 79.0993 69.8386 68.9058 69.8386C67.7361 69.8386 66.5921 69.9487 65.4828 70.1568C61.3626 63.1312 53.7327 58.4128 44.9995 58.4128C36.2663 58.4128 28.6364 63.1312 24.5162 70.1568" stroke="#023540" stroke-miterlimit="10"/>
<path d="M13.8862 14.116C13.8862 31.3133 27.8021 45.2292 44.9995 45.2292C44.9995 28.0319 31.0836 14.116 13.8862 14.116Z" fill="#09B6AA"/>
<path d="M44.9995 34.6824C44.9995 17.485 58.9154 3.56909 76.1128 3.56909C76.1128 20.7665 62.1969 34.6824 44.9995 34.6824Z" fill="#09B6AA"/>
<path d="M44.9995 34.6824V58.4128" stroke="#023540" stroke-miterlimit="10"/>
</g>
</svg>
