<svg width="91" height="86" viewBox="0 0 91 86" fill="none" xmlns="http://www.w3.org/2000/svg">
<path d="M36.1686 20.2306C37.1968 13.8954 32.8946 7.92626 26.5594 6.8981C20.2242 5.86994 14.255 10.1721 13.2269 16.5073C12.1987 22.8425 16.5009 28.8117 22.8361 29.8398C29.1713 30.868 35.1405 26.5658 36.1686 20.2306Z" stroke="white" stroke-miterlimit="10" stroke-linecap="round" stroke-linejoin="round"/>
<path d="M42.9829 41.3688C40.1998 37.8 35.8663 35.5556 31.083 35.5556H18.3117C11.0109 35.5556 4.75812 40.7844 3.46615 47.9701L0.999512 61.6895H13.8109" stroke="white" stroke-miterlimit="10" stroke-linecap="round" stroke-linejoin="round"/>
<path d="M25.6072 61.7184H13.811V84.8651H25.6072V61.7184Z" stroke="white" stroke-miterlimit="10" stroke-linecap="round" stroke-linejoin="round"/>
<path d="M25.6074 84.8783H50.3559C54.3316 84.8783 57.9514 82.5876 59.6535 78.9946L64.7403 68.2571C67.074 63.331 63.4897 57.6512 58.0387 57.6377L48.4 57.6085L50.191 49.8908C50.41 48.9471 50.4242 48.0046 50.2631 47.1091C49.6805 43.8718 46.7706 41.3687 43.4814 41.3687H42.9833L38.6543 50.1664C37.4296 52.7518 35.5373 54.9636 33.1728 56.5738L25.6076 61.725" stroke="white" stroke-miterlimit="10" stroke-linecap="round" stroke-linejoin="round"/>
<path d="M58.7803 18.342L51.5929 22.1207L52.9656 14.1172L47.1509 8.44922L55.1866 7.28167L58.7803 0L62.374 7.28167L70.4099 8.44922L64.5952 14.1172L65.9677 22.1207L58.7803 18.342Z" fill="#09B6AA"/>
<path d="M76.9664 44.8964L68.2932 49.456L69.9496 39.7986L62.9331 32.9591L72.6299 31.5501L76.9664 22.7634L81.3027 31.5501L90.9994 32.9591L83.9829 39.7986L85.6391 49.456L76.9664 44.8964Z" fill="#09B6AA"/>
</svg>
