<svg width="90" height="90" viewBox="0 0 90 90" fill="none" xmlns="http://www.w3.org/2000/svg">
<mask id="mask0_812_745" style="mask-type:luminance" maskUnits="userSpaceOnUse" x="-1" y="0" width="91" height="90">
<path d="M-0.000488281 0H89.9995V90H-0.000488281V0Z" fill="white"/>
</mask>
<g mask="url(#mask0_812_745)">
<path d="M39.5503 87.3633C39.5503 77.1697 31.2868 68.9062 21.0933 68.9062C10.8997 68.9062 2.63623 77.1697 2.63623 87.3633H87.3628C87.3628 77.1697 79.0993 68.9062 68.9058 68.9062C67.7361 68.9062 66.5921 69.0163 65.4828 69.2244C61.3626 62.1988 53.7327 57.4805 44.9995 57.4805C36.2663 57.4805 28.6364 62.1988 24.5162 69.2244" stroke="white" stroke-miterlimit="10"/>
<path d="M13.8862 13.1836C13.8862 30.381 27.8021 44.2969 44.9995 44.2969C44.9995 27.0995 31.0836 13.1836 13.8862 13.1836Z" fill="#09B6AA"/>
<path d="M44.9995 33.75C44.9995 16.5526 58.9154 2.63672 76.1128 2.63672C76.1128 19.8341 62.1969 33.75 44.9995 33.75Z" fill="#09B6AA"/>
<path d="M44.9995 33.75V57.4805" stroke="white" stroke-miterlimit="10"/>
</g>
</svg>
