<svg width="57" height="56" viewBox="0 0 57 56" fill="none" xmlns="http://www.w3.org/2000/svg">
<mask id="mask0_315_209" style="mask-type:luminance" maskUnits="userSpaceOnUse" x="0" y="0" width="57" height="56">
<path d="M0.624756 0.24667H56.0849V55.7068H0.624756V0.24667Z" fill="white"/>
</mask>
<g mask="url(#mask0_315_209)">
<path d="M36.2352 27.0525C33.6039 30.0556 32.6345 34.0055 33.3224 37.7084C33.4325 38.301 33.8991 38.7676 34.4917 38.8776C38.4541 39.6139 42.6997 38.4522 45.7649 35.3869C48.8301 32.3216 49.9918 28.0762 49.2557 24.1138C49.1456 23.521 48.6791 23.0545 48.0863 22.9444C44.9669 22.3649 41.6722 22.9616 38.916 24.737" fill="#09B6AA"/>
<path d="M19.2452 26.223C19.3391 25.7175 19.7371 25.3194 20.2427 25.2255C23.6232 24.5975 27.2451 25.5885 29.8601 28.2036C32.4752 30.8185 33.4663 34.4405 32.8381 37.8209C32.7442 38.3266 32.3463 38.7246 31.8406 38.8186C28.46 39.4466 24.8382 38.4555 22.2233 35.8405C19.6083 33.2254 18.6171 29.6035 19.2452 26.223Z" fill="#09B6AA"/>
<path d="M33 38.1207V45.6318" stroke="white" stroke-width="0.616224" stroke-miterlimit="10" stroke-linecap="round" stroke-linejoin="round"/>
<path d="M42.3538 29.7061C42.3538 29.7061 39.7613 36.2184 33.2142 37.7085" stroke="white" stroke-width="0.616224" stroke-miterlimit="10" stroke-linecap="round" stroke-linejoin="round"/>
<path d="M32.5201 38.4458C32.5201 38.4458 29.1511 36.9542 27.6119 33.7073" stroke="white" stroke-width="0.616224" stroke-miterlimit="10" stroke-linecap="round" stroke-linejoin="round"/>
<path d="M47.9187 10.3214H52.0973C53.8509 10.3214 55.2725 11.743 55.2725 13.4964V51.7191C55.2725 53.4727 53.8509 54.8943 52.0973 54.8943H36.8843C37.8452 53.9113 38.4383 52.5672 38.4383 51.0841C38.4383 48.3539 36.4314 46.0923 33.8124 45.6941C33.543 45.6531 33.267 45.6318 32.9861 45.6318C32.6096 45.6318 32.242 45.6699 31.8872 45.7426C29.4027 46.2511 27.5338 48.4493 27.5338 51.0841C27.5338 52.5672 28.1267 53.9113 29.0876 54.8943H13.8747C12.1211 54.8943 10.6995 53.4727 10.6995 51.7191V46.243" stroke="white" stroke-width="0.616224" stroke-miterlimit="10" stroke-linecap="round" stroke-linejoin="round"/>
<path d="M10.6996 47.2808V36.5062C9.71668 37.467 8.37263 38.0601 6.8894 38.0601C3.8782 38.0601 1.43719 35.619 1.43719 32.6079C1.43719 29.5967 3.8782 27.1556 6.8894 27.1556C8.37263 27.1556 9.71668 27.7486 10.6996 28.7095V13.4965C10.6996 11.7429 12.1212 10.3214 13.8747 10.3214H29.0877C28.1268 9.33844 27.5338 7.9944 27.5338 6.51127C27.5338 3.50007 29.9749 1.05896 32.9861 1.05896C35.9973 1.05896 38.4383 3.50007 38.4383 6.51127C38.4383 7.9944 37.8452 9.33844 36.8843 10.3214H49.7095" stroke="white" stroke-width="0.616224" stroke-miterlimit="10" stroke-linecap="round" stroke-linejoin="round"/>
</g>
</svg>
