<svg width="91" height="86" viewBox="0 0 91 86" fill="none" xmlns="http://www.w3.org/2000/svg">
<path d="M35.7572 20.801C36.7854 14.4658 32.4832 8.49666 26.148 7.4685C19.8128 6.44034 13.8436 10.7425 12.8155 17.0777C11.7873 23.4129 16.0895 29.3821 22.4247 30.4102C28.7599 31.4384 34.729 27.1362 35.7572 20.801Z" stroke="#023540" stroke-miterlimit="10" stroke-linecap="round" stroke-linejoin="round"/>
<path d="M42.5713 41.9394C39.7882 38.3706 35.4547 36.1262 30.6713 36.1262H17.9001C10.5993 36.1262 4.34649 41.355 3.05453 48.5407L0.587891 62.2601H13.3993" stroke="#023540" stroke-miterlimit="10" stroke-linecap="round" stroke-linejoin="round"/>
<path d="M25.1956 62.2888H13.3994V85.4356H25.1956V62.2888Z" stroke="#023540" stroke-miterlimit="10" stroke-linecap="round" stroke-linejoin="round"/>
<path d="M25.1956 85.4488H49.9441C53.9199 85.4488 57.5396 83.1581 59.2417 79.5652L64.3285 68.8277C66.6623 63.9015 63.0779 58.2217 57.6269 58.2083L47.9882 58.179L49.7792 50.4613C49.9982 49.5177 50.0125 48.5752 49.8513 47.6797C49.2688 44.4424 46.3588 41.9392 43.0696 41.9392H42.5715L38.2426 50.737C37.0179 53.3224 35.1255 55.5342 32.761 57.1443L25.1958 62.2955" stroke="#023540" stroke-miterlimit="10" stroke-linecap="round" stroke-linejoin="round"/>
<path d="M58.3684 18.9126L51.181 22.6912L52.5537 14.6878L46.739 9.01978L54.7747 7.85223L58.3684 0.570557L61.9622 7.85223L69.998 9.01978L64.1833 14.6878L65.5559 22.6912L58.3684 18.9126Z" fill="#09B6AA"/>
<path d="M76.5548 45.467L67.8817 50.0266L69.5381 40.3692L62.5215 33.5298L72.2183 32.1207L76.5548 23.334L80.8911 32.1207L90.5879 33.5298L83.5713 40.3692L85.2276 50.0266L76.5548 45.467Z" fill="#09B6AA"/>
</svg>
