<svg width="91" height="91" viewBox="0 0 91 91" fill="none" xmlns="http://www.w3.org/2000/svg">
<mask id="mask0_156_248" style="mask-type:luminance" maskUnits="userSpaceOnUse" x="0" y="0" width="91" height="91">
<path d="M0.587891 0.570557H90.5879V90.5706H0.587891V0.570557Z" fill="white"/>
</mask>
<g mask="url(#mask0_156_248)">
<path d="M58.3761 44.0709C54.106 48.9443 52.5329 55.3542 53.6492 61.3632C53.8279 62.3249 54.585 63.082 55.5467 63.2606C61.977 64.4554 68.8665 62.5701 73.8408 57.5959C78.8149 52.6216 80.7001 45.7322 79.5055 39.302C79.3269 38.3401 78.5698 37.583 77.608 37.4044C72.5458 36.464 67.1993 37.4322 62.7265 40.3134" fill="#09B6AA"/>
<path d="M30.8049 42.7249C30.9573 41.9045 31.6031 41.2585 32.4237 41.1061C37.9095 40.087 43.7871 41.6952 48.0306 45.9389C52.2743 50.1824 53.8827 56.06 52.8634 61.5458C52.711 62.3664 52.0651 63.0123 51.2446 63.1647C45.7586 64.1839 39.8812 62.5755 35.6377 58.332C31.3941 54.0883 29.7856 48.2107 30.8049 42.7249Z" fill="#09B6AA"/>
<path d="M53.126 62.0322V74.2212" stroke="#023540" stroke-miterlimit="10" stroke-linecap="round" stroke-linejoin="round"/>
<path d="M68.3052 48.3771C68.3052 48.3771 64.0983 58.9452 53.4737 61.3633" stroke="#023540" stroke-miterlimit="10" stroke-linecap="round" stroke-linejoin="round"/>
<path d="M52.3473 62.5598C52.3473 62.5598 46.8801 60.1393 44.3823 54.8703" stroke="#023540" stroke-miterlimit="10" stroke-linecap="round" stroke-linejoin="round"/>
<path d="M77.3359 16.9198H84.1169C86.9626 16.9198 89.2695 19.2267 89.2695 22.0723V84.0995C89.2695 86.9452 86.9626 89.2522 84.1169 89.2522H59.4294C60.9888 87.657 61.9512 85.4759 61.9512 83.0691C61.9512 78.6385 58.6945 74.9684 54.4443 74.3222C54.0071 74.2558 53.5592 74.2211 53.1034 74.2211C52.4924 74.2211 51.896 74.283 51.3201 74.401C47.2884 75.2261 44.2555 78.7934 44.2555 83.0691C44.2555 85.4759 45.2177 87.657 46.777 89.2522H22.0896C19.2439 89.2522 16.937 86.9452 16.937 84.0995V75.2131" stroke="#023540" stroke-miterlimit="10" stroke-linecap="round" stroke-linejoin="round"/>
<path d="M16.9371 76.8972V59.4124C15.3421 60.9716 13.161 61.934 10.754 61.934C5.86748 61.934 1.90625 57.9726 1.90625 53.0862C1.90625 48.1997 5.86748 44.2384 10.754 44.2384C13.161 44.2384 15.3421 45.2007 16.9371 46.76V22.0726C16.9371 19.2269 19.2441 16.9201 22.0896 16.9201H46.7772C45.2179 15.3249 44.2555 13.1438 44.2555 10.737C44.2555 5.85044 48.2169 1.88905 53.1034 1.88905C57.99 1.88905 61.9512 5.85044 61.9512 10.737C61.9512 13.1438 60.9888 15.3249 59.4294 16.9201H80.2419" stroke="#023540" stroke-miterlimit="10" stroke-linecap="round" stroke-linejoin="round"/>
</g>
</svg>
