<svg width="241" height="241" viewBox="0 0 241 241" fill="none" xmlns="http://www.w3.org/2000/svg">
<rect width="240" height="240" rx="120" transform="matrix(1 0 0 -1 0.94873 240.809)" fill="#FBAC35"/>
<path d="M176.971 124.71L176.973 124.713C177.949 126.456 178.449 128.432 178.449 130.429C178.449 132.272 178.027 134.018 177.278 135.572L177.278 135.573L164.858 161.513L164.858 161.513C163.461 164.439 160.496 166.309 157.249 166.309H144.949H144.449V166.809V176.749C144.449 178.272 142.593 178.86 141.734 177.675L141.733 177.674L125.753 155.754L125.753 155.754C125.341 155.19 125.341 154.428 125.753 153.863L125.753 153.863L141.733 131.943L141.734 131.942C142.593 130.757 144.449 131.345 144.449 132.869V142.809V143.309H144.949H160.129H160.976L160.567 142.567L146.907 117.807L146.906 117.807C146.201 116.53 146.671 114.914 147.951 114.206L163.451 105.646L163.451 105.646C164.727 104.941 166.344 105.411 167.051 106.691L176.971 124.71Z" fill="white" stroke="black"/>
<path d="M86.0306 142.568L85.6234 143.309H86.4688H113.909C115.313 143.309 116.449 144.445 116.449 145.849L116.449 163.629L116.449 163.634C116.466 165.093 115.274 166.289 113.809 166.289H113.808L94.2083 166.309L94.204 166.309C92.2139 166.328 90.2387 165.811 88.4912 164.851C86.8776 163.948 85.5527 162.738 84.5343 161.336C84.534 161.336 84.5337 161.335 84.5334 161.335L67.7954 137.958L67.7933 137.955C65.8882 135.333 65.6794 131.841 67.247 128.99L67.2471 128.989L73.1671 118.209L73.4077 117.771L72.9696 117.53L64.2703 112.751C64.2702 112.751 64.2701 112.751 64.27 112.751C62.9192 112.005 63.3114 110.101 64.7496 109.925L64.7496 109.925L64.7526 109.925L91.6726 106.465L91.6749 106.464C92.3577 106.373 93.0248 106.737 93.3133 107.375L93.3132 107.375L93.3161 107.381L104.836 131.941L104.837 131.942C105.462 133.267 104.043 134.603 102.733 133.872L102.729 133.87L94.0092 129.09L93.5712 128.85L93.3307 129.288L86.0306 142.568Z" fill="white" stroke="black"/>
<path d="M151.409 101.052L151.406 101.056C151.088 101.662 150.407 101.994 149.727 101.858L149.727 101.858L149.72 101.857L123.06 96.9371C121.605 96.6671 121.354 94.7371 122.702 94.1009L122.706 94.0991L131.666 89.7791L132.115 89.5626L131.9 89.1128L125.36 75.4528L124.995 74.6899L124.502 75.3777L108.542 97.6777L108.542 97.6777L108.539 97.6832C107.742 98.8282 106.16 99.0838 105.021 98.2631L105.02 98.262L90.5598 87.922L90.5569 87.9199C89.3686 87.0831 89.093 85.4175 89.9369 84.2178C89.9372 84.2174 89.9375 84.217 89.9378 84.2166L101.316 68.2793L101.317 68.2771C102.466 66.6499 104.038 65.3449 105.844 64.4804C107.513 63.6937 109.26 63.3283 110.992 63.3087L139.709 63.3088L139.712 63.3087C142.955 63.2899 145.901 65.1564 147.319 68.086C147.319 68.0862 147.319 68.0863 147.319 68.0865L152.638 79.1652L152.855 79.6158L153.305 79.3995L162.225 75.1199C163.623 74.4516 164.94 75.8712 164.249 77.1511L164.249 77.1521L151.409 101.052Z" fill="white" stroke="black"/>
<path d="M116.917 130.809C116.387 130.809 115.879 130.601 115.503 130.223L111.535 126.255C110.753 125.473 110.753 124.209 111.535 123.427C112.317 122.645 113.581 122.645 114.363 123.427L116.753 125.817L131.389 107.559C132.081 106.695 133.341 106.561 134.201 107.249C135.063 107.941 135.201 109.199 134.511 110.059L118.479 130.059C118.123 130.505 117.595 130.775 117.027 130.805C116.991 130.805 116.953 130.809 116.917 130.809Z" fill="white"/>
<path d="M166.569 143.309C169.861 143.309 172.86 142.078 175.135 140.048L164.858 161.513L164.858 161.513C163.461 164.439 160.496 166.309 157.249 166.309H144.949H144.449V166.809V176.749C144.449 178.272 142.593 178.86 141.734 177.675L141.733 177.674L125.753 155.754L125.753 155.754C125.341 155.189 125.341 154.428 125.753 153.863L125.753 153.863L141.733 131.943L141.734 131.942C142.593 130.757 144.449 131.345 144.449 132.869V142.809V143.309H144.949H166.569Z" fill="white" stroke="black"/>
<path d="M102.733 133.872L102.729 133.87L94.0092 129.09L93.5712 128.85L93.3307 129.288L86.0309 142.567L86.0306 142.568L82.9109 148.227L82.91 148.229C81.3313 151.119 80.966 154.336 81.6476 157.304L67.7954 137.958L67.7933 137.955C65.8882 135.333 65.6794 131.841 67.247 128.99L67.2471 128.989L73.1671 118.209L73.4077 117.771L72.9696 117.53L64.2703 112.751C64.2702 112.751 64.2701 112.751 64.27 112.751C62.9192 112.005 63.3114 110.101 64.7496 109.925L64.7496 109.925L64.7526 109.925L91.6726 106.465L91.6749 106.464C92.3577 106.373 93.0248 106.737 93.3133 107.375L93.3132 107.375L93.3161 107.381L104.836 131.941L104.837 131.942C105.462 133.267 104.043 134.603 102.733 133.872Z" fill="white" stroke="black"/>
<path d="M164.248 77.1521L164.249 77.1511C164.94 75.8715 163.623 74.4521 162.225 75.1195L164.248 77.1521ZM164.248 77.1521L151.408 101.052L151.406 101.056C151.088 101.662 150.407 101.994 149.727 101.858L149.727 101.858L149.72 101.857L123.06 96.9371C121.605 96.6671 121.354 94.7371 122.702 94.1009L122.702 94.1009L122.706 94.0991L131.666 89.7791L132.115 89.5626L131.9 89.1128L125.36 75.4538L125.36 75.4528L122.58 69.6138L122.58 69.6138L122.579 69.6109C121.149 66.6576 118.756 64.4848 115.953 63.3087L139.709 63.3088L139.712 63.3087C142.955 63.2899 145.901 65.1564 147.318 68.086C147.319 68.0862 147.319 68.0863 147.319 68.0865L152.638 79.1652L152.854 79.6158L153.305 79.3995L162.224 75.1199L164.248 77.1521Z" fill="white" stroke="black"/>
</svg>
