<svg width="241" height="241" viewBox="0 0 241 241" fill="none" xmlns="http://www.w3.org/2000/svg">
<rect width="240" height="240" rx="120" transform="matrix(1 0 0 -1 0.94873 240.045)" fill="#FBAC35"/>
<path d="M78.6279 75.678V75.6779C78.6278 72.8787 80.8971 70.6094 83.6965 70.6094H134.893C137.693 70.6094 139.962 72.8787 139.962 75.678V141.599C139.962 144.398 137.693 146.668 134.893 146.668H83.6965C80.8971 146.668 78.6279 144.398 78.6279 141.599V75.678Z" fill="white" stroke="black"/>
<path d="M139.633 161.864H77.2639C74.4647 161.864 72.1953 159.595 72.1953 156.795V109.09C72.1953 106.291 74.4647 104.022 77.2639 104.022H104.428C106.414 104.022 108.144 105.373 108.625 107.298L109.582 111.124C110.175 113.496 112.305 115.159 114.749 115.159H139.633C142.432 115.159 144.702 117.428 144.702 120.227V156.795C144.702 159.595 142.433 161.864 139.633 161.864Z" fill="white" stroke="black"/>
<path d="M128.283 79.8548H87.9653C87.1965 79.8548 86.5732 79.2315 86.5732 78.4627C86.5732 77.6938 87.1965 77.0706 87.9653 77.0706H128.283C129.052 77.0706 129.676 77.6938 129.676 78.4627C129.676 79.2315 129.052 79.8548 128.283 79.8548Z" fill="#FBAC35"/>
<path d="M119.93 88.2077H87.9653C87.1965 88.2077 86.5732 87.5844 86.5732 86.8156C86.5732 86.0467 87.1965 85.4235 87.9653 85.4235H119.93C120.699 85.4235 121.323 86.0467 121.323 86.8156C121.323 87.5842 120.699 88.2077 119.93 88.2077Z" fill="#FBAC35"/>
<path d="M117.146 96.5607H87.9653C87.1965 96.5607 86.5732 95.9374 86.5732 95.1686C86.5732 94.3997 87.1965 93.7765 87.9653 93.7765H117.146C117.915 93.7765 118.538 94.3997 118.538 95.1686C118.538 95.9374 117.915 96.5607 117.146 96.5607Z" fill="#FBAC35"/>
<path d="M131.853 128.053L126.47 124.945L133.554 112.675L138.937 115.784L131.853 128.053Z" fill="#FBAC35" stroke="black"/>
<path d="M113.252 142.534L113.252 142.534L124.333 123.341C124.333 123.341 124.333 123.341 124.333 123.341C124.927 122.312 126.242 121.96 127.27 122.554L133.52 126.162C133.52 126.162 133.52 126.162 133.52 126.162C134.548 126.756 134.901 128.071 134.307 129.1L123.226 148.292C121.636 151.047 118.114 151.991 115.359 150.4C112.605 148.81 111.661 145.288 113.252 142.534Z" fill="#FBAC35" stroke="black"/>
<path d="M138.936 115.782L135.306 122.07C133.367 121.274 131.56 120.22 129.927 118.953L133.552 112.674L138.936 115.782Z" fill="#FBAC35" stroke="black"/>
<path d="M151.745 82.858C161.576 87.1095 166.099 98.5257 161.848 108.357C157.596 118.188 146.18 122.711 136.349 118.459C126.518 114.208 121.995 102.792 126.247 92.9605C130.498 83.1295 141.914 78.6065 151.745 82.858Z" fill="#FBAC35" stroke="black"/>
<path d="M147.063 112.612C153.658 110.975 157.678 104.302 156.041 97.7073C154.404 91.1123 147.731 87.0931 141.136 88.7299C134.541 90.3668 130.521 97.04 132.158 103.635C133.795 110.23 140.468 114.249 147.063 112.612Z" fill="white"/>
</svg>
