<svg width="241" height="241" viewBox="0 0 241 241" fill="none" xmlns="http://www.w3.org/2000/svg">
<rect width="240" height="240" rx="120" transform="matrix(1 0 0 -1 0.94873 240.09)" fill="#FBAC35"/>
<path d="M79.4941 163.281C71.7012 163.281 65.3568 157.101 65.0935 149.372H176.804C176.54 157.101 170.196 163.281 162.403 163.281H79.4941Z" fill="white" stroke="black"/>
<path d="M126.639 158.145H115.258C114.258 158.145 113.439 157.327 113.439 156.327C113.439 155.327 114.258 154.508 115.258 154.508H126.639C127.639 154.508 128.458 155.327 128.458 156.327C128.458 157.327 127.639 158.145 126.639 158.145Z" fill="#44394A"/>
<path d="M79.2757 76.8994H162.639C166.381 76.8994 169.412 79.9301 169.412 83.6721V148.354H72.5029V83.6721C72.5029 79.9301 75.5336 76.8994 79.2757 76.8994Z" fill="white" stroke="black"/>
<path d="M79.2759 83.6721H162.64V141.581H79.2759V83.6721Z" fill="#FBAC35"/>
<path d="M98.8211 94.5812H87.5848C86.5848 94.5812 85.7666 93.7631 85.7666 92.7631C85.7666 91.7631 86.5848 90.9449 87.5848 90.9449H98.8211C99.8211 90.9449 100.639 91.7631 100.639 92.7631C100.639 93.7631 99.8211 94.5812 98.8211 94.5812Z" fill="white"/>
<path d="M111.367 94.5812H106.094C105.094 94.5812 104.276 93.7631 104.276 92.7631C104.276 91.7631 105.094 90.9449 106.094 90.9449H111.367C112.367 90.9449 113.185 91.7631 113.185 92.7631C113.185 93.7631 112.367 94.5812 111.367 94.5812Z" fill="white"/>
<path d="M154.331 94.5812H144.367C143.367 94.5812 142.549 93.7631 142.549 92.7631C142.549 91.7631 143.367 90.9449 144.367 90.9449H154.331C155.331 90.9449 156.149 91.7631 156.149 92.7631C156.149 93.7631 155.331 94.5812 154.331 94.5812Z" fill="white"/>
<path d="M137.385 94.5812H118.621C117.621 94.5812 116.803 93.7631 116.803 92.7631C116.803 91.7631 117.621 90.9449 118.621 90.9449H137.385C138.385 90.9449 139.203 91.7631 139.203 92.7631C139.203 93.7631 138.385 94.5812 137.385 94.5812Z" fill="white"/>
<path d="M154.33 102.636H148.549C147.549 102.636 146.73 101.818 146.73 100.818C146.73 99.8176 147.549 98.9994 148.549 98.9994H154.33C155.33 98.9994 156.149 99.8176 156.149 100.818C156.149 101.818 155.33 102.636 154.33 102.636Z" fill="white"/>
<path d="M141.294 102.636H136.003C135.003 102.636 134.185 101.818 134.185 100.818C134.185 99.8176 135.003 98.9994 136.003 98.9994H141.294C142.294 98.9994 143.112 99.8176 143.112 100.818C143.112 101.818 142.294 102.636 141.294 102.636Z" fill="white"/>
<path d="M154.33 109.727H143.094C142.094 109.727 141.276 108.909 141.276 107.909C141.276 106.909 142.094 106.09 143.094 106.09H154.33C155.33 106.09 156.149 106.909 156.149 107.909C156.149 108.909 155.33 109.727 154.33 109.727Z" fill="white"/>
<path d="M135.84 109.727H126.912C125.912 109.727 125.094 108.909 125.094 107.909C125.094 106.909 125.912 106.09 126.912 106.09H135.84C136.84 106.09 137.658 106.909 137.658 107.909C137.658 108.909 136.84 109.727 135.84 109.727Z" fill="white"/>
<path d="M97.5484 102.636H87.5848C86.5848 102.636 85.7666 101.818 85.7666 100.818C85.7666 99.8176 86.5848 98.9994 87.5848 98.9994H97.5484C98.5484 98.9994 99.3666 99.8176 99.3666 100.818C99.3666 101.818 98.5484 102.636 97.5484 102.636Z" fill="white"/>
<path d="M128.749 102.636H104.531C103.531 102.636 102.712 101.818 102.712 100.818C102.712 99.8176 103.531 98.9994 104.531 98.9994H128.749C129.749 98.9994 130.567 99.8176 130.567 100.818C130.567 101.818 129.749 102.636 128.749 102.636Z" fill="white"/>
<path d="M106.094 109.727H87.5848C86.5848 109.727 85.7666 108.909 85.7666 107.909C85.7666 106.909 86.5848 106.09 87.5848 106.09H106.094C107.094 106.09 107.912 106.909 107.912 107.909C107.912 108.909 107.112 109.727 106.094 109.727Z" fill="white"/>
<path d="M119.658 109.727H113.367C112.367 109.727 111.549 108.909 111.549 107.909C111.549 106.909 112.367 106.09 113.367 106.09H119.658C120.658 106.09 121.476 106.909 121.476 107.909C121.476 108.909 120.658 109.727 119.658 109.727Z" fill="white"/>
<path d="M113.021 131.618C112.549 131.618 112.094 131.436 111.731 131.09L106.421 125.781C105.712 125.072 105.712 123.927 106.421 123.218L111.731 117.909C112.44 117.199 113.585 117.199 114.294 117.909C115.003 118.618 115.003 119.763 114.294 120.472L110.258 124.509L114.294 128.545C115.003 129.254 115.003 130.399 114.294 131.109C113.967 131.436 113.494 131.618 113.021 131.618Z" fill="white"/>
<path d="M128.876 131.618C128.403 131.618 127.949 131.436 127.585 131.09C126.876 130.381 126.876 129.236 127.585 128.527L131.621 124.49L127.585 120.454C126.876 119.745 126.876 118.599 127.585 117.89C128.294 117.181 129.44 117.181 130.149 117.89L135.458 123.199C136.167 123.909 136.167 125.054 135.458 125.763L130.149 131.072C129.821 131.436 129.349 131.618 128.876 131.618Z" fill="white"/>
<path d="M117.512 136.145C117.312 136.145 117.112 136.108 116.912 136.036C115.967 135.708 115.458 134.672 115.803 133.727L122.694 114.054C123.021 113.108 124.058 112.599 125.003 112.945C125.949 113.272 126.458 114.308 126.112 115.254L119.221 134.927C118.967 135.672 118.258 136.145 117.512 136.145Z" fill="white"/>
</svg>
