<svg width="241" height="240" viewBox="0 0 241 240" fill="none" xmlns="http://www.w3.org/2000/svg">
<rect width="240" height="240" rx="120" transform="matrix(1 0 0 -1 0.94873 240)" fill="#FBAC35"/>
<path d="M164.949 85.5H101.449V78.5H166.948C169.995 78.5093 172.915 79.724 175.07 81.8788C177.225 84.0337 178.44 86.9539 178.449 90.0015V111.999C178.44 115.046 177.225 117.966 175.07 120.121C172.915 122.276 169.996 123.491 166.948 123.5C166.948 123.5 166.948 123.5 166.947 123.5L158.949 123.5H158.449V124L158.449 125.3L158.449 125.303C158.451 125.715 158.337 126.12 158.118 126.469C157.9 126.819 157.587 127.1 157.216 127.278C156.845 127.457 156.43 127.527 156.021 127.48C155.611 127.432 155.224 127.27 154.903 127.011L154.901 127.009L148.281 121.729C148.021 121.522 147.812 121.259 147.668 120.96C147.524 120.66 147.449 120.332 147.449 120C147.449 119.668 147.524 119.34 147.668 119.04C147.812 118.741 148.021 118.478 148.281 118.271L154.901 112.991L154.903 112.989C155.224 112.73 155.611 112.568 156.021 112.52C156.43 112.473 156.845 112.543 157.216 112.722C157.587 112.9 157.9 113.181 158.118 113.531C158.337 113.88 158.451 114.285 158.449 114.697V114.7V116V116.5H158.949H164.949C166.673 116.5 168.326 115.815 169.545 114.596C170.764 113.377 171.449 111.724 171.449 110V92C171.449 90.2761 170.764 88.6228 169.545 87.4038C168.326 86.1848 166.673 85.5 164.949 85.5Z" fill="white" stroke="black"/>
<path d="M82.9487 154.5H83.4487V154L83.4487 152.7L83.4487 152.697C83.4462 152.285 83.5608 151.88 83.779 151.531C83.9972 151.181 84.3102 150.9 84.6816 150.722C85.0529 150.543 85.4674 150.473 85.8769 150.52C86.2863 150.568 86.6739 150.73 86.9947 150.989L86.997 150.991L93.617 156.271L93.6173 156.271C93.8772 156.478 94.0871 156.741 94.2314 157.04C94.3757 157.34 94.4506 157.668 94.4506 158C94.4506 158.332 94.3757 158.66 94.2314 158.96C94.0871 159.259 93.8772 159.522 93.6173 159.729L93.617 159.729L86.997 165.009L86.9947 165.011C86.6739 165.27 86.2863 165.432 85.8769 165.48C85.4674 165.527 85.0529 165.457 84.6816 165.278C84.3102 165.1 83.9972 164.819 83.779 164.469C83.5608 164.12 83.4462 163.715 83.4487 163.303V163.3V162V161.5H82.9487L74.9502 161.5C74.9498 161.5 74.9494 161.5 74.949 161.5C71.9018 161.491 68.9822 160.276 66.8275 158.121C64.6727 155.966 63.458 153.047 63.4487 149.999V128.001C63.458 124.953 64.6727 122.034 66.8275 119.879C68.9823 117.724 71.9022 116.509 74.9495 116.5H90.9487C91.4084 116.5 91.8635 116.591 92.2881 116.766C92.7128 116.942 93.0986 117.2 93.4236 117.525C93.7486 117.85 94.0064 118.236 94.1823 118.661C94.3582 119.085 94.4487 119.54 94.4487 120C94.4487 120.928 94.08 121.818 93.4236 122.475C92.7672 123.131 91.877 123.5 90.9487 123.5H76.9487C75.2248 123.5 73.5715 124.185 72.3525 125.404C71.1336 126.623 70.4487 128.276 70.4487 130V148C70.4487 149.724 71.1335 151.377 72.3525 152.596C73.5715 153.815 75.2248 154.5 76.9487 154.5H82.9487Z" fill="white" stroke="black"/>
<path d="M126.949 154.5H127.449V154L127.449 152.7L127.449 152.697C127.446 152.285 127.561 151.88 127.779 151.531C127.997 151.181 128.31 150.9 128.682 150.722C129.053 150.543 129.467 150.473 129.877 150.52C130.286 150.568 130.674 150.73 130.995 150.989L130.997 150.991L137.617 156.271L137.617 156.271C137.877 156.478 138.087 156.741 138.231 157.04C138.376 157.34 138.451 157.668 138.451 158C138.451 158.332 138.376 158.66 138.231 158.96C138.087 159.259 137.877 159.522 137.617 159.729L137.617 159.729L130.997 165.009L130.995 165.011C130.674 165.27 130.286 165.432 129.877 165.48C129.467 165.527 129.053 165.457 128.682 165.278C128.31 165.1 127.997 164.819 127.779 164.469C127.561 164.12 127.446 163.715 127.449 163.303V163.3V162V161.5H126.949H106.949C106.02 161.5 105.13 161.131 104.474 160.475C103.817 159.819 103.449 158.928 103.449 158C103.449 157.072 103.817 156.182 104.474 155.525C105.13 154.869 106.02 154.5 106.949 154.5H126.949Z" fill="white" stroke="black"/>
<path d="M114.449 116.5V116V114.7V114.697H114.449C114.451 114.285 114.337 113.88 114.118 113.531C113.9 113.181 113.587 112.9 113.216 112.722C112.845 112.543 112.43 112.473 112.021 112.52C111.611 112.568 111.223 112.73 110.903 112.989L110.9 112.991L110.9 112.991L104.281 118.271C104.281 118.271 104.281 118.271 104.281 118.271C104.021 118.478 103.812 118.741 103.668 119.041C103.524 119.34 103.449 119.668 103.449 120C103.449 120.332 103.524 120.66 103.668 120.96C103.812 121.259 104.021 121.522 104.28 121.729L114.449 116.5ZM114.449 116.5H114.949H134.949C135.877 116.5 136.767 116.869 137.424 117.525C138.08 118.182 138.449 119.072 138.449 120C138.449 120.928 138.08 121.819 137.424 122.475C136.767 123.131 135.877 123.5 134.949 123.5H114.949H114.449V124L114.449 125.3L114.449 125.303C114.451 125.715 114.337 126.12 114.118 126.469C113.9 126.819 113.587 127.1 113.216 127.278C112.845 127.457 112.43 127.527 112.021 127.48C111.611 127.432 111.223 127.27 110.903 127.011L110.9 127.009L104.281 121.729L114.449 116.5Z" fill="white" stroke="black"/>
<path d="M82.9487 102C93.9944 102 102.949 93.0457 102.949 82C102.949 70.9543 93.9944 62 82.9487 62C71.903 62 62.9487 70.9543 62.9487 82C62.9487 93.0457 71.903 102 82.9487 102Z" fill="white"/>
<path d="M82.9485 87.7452C87.8888 87.7452 91.8937 83.7403 91.8937 78.8001C91.8937 73.8598 87.8888 69.855 82.9485 69.855C78.0083 69.855 74.0034 73.8598 74.0034 78.8001C74.0034 83.7403 78.0083 87.7452 82.9485 87.7452Z" fill="#FBAC35"/>
<path d="M158.949 178C169.994 178 178.949 169.046 178.949 158C178.949 146.954 169.994 138 158.949 138C147.903 138 138.949 146.954 138.949 158C138.949 169.046 147.903 178 158.949 178Z" fill="white"/>
<path d="M94.9487 96.78V96.8C91.4868 99.3965 87.2761 100.8 82.9487 100.8C78.6213 100.8 74.4107 99.3965 70.9487 96.8V96.78C70.954 94.6618 71.7992 92.6321 73.2989 91.1361C74.7987 89.6402 76.8305 88.8 78.9487 88.8H86.9487C89.067 88.8 91.0988 89.6402 92.5985 91.1361C94.0982 92.6321 94.9434 94.6618 94.9487 96.78Z" fill="#FBAC35"/>
<path d="M154.949 166C154.418 166 153.91 165.789 153.535 165.414L149.535 161.414C149.17 161.037 148.969 160.532 148.973 160.007C148.978 159.483 149.188 158.981 149.559 158.61C149.93 158.24 150.431 158.029 150.956 158.025C151.48 158.02 151.985 158.222 152.363 158.586L154.949 161.172L165.535 150.586C165.912 150.222 166.417 150.02 166.941 150.025C167.466 150.029 167.967 150.24 168.338 150.61C168.709 150.981 168.919 151.483 168.924 152.007C168.928 152.532 168.727 153.037 168.363 153.414L156.363 165.414C155.988 165.789 155.479 166 154.949 166Z" fill="#FBAC35"/>
</svg>
