<svg width="241" height="241" viewBox="0 0 241 241" fill="none" xmlns="http://www.w3.org/2000/svg">
<rect width="240" height="240" rx="120" transform="matrix(1 0 0 -1 0.94873 240.955)" fill="#FBAC35"/>
<mask id="mask0_3007_187" style="mask-type:luminance" maskUnits="userSpaceOnUse" x="60" y="60" width="121" height="121">
<path d="M60.9487 60.9551H180.949V180.955H60.9487V60.9551Z" fill="white"/>
</mask>
<g mask="url(#mask0_3007_187)">
<path fill-rule="evenodd" clip-rule="evenodd" d="M108.611 72.1556H106.371H99.0534H74.8894C68.7722 72.1556 63.7612 77.1642 63.7612 83.2884V146.457C63.7612 152.579 68.7722 157.588 74.8894 157.588H167.008C173.125 157.588 178.136 152.579 178.136 146.457V83.2884C178.136 77.1642 173.125 72.1556 167.008 72.1556H142.863H135.41H133.307H108.611Z" fill="white"/>
<path fill-rule="evenodd" clip-rule="evenodd" d="M136.904 167.467L135.671 157.588H102.726L101.493 167.467H136.904Z" fill="white"/>
<path fill-rule="evenodd" clip-rule="evenodd" d="M77.0397 141.198H164.858C166.717 141.198 168.247 139.675 168.247 137.816V85.6996C168.247 83.8345 166.717 82.3122 164.858 82.3122H77.0397C75.1804 82.3122 73.6509 83.8345 73.6509 85.6996V137.816C73.6509 139.675 75.1804 141.198 77.0397 141.198Z" fill="#FBAC35"/>
<path d="M142.863 72.1556H167.008C173.125 72.1556 178.136 77.1642 178.136 83.2884V146.457C178.136 152.579 173.125 157.588 167.008 157.588H74.8894C68.7722 157.588 63.7612 152.579 63.7612 146.457V83.2884C63.7612 77.1642 68.7722 72.1556 74.8894 72.1556H99.0534" stroke="#023540" stroke-width="1.5" stroke-miterlimit="10" stroke-linecap="round" stroke-linejoin="round"/>
<path d="M135.671 157.588L136.903 167.467M101.493 167.467L102.725 157.588" stroke="#023540" stroke-width="1.5" stroke-miterlimit="10" stroke-linecap="round" stroke-linejoin="round"/>
<path fill-rule="evenodd" clip-rule="evenodd" d="M106.807 94.7219C106.807 89.6404 109.49 85.1856 113.519 82.6945C115.681 81.3564 118.226 80.5856 120.949 80.5856C123.672 80.5856 126.217 81.3564 128.379 82.6945C132.408 85.1856 135.091 89.6404 135.091 94.7219C135.091 102.531 128.762 108.858 120.949 108.858C113.136 108.858 106.807 102.531 106.807 94.7219ZM106.754 72.5385L105.053 70.8381C103.768 69.5465 101.658 69.5465 100.372 70.8381L98.6714 72.5385L96.9572 74.252C95.6648 75.5371 95.6648 77.646 96.9572 78.9311L99.1327 81.1127C98.8097 81.6267 98.5064 82.154 98.223 82.6945C97.1813 84.6583 96.3902 86.7738 95.8826 88.9947H92.8233C91.0036 88.9947 89.5137 90.4841 89.5137 92.3097V97.1404C89.5137 98.9594 91.0036 100.449 92.8233 100.449H95.8957C96.5482 103.296 97.6758 105.965 99.1854 108.37L97.023 110.532C95.7307 111.817 95.7307 113.926 97.023 115.211L100.438 118.632C101.724 119.917 103.834 119.917 105.119 118.632L107.282 116.464C109.688 117.979 112.365 119.106 115.22 119.759V122.837C115.22 124.656 116.71 126.145 118.529 126.145H123.369C125.188 126.145 126.678 124.656 126.678 122.837V119.759C129.54 119.113 132.223 117.979 134.629 116.464L136.798 118.632C138.084 119.917 140.194 119.917 141.48 118.632L144.895 115.211C146.187 113.926 146.187 111.817 144.895 110.532L142.732 108.37C144.242 105.965 145.369 103.296 146.022 100.449H149.075C150.894 100.449 152.384 98.9594 152.384 97.1404V92.3097C152.384 90.4841 150.894 88.9947 149.075 88.9947H146.035C145.528 86.7738 144.736 84.6583 143.695 82.6945C143.392 82.1275 143.075 81.5739 142.732 81.0337L144.895 78.8652C146.187 77.5802 146.187 75.471 144.895 74.1862L143.246 72.5385L141.48 70.772C140.194 69.4806 138.084 69.4806 136.798 70.772L135.032 72.5385L134.629 72.9339C134.419 72.7954 134.201 72.6637 133.977 72.5385C131.715 71.2007 129.223 70.2053 126.586 69.6189V66.6072C126.586 65.8558 126.329 65.1571 125.9 64.6035C125.294 63.8127 124.344 63.2988 123.276 63.2988H118.437C117.369 63.2988 116.42 63.8127 115.813 64.6035C115.384 65.1571 115.127 65.8558 115.127 66.6072V69.6651C112.563 70.2581 110.143 71.2403 107.941 72.5385C107.691 72.6836 107.447 72.8284 107.202 72.9867L106.754 72.5385Z" fill="white"/>
<path fill-rule="evenodd" clip-rule="evenodd" d="M113.519 82.6944C109.49 85.1856 106.807 89.6406 106.807 94.7218C106.807 102.531 113.136 108.858 120.949 108.858C128.762 108.858 135.091 102.531 135.091 94.7218C135.091 89.6406 132.408 85.1856 128.379 82.6944C126.217 81.3564 123.672 80.5855 120.949 80.5855C118.226 80.5855 115.681 81.3564 113.519 82.6944Z" fill="#FBAC35"/>
<path d="M126.585 69.6188C129.48 70.2647 132.196 71.3984 134.629 72.934L136.798 70.7722C138.084 69.4805 140.193 69.4805 141.479 70.7722L144.894 74.1861C146.186 75.4711 146.186 77.5803 144.894 78.8651L142.732 81.0336C144.255 83.4455 145.382 86.1277 146.028 88.9948H149.074C150.894 88.9948 152.384 90.484 152.384 92.3096V97.1405C152.384 98.9595 150.894 100.449 149.074 100.449H146.021C145.369 103.296 144.241 105.965 142.732 108.371L144.894 110.532C146.186 111.817 146.186 113.926 144.894 115.211L141.479 118.632C140.193 119.917 138.084 119.917 136.798 118.632L134.629 116.464C132.222 117.98 129.539 119.113 126.678 119.759V122.836C126.678 124.655 125.188 126.145 123.368 126.145H118.529C116.709 126.145 115.219 124.655 115.219 122.836V119.759C112.364 119.106 109.688 117.98 107.281 116.464L105.119 118.632C103.833 119.917 101.723 119.917 100.438 118.632L97.0226 115.211C95.7302 113.926 95.7302 111.817 97.0226 110.532L99.1849 108.371C97.6687 105.965 96.5477 103.296 95.8952 100.449H92.8228C91.0031 100.449 89.5132 98.9595 89.5132 97.1405V92.3096C89.5132 90.484 91.0031 88.9948 92.8228 88.9948H95.8821C96.528 86.1608 97.6357 83.5048 99.1322 81.1126L96.9565 78.931C95.6644 77.6459 95.6644 75.537 96.9565 74.2522L100.372 70.838C101.657 69.5464 103.767 69.5464 105.053 70.838L107.202 72.9865C109.602 71.4643 112.279 70.324 115.127 69.665V66.6071C115.127 64.7881 116.617 63.2987 118.436 63.2987H123.276C125.096 63.2987 126.585 64.7881 126.585 66.6071V69.6188Z" stroke="#023540" stroke-width="1.5" stroke-miterlimit="10" stroke-linecap="round" stroke-linejoin="round"/>
<path d="M120.949 108.858C128.735 108.858 135.091 102.505 135.091 94.7219C135.091 86.9386 128.735 80.5854 120.949 80.5854C113.162 80.5854 106.807 86.9386 106.807 94.7219C106.807 102.505 113.162 108.858 120.949 108.858Z" stroke="#023540" stroke-width="1.5" stroke-miterlimit="10" stroke-linecap="round" stroke-linejoin="round"/>
<path fill-rule="evenodd" clip-rule="evenodd" d="M85.1164 178.611H152.773C153.387 178.611 153.894 178.104 153.894 177.491V171.606C153.894 169.325 152.029 167.467 149.754 167.467H141.407H96.4826H88.1293C85.8547 167.467 83.9956 169.325 83.9956 171.606V177.491C83.9956 178.104 84.4965 178.611 85.1164 178.611Z" fill="#00CCF2"/>
<path d="M153.893 171.606V177.491C153.893 178.104 153.386 178.611 152.773 178.611H85.1154C84.4957 178.611 83.9946 178.104 83.9946 177.491V171.606C83.9946 169.325 85.8539 167.467 88.1285 167.467H149.753C152.028 167.467 153.893 169.325 153.893 171.606Z" fill="white" stroke="#023540" stroke-width="1.5" stroke-miterlimit="10" stroke-linecap="round" stroke-linejoin="round"/>
</g>
</svg>
