<svg width="61" height="60" viewBox="0 0 61 60" fill="none" xmlns="http://www.w3.org/2000/svg">
<g clip-path="url(#clip0_1128_820)">
<mask id="mask0_1128_820" style="mask-type:luminance" maskUnits="userSpaceOnUse" x="0" y="0" width="61" height="60">
<path d="M0.822266 3.8147e-06H60.8223V60H0.822266V3.8147e-06Z" fill="white"/>
</mask>
<g mask="url(#mask0_1128_820)">
<path d="M25.6304 7.78472H18.5211C16.9928 7.78472 15.7539 9.02363 15.7539 10.5519V18.3284C15.7539 19.8568 16.9928 21.0956 18.5211 21.0956H43.123C44.6513 21.0956 45.8903 19.8568 45.8903 18.3284V10.5519C45.8903 9.02363 44.6513 7.78472 43.123 7.78472H36.0256H25.6304Z" fill="#FBAC35"/>
<path d="M12.5379 52.2152H4.76141C3.23316 52.2152 1.99414 50.9763 1.99414 49.4481V41.6715C1.99414 40.1431 3.23316 38.9044 4.76141 38.9044H12.5379C14.0661 38.9044 15.305 40.1431 15.305 41.6715V49.4481C15.305 50.9763 14.0661 52.2152 12.5379 52.2152Z" fill="white"/>
<path d="M34.7107 52.2152H26.9343C25.406 52.2152 24.167 50.9763 24.167 49.4481V41.6715C24.167 40.1431 25.406 38.9044 26.9343 38.9044H34.7107C36.2389 38.9044 37.4779 40.1431 37.4779 41.6715V49.4481C37.4779 50.9763 36.2389 52.2152 34.7107 52.2152Z" fill="white"/>
<path d="M56.8831 52.2152H49.1066C47.5784 52.2152 46.3394 50.9763 46.3394 49.4481V41.6715C46.3394 40.1431 47.5784 38.9044 49.1066 38.9044H56.8831C58.4113 38.9044 59.6502 40.1431 59.6502 41.6715V49.4481C59.6502 50.9763 58.4113 52.2152 56.8831 52.2152Z" fill="white"/>
<path d="M12.5379 52.2152H4.76141C3.23316 52.2152 1.99414 50.9763 1.99414 49.4481V41.6715C1.99414 40.1431 3.23316 38.9044 4.76141 38.9044H12.5379C14.0661 38.9044 15.305 40.1431 15.305 41.6715V49.4481C15.305 50.9763 14.0661 52.2152 12.5379 52.2152Z" stroke="#023540" stroke-miterlimit="10" stroke-linecap="round" stroke-linejoin="round"/>
<path d="M34.7107 52.2152H26.9343C25.406 52.2152 24.167 50.9763 24.167 49.4481V41.6715C24.167 40.1431 25.406 38.9044 26.9343 38.9044H34.7107C36.2389 38.9044 37.4779 40.1431 37.4779 41.6715V49.4481C37.4779 50.9763 36.2389 52.2152 34.7107 52.2152Z" stroke="#023540" stroke-miterlimit="10" stroke-linecap="round" stroke-linejoin="round"/>
<path d="M56.8831 52.2152H49.1066C47.5784 52.2152 46.3394 50.9763 46.3394 49.4481V41.6715C46.3394 40.1431 47.5784 38.9044 49.1066 38.9044H56.8831C58.4113 38.9044 59.6502 40.1431 59.6502 41.6715V49.4481C59.6502 50.9763 58.4113 52.2152 56.8831 52.2152Z" stroke="#023540" stroke-miterlimit="10" stroke-linecap="round" stroke-linejoin="round"/>
<path d="M8.64941 38.9044L15.005 31.1363C15.5305 30.4938 16.3168 30.1213 17.1467 30.1213H44.4501C45.28 30.1213 46.0662 30.4938 46.5917 31.1363L52.9473 38.9044" stroke="#023540" stroke-miterlimit="10" stroke-linecap="round" stroke-linejoin="round"/>
<path d="M30.8223 38.9044V21.0956" stroke="#023540" stroke-miterlimit="10" stroke-linecap="round" stroke-linejoin="round"/>
</g>
</g>
<defs>
<clipPath id="clip0_1128_820">
<rect width="60" height="60" fill="white" transform="translate(0.822266)"/>
</clipPath>
</defs>
</svg>
