<svg width="61" height="60" viewBox="0 0 61 60" fill="none" xmlns="http://www.w3.org/2000/svg">
<path d="M41.4005 47.6121C45.8063 47.6121 49.4497 47.6121 53.8555 47.6121C55.891 47.6121 57.541 45.8812 57.541 43.7461V14.1937H4.10352V43.7461C4.10352 45.8812 5.75352 47.6121 7.78906 47.6121H19.0449L19.0684 47.6004" stroke="#023540"/>
<path d="M57.4741 7.6082V14.6938H4.11523V7.6082C4.11523 5.7346 5.58419 4.24219 7.36433 4.24219H54.225C56.0052 4.24219 57.4741 5.7346 57.4741 7.6082ZM28.4826 9.54062C28.4826 7.8553 27.155 6.46367 25.484 6.46367C23.8133 6.46367 22.4842 7.85499 22.4842 9.54062C22.4842 11.226 23.813 12.6187 25.484 12.6187C27.1552 12.6187 28.4826 11.2256 28.4826 9.54062ZM20.3609 9.54062C20.3609 7.85499 19.0318 6.46367 17.3611 6.46367C15.6904 6.46367 14.3613 7.85499 14.3613 9.54062C14.3613 11.226 15.6901 12.6187 17.3611 12.6187C19.0321 12.6187 20.3609 11.226 20.3609 9.54062ZM12.2381 9.54062C12.2381 7.85499 10.909 6.46367 9.23828 6.46367C7.56728 6.46367 6.23968 7.8553 6.23968 9.54062C6.23968 11.2256 7.56699 12.6187 9.23828 12.6187C10.9093 12.6187 12.2381 11.226 12.2381 9.54062Z" fill="#FBAC35" stroke="#023540"/>
<path d="M39.1576 50.9676L39.1573 50.9678L30.8223 56.6526L22.4872 50.9678L22.4871 50.9677C21.3381 50.1847 20.2734 48.8664 19.514 47.3737C18.8128 45.9939 18.3965 44.511 18.3965 43.2328V31.4334L30.822 25.3479L43.248 31.4505V43.2328C43.248 44.5206 42.8304 46.007 42.1283 47.3851C41.3691 48.8729 40.3057 50.1855 39.1576 50.9676ZM39.7844 41.025C39.7844 39.2525 39.2588 37.5197 38.274 36.0459C37.2892 34.5721 35.8895 33.4234 34.2519 32.7451C32.6143 32.0668 30.8123 31.8893 29.0738 32.2351C27.3354 32.5809 25.7385 33.4345 24.4851 34.6878C23.2317 35.9412 22.3782 37.5381 22.0324 39.2766C21.6866 41.0151 21.864 42.817 22.5424 44.4547C23.2207 46.0923 24.3694 47.492 25.8432 48.4767C27.317 49.4615 29.0497 49.9871 30.8223 49.9871C33.1992 49.9871 35.4787 49.0428 37.1594 47.3621C38.8401 45.6814 39.7843 43.4019 39.7844 41.025Z" fill="white" stroke="#023540"/>
<path d="M30.8225 49.4871C35.496 49.4871 39.2846 45.6985 39.2846 41.025C39.2846 36.3515 35.496 32.5629 30.8225 32.5629C26.149 32.5629 22.3604 36.3515 22.3604 41.025C22.3604 45.6985 26.149 49.4871 30.8225 49.4871Z" fill="#FBAC35"/>
<path d="M34.2902 38.0657L29.6068 42.4855L27.3757 40.1945C27.2455 40.0609 27.0677 39.9844 26.8812 39.9819C26.6946 39.9794 26.5148 40.0511 26.3811 40.1812C26.2475 40.3113 26.171 40.4892 26.1685 40.6757C26.166 40.8622 26.2377 41.0421 26.3678 41.1757L29.0819 43.9624C29.2107 44.0946 29.3863 44.1709 29.5708 44.1748C29.7553 44.1787 29.9339 44.1099 30.0682 43.9832L35.2549 39.0884C35.3228 39.0252 35.3776 38.9492 35.416 38.8648C35.4544 38.7803 35.4758 38.6891 35.4788 38.5964C35.4818 38.5037 35.4665 38.4113 35.4336 38.3245C35.4008 38.2378 35.3511 38.1584 35.2874 38.0909C35.2237 38.0234 35.1473 37.9692 35.0626 37.9314C34.9779 37.8936 34.8866 37.8729 34.7938 37.8706C34.7011 37.8682 34.6088 37.8843 34.5223 37.9178C34.4358 37.9512 34.3567 38.0015 34.2897 38.0657H34.2902Z" fill="#023540"/>
</svg>
