<svg width="61" height="60" viewBox="0 0 61 60" fill="none" xmlns="http://www.w3.org/2000/svg">
<path d="M6.8879 5.64441H54.1119C56.8776 5.64441 59.1209 7.88654 59.1209 10.6534V12.1684L53.614 19.2022H6.81579L1.87891 12.1826V10.6534C1.87891 7.88665 4.12218 5.64441 6.8879 5.64441Z" fill="#FBAC35" stroke="#023540"/>
<path d="M59.1209 12.8407V49.3464C59.1209 52.1132 56.8776 54.3554 54.1119 54.3554H6.8879C4.12218 54.3554 1.87891 52.1132 1.87891 49.3464V12.8407H59.1209Z" fill="#F9F7F8" stroke="#023540"/>
<path d="M34.217 41.1904L37.6281 31.9298C37.7754 31.2479 37.0234 30.7294 36.4385 31.1094L28.9993 37.6423L27.5908 39.1778L32.7987 42.918L34.217 41.1904Z" fill="#FBAC35"/>
<path d="M33.7172 41.1316C33.7172 42.9408 32.2506 44.4074 30.4414 44.4074C28.6322 44.4074 27.1655 42.9408 27.1655 41.1316C27.1655 39.3224 28.6322 37.8557 30.4414 37.8557C32.2506 37.8557 33.7172 39.3224 33.7172 41.1316Z" fill="white" stroke="#023540"/>
<path d="M37.9135 18.3881C42.6918 20.0711 46.7321 23.3222 49.4138 27.5243L49.6795 29.6851L46.4176 31.1348L45.2725 30.5058C43.2293 27.1846 40.101 24.6004 36.3814 23.2502L35.283 21.5822L36.4271 18.8557L37.9135 18.3881Z" fill="white" stroke="#023540"/>
<path d="M52.925 39.0099L52.925 39.0109C52.9264 39.0629 52.8836 39.109 52.8279 39.109H47.9263C47.8758 39.109 47.8333 39.0696 47.8316 39.0157L47.8315 39.0154C47.7345 36.1153 46.9271 33.3948 45.5784 31.0228L49.7501 28.0679C51.6756 31.2813 52.8209 35.0148 52.925 39.0099Z" fill="#FBAC35" stroke="#023540"/>
<path d="M11.4863 27.497C14.1737 23.2993 18.2181 20.0538 22.9992 18.3776L24.9227 18.7422L25.6939 22.0411L24.5481 23.2333C20.8045 24.58 17.6561 27.1754 15.6045 30.5151L14.1586 31.3869L11.4863 29.466V27.497Z" fill="white" stroke="#023540"/>
<path d="M23.589 18.1799C25.749 17.4896 28.0511 17.1173 30.4411 17.1173C32.8311 17.1173 35.1333 17.4896 37.2933 18.1799L35.7346 23.0296C34.0648 22.4965 32.2855 22.2091 30.4411 22.2091C28.5967 22.2091 26.8174 22.4965 25.1476 23.0296L23.589 18.1799Z" fill="white" stroke="#023540"/>
<path d="M13.051 39.0154L13.051 39.0157C13.0492 39.0696 13.0067 39.109 12.9562 39.109H8.05462C7.99899 39.109 7.95611 39.0629 7.95756 39.0109L7.95759 39.0099C8.06168 35.0148 9.20692 31.2813 11.1325 28.0679L15.3041 31.0228C13.9554 33.3948 13.1481 36.1153 13.051 39.0154Z" fill="white" stroke="#023540"/>
<path d="M6.78279 7.97485C6.29697 7.97485 5.90332 8.3685 5.90332 8.85432C5.90332 9.34014 6.29697 9.73379 6.78279 9.73379H7.15217C7.63799 9.73379 8.03164 9.34014 8.03164 8.85432C8.03164 8.3685 7.63799 7.97485 7.15217 7.97485H6.78279Z" fill="#023540"/>
<path d="M11.0928 7.97485C10.607 7.97485 10.2134 8.3685 10.2134 8.85432C10.2134 9.34014 10.607 9.73379 11.0928 9.73379H11.4622C11.948 9.73379 12.3417 9.34014 12.3417 8.85432C12.3417 8.3685 11.948 7.97485 11.4622 7.97485H11.0928Z" fill="#023540"/>
<path d="M15.4034 7.97485C14.9176 7.97485 14.5239 8.3685 14.5239 8.85432C14.5239 9.34014 14.9176 9.73379 15.4034 9.73379H15.7728C16.2586 9.73379 16.6522 9.34014 16.6522 8.85432C16.6522 8.3685 16.2586 7.97485 15.7728 7.97485H15.4034Z" fill="#023540"/>
</svg>
