<svg width="31" height="31" viewBox="0 0 31 31" fill="none" xmlns="http://www.w3.org/2000/svg">
<g clip-path="url(#clip0_1100_3369)">
<path d="M7.04684 15.0317V15.5172C7.04684 15.807 6.86045 16.0638 6.58494 16.1537C6.27902 16.2536 5.98348 16.3763 5.70035 16.5201C5.4416 16.6516 5.12789 16.6023 4.92269 16.3971L4.57934 16.0537C4.31766 15.792 3.89332 15.792 3.63164 16.0537L2.48906 17.1963C2.22738 17.458 2.22738 17.8823 2.48906 18.144L2.83242 18.4874C3.03762 18.6925 3.08689 19.0063 2.95547 19.265C2.81168 19.5481 2.68893 19.8437 2.58908 20.1496C2.49914 20.4251 2.24232 20.6115 1.95252 20.6115H1.46701C1.09687 20.6115 0.796875 20.9116 0.796875 21.2816V22.8975C0.796875 23.2676 1.09693 23.5677 1.46701 23.5677H1.95252C2.24232 23.5677 2.49914 23.7541 2.58908 24.0296C2.68893 24.3355 2.81168 24.631 2.95547 24.9141C3.08689 25.1729 3.03768 25.4866 2.83242 25.6918L2.48906 26.0352C2.22738 26.2968 2.22738 26.7212 2.48906 26.9829L3.63164 28.1254C3.89332 28.3871 4.31766 28.3871 4.57934 28.1254L4.92269 27.7821C5.12789 27.5769 5.4416 27.5276 5.70035 27.659C5.98348 27.8028 6.27902 27.9256 6.58494 28.0254C6.86045 28.1153 7.04684 28.3722 7.04684 28.662V29.1475C7.04684 29.5176 7.34689 29.8176 7.71697 29.8176H9.33287C9.70301 29.8176 10.003 29.5176 10.003 29.1475V28.662C10.003 28.3722 10.1894 28.1154 10.4649 28.0254C10.7708 27.9256 11.0664 27.8028 11.3495 27.659C11.6082 27.5276 11.922 27.5768 12.1271 27.7821L12.4705 28.1254C12.7322 28.3871 13.1565 28.3871 13.4182 28.1254L14.5608 26.9829C14.8225 26.7212 14.8225 26.2968 14.5608 26.0352L14.2175 25.6918C14.0123 25.4866 13.963 25.1729 14.0944 24.9141C14.2382 24.631 14.361 24.3355 14.4608 24.0296C14.5507 23.7541 14.8076 23.5677 15.0974 23.5677H15.5829M11.5378 22.4247C11.3711 23.9411 10.0857 25.1208 8.52492 25.1208C6.85084 25.1208 5.49375 23.7637 5.49375 22.0896C5.49375 20.5288 6.67342 19.2435 8.18982 19.0767" stroke="#FBAC35" stroke-miterlimit="10" stroke-linecap="round" stroke-linejoin="round"/>
<path d="M28.4281 10.5275H27.6963C27.2595 10.5275 26.8724 10.2466 26.7369 9.83124C26.5864 9.37011 26.4013 8.92462 26.1846 8.49788C25.9864 8.10782 26.0607 7.63503 26.37 7.32571L26.8876 6.80815C27.282 6.4137 27.282 5.77409 26.8876 5.37964L25.1653 3.65733C24.7708 3.26288 24.1312 3.26288 23.7367 3.65733L23.2192 4.17489C22.9099 4.48421 22.437 4.55845 22.047 4.36034C21.6202 4.1436 21.1747 3.95856 20.7136 3.80804C20.2983 3.67251 20.0174 3.28538 20.0174 2.84856V2.11679C20.0174 1.55892 19.5652 1.10669 19.0073 1.10669H16.5716C16.0137 1.10669 15.5615 1.55892 15.5615 2.11679V2.84856C15.5615 3.28538 15.2806 3.67251 14.8653 3.80804C14.4042 3.95851 13.9587 4.1436 13.5319 4.36034C13.1419 4.55845 12.6691 4.48421 12.3597 4.17489L11.8421 3.65733C11.4477 3.26288 10.8081 3.26288 10.4136 3.65733L8.69133 5.37964C8.29688 5.77409 8.29688 6.4137 8.69133 6.80815L9.20889 7.32571C9.5182 7.63503 9.59244 8.10788 9.39434 8.49794C9.1776 8.92468 8.99256 9.37017 8.84203 9.8313C8.7065 10.2466 8.31938 10.5275 7.8825 10.5275H7.15072C6.59285 10.5275 6.14062 10.9797 6.14062 11.5376V13.9733C6.14062 14.5312 6.59285 14.9834 7.15072 14.9834H7.8825C8.31932 14.9834 8.70645 15.2643 8.84197 15.6796C8.99244 16.1407 9.17754 16.5862 9.39428 17.013C9.59238 17.403 9.51814 17.8758 9.20883 18.1852L8.69127 18.7027C8.29682 19.0972 8.29682 19.7368 8.69127 20.1313L10.4136 21.8536C10.808 22.248 11.4476 22.248 11.8421 21.8536L12.3596 21.336C12.669 21.0267 13.1418 20.9525 13.5319 21.1506C13.9586 21.3673 14.4041 21.5523 14.8652 21.7029C15.2805 21.8384 15.5614 22.2255 15.5614 22.6623V23.3941C15.5614 23.952 16.0137 24.4042 16.5715 24.4042H19.0072C19.5651 24.4042 20.0173 23.952 20.0173 23.3941V22.6623C20.0173 22.2255 20.2982 21.8384 20.7135 21.7029C21.1747 21.5523 21.6202 21.3673 22.0469 21.1506C22.437 20.9525 22.9097 21.0267 23.2191 21.336L23.7367 21.8536C24.1311 22.248 24.7707 22.248 25.1652 21.8536L26.8875 20.1313C27.282 19.7368 27.282 19.0972 26.8875 18.7027L26.3699 18.1852C26.0606 17.8759 25.9864 17.403 26.1845 17.013C26.4012 16.5863 26.5863 16.1408 26.7368 15.6797C26.8723 15.2644 27.2595 14.9834 27.6963 14.9834H28.428C28.9859 14.9834 29.4381 14.5312 29.4381 13.9733V11.5375C29.4382 10.9797 28.986 10.5275 28.4281 10.5275ZM17.7895 18.6361C14.5416 18.6361 11.9088 16.0032 11.9088 12.7554C11.9088 9.50757 14.5416 6.87472 17.7895 6.87472C21.0373 6.87472 23.6702 9.50763 23.6702 12.7554C23.6702 16.0032 21.0373 18.6361 17.7895 18.6361Z" stroke="#FBAC35" stroke-miterlimit="10" stroke-linecap="round" stroke-linejoin="round"/>
<path d="M18.8431 10.7678L18.7623 10.7053C18.5847 10.5821 18.1255 10.3353 17.4958 10.525C16.7455 10.751 16.5592 11.7776 17.069 12.1775C17.3618 12.4072 17.8023 12.596 18.3961 12.8058C19.7249 13.2755 19.2337 15.1495 17.882 15.1585C17.3545 15.162 17.1079 15.1285 16.6445 14.8254" stroke="#FBAC35" stroke-miterlimit="10" stroke-linecap="round" stroke-linejoin="round"/>
<path d="M17.8828 15.1585V15.8425" stroke="#FBAC35" stroke-miterlimit="10" stroke-linecap="round" stroke-linejoin="round"/>
<path d="M17.8828 9.82304V10.4557" stroke="#FBAC35" stroke-miterlimit="10" stroke-linecap="round" stroke-linejoin="round"/>
</g>
<defs>
<clipPath id="clip0_1100_3369">
<rect width="30" height="30" fill="white" transform="translate(0.117188 0.462158)"/>
</clipPath>
</defs>
</svg>
