<svg width="31" height="31" viewBox="0 0 31 31" fill="none" xmlns="http://www.w3.org/2000/svg">
<g clip-path="url(#clip0_1272_4000)">
<path d="M7.46139 15.256V15.7415C7.46139 16.0313 7.275 16.2881 6.99949 16.3781C6.69357 16.4779 6.39803 16.6006 6.1149 16.7444C5.85615 16.8759 5.54244 16.8266 5.33725 16.6214L4.99389 16.278C4.73221 16.0164 4.30787 16.0164 4.04619 16.278L2.90361 17.4206C2.64193 17.6823 2.64193 18.1066 2.90361 18.3683L3.24697 18.7117C3.45217 18.9169 3.50145 19.2306 3.37002 19.4893C3.22623 19.7724 3.10348 20.068 3.00363 20.3739C2.91369 20.6494 2.65687 20.8358 2.36707 20.8358H1.88156C1.51143 20.8358 1.21143 21.1359 1.21143 21.5059V23.1218C1.21143 23.4919 1.51148 23.792 1.88156 23.792H2.36707C2.65687 23.792 2.91369 23.9784 3.00363 24.2539C3.10348 24.5598 3.22623 24.8553 3.37002 25.1385C3.50145 25.3972 3.45223 25.7109 3.24697 25.9161L2.90361 26.2595C2.64193 26.5212 2.64193 26.9455 2.90361 27.2072L4.04619 28.3498C4.30787 28.6114 4.73221 28.6114 4.99389 28.3498L5.33725 28.0064C5.54244 27.8012 5.85615 27.7519 6.1149 27.8833C6.39803 28.0271 6.69357 28.1499 6.99949 28.2497C7.275 28.3396 7.46139 28.5965 7.46139 28.8863V29.3718C7.46139 29.7419 7.76145 30.0419 8.13152 30.0419H9.74742C10.1176 30.0419 10.4176 29.7419 10.4176 29.3718V28.8863C10.4176 28.5965 10.6039 28.3397 10.8795 28.2497C11.1854 28.1499 11.4809 28.0271 11.764 27.8833C12.0228 27.7519 12.3365 27.8011 12.5417 28.0064L12.8851 28.3498C13.1467 28.6114 13.5711 28.6114 13.8328 28.3498L14.9754 27.2072C15.2371 26.9455 15.2371 26.5212 14.9754 26.2595L14.632 25.9161C14.4268 25.7109 14.3776 25.3972 14.509 25.1385C14.6528 24.8553 14.7755 24.5598 14.8754 24.2539C14.9653 23.9784 15.2221 23.792 15.5119 23.792H15.9974M11.9524 22.649C11.7856 24.1654 10.5003 25.3451 8.93947 25.3451C7.26539 25.3451 5.9083 23.988 5.9083 22.314C5.9083 20.7531 7.08797 19.4678 8.60437 19.3011" stroke="#FBAC35" stroke-miterlimit="10" stroke-linecap="round" stroke-linejoin="round"/>
<path d="M28.8427 10.7518H28.1109C27.6741 10.7518 27.2869 10.4709 27.1514 10.0556C27.0009 9.59447 26.8158 9.14898 26.5991 8.72225C26.401 8.33219 26.4752 7.85939 26.7846 7.55008L27.3021 7.03252C27.6966 6.63807 27.6966 5.99846 27.3021 5.604L25.5798 3.8817C25.1854 3.48725 24.5457 3.48725 24.1513 3.8817L23.6337 4.39926C23.3244 4.70857 22.8516 4.78281 22.4615 4.58471C22.0348 4.36797 21.5893 4.18293 21.1281 4.0324C20.7129 3.89687 20.4319 3.50975 20.4319 3.07293V2.34115C20.4319 1.78328 19.9797 1.33105 19.4218 1.33105H16.9862C16.4283 1.33105 15.9761 1.78328 15.9761 2.34115V3.07293C15.9761 3.50975 15.6952 3.89687 15.2798 4.0324C14.8187 4.18287 14.3732 4.36797 13.9465 4.58471C13.5564 4.78281 13.0836 4.70857 12.7743 4.39926L12.2567 3.8817C11.8622 3.48725 11.2226 3.48725 10.8282 3.8817L9.10588 5.604C8.71143 5.99846 8.71143 6.63807 9.10588 7.03252L9.62344 7.55008C9.93275 7.85939 10.007 8.33225 9.80889 8.7223C9.59215 9.14904 9.40711 9.59453 9.25658 10.0557C9.12105 10.4709 8.73393 10.7519 8.29705 10.7519H7.56527C7.0074 10.7519 6.55518 11.2041 6.55518 11.762V14.1977C6.55518 14.7555 7.0074 15.2078 7.56527 15.2078H8.29705C8.73387 15.2078 9.121 15.4887 9.25652 15.904C9.40699 16.3651 9.59209 16.8106 9.80883 17.2373C10.0069 17.6274 9.9327 18.1002 9.62338 18.4095L9.10582 18.9271C8.71137 19.3216 8.71137 19.9612 9.10582 20.3556L10.8281 22.0779C11.2226 22.4724 11.8622 22.4724 12.2566 22.0779L12.7742 21.5604C13.0835 21.2511 13.5564 21.1768 13.9464 21.3749C14.3732 21.5917 14.8187 21.7767 15.2798 21.9272C15.695 22.0628 15.976 22.4499 15.976 22.8867V23.6185C15.976 24.1763 16.4282 24.6286 16.9861 24.6286H19.4218C19.9796 24.6286 20.4319 24.1763 20.4319 23.6185V22.8867C20.4319 22.4499 20.7128 22.0628 21.1281 21.9272C21.5892 21.7767 22.0347 21.5917 22.4614 21.3749C22.8515 21.1768 23.3243 21.2511 23.6337 21.5604L24.1512 22.0779C24.5457 22.4724 25.1853 22.4724 25.5797 22.0779L27.3021 20.3556C27.6965 19.9612 27.6965 19.3216 27.3021 18.9271L26.7845 18.4095C26.4752 18.1002 26.4009 17.6274 26.599 17.2374C26.8158 16.8106 27.0008 16.3652 27.1513 15.904C27.2869 15.4888 27.674 15.2078 28.1108 15.2078H28.8426C29.4005 15.2078 29.8527 14.7556 29.8527 14.1977V11.7619C29.8528 11.204 29.4005 10.7518 28.8427 10.7518ZM18.204 18.8605C14.9562 18.8605 12.3233 16.2276 12.3233 12.9798C12.3233 9.73193 14.9562 7.09908 18.204 7.09908C21.4519 7.09908 24.0847 9.73199 24.0847 12.9798C24.0847 16.2276 21.4519 18.8605 18.204 18.8605Z" stroke="#FBAC35" stroke-miterlimit="10" stroke-linecap="round" stroke-linejoin="round"/>
<path d="M19.2582 10.9921L19.1774 10.9297C18.9998 10.8065 18.5405 10.5597 17.9109 10.7493C17.1606 10.9753 16.9742 12.002 17.4841 12.4019C17.7769 12.6315 18.2174 12.8203 18.8111 13.0302C20.1399 13.4999 19.6487 15.3738 18.297 15.3829C17.7696 15.3864 17.5229 15.3529 17.0596 15.0498" stroke="#FBAC35" stroke-miterlimit="10" stroke-linecap="round" stroke-linejoin="round"/>
<path d="M18.2974 15.3828V16.0668" stroke="#FBAC35" stroke-miterlimit="10" stroke-linecap="round" stroke-linejoin="round"/>
<path d="M18.2974 10.0474V10.68" stroke="#FBAC35" stroke-miterlimit="10" stroke-linecap="round" stroke-linejoin="round"/>
</g>
<defs>
<clipPath id="clip0_1272_4000">
<rect width="30" height="30" fill="white" transform="translate(0.532227 0.686523)"/>
</clipPath>
</defs>
</svg>
