<svg width="291" height="263" viewBox="0 0 291 263" fill="none" xmlns="http://www.w3.org/2000/svg">
<mask id="mask0_1240_3005" style="mask-type:luminance" maskUnits="userSpaceOnUse" x="1" y="104" width="267" height="159">
<path d="M1.02734 241.955C1.02734 253.194 10.1382 262.305 21.3773 262.305H247.415C258.654 262.305 267.765 253.194 267.765 241.955V104.427H1.02734V241.955Z" fill="white"/>
</mask>
<g mask="url(#mask0_1240_3005)">
<path d="M1.02734 241.955C1.02734 253.194 10.1382 262.305 21.3773 262.305H247.415C258.654 262.305 267.765 253.194 267.765 241.955V104.427H1.02734V241.955Z" fill="white"/>
<path d="M-12.9303 139.495C-9.81358 129.498 0.0536156 121.825 10.8284 121.013C21.6066 120.2 32.6065 126.3 37.3238 135.706C43.0576 135.654 48.7106 138.834 51.4966 143.681C54.2826 148.528 54.0856 154.839 51.0041 159.507C57.8355 160.689 63.9634 165.185 66.9851 171.221C70.0068 177.258 69.8415 184.687 66.5559 190.583C74.0733 186.762 83.6837 187.111 90.895 191.462C98.1063 195.817 102.651 204.013 102.398 212.224C107.08 204.879 116.057 200.302 124.982 200.71C133.906 201.118 142.415 206.49 146.383 214.229C150.573 201.692 161.745 191.575 174.961 188.338C188.181 185.106 203.008 188.862 212.9 197.952C227.776 200.281 238.621 216.434 234.745 230.495C242.783 237.147 246.888 247.956 245.21 258.042C243.528 268.124 236.12 277.129 226.334 280.981L-29.6464 280.815L-51.4668 183.153L-12.9338 139.491L-12.9303 139.495Z" fill="#E0E0E0"/>
<g opacity="0.8">
<path d="M-16.9903 171.932C-13.9686 161.931 -4.43206 154.252 5.98036 153.428C16.3928 152.609 27.0163 158.698 31.5647 168.101C37.1051 168.045 42.5646 171.217 45.2521 176.065C47.9396 180.912 47.7461 187.223 44.7631 191.891C51.3624 193.07 57.2791 197.558 60.1953 203.595C63.1115 209.631 62.9462 217.057 59.7662 222.956C67.0303 219.129 76.317 219.47 83.2821 223.818C90.2472 228.166 94.6302 236.362 94.3804 244.569C98.9077 237.22 107.586 232.637 116.208 233.038C124.83 233.439 133.044 238.803 136.874 246.539C140.93 234.002 151.733 223.871 164.506 220.627C177.279 217.384 191.603 221.13 201.154 230.213C215.523 232.528 225.989 248.674 222.232 262.738C229.992 269.383 233.953 280.189 232.32 290.274C230.688 300.36 223.523 309.369 214.067 313.228L-33.2456 313.266L-54.2499 215.622L-16.9868 171.932H-16.9903Z" fill="white"/>
</g>
<path opacity="0.21" d="M179.629 108.831C105.543 178.503 53.0057 197.287 -13.18 204.006L-17.5771 274.36L51.8976 298.105C112.578 296.346 170.842 208.502 206.832 133.142L179.626 108.834" fill="#FBAC35"/>
</g>
<path d="M247.415 262.745H21.3776C9.91336 262.745 0.587891 253.419 0.587891 241.955V103.987H268.205V241.955C268.205 253.419 258.879 262.745 247.415 262.745ZM1.46732 104.866V241.955C1.46732 252.934 10.3988 261.865 21.3776 261.865H247.415C258.394 261.865 267.325 252.934 267.325 241.955V104.866H1.46732Z" fill="#023540"/>
<path d="M247.415 51.1475H21.3773C10.1382 51.1475 1.02734 60.2548 1.02734 71.4974V104.43H267.765V71.4974C267.765 60.2548 258.654 51.1475 247.415 51.1475Z" fill="white"/>
<path d="M268.205 104.867H0.587891V71.494C0.587891 60.0298 9.91336 50.7043 21.3776 50.7043H247.415C258.879 50.7043 268.205 60.0298 268.205 71.494V104.867ZM1.46732 103.987H267.325V71.494C267.325 60.5152 258.394 51.5838 247.415 51.5838H21.3776C10.3988 51.5838 1.46732 60.5152 1.46732 71.494V103.987Z" fill="#023540"/>
<path d="M38.8212 79.9943C40.0466 73.9549 36.1441 68.0656 30.1047 66.8401C24.0653 65.6147 18.1759 69.5172 16.9505 75.5566C15.725 81.596 19.6275 87.4854 25.667 88.7108C31.7064 89.9362 37.5957 86.0338 38.8212 79.9943Z" fill="#FBAC35"/>
<path d="M68.6537 85.6774C73.0113 81.3198 73.0113 74.2549 68.6537 69.8973C64.2962 65.5398 57.2312 65.5398 52.8737 69.8973C48.5161 74.2549 48.5161 81.3198 52.8737 85.6774C57.2312 90.0349 64.2962 90.0349 68.6537 85.6774Z" fill="white"/>
<path d="M60.7617 89.385C54.3665 89.385 49.1638 84.1823 49.1638 77.7871C49.1638 71.3919 54.3665 66.1892 60.7617 66.1892C67.1569 66.1892 72.3596 71.3919 72.3596 77.7871C72.3596 84.1823 67.1569 89.385 60.7617 89.385ZM60.7617 67.0722C54.852 67.0722 50.0432 71.8809 50.0432 77.7906C50.0432 83.7004 54.852 88.5091 60.7617 88.5091C66.6715 88.5091 71.4802 83.7004 71.4802 77.7906C71.4802 71.8809 66.6715 67.0722 60.7617 67.0722Z" fill="#023540"/>
<path d="M145.694 67.139H101.268C95.3876 67.139 90.6202 71.9064 90.6202 77.7872V77.7907C90.6202 83.6715 95.3876 88.4388 101.268 88.4388H145.694C151.574 88.4388 156.342 83.6715 156.342 77.7907V77.7872C156.342 71.9064 151.574 67.139 145.694 67.139Z" fill="white"/>
<path d="M145.693 88.875H101.271C95.1576 88.875 90.1836 83.901 90.1836 77.7872C90.1836 71.6734 95.1576 66.6993 101.271 66.6993H145.693C151.807 66.6993 156.781 71.6734 156.781 77.7872C156.781 83.901 151.807 88.875 145.693 88.875ZM101.271 67.5753C95.643 67.5753 91.063 72.1553 91.063 77.7837C91.063 83.412 95.643 87.992 101.271 87.992H145.693C151.321 87.992 155.901 83.412 155.901 77.7837C155.901 72.1553 151.321 67.5753 145.693 67.5753H101.271Z" fill="#023540"/>
<path d="M205.466 65.0683L178.972 44.0886C181.261 41.355 184.715 39.8274 188.973 38.8936C192.996 38.0114 197.664 37.6738 202.63 37.3145C203.165 37.2757 203.704 37.2367 204.247 37.1968C214.066 36.4729 224.849 35.4405 233.476 29.6988L205.466 65.0683Z" fill="white" stroke="black"/>
<path d="M178.268 44.1719C176.903 47.8057 177.642 51.8932 180.196 54.8165L199.526 76.9569L205.548 65.7741L178.268 44.1719Z" fill="#FBAC35"/>
<path d="M273.12 118.641L246.626 97.6615L274.636 62.2913C271.024 72.0037 272.491 82.7365 274.037 92.4606C274.122 92.997 274.207 93.5302 274.292 94.0599C275.081 98.9766 275.822 103.597 275.885 107.716C275.952 112.075 275.256 115.787 273.12 118.641Z" fill="white" stroke="black"/>
<path d="M273.204 119.345C269.981 121.505 265.83 121.723 262.401 119.908L236.419 106.168L245.924 97.7432L273.204 119.345Z" fill="#FBAC35"/>
<path d="M290.588 0.0704346L266.298 8.98783L287.475 25.7568L290.588 0.0704346Z" fill="#FBAC35"/>
<path d="M266.209 9.55364L286.953 25.9803C283.479 63.996 255.417 99.5178 221.238 119.365L190.345 94.9273C203.49 53.8201 227.848 24.4192 266.209 9.55364Z" fill="white" stroke="black"/>
<path d="M189.767 95.1049L176.133 104.546L215.127 135.425L221.195 119.968L189.767 95.1049Z" fill="#FBAC35"/>
<path d="M258.904 56.7457C266.904 55.7946 272.619 48.538 271.668 40.5376C270.716 32.5372 263.46 26.8227 255.459 27.7739C247.459 28.725 241.745 35.9817 242.696 43.982C243.647 51.9824 250.904 57.6969 258.904 56.7457Z" fill="#023540"/>
<path d="M258.286 52.5933L258.194 51.7174C259.031 51.6294 259.851 51.4289 260.639 51.1229L260.955 51.9425C260.101 52.2732 259.2 52.4913 258.286 52.5897V52.5933ZM255.538 52.5229C254.627 52.3787 253.744 52.1149 252.907 51.7349L253.269 50.9329C254.036 51.2776 254.845 51.5204 255.675 51.654L255.538 52.5229ZM263.358 50.6198L262.837 49.9128C263.509 49.4132 264.118 48.8258 264.642 48.1645L265.331 48.7097C264.758 49.4344 264.097 50.0746 263.358 50.6198ZM250.575 50.2821C249.861 49.6947 249.231 49.0193 248.7 48.2735L249.417 47.7634C249.903 48.4459 250.48 49.065 251.134 49.6032L250.575 50.2821ZM266.404 47.0529L265.623 46.6483C266.01 45.9026 266.299 45.1076 266.478 44.2844L267.337 44.4709C267.14 45.3714 266.827 46.2403 266.401 47.0529H266.404ZM247.419 45.8428C247.103 44.9809 246.902 44.0804 246.821 43.1623L247.697 43.0849C247.771 43.9256 247.954 44.7523 248.246 45.5403L247.419 45.8428ZM266.686 41.7763C266.644 40.9321 266.489 40.1019 266.229 39.3034L267.066 39.0325C267.351 39.9049 267.516 40.8125 267.565 41.7306L266.686 41.7763ZM247.81 40.5732L246.944 40.4185C247.106 39.5109 247.388 38.6315 247.782 37.8013L248.577 38.1777C248.218 38.9375 247.958 39.7431 247.81 40.5697V40.5732ZM265.142 37.0379C264.681 36.3379 264.128 35.6977 263.495 35.1349L264.079 34.477C264.769 35.0891 265.374 35.7892 265.877 36.556L265.142 37.0379ZM249.941 36.0706L249.273 35.5007C249.871 34.8007 250.557 34.1816 251.317 33.6645L251.813 34.3926C251.12 34.864 250.49 35.4303 249.941 36.0741V36.0706ZM261.413 33.7278C260.66 33.3514 259.858 33.0805 259.035 32.9187L259.204 32.0569C260.104 32.2363 260.98 32.5318 261.803 32.9433L261.413 33.7313V33.7278ZM254.057 33.2599L253.769 32.4297C254.634 32.1307 255.542 31.9443 256.46 31.881L256.523 32.7604C255.682 32.8202 254.852 32.9891 254.057 33.2634V33.2599Z" fill="#FEEDD4"/>
</svg>
