<svg width="80" height="81" viewBox="0 0 80 81" fill="none" xmlns="http://www.w3.org/2000/svg">
<g clip-path="url(#clip0_1240_2823)">
<path d="M78.6117 38.6818C78.6117 59.6779 61.3628 76.7007 40.0876 76.7007C18.8124 76.7007 1.56348 59.6779 1.56348 38.6818C1.56348 17.6856 18.8124 0.662842 40.0876 0.662842C61.3628 0.662842 78.6117 17.6856 78.6117 38.6818Z" fill="white"/>
<path d="M79.6684 39.2649C79.6684 29.2711 75.8518 19.8265 68.924 12.5607L68.9431 12.5494L68.3216 11.9285L67.8488 11.4544L67.8335 11.4657C60.3948 4.24496 50.5961 0.271484 40.1491 0.271484C29.7021 0.271484 20.2007 4.12831 12.8116 11.1308L12.8002 11.1195L12.3198 11.5899L11.6906 12.207L11.7059 12.2182C4.97256 19.1003 1.0988 28.003 0.679397 37.5378H0.587891V39.0655H0.641269C0.641269 39.1332 0.637457 39.201 0.637457 39.2687C0.637457 49.3642 4.51503 58.8764 11.5534 66.1649L11.5343 66.1762L12.1482 66.782C12.1482 66.782 12.152 66.7858 12.1558 66.7895L12.6362 67.2636L12.6515 67.2523C20.0635 74.3527 29.7974 78.2622 40.1491 78.2622C50.5007 78.2622 60.5245 74.2322 67.9861 66.9174L68.0013 66.9287L68.4665 66.4546C68.4665 66.4546 68.4703 66.4509 68.4741 66.4471L69.0879 65.8225L69.0727 65.8074C75.9052 58.5604 79.6684 49.1723 79.6684 39.2612V39.2649ZM78.1204 39.2649C78.1204 48.8449 74.4716 57.9245 67.8297 64.9044C67.742 64.8404 67.6467 64.784 67.559 64.7238C66.9375 64.2873 66.3122 63.8659 65.6679 63.467C65.6069 63.4294 65.5497 63.388 65.4887 63.3541C64.7681 62.9063 64.0322 62.4887 63.2887 62.0823C63.1782 62.0221 63.0676 61.9657 62.9608 61.9092C61.4205 61.0889 59.8267 60.3627 58.1873 59.7268C58.1606 59.7155 58.1339 59.7042 58.1072 59.693C60.8791 53.951 62.2784 47.3135 62.2784 39.8068C62.2784 39.5547 62.2631 39.3139 62.2593 39.0655H78.1127C78.1127 39.1332 78.1166 39.201 78.1166 39.2687L78.1204 39.2649ZM14.1537 66.1423C14.4091 65.9579 14.6722 65.7811 14.9315 65.6042C15.1298 65.4725 15.3242 65.3371 15.5225 65.2054C15.7932 65.0285 16.0715 64.8555 16.346 64.6824C16.5367 64.562 16.7311 64.4416 16.9256 64.3211C17.223 64.1405 17.5242 63.9712 17.8292 63.7981C18.0084 63.6965 18.1838 63.5912 18.363 63.4933C18.7481 63.2826 19.1408 63.0794 19.5373 62.88C19.6364 62.8311 19.7318 62.7747 19.8347 62.7257C20.3227 62.4812 20.8146 62.2516 21.3141 62.0259C21.5047 61.9393 21.6991 61.8603 21.8898 61.7775C22.2062 61.6421 22.5227 61.5028 22.843 61.3749C23.0641 61.2846 23.2891 61.2018 23.514 61.1153C23.7352 61.0287 23.9601 60.946 24.1813 60.8632C27.525 66.8572 32.2986 72.2568 38.3075 76.6893C29.134 76.2566 20.5591 72.6218 13.902 66.3267C13.9897 66.2627 14.0736 66.1988 14.1613 66.1386L14.1537 66.1423ZM42.4634 58.0712C42.6388 58.0787 42.8104 58.09 42.982 58.0975C43.4548 58.1201 43.9275 58.1465 44.3965 58.1803C44.5795 58.1954 44.7587 58.2142 44.9417 58.2292C45.4069 58.2706 45.872 58.3158 46.3334 58.3685C46.4935 58.3873 46.6537 58.4099 46.8176 58.4287C47.3056 58.4926 47.7937 58.5566 48.2779 58.6356C48.4037 58.6544 48.5295 58.677 48.6592 58.6996C49.1853 58.7861 49.7115 58.884 50.23 58.9893C50.3101 59.0044 50.394 59.0232 50.474 59.0382C51.0574 59.1586 51.6369 59.2903 52.2089 59.4333C52.2279 59.4371 52.2508 59.4446 52.2699 59.4484C53.509 59.7569 54.7253 60.1144 55.9225 60.5245C52.5253 66.7782 47.3514 71.8655 40.3931 75.7148C40.3397 75.7185 40.1834 75.7223 40.0271 75.7148V58.0449C40.1948 58.0449 40.3626 58.0373 40.5304 58.0373C41.1785 58.0373 41.8229 58.0524 42.4672 58.075L42.4634 58.0712ZM25.8436 60.2875C26.1906 60.1746 26.5413 60.0692 26.8959 59.9639C27.0751 59.9112 27.2581 59.8585 27.4373 59.8058C27.7881 59.708 28.1389 59.6139 28.4897 59.5236C28.6803 59.4747 28.8671 59.4296 29.0578 59.3806C29.4085 59.2941 29.7593 59.2113 30.1139 59.1361C30.3084 59.0947 30.5066 59.0533 30.7011 59.0157C31.0557 58.9442 31.4102 58.8727 31.7686 58.8087C31.9631 58.7748 32.1614 58.741 32.3558 58.7109C32.718 58.6507 33.0802 58.5905 33.4501 58.5378C33.6293 58.5115 33.8085 58.4926 33.9877 58.4701C34.3766 58.4174 34.7617 58.3647 35.1544 58.3233C35.1696 58.3233 35.1887 58.3233 35.2039 58.3195C36.1419 58.2217 37.0874 58.1502 38.0406 58.1051C38.1893 58.0975 38.3342 58.0863 38.4829 58.0825V74.9321C33.0726 70.7931 28.7528 65.83 25.6606 60.359C25.7216 60.3401 25.7826 60.3176 25.8436 60.2988V60.2875ZM38.4791 37.5341H20.2236C20.5553 31.3933 22.2215 25.2524 24.9629 19.6158C25.0391 19.6422 25.1116 19.6685 25.1878 19.6948C25.4547 19.7927 25.7216 19.8905 25.9885 19.9808C26.3088 20.0899 26.629 20.1878 26.9493 20.2894C27.2162 20.3721 27.4831 20.4624 27.7538 20.5415C28.0817 20.6393 28.4096 20.7258 28.7375 20.8124C29.0044 20.8839 29.2713 20.9629 29.5382 21.0306C29.8699 21.1134 30.2054 21.1887 30.5371 21.2639C30.804 21.3241 31.0709 21.3918 31.3416 21.4483C31.681 21.5198 32.0241 21.58 32.3634 21.6402C32.6265 21.6891 32.8896 21.7418 33.1565 21.7869C33.5073 21.8471 33.8618 21.8923 34.2164 21.9412C34.4719 21.9788 34.7273 22.0202 34.9828 22.0503C35.3526 22.0955 35.7301 22.1293 36.0999 22.167C36.3401 22.1895 36.5803 22.2197 36.8205 22.2422C37.2361 22.2761 37.6517 22.2987 38.0711 22.3212C38.2084 22.3288 38.3457 22.3401 38.4829 22.3476V37.5341H38.4791ZM38.4791 39.0618V56.5473C37.8881 56.5699 37.3048 56.6037 36.7176 56.6451C36.7176 56.6451 36.71 56.6451 36.7062 56.6451C36.2982 56.6752 35.8941 56.7166 35.4899 56.7542C35.2916 56.7731 35.0896 56.7881 34.8875 56.8107C34.4681 56.8558 34.0487 56.9123 33.6331 56.9687C33.4615 56.9913 33.2861 57.0139 33.1145 57.0364C32.6723 57.1004 32.2338 57.1757 31.7991 57.2509C31.6581 57.2735 31.5208 57.2961 31.3797 57.3224C30.9184 57.4052 30.4571 57.4993 29.9995 57.5971C29.8966 57.6197 29.7974 57.6423 29.6945 57.6611C29.2065 57.7664 28.7222 57.8831 28.238 58.0035C28.1808 58.0185 28.1236 58.0336 28.0626 58.0486C27.5441 58.1803 27.0294 58.3233 26.5185 58.4738C26.5185 58.4738 26.5108 58.4738 26.507 58.4738C25.9656 58.6319 25.428 58.8012 24.8942 58.978C21.7983 53.0178 20.1435 46.497 20.1435 39.7917C20.1435 39.5434 20.1626 39.2988 20.1664 39.0505H38.4715L38.4791 39.0618ZM57.3942 61.0551C58.2826 61.3937 59.1595 61.7625 60.025 62.1576C60.0479 62.1688 60.0669 62.1764 60.0898 62.1877C60.9477 62.5828 61.7903 63.0042 62.6215 63.452C62.6253 63.452 62.6291 63.4557 62.6329 63.4595C63.4222 63.8884 64.1924 64.3437 64.9473 64.8216C65.0159 64.8667 65.0884 64.9081 65.157 64.9495C65.6908 65.2882 66.2055 65.6569 66.7202 66.0219C59.9526 72.5691 51.168 76.3168 41.7466 76.7006C48.7507 72.697 53.9665 67.4631 57.3942 61.0588V61.0551ZM67.681 13.4675C74.014 20.0485 77.6628 28.5147 78.0784 37.5303H62.2212C61.9619 30.5918 60.5016 24.3569 57.886 18.9272C58.0081 18.8783 58.1301 18.8256 58.2483 18.7767C58.5075 18.6676 58.7668 18.551 59.0261 18.4343C59.3273 18.2989 59.6323 18.1672 59.9335 18.0242C60.189 17.9038 60.4444 17.7758 60.6961 17.6517C60.9934 17.5049 61.2947 17.3582 61.5921 17.2039C61.8437 17.0722 62.0953 16.9367 62.3432 16.8013C62.6367 16.6432 62.9341 16.4814 63.2239 16.3159C63.4717 16.1729 63.7196 16.0262 63.9674 15.8794C64.2572 15.7101 64.5469 15.537 64.8329 15.3601C65.0769 15.2096 65.3209 15.0516 65.5649 14.8936C65.8509 14.7092 66.133 14.5248 66.4152 14.3367C66.6554 14.1749 66.8918 14.0093 67.132 13.8438C67.315 13.7158 67.498 13.5954 67.681 13.4637V13.4675ZM66.5715 12.365C66.4381 12.4591 66.3008 12.5569 66.1674 12.651C65.931 12.8165 65.6908 12.9783 65.4506 13.1401C65.1875 13.317 64.9168 13.4938 64.6499 13.6631C64.4097 13.8174 64.1695 13.9717 63.9255 14.1184C63.6548 14.2878 63.3802 14.4496 63.1057 14.6114C62.8617 14.7543 62.6215 14.8973 62.3775 15.0328C62.0991 15.1908 61.817 15.3451 61.5349 15.4956C61.2908 15.6273 61.0468 15.759 60.8028 15.8832C60.5168 16.0299 60.2309 16.1729 59.9411 16.3121C59.6971 16.4325 59.4493 16.5529 59.2053 16.6696C58.9117 16.805 58.6181 16.9367 58.3245 17.0684C58.0805 17.1776 57.8327 17.2867 57.5848 17.392C57.4514 17.4485 57.3141 17.5012 57.1807 17.5576C53.7073 11.0179 48.4838 5.71619 41.6094 1.83303C51.0116 2.18297 59.7962 5.88176 66.5677 12.3688L66.5715 12.365ZM40.0271 2.9882C40.191 2.95809 40.3512 2.93175 40.4655 2.92423C47.2103 6.64183 52.327 11.7742 55.7395 18.1258C55.5069 18.2123 55.2743 18.2951 55.0417 18.3779C54.7939 18.4644 54.5461 18.5547 54.2982 18.6375C53.9894 18.7391 53.6768 18.8332 53.3679 18.931C53.1201 19.0063 52.8723 19.0853 52.6244 19.1568C52.3118 19.2471 51.9953 19.3299 51.6789 19.4126C51.431 19.4804 51.1832 19.5481 50.9316 19.6083C50.6113 19.6873 50.291 19.755 49.9669 19.8265C49.7191 19.883 49.4751 19.9394 49.2273 19.9921C48.8994 20.0598 48.5715 20.1163 48.2436 20.1765C47.9996 20.2216 47.7517 20.2705 47.5077 20.3082C47.1684 20.3646 46.8329 20.406 46.4935 20.4549C46.2571 20.4888 46.0169 20.5264 45.7805 20.5565C45.4259 20.5979 45.0714 20.6318 44.7168 20.6656C44.4918 20.6882 44.2631 20.7145 44.0381 20.7334C43.6492 20.7635 43.2641 20.7823 42.8752 20.8049C42.6808 20.8161 42.4863 20.8312 42.2919 20.8387C41.7085 20.8613 41.1213 20.8763 40.538 20.8763C40.3702 20.8763 40.2025 20.8688 40.0347 20.8651V2.9882H40.0271ZM40.0271 22.389C40.1948 22.389 40.3626 22.4003 40.5304 22.4003C41.1404 22.4003 41.7466 22.389 42.3567 22.3626C42.5511 22.3551 42.7456 22.3363 42.94 22.3288C43.3518 22.3062 43.7598 22.2874 44.1716 22.2535C44.4079 22.2347 44.6481 22.2046 44.8845 22.182C45.2506 22.1482 45.6166 22.1143 45.9788 22.0691C46.2343 22.039 46.4859 21.9976 46.7375 21.9638C47.0845 21.9149 47.4315 21.8697 47.7746 21.8133C48.0377 21.7719 48.297 21.7192 48.56 21.6703C48.8917 21.6101 49.2273 21.5536 49.559 21.4859C49.8259 21.4332 50.089 21.3655 50.3558 21.3091C50.6799 21.2376 51.0078 21.1661 51.3319 21.0871C51.5988 21.0231 51.8619 20.9478 52.125 20.8763C52.4452 20.7898 52.7693 20.707 53.0858 20.6167C53.3527 20.5377 53.6158 20.4549 53.8788 20.3721C54.1953 20.2743 54.5118 20.1802 54.8244 20.0749C55.0875 19.9883 55.3506 19.8905 55.6136 19.7964C55.8844 19.6986 56.1589 19.6083 56.4296 19.5067C58.9803 24.7633 60.4101 30.8025 60.6732 37.5378H40.0271V22.3927V22.389ZM40.0271 39.0618H60.7151C60.7151 39.3101 60.7342 39.5509 60.7342 39.803C60.7342 47.1178 59.354 53.5709 56.6355 59.1474C56.5325 59.1135 56.4258 59.0796 56.319 59.0458C55.8615 58.8915 55.4039 58.741 54.9388 58.6018C54.7672 58.5491 54.5918 58.5002 54.4164 58.4475C53.9703 58.3158 53.5204 58.1916 53.0667 58.075C52.8761 58.0261 52.6816 57.9771 52.491 57.932C52.0525 57.8229 51.6064 57.7213 51.1642 57.6272C50.9583 57.582 50.7524 57.5407 50.5465 57.4955C50.1118 57.409 49.6734 57.3262 49.2349 57.2509C49.0176 57.2133 48.7964 57.1757 48.5753 57.138C48.1444 57.0703 47.7098 57.0101 47.2751 56.9499C47.0464 56.9198 46.8176 56.8859 46.5888 56.8596C46.1542 56.8069 45.7157 56.7655 45.2734 56.7279C45.0409 56.7053 44.8121 56.6827 44.5833 56.6639C44.1182 56.6263 43.6492 56.6037 43.1802 56.5812C42.9743 56.5699 42.7685 56.5548 42.5626 56.5473C41.8877 56.521 41.209 56.5059 40.5266 56.5059C40.3588 56.5059 40.191 56.5134 40.0233 56.5134V39.058L40.0271 39.0618ZM38.4791 20.8199C38.3685 20.8161 38.2541 20.8049 38.1398 20.8011C37.7471 20.7785 37.3543 20.7597 36.9616 20.7258C36.7214 20.707 36.485 20.6769 36.2448 20.6543C35.894 20.6205 35.5433 20.5866 35.1925 20.5452C34.937 20.5151 34.6854 20.4737 34.43 20.4361C34.0982 20.3872 33.7665 20.3458 33.4348 20.2894C33.1717 20.2442 32.9087 20.1953 32.6494 20.1464C32.3291 20.0862 32.0088 20.0297 31.6886 19.9658C31.4217 19.9093 31.1586 19.8454 30.8955 19.7851C30.5829 19.7137 30.2664 19.6459 29.9538 19.5669C29.6869 19.4992 29.42 19.4239 29.1569 19.3524C28.8519 19.2696 28.543 19.1869 28.238 19.0966C27.9711 19.0175 27.7042 18.931 27.4373 18.8482C27.1361 18.7542 26.8349 18.6601 26.5375 18.5585C26.2706 18.4682 26.0037 18.3703 25.7369 18.2763C25.714 18.2688 25.6873 18.2575 25.6644 18.2499C28.8214 12.2408 33.1908 6.87512 38.4791 2.81511V20.8237V20.8199ZM37.1294 1.92333C31.8068 6.10752 27.3878 11.5786 24.2041 17.6893C24.1546 17.6705 24.105 17.6517 24.0592 17.6291C23.7695 17.5124 23.4759 17.392 23.1861 17.2679C22.923 17.155 22.6638 17.0346 22.4007 16.9179C22.1147 16.79 21.8288 16.6583 21.5428 16.5228C21.2836 16.3987 21.0243 16.2707 20.765 16.139C20.4829 15.996 20.2007 15.8568 19.9224 15.7101C19.6631 15.5746 19.4077 15.4316 19.1522 15.2924C18.8739 15.1419 18.5994 14.9876 18.3249 14.8296C18.0694 14.6828 17.8178 14.5323 17.5623 14.3781C17.2916 14.2163 17.0209 14.0507 16.754 13.8814C16.5024 13.7233 16.2507 13.5615 16.0029 13.396C15.736 13.2229 15.4729 13.046 15.206 12.8654C14.9582 12.6961 14.7142 12.523 14.4663 12.3499C14.3291 12.2521 14.1918 12.1505 14.0546 12.0527C20.4028 6.11881 28.4782 2.59311 37.1294 1.92333ZM12.9374 13.1401C13.1242 13.2793 13.3149 13.4073 13.5055 13.5427C13.7457 13.7121 13.9821 13.8851 14.2261 14.0507C14.5121 14.2464 14.8019 14.4383 15.0916 14.6302C15.3395 14.792 15.5835 14.9538 15.8313 15.1118C16.1211 15.2962 16.4185 15.473 16.7121 15.6499C16.9637 15.8004 17.2115 15.9547 17.4632 16.1014C17.7606 16.2745 18.058 16.4363 18.3554 16.6019C18.6108 16.7448 18.8663 16.8841 19.1217 17.0195C19.4229 17.1776 19.7241 17.3281 20.0253 17.4823C20.2846 17.6103 20.5439 17.7457 20.8031 17.8699C21.1082 18.0167 21.4132 18.1521 21.722 18.2913C21.9851 18.4117 22.2482 18.5321 22.5113 18.645C22.8201 18.7767 23.1327 18.9047 23.4416 19.0288C23.4683 19.0401 23.4911 19.0476 23.514 19.0589C20.704 24.8724 18.9997 31.2051 18.668 37.5341H2.22356C2.64297 28.3417 6.40235 19.755 12.9336 13.1401H12.9374ZM2.18925 39.0618H18.6184C18.6146 39.3101 18.607 39.5547 18.607 39.803C18.607 46.6889 20.2999 53.379 23.4492 59.5011C22.5341 59.8435 21.6381 60.216 20.7536 60.6148C20.7002 60.6374 20.6468 60.66 20.5934 60.6863C20.2236 60.8556 19.8538 61.0287 19.4877 61.2093C19.3429 61.2808 19.1942 61.3523 19.0493 61.4238C18.7252 61.5856 18.4049 61.7512 18.0846 61.9205C17.8864 62.0259 17.6919 62.135 17.4937 62.2441C17.2192 62.3984 16.9408 62.5489 16.6663 62.7069C16.3308 62.9026 15.9991 63.1058 15.6674 63.309C15.4386 63.452 15.2098 63.5912 14.9849 63.7379C14.6112 63.975 14.2452 64.2196 13.8792 64.4679C13.7114 64.5808 13.5513 64.7012 13.3873 64.8178C13.1853 64.9608 12.9832 65.0963 12.7887 65.243C5.94863 58.2255 2.18925 49.0293 2.18925 39.2725C2.18925 39.2047 2.19306 39.137 2.19306 39.0693L2.18925 39.0618Z" fill="#023540"/>
<path d="M67.9742 69.5891H66.3195V67.5797C68.7978 66.1424 70.4678 63.4934 70.4678 60.4606C70.4678 55.9077 66.7122 52.2013 62.0988 52.2013C57.4853 52.2013 53.7298 55.9077 53.7298 60.4606C53.7298 63.7756 55.7238 66.6353 58.5872 67.9485V69.5928H58.4194C56.3758 69.5928 54.3322 70.0293 53.0244 70.9549C52.4525 68.6107 50.1763 66.5375 46.3254 66.5375H44.6668V63.3918C48.2394 61.6948 50.7177 58.0938 50.7177 53.9285C50.7177 48.1338 45.9403 43.4191 40.0686 43.4191C34.197 43.4191 29.4196 48.1338 29.4196 53.9285C29.4196 57.7552 31.509 61.1003 34.6126 62.9365V66.5412H34.3381C30.5444 66.5412 27.1548 68.5054 26.3122 70.97C25.1836 70.1158 23.5479 69.5928 21.6644 69.5928H20.8371L20.696 69.7057V67.8394C23.4374 66.481 25.3247 63.689 25.3247 60.4606C25.3247 55.9077 21.5691 52.2013 16.9557 52.2013C12.3422 52.2013 8.58667 55.9077 8.58667 60.4606C8.58667 63.8885 10.7142 66.8347 13.7377 68.0839V69.5928H12.1097C8.68581 69.5928 5.23145 70.7818 5.23145 73.4346V79.3459C5.23145 80.2339 6.43246 80.279 6.67267 80.279C6.67267 80.279 69.1714 80.279 70.3686 80.1624C73.1024 79.8952 73.2816 80.1323 73.2816 79.3496V73.4384C73.2816 71.6849 72.3627 69.5966 67.978 69.5966L67.9742 69.5891Z" fill="#023540"/>
<path d="M64.7719 71.429V68.2006C63.9293 68.4828 63.0333 68.6408 62.0992 68.6408C61.4205 68.6408 60.7647 68.5505 60.1318 68.4V70.0104L63.4794 72.4751L64.7719 71.429Z" fill="white"/>
<path d="M67.9746 71.0377H67.6963L66.3161 72.1515L65.5421 72.7761L64.7681 73.4007L63.5213 74.4091L60.128 71.9144L59.354 71.3463L58.9346 71.0377H58.4122C55.8691 71.0377 53.1659 71.8505 53.1659 73.3518V78.6686H54.4508C63.4069 78.6686 69.7132 78.5708 71.7264 78.5331V73.3518C71.7264 72.2719 71.2993 71.0377 67.9708 71.0377H67.9746Z" fill="#023540"/>
<path d="M43.1192 68.2645V63.911C42.1508 64.197 41.129 64.355 40.069 64.355C38.6888 64.355 37.3734 64.0879 36.1609 63.6138V66.8911L40.6905 70.2287L43.123 68.2645H43.1192Z" fill="white"/>
<path d="M19.1484 70.8758V68.3435C18.4468 68.5316 17.7148 68.6408 16.9561 68.6408C16.3841 68.6408 15.8237 68.5843 15.2823 68.4752V71.0866L17.1696 72.475L19.1484 70.8758Z" fill="white"/>
<path d="M26.1067 72.904C25.4509 71.8204 23.7085 71.0377 21.661 71.0377H21.3865L20.6926 71.5984L19.9186 72.223L19.1446 72.8476L17.2077 74.4129L15.2746 72.9906L14.5006 72.4224L13.7267 71.8542L12.621 71.0415H12.0986C9.47924 71.0415 6.76456 71.9069 6.76456 73.3556V78.6724H26.0953H26.3278C26.3431 77.5623 26.3621 75.4063 26.3736 73.8523C26.3736 73.5211 26.2706 73.2051 26.0914 72.9078L26.1067 72.904Z" fill="#023540"/>
<path d="M46.3216 67.9861H45.906L44.6668 68.987L43.8928 69.6116L43.1189 70.2362L40.7321 72.1665L36.1606 68.7988L35.3866 68.2307L35.0587 67.9861H34.3381C30.9676 67.9861 27.6543 70.0067 27.6543 72.0649V78.8228L27.8716 78.8153L31.6768 78.6686C42.2839 78.6686 49.4595 78.7965 51.6213 78.7513V72.0649C51.6213 70.0368 49.7988 67.9861 46.3178 67.9861H46.3216Z" fill="#FBAC35"/>
<path d="M62.0991 53.6462C58.3359 53.6462 55.2743 56.6677 55.2743 60.3816C55.2743 63.0644 56.8757 65.3785 59.1824 66.4584C60.0669 66.8723 61.0544 67.1131 62.0991 67.1131C63.1438 67.1131 64.1275 66.8723 65.0159 66.4584C67.3188 65.3748 68.924 63.0607 68.924 60.3816C68.924 56.6677 65.8623 53.6462 62.1029 53.6462H62.0991Z" fill="#FBAC35"/>
<path d="M16.9519 53.6462C13.1887 53.6462 10.1309 56.6677 10.1309 60.3816C10.1309 63.0644 11.7322 65.3785 14.0389 66.4584C14.9235 66.8723 15.911 67.1131 16.9557 67.1131C18.0004 67.1131 18.9879 66.8723 19.8725 66.4584C22.1792 65.3748 23.7805 63.0607 23.7805 60.3816C23.7805 56.6677 20.7189 53.6462 16.9595 53.6462H16.9519Z" fill="#FBAC35"/>
<path d="M40.069 44.8639C35.0514 44.8639 30.968 48.8938 30.968 53.8456C30.968 57.36 33.0307 60.4041 36.0199 61.8791C36.71 62.2215 37.4458 62.4849 38.2198 62.6429C38.8184 62.7671 39.4361 62.8311 40.069 62.8311C40.7019 62.8311 41.3196 62.7671 41.9182 62.6429C42.696 62.4849 43.4281 62.2215 44.1182 61.8791C47.1074 60.4041 49.1701 57.3638 49.1701 53.8456C49.1701 48.8938 45.0866 44.8639 40.069 44.8639Z" fill="#FBAC35"/>
</g>
<defs>
<clipPath id="clip0_1240_2823">
<rect width="79.0805" height="80" fill="white" transform="translate(0.587891 0.271484)"/>
</clipPath>
</defs>
</svg>
