<svg width="72" height="81" viewBox="0 0 72 81" fill="none" xmlns="http://www.w3.org/2000/svg">
<g clip-path="url(#clip0_1240_2998)">
<path d="M27.1348 14.2364C26.9947 14.2434 13.3169 17.1191 9.71274 27.697C6.9947 35.6655 7.65669 42.5762 7.6672 42.6322C7.76528 42.9194 7.83183 43.1121 2.22762 54.6812C2.09452 55.0525 1.78279 56.331 2.25564 57.007C2.49382 57.3502 2.96668 57.5254 3.65319 57.5254H7.97543L7.85985 58.338C7.20135 62.8984 7.04374 70.4256 9.43953 71.2031C12.9281 72.338 18.0105 71.8756 19.5166 71.627L20.2942 71.4974L20.7495 78.8879H50.1646V58.2084L50.3712 58.0017C52.2241 56.1278 56.8616 50.9474 57.2364 47.4343C57.2679 47.1401 57.3134 46.8669 57.3485 46.6112C58.9912 35.1436 53.4956 12.5867 27.1348 14.2364Z" fill="white"/>
<path d="M69.2539 27.9422C70.4273 27.9422 71.1628 27.0385 71.1628 25.8651V22.7233C71.1628 21.5499 70.4273 20.2364 69.2539 20.2364H68.5218C67.3485 20.2364 66.091 19.5044 65.7232 18.3905L64.5989 15.8897C64.021 14.8704 64.2276 13.4028 65.0577 12.5727L65.3975 12.2539C66.2276 11.4238 66.2276 10.0788 65.3975 9.25218L63.1768 7.03502C62.3467 6.2084 60.9912 6.2084 60.1646 7.03502L59.6637 7.53589C58.8371 8.36602 57.2959 8.62171 56.2451 8.10332L53.9299 7.23467C52.7985 6.92293 51.9019 5.71103 51.9019 4.53765V3.59194C51.9019 2.41856 50.8931 0.964966 49.7197 0.964966H46.5779C45.4045 0.964966 44.1961 2.41856 44.1961 3.59194V4.78283C44.1961 5.95621 43.415 7.22416 42.3047 7.60244L40.3992 8.46759C39.3765 9.03852 37.8914 8.82486 37.0612 7.99824L36.5253 7.44833C35.6952 6.61821 34.3502 6.61821 33.5201 7.44833L31.3029 9.66899C30.4728 10.4991 30.4763 11.8546 31.3029 12.6813L31.9439 13.3187C32.774 14.1489 33.0192 15.4764 32.4938 16.4886C31.9649 17.5009 30.1225 20.2294 28.9492 20.2294H27.8598C26.6865 20.2294 25.6287 21.5429 25.6287 22.7163V25.8581C25.6287 27.0315 26.69 27.9352 27.8598 27.9352H28.8686C30.0385 27.9352 31.2679 28.8844 31.6006 30.0088C31.6006 30.0088 31.8423 30.9545 32.3607 31.9912C32.8791 33.0315 32.6234 34.5657 31.7968 35.3958L30.8931 36.303C30.0665 37.1331 30.0665 38.4886 30.8931 39.3187L33.1138 41.5429C33.9439 42.373 35.2994 42.373 36.126 41.5429L36.8686 40.8003C37.6987 39.9702 39.2083 39.7706 40.2241 40.352L42.3012 41.3397C43.408 41.725 44.1891 43 44.1891 44.1734V44.9895C44.1891 46.1629 45.401 47.5534 46.5709 47.5534H49.7127C50.8861 47.5534 51.8949 46.1629 51.8949 44.9895V44.4186C51.8949 43.2452 52.7915 42.0298 53.9229 41.711L56.4938 40.7268C57.5411 40.1979 59.0682 40.4431 59.8949 41.2697L60.5779 41.9562C61.408 42.7828 62.76 42.7863 63.5901 41.9562L65.8108 39.7355C66.6409 38.9054 66.6409 37.5499 65.8108 36.7233L65.2118 36.1243C64.3817 35.2977 64.1611 33.7741 64.7215 32.7443L65.8423 30.0052C66.1891 28.8844 67.429 27.9422 68.5989 27.9422H69.2504H69.2539Z" fill="#FBAC35"/>
<path d="M49.7162 48.2574H46.5744C44.9912 48.2574 43.4921 46.5482 43.4921 44.993V44.1769C43.4921 43.2592 42.8581 42.289 42.077 42.0158L42.0069 41.9877L39.9229 41C39.0823 40.5236 37.9544 40.7268 37.373 41.3082L36.6304 42.0543C36.0945 42.5902 35.38 42.8844 34.6199 42.8844C33.8598 42.8844 33.1453 42.5902 32.6129 42.0543L30.3922 39.8336C29.8563 39.2977 29.5621 38.5867 29.5621 37.8266C29.5621 37.0665 29.8563 36.3555 30.3922 35.8196L31.2994 34.9229C31.9124 34.3065 32.112 33.1331 31.7267 32.3625C31.1838 31.2732 30.9281 30.2364 30.9176 30.1944C30.69 29.4133 29.7513 28.6427 28.8721 28.6427H27.8633C26.3257 28.6427 24.9316 27.4764 24.9316 25.8651V22.7233C24.9316 21.2487 26.1926 19.5359 27.8633 19.5359H28.9527C29.5236 19.5359 31.1278 17.5954 31.8668 16.1734C32.2416 15.4518 32.056 14.4221 31.443 13.8091L30.8055 13.1786C30.2696 12.6427 29.9754 11.9352 29.9754 11.1751C29.9754 10.4151 30.2696 9.70052 30.8055 9.16812L33.0227 6.94745C33.5586 6.41155 34.2696 6.11733 35.0262 6.11733C35.7828 6.11733 36.4973 6.41155 37.0332 6.94745L37.5761 7.50437C38.1506 8.0788 39.3379 8.25043 40.0595 7.85113L42.0175 6.96146C42.8616 6.67075 43.4956 5.70402 43.4956 4.78633V3.59544C43.4956 1.99474 45.0262 0.267944 46.5779 0.267944H49.7197C51.2399 0.267944 52.6024 1.99474 52.6024 3.59544V4.54115C52.6024 5.43082 53.3169 6.33449 54.1155 6.55516L56.4728 7.44483C57.3905 7.88616 58.5604 7.62696 59.1488 7.03502L59.6567 6.53414C60.7285 5.46234 62.6094 5.46234 63.6812 6.53414L65.9054 8.75131C66.4413 9.28721 66.7355 9.99824 66.7355 10.7548C66.7355 11.5114 66.4413 12.2259 65.9054 12.7583L65.5516 13.0946C64.9632 13.683 64.8055 14.8179 65.2259 15.5569L66.4063 18.1699C66.6584 18.9404 67.6112 19.5324 68.5288 19.5324H69.2609C70.9036 19.5324 71.8703 21.2207 71.8703 22.7198V25.8616C71.8703 27.5289 70.753 28.6392 69.2609 28.6392H68.6094C67.7267 28.6392 66.7775 29.4098 66.5323 30.2084L66.5078 30.3275L65.387 33C64.9492 33.8126 65.1208 35.0105 65.7232 35.613L66.3222 36.2154C66.8546 36.7513 67.1523 37.4658 67.1523 38.2259C67.1523 38.986 66.8581 39.704 66.3222 40.2364L64.105 42.4571C63.5691 42.993 62.8581 43.2872 62.098 43.2872C61.3379 43.2872 60.6269 42.993 60.091 42.4571L59.4115 41.7671C58.8301 41.1856 57.5936 40.9825 56.8511 41.3608L54.1821 42.373C53.3204 42.6182 52.6059 43.5254 52.6059 44.4186V44.9895C52.6059 46.5482 51.2749 48.2539 49.7232 48.2539L49.7162 48.2574ZM42.5709 40.6883C43.9019 41.1751 44.8896 42.6672 44.8896 44.1769V44.993C44.8896 45.7601 45.7828 46.8564 46.5709 46.8564H49.7127C50.4868 46.8564 51.1943 45.7741 51.1943 44.993V44.4221C51.1943 42.8879 52.3187 41.4273 53.7337 41.0315L56.2381 40.0683C56.6339 39.8651 57.1908 39.7426 57.7583 39.7426C58.767 39.7426 59.7583 40.1278 60.4062 40.7758L61.0858 41.4658C61.6112 41.9912 62.5534 41.9947 63.0893 41.4623L65.3064 39.2417C65.5726 38.9755 65.7197 38.6182 65.7197 38.2364C65.7197 37.8546 65.5726 37.4974 65.3064 37.2312L64.7075 36.6322C63.6532 35.5779 63.3835 33.725 64.0945 32.4116L65.1733 29.7706C65.6147 28.401 67.1103 27.2452 68.5989 27.2452H69.2504C70.0245 27.2452 70.4588 26.6322 70.4588 25.8686V22.7268C70.4588 21.9247 69.9789 20.9404 69.2504 20.9404H68.5183C66.9982 20.9404 65.5201 19.9842 65.0577 18.6497L63.9474 16.1839C63.2469 14.9545 63.4991 13.1296 64.5499 12.0753L64.9036 11.7425C65.1558 11.4904 65.3029 11.1366 65.3029 10.7583C65.3029 10.38 65.1558 10.0263 64.8896 9.76006L62.6689 7.5429C62.1366 7.0105 61.1943 7.0105 60.6584 7.5429L60.1576 8.04378C59.5026 8.69877 58.4973 9.08756 57.4675 9.08756C56.9106 9.08756 56.3747 8.97197 55.9229 8.7478L53.6672 7.90367C52.3152 7.5359 51.1873 6.0823 51.1873 4.54465V3.59894C51.1873 2.77933 50.4518 2.02276 49.7057 2.02276H46.5639C45.8038 2.02276 44.8826 2.79684 44.8826 3.59894V4.78984C44.8826 6.31698 43.8738 7.81961 42.5183 8.28196L40.6759 9.12259C40.2486 9.36427 39.6777 9.50437 39.0823 9.50437C38.105 9.50437 37.1838 9.1401 36.5464 8.50612L36.0034 7.94921C35.4851 7.42731 34.5428 7.42381 34.0105 7.95621L31.7933 10.1769C31.5271 10.4431 31.38 10.8003 31.38 11.1821C31.38 11.5639 31.5271 11.9212 31.7933 12.1874L32.4308 12.8249C33.4921 13.8827 33.7758 15.5394 33.1103 16.8214C33.0893 16.8634 30.8581 20.9404 28.9351 20.9404H27.8458C27.0612 20.9404 26.3152 21.9597 26.3152 22.7268V25.8686C26.3152 26.6813 27.1068 27.2452 27.8458 27.2452H28.8546C30.3607 27.2452 31.8563 28.4291 32.2696 29.8231C32.2766 29.8441 32.5078 30.7303 32.9842 31.6865C33.6357 32.9965 33.3309 34.8634 32.2837 35.9072L31.38 36.8144C31.1173 37.0771 30.9702 37.4413 30.9702 37.8196C30.9702 38.1979 31.1173 38.5587 31.3835 38.8249L33.6041 41.0455C34.1365 41.5779 35.0788 41.5779 35.6147 41.0455L36.3572 40.2995C36.9772 39.6795 37.9229 39.3117 38.8826 39.3117C39.4956 39.3117 40.0735 39.4588 40.5604 39.739L42.5569 40.6848L42.5709 40.6883Z" fill="#023540"/>
<path d="M57.0823 24.219C57.0823 28.6813 53.4641 32.2995 49.0017 32.2995C44.5394 32.2995 40.9211 28.6813 40.9211 24.219C40.9211 19.7566 44.5394 16.1349 49.0017 16.1349C53.4641 16.1349 57.0823 19.7531 57.0823 24.219Z" fill="white"/>
<path d="M49.0017 33.0106C44.154 33.0106 40.2101 29.0666 40.2101 24.219C40.2101 19.3713 44.154 15.4274 49.0017 15.4274C53.8493 15.4274 57.7933 19.3713 57.7933 24.219C57.7933 29.0666 53.8493 33.0106 49.0017 33.0106ZM49.0017 16.8459C44.9351 16.8459 41.6286 20.1524 41.6286 24.219C41.6286 28.2855 44.9351 31.5885 49.0017 31.5885C53.0682 31.5885 56.3712 28.282 56.3712 24.219C56.3712 20.1559 53.0647 16.8459 49.0017 16.8459Z" fill="#023540"/>
<path d="M51.5901 80.2714H19.4185L18.9772 73.0911C17.1628 73.3012 12.5429 73.6655 9.00521 72.5131C5.18384 71.2697 5.98594 61.9212 6.35021 58.9019H3.6602C2.47981 58.9019 1.61466 58.5236 1.09277 57.7706C0.119039 56.3695 0.844083 54.31 0.928146 54.0788C2.8616 50.0823 5.91589 43.6725 6.26265 42.6953C6.09802 41.2417 5.85634 34.5692 8.37123 27.1926C9.97894 22.4781 13.6917 18.4921 19.1103 15.6655C23.1698 13.5499 26.711 12.8284 26.8581 12.7968C27.2399 12.7198 27.6147 12.9685 27.6917 13.3538C27.7688 13.739 27.5201 14.1138 27.1348 14.1909C26.9982 14.2189 13.3169 17.0735 9.71274 27.6515C6.9947 35.62 7.65669 42.5306 7.6672 42.5867C7.76527 42.8739 7.83182 43.0665 2.22762 54.6357C2.09452 55.007 1.78279 56.2855 2.25564 56.9615C2.49382 57.3047 2.96668 57.4799 3.65319 57.4799H7.97543L7.85634 58.2925C7.19785 62.8529 7.04023 70.38 9.43603 71.1611C12.9211 72.296 18.007 71.8336 19.5131 71.5849L20.2907 71.4553L20.746 78.8459H50.1611V58.1664L50.3677 57.9597C52.3782 55.9282 57.5481 49.9212 57.345 46.5692C57.3204 46.1769 57.6182 45.8406 58.0105 45.8161C58.4098 45.8056 58.739 46.0893 58.7635 46.4816C59.0262 50.7723 52.8266 57.4518 51.5831 58.7478V80.2644L51.5901 80.2714Z" fill="#023540"/>
</g>
<defs>
<clipPath id="clip0_1240_2998">
<rect width="71.275" height="80" fill="white" transform="translate(0.588379 0.271484)"/>
</clipPath>
</defs>
</svg>
