<svg width="81" height="81" viewBox="0 0 81 81" fill="none" xmlns="http://www.w3.org/2000/svg">
<g clip-path="url(#clip0_1240_2802)">
<path d="M80.3036 33.2158C80.3036 24.1582 73.2674 16.7494 64.3651 16.1408C62.2661 7.05213 54.1276 0.273682 44.3993 0.273682C37.3662 0.273682 31.1622 3.81661 27.4702 9.21639C25.8928 8.30039 24.067 7.76941 22.1139 7.76941C16.5961 7.76941 12.0596 11.9427 11.4758 17.3052C5.1507 19.8203 0.564453 25.9933 0.564453 33.2158C0.564453 42.3199 7.52921 49.7629 16.534 50.3001V50.4584H63.7317V50.3218C72.7365 50.033 80.3036 42.4876 80.3036 33.2158Z" fill="#FBAC35"/>
<path d="M19.0398 63.2702L24.7284 62.1337C25.0234 62.0747 25.2345 61.817 25.2345 61.5158V40.1744C26.3555 39.8142 27.1752 38.7709 27.1752 37.5319C27.1752 35.9949 25.9239 34.7435 24.3868 34.7435C22.8498 34.7435 21.5953 35.9949 21.5953 37.5319C21.5953 38.9292 22.6324 40.0781 23.9739 40.2799V61.0003L18.9156 62.0126C18.5399 60.9165 17.509 60.1216 16.2856 60.1216C14.7486 60.1216 13.4972 61.3729 13.4972 62.91C13.4972 64.447 14.7486 65.6983 16.2856 65.6983C17.7015 65.6983 18.8597 64.6364 19.0398 63.2702Z" fill="black"/>
<path d="M31.5317 40.2302C32.7489 39.929 33.6556 38.836 33.6556 37.5287C33.6556 35.9917 32.4042 34.7404 30.8672 34.7404C29.3302 34.7404 28.0788 35.9917 28.0788 37.5287C28.0788 38.8639 29.0228 39.9787 30.2741 40.2519V60.7425L25.2376 64.3227V68.6543L22.6542 69.4244C22.2412 68.3997 21.2414 67.6762 20.0707 67.6762C18.5306 67.6762 17.2792 68.9276 17.2792 70.4646C17.2792 72.0016 18.5306 73.253 20.0707 73.253C21.6109 73.253 22.7225 72.1165 22.8374 70.682L26.4983 69.589V64.9686L31.5348 61.3884V40.2271L31.5317 40.2302Z" fill="black"/>
<path d="M36.8045 26.102C35.2674 26.102 34.0161 27.3533 34.0161 28.8904C34.0161 30.1262 34.8265 31.1633 35.9412 31.5297V62.5715L30.2744 66.3504V74.7621C29.0199 75.0354 28.0791 76.1501 28.0791 77.4853C28.0791 79.0223 29.3305 80.2737 30.8675 80.2737C32.4045 80.2737 33.6559 79.0223 33.6559 77.4853C33.6559 76.1781 32.7492 75.0851 31.532 74.7839V67.0211L37.1988 63.2422V31.6384C38.5495 31.4459 39.5928 30.2908 39.5928 28.8873C39.5928 27.3502 38.3415 26.0989 36.8045 26.0989V26.102Z" fill="black"/>
<path d="M63.8027 60.1183C62.5793 60.1183 61.5484 60.9164 61.1727 62.0156L56.0927 61.0002V40.2829C57.4465 40.0904 58.493 38.9353 58.493 37.5318C58.493 35.9948 57.2416 34.7434 55.7015 34.7434C54.1613 34.7434 52.9131 35.9948 52.9131 37.5318C52.9131 38.7645 53.7204 39.8016 54.832 40.168V61.5156C54.832 61.8168 55.0432 62.0746 55.3382 62.1336L61.0485 63.2762C61.2317 64.6394 62.3899 65.6982 63.8027 65.6982C65.3397 65.6982 66.5911 64.4469 66.5911 62.9098C66.5911 61.3728 65.3397 60.1215 63.8027 60.1215V60.1183Z" fill="black"/>
<path d="M60.0245 67.6762C58.8694 67.6762 57.8757 68.381 57.4534 69.384L54.8358 68.645V64.3475L50.4266 60.7673V40.0376C51.3612 39.5874 52.0133 38.6372 52.0133 37.5318C52.0133 35.9948 50.7619 34.7434 49.2249 34.7434C47.6879 34.7434 46.4365 35.9948 46.4365 37.5318C46.4365 39.0688 47.6568 40.2829 49.169 40.314V61.3666L53.5783 64.9468V69.5982L57.2547 70.6353C57.3448 72.0948 58.5464 73.2561 60.0276 73.2561C61.5087 73.2561 62.816 72.0047 62.816 70.4677C62.816 68.9306 61.5646 67.6793 60.0276 67.6793L60.0245 67.6762Z" fill="black"/>
<path d="M50.4263 74.9795V66.3318L44.1291 62.5529V31.539C45.2532 31.1788 46.076 30.1355 46.076 28.8935C46.076 27.3565 44.8247 26.1051 43.2845 26.1051C41.7444 26.1051 40.4962 27.3565 40.4962 28.8935C40.4962 30.2908 41.5302 31.4397 42.8685 31.6415V63.267L49.1656 67.0459V74.7063C47.6534 74.7373 46.4331 75.97 46.4331 77.4884C46.4331 79.0068 47.6845 80.2768 49.2215 80.2768C50.7585 80.2768 52.0099 79.0255 52.0099 77.4884C52.0099 76.383 51.3578 75.4328 50.4232 74.9826L50.4263 74.9795Z" fill="black"/>
<path d="M25.1292 36.178C24.9181 36.0662 24.679 35.9979 24.4244 35.9979C24.4057 35.9979 24.3871 36.0041 24.3654 36.0041C23.5487 36.0352 22.8936 36.7028 22.8936 37.5287C22.8936 38.2305 23.3686 38.8143 24.0114 38.9944C24.1418 39.0316 24.2784 39.0565 24.4244 39.0565C24.738 39.0565 25.0299 38.9602 25.2721 38.7987C25.6819 38.5255 25.9521 38.0566 25.9521 37.5256C25.9521 36.9388 25.6136 36.4326 25.1261 36.1749L25.1292 36.178Z" fill="white"/>
<path d="M17.7078 62.2578C17.4625 61.7393 16.9377 61.376 16.326 61.376C15.4814 61.376 14.7952 62.0622 14.7952 62.9068C14.7952 63.7514 15.4814 64.4376 16.326 64.4376C16.9439 64.4376 17.4718 64.0681 17.714 63.5433C17.804 63.3508 17.8568 63.1366 17.8568 62.9068C17.8568 62.677 17.8009 62.4566 17.7078 62.2578Z" fill="white"/>
<path d="M21.468 69.7877C21.2165 69.2847 20.7042 68.9338 20.1049 68.9338C19.2603 68.9338 18.5741 69.6201 18.5741 70.4647C18.5741 71.3092 19.2603 71.9955 20.1049 71.9955C20.7228 71.9955 21.2538 71.6229 21.496 71.095C21.5829 70.9025 21.6357 70.6913 21.6357 70.4647C21.6357 70.2194 21.5736 69.9927 21.4711 69.7877H21.468Z" fill="white"/>
<path d="M30.9048 36.001C30.0603 36.001 29.374 36.6872 29.374 37.5318C29.374 38.1652 29.7622 38.7086 30.3118 38.9415C30.495 39.0191 30.6937 39.0626 30.9048 39.0626C31.1439 39.0626 31.3706 39.0036 31.5724 38.9043C32.0817 38.6558 32.4357 38.1373 32.4357 37.5349C32.4357 36.6903 31.7494 36.0041 30.9048 36.0041V36.001Z" fill="white"/>
<path d="M36.8414 27.3595C35.9968 27.3595 35.3106 28.0457 35.3106 28.8903C35.3106 29.412 35.5745 29.8746 35.9751 30.151C36.2204 30.3218 36.5185 30.4211 36.8383 30.4211C36.9749 30.4211 37.1054 30.3963 37.2327 30.3621C37.8847 30.1851 38.366 29.5952 38.366 28.8903C38.366 28.0457 37.6798 27.3595 36.8352 27.3595H36.8414Z" fill="white"/>
<path d="M31.5685 76.1159C31.3667 76.0165 31.1431 75.9575 30.9009 75.9575C30.6898 75.9575 30.4911 76.001 30.3079 76.0755C29.7583 76.3084 29.3701 76.8518 29.3701 77.4852C29.3701 78.3298 30.0563 79.016 30.9009 79.016C31.7455 79.016 32.4318 78.3298 32.4318 77.4852C32.4318 76.8828 32.0778 76.3643 31.5685 76.1159Z" fill="white"/>
<path d="M55.773 36.0041C55.773 36.0041 55.7512 36.001 55.7388 36.001C55.4687 36.001 55.2203 36.0755 54.9998 36.1997C54.5309 36.4605 54.208 36.9573 54.208 37.5318C54.208 38.0535 54.4688 38.513 54.8694 38.7894C55.1178 38.9601 55.4159 39.0626 55.7388 39.0626C55.8755 39.0626 56.0028 39.0378 56.1301 39.0067C56.7852 38.8328 57.2696 38.2429 57.2696 37.5349C57.2696 36.7027 56.602 36.0258 55.773 36.0072V36.0041Z" fill="white"/>
<path d="M63.8403 61.376C63.2286 61.376 62.7008 61.7393 62.4586 62.261C62.3654 62.4566 62.3126 62.674 62.3126 62.9037C62.3126 63.1335 62.3654 63.3478 62.4555 63.5434C62.7008 64.0682 63.2255 64.4346 63.8403 64.4346C64.6818 64.4346 65.368 63.7483 65.368 62.9037C65.368 62.0592 64.6818 61.3729 63.8403 61.3729V61.376Z" fill="white"/>
<path d="M60.0619 68.9369C59.4843 68.9369 58.9906 69.2599 58.7298 69.7319C58.6087 69.9523 58.5342 70.1976 58.5342 70.4647C58.5342 70.6603 58.5745 70.8435 58.6398 71.0143C58.8602 71.5856 59.4129 71.9955 60.0619 71.9955C60.9065 71.9955 61.5927 71.3092 61.5927 70.4647C61.5927 69.6201 60.9065 68.9338 60.0619 68.9338V68.9369Z" fill="white"/>
<path d="M49.2618 36.0011C48.4204 36.0011 47.7341 36.6873 47.7341 37.5319C47.7341 38.3765 48.3893 39.0255 49.2059 39.0565C49.2246 39.0565 49.2432 39.0627 49.2649 39.0627C49.7556 39.0627 50.1872 38.8267 50.4666 38.4697C50.6685 38.2088 50.7958 37.889 50.7958 37.535C50.7958 36.6904 50.1095 36.0042 49.2649 36.0042L49.2618 36.0011Z" fill="white"/>
<path d="M43.3218 27.3595C42.4803 27.3595 41.791 28.0457 41.791 28.8903C41.791 29.589 42.2629 30.1727 42.9057 30.3559C43.0392 30.3932 43.1758 30.4211 43.3218 30.4211C43.6323 30.4211 43.9242 30.328 44.1664 30.1665C44.5793 29.8933 44.8526 29.4244 44.8526 28.8903C44.8526 28.0457 44.1664 27.3595 43.3218 27.3595Z" fill="white"/>
<path d="M50.4639 76.5506C50.1845 76.1904 49.7529 75.9575 49.2623 75.9575C49.2436 75.9575 49.225 75.9637 49.2033 75.9637C48.3866 75.9948 47.7314 76.6624 47.7314 77.4883C47.7314 78.3143 48.4177 79.0192 49.2592 79.0192C50.1006 79.0192 50.79 78.3329 50.79 77.4883C50.79 77.1344 50.6658 76.8114 50.4608 76.5537L50.4639 76.5506Z" fill="white"/>
</g>
<defs>
<clipPath id="clip0_1240_2802">
<rect width="79.7392" height="80" fill="white" transform="translate(0.564453 0.273682)"/>
</clipPath>
</defs>
</svg>
