<svg width="101" height="81" viewBox="0 0 101 81" fill="none" xmlns="http://www.w3.org/2000/svg">
<g clip-path="url(#clip0_1240_2837)">
<path d="M99.9611 17.6118C99.9611 19.0543 99.0488 20.0203 97.5967 20.0203H3.83468C2.38263 20.0203 1.44458 19.0543 1.44458 17.6118V3.6803C1.44458 2.23778 2.38691 1.13013 3.83468 1.13013H97.5967C99.0488 1.13013 99.9611 2.23778 99.9611 3.6803V17.6118Z" fill="#FBAC35"/>
<path d="M99.9611 68.1044H17.3357H14.9114L1.44458 78.5198V15.7271H99.9611V68.1044Z" fill="white"/>
<path d="M13.6739 7.99494C13.6739 9.41171 12.5259 10.558 11.1167 10.558C9.7075 10.558 8.55957 9.41171 8.55957 7.99494C8.55957 6.57818 9.70322 5.43188 11.1167 5.43188C12.5302 5.43188 13.6739 6.57818 13.6739 7.99494Z" fill="white"/>
<path d="M23.6534 7.99494C23.6534 9.41171 22.5097 10.558 21.0962 10.558C19.6827 10.558 18.5391 9.41171 18.5391 7.99494C18.5391 6.57818 19.6827 5.43188 21.0962 5.43188C22.5097 5.43188 23.6534 6.57818 23.6534 7.99494Z" fill="white"/>
<path d="M33.6338 7.99494C33.6338 9.41171 32.4901 10.558 31.0766 10.558C29.6631 10.558 28.5195 9.41171 28.5195 7.99494C28.5195 6.57818 29.6631 5.43188 31.0766 5.43188C32.4901 5.43188 33.6338 6.57818 33.6338 7.99494Z" fill="white"/>
<path d="M30.5716 23.8198C22.8616 23.8198 14.3506 31.5305 14.3506 41.0485C14.3506 50.5666 22.5317 58.273 32.0236 58.273C36.3069 58.273 39.3053 57.0236 42.3207 54.4692L30.5673 41.2503V23.8198H30.5716Z" fill="white"/>
<path d="M50.5015 40.1985H33.5695V22.9999C42.9928 22.9999 50.3944 30.7534 50.5015 40.1985ZM62.6961 27.3189H58.4128V41.4865H62.6961V27.3189ZM69.1211 23.8843H64.4095V41.4865H69.1211V23.8843ZM75.1178 29.8948H70.8345V41.4865H75.1178V29.8948ZM81.1145 25.6016H76.8311V41.4865H81.1145V25.6016ZM86.6828 23.8843H82.8278V41.4865H86.6828V23.8843ZM92.2511 26.4602H88.3961V41.4865H92.2511V26.4602Z" fill="#FBAC35"/>
<path d="M11.1163 11.4296C9.22736 11.4296 7.68965 9.88831 7.68965 7.995C7.68965 6.10169 9.22736 4.56042 11.1163 4.56042C13.0053 4.56042 14.543 6.10169 14.543 7.995C14.543 9.88831 13.0053 11.4296 11.1163 11.4296ZM11.1163 6.30347C10.1868 6.30347 9.42868 7.06337 9.42868 7.995C9.42868 8.92663 10.1868 9.68653 11.1163 9.68653C12.0458 9.68653 12.8082 8.92663 12.8082 7.995C12.8082 7.06337 12.0501 6.30347 11.1163 6.30347ZM21.0965 11.4296C19.2075 11.4296 17.6698 9.88831 17.6698 7.995C17.6698 6.10169 19.2075 4.56042 21.0965 4.56042C22.9854 4.56042 24.5231 6.10169 24.5231 7.995C24.5231 9.88831 22.9854 11.4296 21.0965 11.4296ZM21.0965 6.30347C20.167 6.30347 19.4088 7.06337 19.4088 7.995C19.4088 8.92663 20.167 9.68653 21.0965 9.68653C22.0259 9.68653 22.7884 8.92663 22.7884 7.995C22.7884 7.06337 22.0302 6.30347 21.0965 6.30347ZM31.0766 11.4296C29.1877 11.4296 27.65 9.88831 27.65 7.995C27.65 6.10169 29.1877 4.56042 31.0766 4.56042C32.9656 4.56042 34.5033 6.10169 34.5033 7.995C34.5033 9.88831 32.9656 11.4296 31.0766 11.4296ZM31.0766 6.30347C30.1471 6.30347 29.3847 7.06337 29.3847 7.995C29.3847 8.92663 30.1429 9.68653 31.0766 9.68653C32.0104 9.68653 32.7643 8.92663 32.7643 7.995C32.7643 7.06337 32.0061 6.30347 31.0766 6.30347ZM93.9644 8.2483L95.7249 6.56965C96.0718 6.23907 96.0847 5.68524 95.7549 5.33749C95.4251 4.98974 94.8725 4.97686 94.5256 5.30744L92.7009 7.0462L90.8805 5.30744C90.5335 4.97686 89.9852 4.98974 89.6511 5.33749C89.3213 5.68524 89.3342 6.23478 89.6811 6.56965L91.4416 8.2483L89.6811 9.93125C89.3342 10.2618 89.3213 10.8157 89.6511 11.1634C89.8225 11.3437 90.0495 11.4339 90.2808 11.4339C90.4949 11.4339 90.7134 11.3523 90.8805 11.1935L92.7009 9.4547L94.5256 11.1935C94.6926 11.3523 94.9068 11.4339 95.1252 11.4339C95.3565 11.4339 95.5835 11.3437 95.7549 11.1634C96.0847 10.8157 96.0718 10.2661 95.7249 9.93125L93.9644 8.2483ZM32.0661 59.1445C22.0388 59.1445 13.5664 50.8586 13.5664 41.0486C13.5664 36.3475 15.511 31.6249 19.0405 28.0744C22.39 24.7042 26.6519 22.5963 30.7382 22.5963H31.4279V40.9241L43.5797 54.5636L42.9414 55.1389C39.6176 57.9467 36.3965 59.1488 32.0661 59.1488V59.1445ZM29.7145 24.7257C22.8612 25.2709 15.224 32.2088 15.224 41.0486C15.224 49.8883 22.9383 57.4058 32.0275 57.4058C35.6127 57.4058 38.3283 56.4913 41.0782 54.3661L29.7145 41.5809V24.7257ZM50.463 40.1985H33.5096L44.4492 53.1297C48.1243 50.0257 50.4672 45.7797 50.4672 40.1985H50.463ZM58.537 47.9263H89.8096C90.2894 47.9263 90.6791 47.5485 90.6791 47.0677C90.6791 46.5868 90.2894 46.209 89.8096 46.209H58.537C58.0573 46.209 57.6675 46.5868 57.6675 47.0677C57.6675 47.5485 58.0573 47.9263 58.537 47.9263ZM58.537 53.0782H87.2054C87.6851 53.0782 88.0749 52.7004 88.0749 52.2195C88.0749 51.7387 87.6851 51.3609 87.2054 51.3609H58.537C58.0573 51.3609 57.6675 51.7387 57.6675 52.2195C57.6675 52.7004 58.0573 53.0782 58.537 53.0782ZM89.8096 56.5128H58.537C58.0573 56.5128 57.6675 57.1052 57.6675 57.5861C57.6675 58.0669 58.0573 58.6594 58.537 58.6594H89.8096C90.2894 58.6594 90.6791 58.0669 90.6791 57.5861C90.6791 57.1052 90.2894 56.5128 89.8096 56.5128ZM97.5967 0.271484H3.83465C1.90287 0.271484 0.587891 1.75694 0.587891 3.68031V80.2715L15.2026 68.9631H100.818V3.68031C100.818 1.76123 99.5328 0.271484 97.5967 0.271484ZM99.1044 67.2458H14.6201L2.30122 76.7682V16.5857H99.1044V67.2458ZM2.30122 14.8685V3.68031C2.30122 2.71862 2.8709 1.98878 3.83465 1.98878H97.5967C98.5605 1.98878 99.1044 2.71862 99.1044 3.68031V14.8685H2.30122Z" fill="#023540"/>
</g>
<defs>
<clipPath id="clip0_1240_2837">
<rect width="100.23" height="80" fill="white" transform="translate(0.587891 0.271484)"/>
</clipPath>
</defs>
</svg>
