<svg width="61" height="61" viewBox="0 0 61 61" fill="none" xmlns="http://www.w3.org/2000/svg">
<mask id="mask0_1278_8657" style="mask-type:luminance" maskUnits="userSpaceOnUse" x="0" y="0" width="61" height="61">
<path d="M0.125 0.209965H60.125V60.21H0.125V0.209965Z" fill="white"/>
</mask>
<g mask="url(#mask0_1278_8657)">
<path d="M55.1727 27.4654C56.6889 28.6771 56.9352 30.8896 55.7211 32.4061L41.6586 49.9842C40.9932 50.8168 39.9839 51.3037 38.9141 51.3037H10.7891C8.85594 51.3037 7.27344 49.7367 7.27344 47.7881C7.27344 45.8463 8.84727 44.2725 10.7891 44.2725H37.2254L50.232 28.0139C51.4437 26.4951 53.6609 26.2549 55.1727 27.4654Z" fill="white"/>
<path d="M48.6134 3.94943C49.8451 6.5885 48.7025 9.72678 46.0634 10.9572C43.4232 12.1877 40.286 11.0463 39.0555 8.40607C40.286 11.0463 39.1434 14.1834 36.5045 15.4151C33.8643 16.6455 30.727 15.5029 29.4966 12.8639C30.727 15.5029 29.5857 18.6412 26.9455 19.8717C24.3064 21.1033 21.168 19.9608 19.9376 17.3217C21.168 19.9608 20.0268 23.0979 17.3864 24.3295C14.7473 25.56 11.6102 24.4186 10.3786 21.7783L9.63574 20.1858L22.5954 6.38459C21.7751 4.62443 22.5368 2.53263 24.2958 1.71232C26.0559 0.89201 28.1477 1.65256 28.968 3.41271L47.8704 2.35568L48.6134 3.94943Z" fill="#FBAC35"/>
<path d="M40.8643 50.7131L45.9455 59.0381" stroke="#023540" stroke-width="1.5" stroke-miterlimit="10" stroke-linecap="round" stroke-linejoin="round"/>
<path d="M8.83906 50.7131L3.75781 59.0381" stroke="#023540" stroke-width="1.5" stroke-miterlimit="10" stroke-linecap="round" stroke-linejoin="round"/>
<path d="M44.5391 33.7256H24.8516V44.2725" stroke="#023540" stroke-width="1.5" stroke-miterlimit="10" stroke-linecap="round" stroke-linejoin="round"/>
<path d="M24.8516 51.3037V59.0381" stroke="#023540" stroke-width="1.5" stroke-miterlimit="10" stroke-linecap="round" stroke-linejoin="round"/>
<path d="M21.3359 33.7256H24.8516" stroke="#023540" stroke-width="1.5" stroke-miterlimit="10" stroke-linecap="round" stroke-linejoin="round"/>
<path d="M29.4971 12.8638L39.021 33.238" stroke="#023540" stroke-width="1.5" stroke-miterlimit="10" stroke-linecap="round" stroke-linejoin="round"/>
<path d="M45.26 45.4824L41.6586 49.9842C41.43 50.2701 41.1616 50.515 40.8639 50.7131C40.2932 51.0939 39.616 51.3037 38.9141 51.3037H24.8516H10.7891C10.0684 51.3037 9.39688 51.0857 8.83906 50.7131C7.89442 50.0826 7.27344 49.008 7.27344 47.7881C7.27344 45.8463 8.84727 44.2725 10.7891 44.2725H24.8516H37.2253L50.232 28.0139C51.4438 26.4951 53.6609 26.2549 55.1727 27.4654C56.6889 28.6772 56.9352 30.8897 55.7211 32.4061L51.8456 37.2502" stroke="#023540" stroke-width="1.5" stroke-miterlimit="10" stroke-linecap="round" stroke-linejoin="round"/>
</g>
</svg>
