<svg width="61" height="61" viewBox="0 0 61 61" fill="none" xmlns="http://www.w3.org/2000/svg">
<g clip-path="url(#clip0_817_5390)">
<mask id="mask0_817_5390" style="mask-type:luminance" maskUnits="userSpaceOnUse" x="0" y="0" width="61" height="61">
<path d="M0.823181 0.0834999H60.8232V60.0835H0.823181V0.0834999Z" fill="white"/>
</mask>
<g mask="url(#mask0_817_5390)">
<path fill-rule="evenodd" clip-rule="evenodd" d="M47.2545 17.8963C47.5286 17.5126 47.588 17.0172 47.2545 16.6837L44.2229 13.6522C43.8895 13.3186 43.3941 13.3781 43.0103 13.6522L40.9008 15.1588C38.9279 13.8241 36.6755 12.8712 34.2504 12.4039L33.8244 9.84709C33.7468 9.38197 33.4386 8.98975 32.9669 8.98975H28.6795C28.2078 8.98975 27.8996 9.38197 27.8221 9.84709L27.3959 12.4039C24.9708 12.8712 22.7184 13.8241 20.7455 15.1588L18.636 13.6522C18.2524 13.3781 17.757 13.3186 17.4234 13.6522L14.3919 16.6837C14.0583 17.0172 14.1177 17.5126 14.3919 17.8963L15.8985 20.0057C14.564 21.9789 13.611 24.2312 13.1436 26.6562L10.5869 27.0823C10.1217 27.1598 9.72943 27.4681 9.72943 27.9398V32.2272C9.72943 32.6988 10.1217 33.0071 10.5869 33.0846L13.1436 33.5106C13.611 35.9357 14.564 38.1879 15.8985 40.1612L14.3919 42.2705C14.1177 42.6544 14.0583 43.1497 14.3919 43.4832L17.4234 46.5147C17.757 46.8483 18.2524 46.7888 18.636 46.5147L20.7455 45.0081C22.7184 46.3429 24.9708 47.2958 27.3959 47.763L27.8221 50.3198C27.8996 50.7849 28.2078 51.1772 28.6795 51.1772H32.9669C33.4386 51.1772 33.7468 50.7849 33.8244 50.3198L34.2504 47.763C36.6755 47.2958 38.9279 46.3429 40.9008 45.0081L43.0103 46.5147C43.3941 46.7888 43.8895 46.8483 44.2229 46.5147L47.2545 43.4832C47.588 43.1497 47.5286 42.6544 47.2545 42.2705L45.7478 40.1612C47.0824 38.1879 48.0354 35.9357 48.5028 33.5106L51.0595 33.0846C51.5246 33.0071 51.9169 32.6988 51.9169 32.2272V27.9398C51.9169 27.4681 51.5246 27.1598 51.0595 27.0823L48.5028 26.6562C48.0354 24.2312 47.0824 21.9789 45.7478 20.0057L47.2545 17.8963ZM30.8232 18.3647C37.2953 18.3647 42.5419 23.6113 42.5419 30.0835C42.5419 36.5555 37.2953 41.8022 30.8232 41.8022C24.351 41.8022 19.1044 36.5555 19.1044 30.0835C19.1044 23.6113 24.351 18.3647 30.8232 18.3647Z" fill="#FBAC35"/>
<path fill-rule="evenodd" clip-rule="evenodd" d="M42.5419 30.0835C42.5419 23.6113 37.2953 18.3647 30.8232 18.3647C24.351 18.3647 19.1044 23.6113 19.1044 30.0835C19.1044 36.5556 24.351 41.8022 30.8232 41.8022C37.2953 41.8022 42.5419 36.5556 42.5419 30.0835Z" fill="white"/>
<path d="M5.85714 44.4976C3.32694 40.1152 1.99487 35.1439 1.99487 30.0835C1.99487 14.1621 14.9018 1.25525 30.8231 1.25525C38.0796 1.25525 45.0691 3.99182 50.3966 8.91861" stroke="#023540" stroke-width="1.5" stroke-miterlimit="22.926" stroke-linecap="round" stroke-linejoin="round"/>
<path d="M55.7891 15.6693C58.3193 20.0518 59.6514 25.023 59.6514 30.0834C59.6514 46.0048 46.7445 58.9116 30.8232 58.9116C23.5667 58.9116 16.5772 56.1751 11.2497 51.2483" stroke="#023540" stroke-width="1.5" stroke-miterlimit="22.926" stroke-linecap="round" stroke-linejoin="round"/>
<path d="M51.2078 6.3842V9.69885L47.8932 9.69874" stroke="#023540" stroke-width="1.5" stroke-miterlimit="22.926" stroke-linecap="round" stroke-linejoin="round"/>
<path d="M10.4385 53.7827V50.4681L13.753 50.4682" stroke="#023540" stroke-width="1.5" stroke-miterlimit="22.926" stroke-linecap="round" stroke-linejoin="round"/>
</g>
</g>
<defs>
<clipPath id="clip0_817_5390">
<rect width="60" height="60" fill="white" transform="translate(0.823181 0.0834961)"/>
</clipPath>
</defs>
</svg>
