<svg width="61" height="61" viewBox="0 0 61 61" fill="none" xmlns="http://www.w3.org/2000/svg">
<path d="M6.56393 6.32092H53.7879C56.5537 6.32092 58.7969 8.56306 58.7969 11.3299V12.8449L53.29 19.8787H6.49182L1.55493 12.8591V11.3299C1.55493 8.56317 3.79821 6.32092 6.56393 6.32092Z" fill="#FBAC35" stroke="#023540"/>
<path d="M58.7969 13.5172V50.0229C58.7969 52.7897 56.5536 55.0319 53.7879 55.0319H6.56393C3.79821 55.0319 1.55493 52.7897 1.55493 50.0229V13.5172H58.7969Z" fill="#F9F7F8" stroke="#023540"/>
<path d="M33.893 41.8669L37.3041 32.6063C37.4514 31.9244 36.6994 31.4059 36.1145 31.786L28.6753 38.3188L27.2668 39.8544L32.4747 43.5946L33.893 41.8669Z" fill="#FBAC35"/>
<path d="M33.3933 41.8081C33.3933 43.6173 31.9266 45.0839 30.1174 45.0839C28.3082 45.0839 26.8416 43.6173 26.8416 41.8081C26.8416 39.9989 28.3082 38.5322 30.1174 38.5322C31.9266 38.5322 33.3933 39.9989 33.3933 41.8081Z" fill="white" stroke="#023540"/>
<path d="M37.5895 19.0646C42.3678 20.7476 46.4081 23.9987 49.0898 28.2009L49.3555 30.3616L46.0936 31.8113L44.9485 31.1824C42.9053 27.8611 39.777 25.277 36.0575 23.9267L34.959 22.2588L36.1031 19.5322L37.5895 19.0646Z" fill="white" stroke="#023540"/>
<path d="M52.601 39.6864L52.601 39.6874C52.6025 39.7394 52.5596 39.7855 52.5039 39.7855H47.6024C47.5519 39.7855 47.5093 39.7461 47.5076 39.6922L47.5076 39.6919C47.4105 36.7918 46.6032 34.0714 45.2544 31.6994L49.4261 28.7444C51.3517 31.9578 52.4969 35.6913 52.601 39.6864Z" fill="#FBAC35" stroke="#023540"/>
<path d="M11.1621 28.1735C13.8495 23.9758 17.8939 20.7303 22.6749 19.0541L24.5985 19.4187L25.3696 22.7176L24.2239 23.9098C20.4803 25.2565 17.3319 27.8519 15.2803 31.1916L13.8344 32.0635L11.1621 30.1425V28.1735Z" fill="white" stroke="#023540"/>
<path d="M23.265 18.8564C25.425 18.1661 27.7272 17.7938 30.1171 17.7938C32.5071 17.7938 34.8093 18.1661 36.9693 18.8564L35.4106 23.7061C33.7408 23.173 31.9616 22.8856 30.1171 22.8856C28.2727 22.8856 26.4935 23.173 24.8237 23.7061L23.265 18.8564Z" fill="white" stroke="#023540"/>
<path d="M12.727 39.6919L12.727 39.6922C12.7253 39.7461 12.6827 39.7855 12.6322 39.7855H7.73065C7.67501 39.7855 7.63213 39.7394 7.63359 39.6874L7.63361 39.6864C7.73771 35.6913 8.88294 31.9578 10.8085 28.7444L14.9802 31.6994C13.6314 34.0714 12.8241 36.7918 12.727 39.6919Z" fill="white" stroke="#023540"/>
<path d="M6.45857 8.65137C5.97275 8.65137 5.5791 9.04502 5.5791 9.53084C5.5791 10.0167 5.97275 10.4103 6.45857 10.4103H6.82795C7.31377 10.4103 7.70742 10.0167 7.70742 9.53084C7.70742 9.04502 7.31377 8.65137 6.82795 8.65137H6.45857Z" fill="#023540"/>
<path d="M10.7689 8.65137C10.2831 8.65137 9.8894 9.04502 9.8894 9.53084C9.8894 10.0167 10.2831 10.4103 10.7689 10.4103H11.1383C11.6241 10.4103 12.0177 10.0167 12.0177 9.53084C12.0177 9.04502 11.6241 8.65137 11.1383 8.65137H10.7689Z" fill="#023540"/>
<path d="M15.0789 8.65137C14.5931 8.65137 14.1995 9.04502 14.1995 9.53084C14.1995 10.0167 14.5931 10.4103 15.0789 10.4103H15.4483C15.9341 10.4103 16.3278 10.0167 16.3278 9.53084C16.3278 9.04502 15.9341 8.65137 15.4483 8.65137H15.0789Z" fill="#023540"/>
</svg>
