<svg width="61" height="61" viewBox="0 0 61 61" fill="none" xmlns="http://www.w3.org/2000/svg">
<g clip-path="url(#clip0_1278_8620)">
<path d="M46.0443 15.0542L30.9854 51.2921C33.2861 49.4979 35.7673 47.9503 38.3915 46.6744C41.7462 45.0435 44.5641 42.5292 46.5406 39.4032C48.5158 36.2791 49.5599 32.6815 49.5599 28.9995V18.0666C48.2559 17.2195 47.0747 16.2035 46.0443 15.0542Z" fill="white"/>
<path d="M43.5971 39.4035C45.1985 36.2794 46.0449 32.6818 46.0449 28.9998V15.0545C44.5246 13.359 43.3325 11.3736 42.558 9.21152C38.7441 8.53019 34.8612 8.18555 30.9863 8.18555C27.1114 8.18555 23.2285 8.5302 19.4146 9.21141C18.1153 12.8391 15.6402 15.97 12.4121 18.0668V28.9997C12.4121 32.6817 13.4561 36.2793 15.4314 39.4034C17.4079 42.5293 20.2258 45.0437 23.5805 46.6746C26.2048 47.9506 28.6855 49.4979 30.986 51.2923C32.8512 49.4981 34.8628 47.9504 36.9904 46.6746C39.7101 45.0437 41.9947 42.5293 43.5971 39.4035Z" fill="white"/>
<path d="M36.8834 29.6728L42.6896 23.9541L38.3441 23.2996L30.9863 27.7558L34.319 35.6873L38.2194 37.7121L36.8834 29.6728Z" fill="#FBAC35"/>
<path d="M38.3442 23.2996L34.6311 22.7404L30.9865 15.4512L27.3418 22.7404L19.2832 23.9541L25.0894 29.6728L23.7534 37.7121L30.9865 33.9573L34.3192 35.6873L33.1163 28.4488L38.3442 23.2996Z" fill="#FBAC35"/>
<path d="M14.8438 49.3103C16.5464 50.7511 18.4432 51.995 20.5061 52.998C23.473 54.4405 26.2031 56.2939 28.6225 58.4844C29.9655 59.7004 32.007 59.7004 33.3501 58.4844C35.7695 56.2939 38.4996 54.4404 41.4665 52.998C50.68 48.5187 56.5919 39.2442 56.5919 28.9996V13.551C51.8782 12.3908 48.5786 8.16305 48.5647 3.30867C37.0354 0.436172 24.9373 0.436172 13.4081 3.30867C13.3941 8.16305 10.0946 12.3909 5.38086 13.551V28.9996C5.38086 35.7327 7.93473 42.0466 12.301 46.8558" fill="white"/>
<path d="M14.8438 49.3103C16.5464 50.7511 18.4432 51.995 20.5061 52.998C23.473 54.4405 26.2031 56.2939 28.6225 58.4844C29.9655 59.7004 32.007 59.7004 33.3501 58.4844C35.7695 56.2939 38.4996 54.4404 41.4665 52.998C50.68 48.5187 56.5919 39.2442 56.5919 28.9996V13.551C51.8782 12.3908 48.5786 8.16305 48.5647 3.30867C37.0354 0.436172 24.9373 0.436172 13.4081 3.30867C13.3941 8.16305 10.0946 12.3909 5.38086 13.551V28.9996C5.38086 35.7327 7.93473 42.0466 12.301 46.8558L14.8438 49.3103Z" stroke="#023540" stroke-width="1.5" stroke-miterlimit="10" stroke-linecap="round" stroke-linejoin="round"/>
<path d="M49.5605 28.9997V18.0668C46.3325 15.9698 43.8574 12.8391 42.558 9.21141C38.7441 8.5302 34.8612 8.18555 30.9863 8.18555C27.1114 8.18555 23.2285 8.5302 19.4146 9.21141C18.1153 12.8391 15.6402 15.97 12.4121 18.0668V28.9997C12.4121 32.6817 13.4561 36.2793 15.4314 39.4034C17.4079 42.5293 20.2258 45.0437 23.5805 46.6746C26.2048 47.9506 28.6859 49.4982 30.9867 51.2923C33.2873 49.4979 35.7679 47.9504 38.3921 46.6746C41.7468 45.0437 44.5647 42.5293 46.5412 39.4034C48.5164 36.2793 49.5605 32.6817 49.5605 28.9997Z" fill="#FBAC35"/>
<path d="M12.4121 18.0667L5.38086 13.551" stroke="#023540" stroke-width="1.5" stroke-miterlimit="10" stroke-linecap="round" stroke-linejoin="round"/>
<path d="M19.4148 9.21133L13.4082 3.30859" stroke="#023540" stroke-width="1.5" stroke-miterlimit="10" stroke-linecap="round" stroke-linejoin="round"/>
<path d="M42.5576 9.21133L48.5642 3.30859" stroke="#023540" stroke-width="1.5" stroke-miterlimit="10" stroke-linecap="round" stroke-linejoin="round"/>
<path d="M49.5605 18.0667L56.5918 13.551" stroke="#023540" stroke-width="1.5" stroke-miterlimit="10" stroke-linecap="round" stroke-linejoin="round"/>
<path d="M30.9854 51.2922L30.987 59.3963" stroke="#023540" stroke-width="1.5" stroke-miterlimit="10" stroke-linecap="round" stroke-linejoin="round"/>
<g clip-path="url(#clip1_1278_8620)">
<mask id="mask0_1278_8620" style="mask-type:luminance" maskUnits="userSpaceOnUse" x="18" y="14" width="25" height="25">
<path d="M18.9863 14.7334H42.9863V38.7334H18.9863V14.7334Z" fill="white"/>
</mask>
<g mask="url(#mask0_1278_8620)">
<path d="M40.1738 24.624H33.0957V17.5459C33.0957 16.3809 32.1513 15.4365 30.9863 15.4365C29.8213 15.4365 28.877 16.3809 28.877 17.5459V24.624H21.7988C20.6338 24.624 19.6895 25.5684 19.6895 26.7334C19.6895 27.8984 20.6338 28.8428 21.7988 28.8428H28.877V35.9209C28.877 37.0859 29.8213 38.0303 30.9863 38.0303C32.1513 38.0303 33.0957 37.0859 33.0957 35.9209V28.8428H40.1738C41.3388 28.8428 42.2832 27.8984 42.2832 26.7334C42.2832 25.5684 41.3388 24.624 40.1738 24.624Z" fill="white"/>
</g>
</g>
</g>
<defs>
<clipPath id="clip0_1278_8620">
<rect width="60" height="60" fill="white" transform="translate(0.986328 0.275391)"/>
</clipPath>
<clipPath id="clip1_1278_8620">
<rect width="24" height="24" fill="white" transform="translate(18.9863 14.7334)"/>
</clipPath>
</defs>
</svg>
