<svg width="61" height="61" viewBox="0 0 61 61" fill="none" xmlns="http://www.w3.org/2000/svg">
<path d="M11.4083 35.0543H10.2316C5.68277 35.0543 1.99512 30.9266 1.99512 25.8375C1.99512 21.2545 4.98387 17.4539 8.89734 16.7418C9.65168 11.8353 13.8663 8.08168 18.9519 8.08168C21.8147 8.08168 24.401 9.27254 26.2507 11.1869C27.8592 5.45656 33.0919 1.25586 39.3021 1.25586C47.445 1.25586 53.8446 8.45691 52.7421 16.7395C56.6592 17.4514 59.6514 21.252 59.6514 25.8375C59.6514 30.9266 55.9637 35.0543 51.4148 35.0543H50.2382" fill="#FBAC35"/>
<path d="M50.2377 35.3785V55.3824C50.2377 57.3313 48.658 58.9121 46.708 58.9121H14.9385C12.9885 58.9121 11.4088 57.3313 11.4088 55.3824V35.3785H50.2377Z" fill="white"/>
<path d="M50.2377 55.3825C50.2377 57.3313 48.658 58.9122 46.708 58.9122H14.9385C12.9885 58.9122 11.4088 57.3313 11.4088 55.3825C11.4088 54.7877 11.4088 29.6984 11.4088 29.4958C11.4088 27.5458 12.9885 25.9661 14.9385 25.9661H46.708C48.658 25.9661 50.2377 27.5458 50.2377 29.4958C50.2377 29.6983 50.2377 54.7881 50.2377 55.3825Z" fill="white" stroke="#023540" stroke-width="1.5" stroke-miterlimit="10" stroke-linecap="round" stroke-linejoin="round"/>
<path d="M23.7627 41.2625L17.2916 47.1453L23.7627 53.0292" stroke="#023540" stroke-width="1.5" stroke-miterlimit="10" stroke-linecap="round" stroke-linejoin="round"/>
<path d="M37.8838 41.2625L44.3549 47.1453L37.8838 53.0292" stroke="#023540" stroke-width="1.5" stroke-miterlimit="10" stroke-linecap="round" stroke-linejoin="round"/>
<path d="M33.1763 41.2625L28.4701 53.0292" stroke="#023540" stroke-width="1.5" stroke-miterlimit="10" stroke-linecap="round" stroke-linejoin="round"/>
<circle cx="16.115" cy="30.6724" r="1.17188" fill="#023540"/>
<circle cx="20.8217" cy="30.6724" r="1.17188" fill="#023540"/>
<circle cx="25.5282" cy="30.6724" r="1.17188" fill="#023540"/>
<line x1="11.5035" y1="34.7277" x2="50.2377" y2="34.7277" stroke="#023540" stroke-width="1.5"/>
</svg>
