<svg width="61" height="61" viewBox="0 0 61 61" fill="none" xmlns="http://www.w3.org/2000/svg">
<g clip-path="url(#clip0_1278_8571)">
<mask id="mask0_1278_8571" style="mask-type:luminance" maskUnits="userSpaceOnUse" x="0" y="0" width="61" height="61">
<path d="M0.125 0.0996132H60.125V60.0996H0.125V0.0996132Z" fill="white"/>
</mask>
<g mask="url(#mask0_1278_8571)">
<path d="M9.98334 27.439C7.03561 27.0906 4.04182 27.5401 1.33186 28.7308C0.968224 34.3252 3.44803 39.9686 8.37588 43.4192C10.9807 45.2431 13.9273 46.2147 16.8846 46.3923L18.2891 41.6001L16.8846 29.5137L9.98334 27.439Z" fill="white"/>
<path d="M21.4027 17.217C17.5333 15.0157 12.9944 14.43 8.76911 15.4615C7.38689 21.1234 8.90693 27.3489 13.3291 31.7711C14.4033 32.8452 15.5838 33.7481 16.8368 34.4797H29.4805L25.9063 19.0649L21.4027 17.217Z" fill="white"/>
<path d="M50.2667 27.439C53.2145 27.0906 56.2082 27.5401 58.9182 28.7308C59.2818 34.3252 56.802 39.9686 51.8742 43.4192C49.2693 45.2431 46.3228 46.2147 43.3654 46.3923L41.9609 41.6001L43.3654 29.5137L50.2667 27.439Z" fill="white"/>
<path d="M38.8473 17.217C42.7167 15.0157 47.2556 14.43 51.4809 15.4615C52.8631 21.1234 51.3431 27.3489 46.9209 31.7711C45.8468 32.8452 44.6662 33.7481 43.4132 34.4797H30.7695L34.3437 19.0649L38.8473 17.217Z" fill="white"/>
<path d="M38.5581 22.7755C38.7829 21.4896 38.9027 20.1614 38.9027 18.8013C38.9027 11.3723 35.3873 4.86633 30.1247 1.2716C24.8622 4.86633 21.3467 11.3723 21.3467 18.8013C21.3467 20.1614 21.4666 21.4896 21.6913 22.7755L29.9616 36.8584L38.5581 22.7755Z" fill="white"/>
<path d="M44.1406 58.9277H16.1094C14.0383 58.9277 12.3594 57.2488 12.3594 55.1777C12.3594 53.1067 14.0383 51.4277 16.1094 51.4277H44.1406C46.2117 51.4277 47.8906 53.1067 47.8906 55.1777C47.8906 57.2488 46.2117 58.9277 44.1406 58.9277Z" fill="#FBAC35"/>
<path d="M30.125 30.0996C27.0184 30.0996 24.5 27.5813 24.5 24.4746V23.3421C24.5 20.2355 27.0184 17.7171 30.125 17.7171C33.2316 17.7171 35.75 20.2355 35.75 23.3421V24.4746C35.75 27.5813 33.2316 30.0996 30.125 30.0996Z" fill="white"/>
<path d="M36.0591 30.0996H23.8646C19.9834 30.0996 16.8369 33.2461 16.8369 37.1275V51.4277H43.0869V37.1275C43.0869 33.2461 39.9404 30.0996 36.0591 30.0996Z" fill="white"/>
<path d="M50.2665 27.439C53.2143 27.0906 56.208 27.5401 58.918 28.7308C59.2816 34.3252 56.8018 39.9686 51.874 43.4192C49.2691 45.2431 46.3226 46.2147 43.3652 46.3923" stroke="#023540" stroke-width="1.5" stroke-miterlimit="10" stroke-linecap="round" stroke-linejoin="round"/>
<path d="M9.98334 27.439C7.03561 27.0906 4.04182 27.5401 1.33186 28.7308C0.968224 34.3252 3.44803 39.9686 8.37588 43.4192C10.9807 45.2431 13.9273 46.2147 16.8846 46.3923" stroke="#023540" stroke-width="1.5" stroke-miterlimit="10" stroke-linecap="round" stroke-linejoin="round"/>
<path d="M21.4027 17.217C17.5333 15.0157 12.9944 14.43 8.76911 15.4615C7.38689 21.1234 8.90693 27.3489 13.3291 31.7711C14.4033 32.8452 15.5838 33.7481 16.8368 34.4797" stroke="#023540" stroke-width="1.5" stroke-miterlimit="10" stroke-linecap="round" stroke-linejoin="round"/>
<path d="M38.8467 17.217C42.7161 15.0157 47.255 14.43 51.4803 15.4615C52.8625 21.1234 51.3425 27.3489 46.9203 31.7711C45.8462 32.8452 44.6656 33.7481 43.4127 34.4797" stroke="#023540" stroke-width="1.5" stroke-miterlimit="10" stroke-linecap="round" stroke-linejoin="round"/>
<path d="M44.1406 58.9277H16.1094C14.0383 58.9277 12.3594 57.2488 12.3594 55.1777C12.3594 53.1067 14.0383 51.4277 16.1094 51.4277H44.1406C46.2117 51.4277 47.8906 53.1067 47.8906 55.1777C47.8906 57.2488 46.2117 58.9277 44.1406 58.9277Z" stroke="#023540" stroke-width="1.5" stroke-miterlimit="10" stroke-linecap="round" stroke-linejoin="round"/>
<path d="M33.1719 51.4277C31.4892 51.4277 30.125 52.7919 30.125 54.4746V55.8809C30.125 57.5636 28.7608 58.9277 27.0781 58.9277H26.8438" stroke="#023540" stroke-width="1.5" stroke-miterlimit="10" stroke-linecap="round" stroke-linejoin="round"/>
<path d="M30.125 30.0996C27.0184 30.0996 24.5 27.5813 24.5 24.4746V23.3421C24.5 20.2355 27.0184 17.7171 30.125 17.7171C33.2316 17.7171 35.75 20.2355 35.75 23.3421V24.4746C35.75 27.5813 33.2316 30.0996 30.125 30.0996Z" fill="#FBAC35"/>
<path d="M21.5244 51.4277V38.2208" stroke="#023540" stroke-width="1.5" stroke-miterlimit="10" stroke-linecap="round" stroke-linejoin="round"/>
<path d="M38.3994 51.4277V43.1856" stroke="#023540" stroke-width="1.5" stroke-miterlimit="10" stroke-linecap="round" stroke-linejoin="round"/>
<path d="M36.0591 30.0996H23.8646C19.9834 30.0996 16.8369 33.2461 16.8369 37.1275V51.4277H43.0869V37.1275C43.0869 33.2461 39.9404 30.0996 36.0591 30.0996Z" stroke="#023540" stroke-width="1.5" stroke-miterlimit="10" stroke-linecap="round" stroke-linejoin="round"/>
<path d="M38.9027 18.8013C38.9027 11.3722 35.3873 4.86627 30.1247 1.27154C24.8621 4.86627 21.3467 11.3722 21.3467 18.8013" stroke="#023540" stroke-width="1.5" stroke-miterlimit="10" stroke-linecap="round" stroke-linejoin="round"/>
</g>
</g>
<defs>
<clipPath id="clip0_1278_8571">
<rect width="60" height="60" fill="white" transform="translate(0.125 0.0996094)"/>
</clipPath>
</defs>
</svg>
