<svg width="61" height="61" viewBox="0 0 61 61" fill="none" xmlns="http://www.w3.org/2000/svg">
<g clip-path="url(#clip0_1278_8683)">
<mask id="mask0_1278_8683" style="mask-type:luminance" maskUnits="userSpaceOnUse" x="0" y="0" width="61" height="61">
<path d="M0.125 0.580082H60.125V60.5801H0.125V0.580082Z" fill="white"/>
</mask>
<g mask="url(#mask0_1278_8683)">
<path d="M37.9957 55.2657L30.1252 59.4082L22.2546 55.2657C13.6211 50.7219 8.21582 41.7686 8.21582 32.0123V12.13C13.9475 12.13 18.5939 7.48359 18.5939 1.75195H41.6564C41.6564 7.48359 46.3029 12.13 52.0346 12.13V32.0123C52.0346 41.7686 46.6293 50.7219 37.9957 55.2657Z" fill="white" stroke="#023540" stroke-width="1.5" stroke-miterlimit="10" stroke-linecap="round" stroke-linejoin="round"/>
<path d="M24.4462 51.1007C17.3377 47.3594 12.9219 40.0451 12.9219 32.0123V16.085C17.4603 14.5908 21.0543 10.9968 22.5484 6.4585H37.7011C39.1951 10.9968 42.789 14.5908 47.3274 16.085V32.0123C47.3274 40.0451 42.9114 47.3594 35.8031 51.1007L30.1246 54.0894L24.4462 51.1007Z" fill="#FBAC35"/>
<path d="M34.8312 22.3906C34.8312 24.99 32.7239 27.0972 30.1246 27.0972C27.5251 27.0972 25.418 24.99 25.418 22.3906C25.418 19.7911 27.5251 17.6838 30.1246 17.6838C32.7239 17.6838 34.8312 19.7911 34.8312 22.3906Z" fill="white"/>
<path d="M38.3618 38.864H21.8887V35.3006C21.8887 30.7701 25.5613 27.0975 30.0918 27.0975H30.1587C34.6892 27.0975 38.3618 30.7701 38.3618 35.3006V38.864Z" fill="white"/>
</g>
</g>
<defs>
<clipPath id="clip0_1278_8683">
<rect width="60" height="60" fill="white" transform="translate(0.125 0.580078)"/>
</clipPath>
</defs>
</svg>
