<svg width="59" height="59" viewBox="0 0 59 59" fill="none" xmlns="http://www.w3.org/2000/svg">
<path fill-rule="evenodd" clip-rule="evenodd" d="M3.16698 57.7398H56.1358C57.4248 57.7398 58.4795 56.6852 58.4795 55.3961V51.2946H36.6826C36.6826 51.9391 36.1554 52.4664 35.5107 52.4664H23.7919C23.1474 52.4664 22.62 51.9391 22.62 51.2946H0.823242V55.3961C0.823242 56.6852 1.87793 57.7398 3.16698 57.7398Z" stroke="#023540" stroke-miterlimit="22.9256" stroke-linecap="round" stroke-linejoin="round"/>
<path d="M56.1357 50.7086V13.2089C56.1357 11.9198 55.0807 10.8651 53.7919 10.8651H42.1954M17.1073 10.8651H5.51086C4.22203 10.8651 3.16711 11.92 3.16711 13.2089V50.7086" stroke="#023540" stroke-miterlimit="22.9256" stroke-linecap="round" stroke-linejoin="round"/>
<path d="M3.89929 46.0209H55.4035" stroke="#023540" stroke-miterlimit="22.9256" stroke-linecap="round" stroke-linejoin="round"/>
<path fill-rule="evenodd" clip-rule="evenodd" d="M36.0966 15.6743C36.0966 17.6995 35.1625 19.5065 33.7018 20.6881V20.8926V27.1069C35.1583 26.5909 36.4867 25.8042 37.6269 24.8077L41.4211 26.47L44.8856 20.4692L41.551 18.0159C41.6992 17.2582 41.7775 16.4754 41.7775 15.6742C41.7775 14.873 41.6992 14.0902 41.551 13.3323L44.8856 10.8791L41.4211 4.87832L37.6269 6.54085C36.4532 5.515 35.08 4.71156 33.573 4.19676L33.1159 0.0834961H26.1868L25.7298 4.19676C24.2227 4.71156 22.8497 5.515 21.6758 6.54085L17.8817 4.87856L14.4171 10.8794L17.7519 13.3325C17.6035 14.0903 17.5254 14.8732 17.5254 15.6744C17.5254 16.4755 17.6039 17.2583 17.7521 18.016L14.4171 20.4695L17.8816 26.4703L21.6757 24.808C22.8159 25.8046 24.1446 26.5912 25.6011 27.1073V20.8929V20.6884C24.14 19.5067 23.2059 17.6995 23.2059 15.6743C23.2059 12.1146 26.0915 9.22901 29.6512 9.22901C33.211 9.22901 36.0966 12.1146 36.0966 15.6743Z" fill="#FBAC35"/>
<path d="M34.7312 19.6408C36.9218 16.8351 36.4232 12.7847 33.6175 10.5941C30.8117 8.40353 26.7614 8.90218 24.5708 11.7079C22.3802 14.5136 22.8789 18.5639 25.6846 20.7545C28.4903 22.9451 32.5406 22.4465 34.7312 19.6408Z" stroke="#023540" stroke-miterlimit="22.9256" stroke-linecap="round" stroke-linejoin="round"/>
<path d="M25.601 20.8928V32.1343H21.0898L29.6514 40.7475L38.213 32.1343H33.7019V20.8928" stroke="#023540" stroke-miterlimit="22.9256" stroke-linecap="round" stroke-linejoin="round"/>
</svg>
