<svg width="61" height="61" viewBox="0 0 61 61" fill="none" xmlns="http://www.w3.org/2000/svg">
<g clip-path="url(#clip0_817_5433)">
<path d="M45.8712 14.8803L30.8123 51.1182C33.113 49.3241 35.5942 47.7764 38.2184 46.5005C41.5731 44.8696 44.391 42.3553 46.3675 39.2293C48.3427 36.1052 49.3868 32.5077 49.3868 28.8256V17.8927C48.0828 17.0456 46.9016 16.0296 45.8712 14.8803Z" fill="white"/>
<path d="M43.4233 39.2294C45.0246 36.1053 45.8711 32.5078 45.8711 28.8257V14.8804C44.3508 13.185 43.1587 11.1996 42.3842 9.03745C38.5703 8.35612 34.6874 8.01147 30.8125 8.01147C26.9376 8.01147 23.0547 8.35612 19.2408 9.03733C17.9414 12.665 15.4663 15.7959 12.2383 17.8927V28.8256C12.2383 32.5076 13.2823 36.1052 15.2576 39.2293C17.2341 42.3553 20.052 44.8696 23.4067 46.5005C26.031 47.7765 28.5116 49.3238 30.8121 51.1182C32.6774 49.3241 34.6889 47.7764 36.8166 46.5005C39.5363 44.8696 41.8209 42.3553 43.4233 39.2294Z" fill="white"/>
<path d="M36.7096 29.4987L42.5158 23.78L38.1702 23.1255L30.8125 27.5818L34.1452 35.5133L38.0455 37.538L36.7096 29.4987Z" fill="#FBAC35"/>
<path d="M38.1701 23.1255L34.4571 22.5663L30.8124 15.2771L27.1678 22.5663L19.1091 23.78L24.9153 29.4987L23.5794 37.538L30.8124 33.7832L34.1451 35.5133L32.9422 28.2747L38.1701 23.1255Z" fill="#FBAC35"/>
<path d="M14.6699 49.1363C16.3725 50.5771 18.2693 51.8211 20.3323 52.8241C23.2991 54.2666 26.0293 56.12 28.4487 58.3105C29.7917 59.5264 31.8332 59.5264 33.1763 58.3105C35.5956 56.12 38.3257 54.2664 41.2927 52.8241C50.5062 48.3447 56.4181 39.0703 56.4181 28.8256V13.377C51.7043 12.2169 48.4048 7.9891 48.3909 3.13472C36.8616 0.262222 24.7635 0.262222 13.2343 3.13472C13.2203 7.9891 9.92078 12.217 5.20703 13.377V28.8256C5.20703 35.5587 7.7609 41.8727 12.1272 46.6818" fill="white"/>
<path d="M14.6699 49.1363C16.3725 50.5771 18.2693 51.8211 20.3323 52.8241C23.2991 54.2666 26.0293 56.12 28.4487 58.3105C29.7917 59.5264 31.8332 59.5264 33.1763 58.3105C35.5956 56.12 38.3257 54.2664 41.2927 52.8241C50.5062 48.3447 56.4181 39.0703 56.4181 28.8256V13.377C51.7043 12.2169 48.4048 7.9891 48.3909 3.13472C36.8616 0.262222 24.7635 0.262222 13.2343 3.13472C13.2203 7.9891 9.92078 12.217 5.20703 13.377V28.8256C5.20703 35.5587 7.7609 41.8727 12.1272 46.6818L14.6699 49.1363Z" stroke="#023540" stroke-width="1.5" stroke-miterlimit="10" stroke-linecap="round" stroke-linejoin="round"/>
<path d="M49.3867 28.8256V17.8927C46.1587 15.7958 43.6836 12.665 42.3842 9.03733C38.5703 8.35612 34.6874 8.01147 30.8125 8.01147C26.9376 8.01147 23.0547 8.35612 19.2408 9.03733C17.9414 12.665 15.4663 15.7959 12.2383 17.8927V28.8256C12.2383 32.5076 13.2823 36.1052 15.2576 39.2293C17.2341 42.3553 20.052 44.8696 23.4067 46.5005C26.031 47.7765 28.5121 49.3242 30.8129 51.1182C33.1135 49.3238 35.5941 47.7764 38.2183 46.5005C41.573 44.8696 44.3909 42.3553 46.3674 39.2293C48.3426 36.1052 49.3867 32.5076 49.3867 28.8256Z" fill="#FBAC35"/>
<path d="M12.2383 17.8927L5.20703 13.377" stroke="#023540" stroke-width="1.5" stroke-miterlimit="10" stroke-linecap="round" stroke-linejoin="round"/>
<path d="M19.2409 9.03732L13.2344 3.13458" stroke="#023540" stroke-width="1.5" stroke-miterlimit="10" stroke-linecap="round" stroke-linejoin="round"/>
<path d="M42.3843 9.03732L48.3908 3.13458" stroke="#023540" stroke-width="1.5" stroke-miterlimit="10" stroke-linecap="round" stroke-linejoin="round"/>
<path d="M49.3867 17.8927L56.418 13.377" stroke="#023540" stroke-width="1.5" stroke-miterlimit="10" stroke-linecap="round" stroke-linejoin="round"/>
<path d="M30.8123 51.1183L30.8139 59.2224" stroke="#023540" stroke-width="1.5" stroke-miterlimit="10" stroke-linecap="round" stroke-linejoin="round"/>
<path d="M42.5157 23.78L34.4571 22.5663L30.8124 15.2771L27.1678 22.5663L19.1091 23.78L24.9153 29.4987L23.5794 37.538L30.8124 33.7832L38.0455 37.538L36.7095 29.4987L42.5157 23.78Z" fill="white" stroke="#023540" stroke-width="1.5" stroke-miterlimit="10" stroke-linecap="round" stroke-linejoin="round"/>
</g>
<defs>
<clipPath id="clip0_817_5433">
<rect width="60" height="60" fill="white" transform="translate(0.8125 0.101318)"/>
</clipPath>
</defs>
</svg>
