<svg width="60" height="61" viewBox="0 0 60 61" fill="none" xmlns="http://www.w3.org/2000/svg">
<g clip-path="url(#clip0_642_3353)">
<path d="M22.3434 45.2023L25.6059 41.2891C25.8084 41.0458 26.0619 40.85 26.3485 40.7157C26.6352 40.5814 26.9478 40.5118 27.2644 40.512H27.8466C28.4184 40.512 28.9669 40.7391 29.3713 41.1435C29.7756 41.5479 30.0028 42.0963 30.0028 42.6682C30.0028 43.0944 29.8766 43.511 29.64 43.8654L27.1181 47.6482C26.8538 48.0462 26.4924 48.3704 26.0681 48.59C25.6437 48.8096 25.1704 48.9175 24.6928 48.9035L23.9841 48.882C23.5458 48.8689 23.122 48.7225 22.7691 48.4624C22.4162 48.2023 22.1509 47.8407 22.0087 47.426L21.9609 47.2882C21.84 46.937 21.8117 46.5605 21.8787 46.1951C21.9457 45.8297 22.1058 45.4878 22.3434 45.2023Z" fill="white"/>
<path d="M18.6431 42.3317L21.8072 38.5338C22.0248 38.2728 22.2972 38.0627 22.605 37.9186C22.9128 37.7744 23.2485 37.6996 23.5884 37.6995H23.6419C24.1288 37.6994 24.6034 37.8526 24.9985 38.1373C25.3936 38.422 25.6891 38.8238 25.8431 39.2857C25.9681 39.6607 25.9952 40.0613 25.9219 40.4497C25.8485 40.8381 25.6772 41.2012 25.424 41.5048L22.26 45.3026C22.0423 45.5636 21.7699 45.7737 21.4621 45.9179C21.1543 46.062 20.8186 46.1368 20.4787 46.137H20.4253C19.9383 46.137 19.4637 45.9838 19.0687 45.6991C18.6736 45.4144 18.3781 45.0127 18.224 44.5507C18.099 44.1758 18.0719 43.7751 18.1453 43.3867C18.2186 42.9984 18.39 42.6352 18.6431 42.3317Z" fill="white"/>
<path d="M46.7841 38.3098C47.4597 38.1006 48.0343 37.6492 48.3975 37.0423C48.7556 36.4454 48.8852 35.739 48.7621 35.0539C48.639 34.3688 48.2716 33.7516 47.7282 33.3167C42.8705 29.4301 37.6212 26.06 32.0653 23.2611C30.45 23.4896 28.8217 23.6149 27.1903 23.6361L26.9625 24.5454C26.7597 25.3567 26.2916 26.0769 25.6325 26.5916C24.9735 27.1063 24.1613 27.3859 23.325 27.3861H19.6903L22.5028 19.8861L23.37 19.6864L23.1825 19.6461C20.9093 19.1907 18.8216 18.0728 17.1825 16.4332L16.2028 15.4536L8.79565 28.7745L9.01878 29.4082C9.6067 31.4683 10.386 33.4689 11.3466 35.3839L12.4107 33.9645C12.6326 33.6689 12.9203 33.429 13.2509 33.2637C13.5815 33.0984 13.946 33.0122 14.3157 33.012H14.4928C14.8059 33.0115 15.1161 33.0728 15.4055 33.1923C15.6949 33.3118 15.9579 33.4872 16.1794 33.7084C16.4009 33.9297 16.5766 34.1925 16.6965 34.4818C16.8163 34.771 16.878 35.0811 16.8778 35.3942V35.7786C16.8782 36.0919 16.8168 36.4022 16.6971 36.6918C16.5774 36.9813 16.4018 37.2444 16.1803 37.4661L16.2094 37.437L18.0732 35.5732C18.5083 35.1382 19.0984 34.8937 19.7138 34.8936H19.8928C20.3798 34.8935 20.8544 35.0467 21.2495 35.3314C21.6446 35.6161 21.94 36.0179 22.0941 36.4798C22.2191 36.8547 22.2462 37.2554 22.1729 37.6438C22.0995 38.0322 21.9282 38.3953 21.675 38.6989L21.8072 38.5404C22.0249 38.2794 22.2973 38.0693 22.6051 37.9252C22.9129 37.781 23.2486 37.7062 23.5885 37.7061H23.6419C24.1289 37.706 24.6035 37.8592 24.9985 38.1439C25.3936 38.4286 25.6891 38.8304 25.8432 39.2923C25.9682 39.6672 25.9953 40.0679 25.9219 40.4563C25.8486 40.8447 25.6772 41.2078 25.4241 41.5114L25.605 41.2957C25.8075 41.0524 26.061 40.8566 26.3476 40.7223C26.6343 40.588 26.9469 40.5184 27.2635 40.5186H27.8466C28.4185 40.5186 28.9669 40.7457 29.3713 41.1501C29.7757 41.5545 30.0028 42.1029 30.0028 42.6748C30.0029 43.1009 29.8766 43.5175 29.64 43.872L27.3713 47.2761L28.3247 47.6173C29.9232 48.1882 31.6542 48.2768 33.3026 47.8722C34.9511 47.4675 36.4442 46.5873 37.5966 45.3411C38.4712 45.4294 39.3537 45.2901 40.1586 44.9368C40.9635 44.5835 41.6634 44.0281 42.1903 43.3245L43.276 41.697C43.8481 41.5591 44.3831 41.2977 44.8434 40.931C45.3036 40.5643 45.6781 40.1013 45.9403 39.5745L46.7841 38.3098Z" fill="white"/>
<path d="M44.5536 17.6238C42.2931 18.4527 39.8279 18.5426 37.513 17.8807C35.6615 17.3518 33.7061 17.3015 31.8299 17.7345L22.5027 19.887L19.6902 27.387H23.3249C24.1611 27.3868 24.9733 27.1072 25.6324 26.5925C26.2915 26.0778 26.7596 25.3576 26.9624 24.5463L27.1902 23.637C28.8181 23.6157 30.443 23.4905 32.0549 23.262V23.2563C37.624 26.0406 42.879 29.4133 47.7299 33.3167C47.8678 33.4275 47.9955 33.5505 48.1114 33.6842L51.7986 29.9342L44.5536 17.6238Z" fill="white"/>
<path d="M31.3818 43.1788L32.3761 41.588L35.9011 43.7912L34.9069 45.382L31.3818 43.1788Z" fill="#FFCBA4"/>
<path d="M33.314 38.5219L34.2121 36.8756L40.8448 40.4941L39.9467 42.1404L33.314 38.5219Z" fill="#FFCBA4"/>
<path d="M36.0806 33.7933L37.0874 32.2108L44.9113 37.1888L43.9044 38.7713L36.0806 33.7933Z" fill="#FFCBA4"/>
<path d="M10.7099 37.946C10.5879 37.5807 10.5564 37.1913 10.6182 36.8111C10.6799 36.431 10.833 36.0715 11.0643 35.7635L12.4133 33.9645C12.6353 33.6689 12.9229 33.429 13.2535 33.2637C13.5842 33.0983 13.9487 33.0122 14.3183 33.012H14.4955C14.8084 33.0118 15.1182 33.0734 15.4073 33.193C15.6964 33.3127 15.959 33.4882 16.1802 33.7094C16.4015 33.9306 16.5769 34.1933 16.6966 34.4824C16.8163 34.7715 16.8778 35.0813 16.8777 35.3942V35.7785C16.8781 36.0918 16.8167 36.4022 16.697 36.6917C16.5773 36.9813 16.4017 37.2444 16.1802 37.466L14.7627 38.8835C14.5411 39.105 14.278 39.2806 13.9884 39.4003C13.6988 39.52 13.3885 39.5814 13.0752 39.581H12.9655C12.4655 39.5797 11.9786 39.4211 11.5738 39.1276C11.1689 38.8342 10.8667 38.4208 10.7099 37.946Z" fill="white"/>
<path d="M14.7449 38.8948L18.073 35.5666C18.5082 35.1316 19.0983 34.8871 19.7136 34.887H19.8927C20.3796 34.8869 20.8543 35.0401 21.2493 35.3248C21.6444 35.6095 21.9399 36.0113 22.0939 36.4732C22.2189 36.8482 22.2461 37.2488 22.1727 37.6372C22.0994 38.0256 21.928 38.3887 21.6749 38.6923L18.5108 42.4901C18.2931 42.7511 18.0208 42.9612 17.713 43.1054C17.4052 43.2495 17.0695 43.3243 16.7296 43.3245H16.3864C16.0816 43.3246 15.7798 43.2647 15.4982 43.1481C15.2166 43.0316 14.9607 42.8607 14.7451 42.6452C14.5296 42.4297 14.3586 42.1739 14.2419 41.8923C14.1252 41.6107 14.0652 41.3089 14.0652 41.0042V40.5354C14.0653 39.9201 14.3098 39.3299 14.7449 38.8948Z" fill="white"/>
<path d="M58.9359 27.8098L49.5609 11.8723C49.44 11.6667 49.2453 11.515 49.0164 11.4479C48.7875 11.3808 48.5417 11.4035 48.329 11.5113L42.704 14.3595C42.5896 14.4173 42.4883 14.498 42.4064 14.5966C42.3245 14.6952 42.2636 14.8095 42.2276 14.9325C42.1916 15.0555 42.1811 15.1846 42.197 15.3118C42.2128 15.4389 42.2545 15.5615 42.3196 15.672L43.1409 17.0679C41.3737 17.509 39.5215 17.4767 37.7709 16.9741C35.7664 16.4033 33.6502 16.3488 31.619 16.8157L23.3596 18.7216C21.2677 18.3041 19.3467 17.2754 17.8396 15.7657L17.3587 15.2848L17.6971 14.6763C17.7584 14.5661 17.7968 14.4446 17.8101 14.3191C17.8233 14.1937 17.8111 14.0668 17.7742 13.9462C17.7372 13.8256 17.6763 13.7137 17.5951 13.6171C17.5139 13.5206 17.414 13.4415 17.3015 13.3845L11.6765 10.5373C11.4601 10.4275 11.2095 10.4059 10.9775 10.4771C10.7455 10.5482 10.5501 10.7066 10.4324 10.9188L1.05743 27.8285C0.996022 27.9392 0.95766 28.0612 0.944658 28.1871C0.931655 28.313 0.944281 28.4402 0.981774 28.5611C1.01927 28.682 1.08085 28.794 1.16282 28.8905C1.24478 28.9869 1.34542 29.0658 1.45868 29.1223L7.08368 31.9348C7.29875 32.0434 7.54738 32.065 7.77797 31.9952C8.00856 31.9254 8.20342 31.7694 8.32212 31.5598L8.56774 31.1173C9.04474 32.5421 9.61182 33.9353 10.2656 35.2882C9.91302 35.7836 9.70384 36.3667 9.66099 36.9732C9.61814 37.5798 9.74329 38.1864 10.0227 38.7265C10.3021 39.2666 10.7249 39.7192 11.2447 40.0347C11.7645 40.3501 12.3612 40.5163 12.9693 40.5148H13.079C13.0968 40.5148 13.1127 40.5101 13.1306 40.5091V40.5382V41.007C13.1315 41.8707 13.4751 42.6987 14.0858 43.3095C14.6966 43.9202 15.5246 44.2638 16.3884 44.2648H16.7315C16.8888 44.259 17.0455 44.2418 17.2002 44.2132C17.2454 44.6523 17.381 45.0772 17.5987 45.4613C17.8163 45.8453 18.1112 46.18 18.4647 46.4443C18.8183 46.7085 19.2228 46.8967 19.6527 46.9967C20.0826 47.0968 20.5285 47.1067 20.9624 47.0257C20.9821 47.2197 21.021 47.4113 21.0787 47.5976L21.1256 47.7335C21.3319 48.327 21.7131 48.844 22.219 49.2167C22.7248 49.5894 23.3317 49.8002 23.9596 49.8213L24.6684 49.8429H24.7846C25.3538 49.8434 25.9154 49.7133 26.4264 49.4627C26.9374 49.2121 27.3841 48.8476 27.7321 48.3973L28.0134 48.4976C29.7081 49.1066 31.5406 49.2237 33.2991 48.8353C35.0575 48.447 36.6703 47.569 37.9509 46.3029C38.0052 46.3029 38.0596 46.3141 38.114 46.3141C39.0605 46.3097 39.9927 46.0836 40.8362 45.6542C41.6796 45.2247 42.4108 44.6038 42.9712 43.841L43.8702 42.492C44.4879 42.2933 45.0603 41.9749 45.5548 41.5549C46.0493 41.1349 46.4562 40.6215 46.7521 40.0441L47.4084 39.0654C48.1575 38.7571 48.7873 38.2157 49.2046 37.5213C49.5363 36.9608 49.719 36.3247 49.7354 35.6735C49.7519 35.0224 49.6014 34.3779 49.2984 33.8013L51.6046 31.4576L51.6937 31.6095C51.8146 31.815 52.0093 31.9668 52.2382 32.0338C52.467 32.1009 52.7128 32.0782 52.9256 31.9704L58.5506 29.1223C58.6649 29.0644 58.7662 28.9837 58.8481 28.8851C58.9301 28.7866 58.991 28.6723 59.027 28.5493C59.063 28.4263 59.0734 28.2972 59.0576 28.17C59.0418 28.0428 59.0009 27.9202 58.9359 27.8098ZM7.11931 29.861L3.17149 27.8876L11.6352 12.6223L15.5849 14.622L7.11931 29.861ZM12.9693 38.637C12.7012 38.6366 12.4386 38.5616 12.2107 38.4205C11.9828 38.2793 11.7987 38.0775 11.6789 37.8377C11.5592 37.5979 11.5085 37.3295 11.5326 37.0625C11.5566 36.7956 11.6545 36.5405 11.8152 36.326L13.1643 34.5279C13.299 34.3486 13.4736 34.203 13.6742 34.1026C13.8748 34.0022 14.0959 33.9498 14.3202 33.9495H14.4965C14.8792 33.95 15.2462 34.1022 15.5168 34.3729C15.7875 34.6435 15.9397 35.0105 15.9402 35.3932V35.7785C15.9387 36.1611 15.7869 36.5278 15.5174 36.7995L14.0999 38.216C13.9662 38.3505 13.8071 38.4571 13.6318 38.5297C13.4566 38.6023 13.2687 38.6394 13.079 38.6388L12.9693 38.637ZM16.3856 42.387C16.019 42.3865 15.6675 42.2406 15.4083 41.9814C15.1491 41.7222 15.0032 41.3707 15.0027 41.0041V40.5354C15.0038 40.1689 15.1493 39.8175 15.4077 39.5576C15.4134 39.552 15.4218 39.5473 15.4274 39.5416L16.8421 38.1223C16.8524 38.1129 16.859 38.1007 16.8693 38.0904L18.734 36.2257C18.862 36.0971 19.0143 35.9952 19.182 35.9259C19.3496 35.8565 19.5294 35.8211 19.7109 35.8216H19.8899C20.1526 35.8217 20.4098 35.8965 20.6315 36.0374C20.8532 36.1783 21.0302 36.3795 21.1417 36.6173C21.2533 36.8551 21.2948 37.1198 21.2613 37.3804C21.2279 37.6409 21.121 37.8865 20.9531 38.0885L17.9221 41.7316L17.7937 41.8863C17.6641 42.0422 17.5017 42.1677 17.3181 42.2537C17.1345 42.3398 16.9342 42.3843 16.7315 42.3841L16.3856 42.387ZM20.4252 45.1995C20.1627 45.1995 19.9055 45.1247 19.6838 44.9839C19.4622 44.8431 19.2852 44.6421 19.1736 44.4044C19.062 44.1667 19.0203 43.9022 19.0536 43.6417C19.0868 43.3812 19.1935 43.1356 19.3612 42.9335L22.3959 39.2923L22.5243 39.1385C22.6609 38.977 22.8321 38.8483 23.0252 38.7621C23.2184 38.6759 23.4285 38.6344 23.6399 38.6407C23.9026 38.6407 24.1598 38.7156 24.3815 38.8565C24.6032 38.9974 24.7802 39.1985 24.8917 39.4364C25.0033 39.6742 25.0448 39.9389 25.0113 40.1994C24.9779 40.46 24.871 40.7056 24.7031 40.9076L21.539 44.7045C21.4024 44.8652 21.2313 44.9932 21.0385 45.0789C20.8457 45.1646 20.6361 45.2058 20.4252 45.1995ZM24.7218 47.966L24.0131 47.9445C23.7651 47.9363 23.5254 47.853 23.3257 47.7057C23.126 47.5584 22.9757 47.354 22.8946 47.1195L22.8477 46.9835C22.7799 46.7848 22.7641 46.5721 22.802 46.3656C22.84 46.1591 22.9303 45.9657 23.0643 45.8041L26.1459 42.1057L26.3231 41.8938C26.4375 41.7562 26.5808 41.6455 26.7428 41.5695C26.9048 41.4935 27.0816 41.4541 27.2606 41.4541H27.8465C28.068 41.4532 28.2856 41.5126 28.4758 41.626C28.6661 41.7395 28.8219 41.9026 28.9264 42.0979C29.0309 42.2932 29.0802 42.5133 29.069 42.7346C29.0577 42.9558 28.9865 43.1698 28.8627 43.3535L26.3409 47.1354C26.1637 47.3999 25.9221 47.615 25.6389 47.7603C25.3556 47.9056 25.04 47.9764 24.7218 47.966ZM47.5968 36.5613C47.4636 36.7832 47.2872 36.9762 47.0782 37.1288C46.8692 37.2814 46.6317 37.3907 46.3798 37.4501C46.1279 37.5095 45.8667 37.5179 45.6115 37.4747C45.3563 37.4316 45.1124 37.3378 44.894 37.1988L37.0734 32.2216L36.0656 33.8041L43.8843 38.7785C44.2386 39.0015 44.6273 39.1646 45.0346 39.2613C44.8398 39.618 44.5765 39.9328 44.26 40.1878C43.9434 40.4427 43.5797 40.6327 43.1897 40.7471C42.7996 40.8614 42.3909 40.8977 41.9868 40.854C41.5827 40.8103 41.1912 40.6874 40.8346 40.4923L34.2027 36.8763L33.3046 38.5226L39.9402 42.1404C40.4279 42.4041 40.9561 42.5847 41.5031 42.6748L41.4459 42.762C40.8229 43.6012 39.9056 44.174 38.878 44.3652C37.8504 44.5565 36.7885 44.3521 35.9052 43.7932L32.3802 41.5901L31.3856 43.1838L34.9106 45.387C35.1472 45.5338 35.3934 45.6647 35.6474 45.7788C34.6674 46.4653 33.5408 46.9135 32.357 47.0878C31.1733 47.2621 29.9653 47.1577 28.829 46.7829L30.4227 44.3904C30.7351 43.9243 30.9148 43.382 30.9426 42.8215C30.9704 42.2611 30.8453 41.7037 30.5806 41.2089C30.3159 40.7141 29.9217 40.3007 29.4401 40.0128C28.9585 39.7248 28.4076 39.5733 27.8465 39.5745H27.2671C27.1351 39.5803 27.0035 39.5947 26.8734 39.6176C26.8479 39.4043 26.8021 39.194 26.7365 38.9895C26.5155 38.3332 26.0921 37.764 25.527 37.3637C24.962 36.9634 24.2845 36.7527 23.5921 36.762C23.4348 36.7677 23.2782 36.7849 23.1234 36.8135C23.0981 36.5974 23.0519 36.3842 22.9856 36.177C22.7695 35.5276 22.3543 34.9628 21.7989 34.5629C21.2435 34.163 20.5762 33.9484 19.8918 33.9495H19.7127C18.9898 33.9517 18.2887 34.1975 17.7224 34.647C17.5536 33.9169 17.1428 33.2653 16.5568 32.7983C15.9708 32.3312 15.244 32.0761 14.4946 32.0745H14.3184C13.8032 32.0758 13.2954 32.1963 12.8346 32.4266C12.3739 32.6569 11.9727 32.9907 11.6624 33.402L11.5302 33.5782C10.8903 32.1422 10.3521 30.6629 9.91962 29.1513L9.82587 28.8401L16.409 16.9957L16.5102 17.097C17.8865 18.4729 19.5619 19.5124 21.4059 20.1345L18.8118 27.0598C18.759 27.2016 18.7413 27.354 18.7602 27.5041C18.7791 27.6542 18.8341 27.7975 18.9204 27.9218C19.0067 28.046 19.1218 28.1476 19.2558 28.2177C19.3899 28.2878 19.539 28.3244 19.6902 28.3245H23.3249C24.3706 28.3255 25.3865 27.9765 26.2107 27.3331C27.0349 26.6896 27.62 25.7888 27.8727 24.7741L27.9262 24.5585C29.2436 24.51 30.5578 24.3952 31.8637 24.2145C37.2802 26.9616 42.4007 30.257 47.1449 34.0488C47.5097 34.3432 47.7559 34.7594 47.8384 35.2208C47.9209 35.6822 47.8341 36.1579 47.594 36.5604L47.5968 36.5613ZM48.0656 32.3895C43.9668 29.1367 39.5942 26.2446 34.9968 23.7457L35.7402 23.6257L35.4402 21.7732L32.6277 22.226C30.8243 22.5171 29.0019 22.6754 27.1752 22.6995C26.9683 22.7022 26.7681 22.7732 26.6059 22.9016C26.4436 23.03 26.3283 23.2084 26.2781 23.4091L26.0502 24.3195C25.8981 24.9278 25.5469 25.4679 25.0526 25.8538C24.5583 26.2397 23.9492 26.4494 23.3221 26.4495H21.0431L23.1993 20.6866L32.0362 18.6485C33.7578 18.2524 35.5516 18.2985 37.2506 18.7826C39.4975 19.4283 41.8825 19.4156 44.1224 18.746L50.6165 29.787L48.0656 32.3895ZM52.8674 29.9032L44.4402 15.5848L48.389 13.586L56.8152 27.9035L52.8674 29.9032Z" fill="#023540"/>
<path d="M48.0497 11.1893C48.5237 10.927 49.1204 11.0898 49.3954 11.5566L58.929 27.7372C59.2226 28.2355 59.0336 28.8782 58.517 29.1381L52.8882 31.9709C52.4181 32.2075 51.8452 32.0393 51.5776 31.5863L42.1515 15.6279C41.865 15.1429 42.0355 14.5171 42.5284 14.2444L48.0497 11.1893Z" fill="#FBAC35"/>
<path d="M11.8211 10.3851C11.3402 10.1307 10.7441 10.3074 10.4796 10.7828L1.02014 27.7838C0.740095 28.2871 0.942021 28.9223 1.46128 29.1715L7.14287 31.8984C7.61935 32.1271 8.19151 31.9455 8.44893 31.4839L17.8049 14.7072C18.0781 14.2173 17.895 13.5986 17.3992 13.3362L11.8211 10.3851Z" fill="#FBAC35"/>
</g>
<defs>
<clipPath id="clip0_642_3353">
<rect width="60" height="60" fill="white" transform="translate(0.00268555 0.139404)"/>
</clipPath>
</defs>
</svg>
