<svg width="60" height="61" viewBox="0 0 60 61" fill="none" xmlns="http://www.w3.org/2000/svg">
<path d="M41.4952 48.8896L49.4507 51.0431L38.8252 30.7181L27.237 36.7762L37.8423 57.0627L40.593 49.3613L40.8261 48.7085L41.4952 48.8896Z" fill="#FBAC35" stroke="#023540" stroke-width="1.5"/>
<path d="M18.5098 48.8896L19.1789 48.7085L19.4121 49.3613L22.1627 57.0627L32.768 36.7762L21.1798 30.7181L10.5543 51.0431L18.5098 48.8896Z" fill="#FBAC35" stroke="#023540" stroke-width="1.5"/>
<mask id="mask0_818_5476" style="mask-type:luminance" maskUnits="userSpaceOnUse" x="0" y="0" width="61" height="61">
<path d="M0.00244141 0.101322H60.0024V60.1013H0.00244141V0.101322Z" fill="white"/>
</mask>
<g mask="url(#mask0_818_5476)">
<path d="M30.0025 44.2563C41.6649 44.2563 51.1191 34.8022 51.1191 23.1397C51.1191 11.4774 41.6649 2.02314 30.0025 2.02314C18.3402 2.02314 8.88599 11.4774 8.88599 23.1397C8.88599 34.8022 18.3402 44.2563 30.0025 44.2563Z" fill="white" stroke="#023540" stroke-width="1.5"/>
<path d="M14.7454 23.1397C14.7454 31.552 21.5905 38.397 30.0026 38.397C38.4147 38.397 45.2598 31.552 45.2598 23.1397C45.2598 14.7276 38.4147 7.88264 30.0026 7.88264C21.5905 7.88264 14.7454 14.7276 14.7454 23.1397Z" fill="white" stroke="#023540" stroke-width="1.5"/>
<path d="M30.7311 16.2403L32.1809 19.0415C32.5208 19.6986 33.1512 20.1565 33.8811 20.2769L36.9934 20.79C37.65 20.8983 37.9112 21.7022 37.4435 22.1757L35.2274 24.4202C34.7075 24.9466 34.4668 25.6876 34.5779 26.419L35.0516 29.5374C35.1516 30.1953 34.4677 30.6922 33.8728 30.3938L31.0534 28.9796C30.3921 28.648 29.613 28.648 28.9518 28.9796L26.1323 30.3938C25.5375 30.6922 24.8536 30.1953 24.9536 29.5374L25.4272 26.419C25.5383 25.6876 25.2976 24.9466 24.7779 24.4202L22.5616 22.1757C22.0941 21.7022 22.3553 20.8983 23.0119 20.79L26.1241 20.2769C26.8541 20.1565 27.4842 19.6986 27.8243 19.0415L29.274 16.2403C29.5799 15.6492 30.4253 15.6492 30.7311 16.2403Z" fill="#FBAC35"/>
</g>
</svg>
