<svg width="61" height="61" viewBox="0 0 61 61" fill="none" xmlns="http://www.w3.org/2000/svg">
<g clip-path="url(#clip0_821_5715)">
<circle cx="30.125" cy="40.0557" r="20.0457" fill="#FBAC35"/>
<mask id="mask0_821_5715" style="mask-type:luminance" maskUnits="userSpaceOnUse" x="0" y="0" width="61" height="61">
<path d="M0.125 0.101322H60.125V60.1013H0.125V0.101322Z" fill="white"/>
</mask>
<g mask="url(#mask0_821_5715)">
<path d="M30.1249 59.2224C34.9172 59.2224 39.2788 57.3809 42.5428 54.368C41.9407 48.0389 36.6118 43.0877 30.1249 43.0877C23.638 43.0877 18.3091 48.0389 17.707 54.368C20.9711 57.3809 25.3327 59.2224 30.1249 59.2224Z" fill="white"/>
<path d="M30.1251 45.8096C26.3965 45.8096 23.3738 42.787 23.3738 39.0585V36.7805C23.3738 33.0519 26.3965 30.0293 30.1251 30.0293C33.8536 30.0293 36.8764 33.0519 36.8764 36.7805V39.0585C36.8764 42.787 33.8536 45.8096 30.1251 45.8096Z" fill="white"/>
<path d="M50.457 15.8085H33.9804C33.7628 15.8085 33.5543 15.8949 33.4004 16.0487L30.7051 18.744C30.3847 19.0643 29.8653 19.0643 29.5449 18.744L26.8496 16.0487C26.6957 15.8949 26.4871 15.8085 26.2696 15.8085H9.79297C7.85141 15.8085 6.27734 14.2344 6.27734 12.2929V4.49592C6.27734 2.55424 7.85141 0.980299 9.79297 0.980299H50.457C52.3986 0.980299 53.9727 2.55424 53.9727 4.49592V12.2929C53.9727 14.2344 52.3986 15.8085 50.457 15.8085Z" fill="white"/>
<path d="M30.4711 4.45831L31.5147 6.57284C31.5709 6.68687 31.6797 6.76573 31.8054 6.78413L34.1388 7.12304C34.4555 7.16921 34.5819 7.55827 34.3528 7.78151L32.6643 9.42753C32.5732 9.51624 32.5317 9.64398 32.5533 9.76913L32.9519 12.0933C33.006 12.4088 32.6749 12.6492 32.3918 12.5003L30.3046 11.4031C30.1921 11.3439 30.0578 11.3439 29.9453 11.4031L27.8581 12.5003C27.5749 12.6492 27.2439 12.4088 27.298 12.0933L27.6966 9.76913C27.718 9.64398 27.6765 9.51624 27.5856 9.42753L25.897 7.78151C25.6679 7.55827 25.7943 7.16921 26.1109 7.12304L28.4445 6.78413C28.5702 6.76573 28.679 6.68687 28.7352 6.57284L29.7788 4.45831C29.9203 4.17144 30.3295 4.17144 30.4711 4.45831Z" fill="#FBAC35"/>
<path d="M46.2914 4.45831L47.335 6.57284C47.3912 6.68687 47.5 6.76573 47.6257 6.78413L49.9592 7.12304C50.2758 7.16921 50.4022 7.55827 50.1731 7.78151L48.4846 9.42753C48.3935 9.51624 48.352 9.64398 48.3736 9.76913L48.7722 12.0933C48.8263 12.4088 48.4952 12.6492 48.2121 12.5003L46.1249 11.4031C46.0124 11.3439 45.8781 11.3439 45.7656 11.4031L43.6784 12.5003C43.3952 12.6492 43.0642 12.4088 43.1183 12.0933L43.5169 9.76913C43.5383 9.64398 43.4969 9.51624 43.4059 9.42753L41.7174 7.78151C41.4883 7.55827 41.6146 7.16921 41.9312 7.12304L44.2648 6.78413C44.3905 6.76573 44.4993 6.68687 44.5555 6.57284L45.5991 4.45831C45.7406 4.17144 46.1499 4.17144 46.2914 4.45831Z" fill="#FBAC35"/>
<path d="M14.6508 4.45831L15.6943 6.57284C15.7506 6.68687 15.8594 6.76573 15.9851 6.78413L18.3185 7.12304C18.6352 7.16921 18.7616 7.55827 18.5325 7.78151L16.844 9.42753C16.7529 9.51624 16.7114 9.64398 16.733 9.76913L17.1315 12.0933C17.1857 12.4088 16.8546 12.6492 16.5715 12.5003L14.4843 11.4031C14.3718 11.3439 14.2375 11.3439 14.125 11.4031L12.0377 12.5003C11.7546 12.6492 11.4236 12.4088 11.4777 12.0933L11.8763 9.76913C11.8977 9.64398 11.8562 9.51624 11.7653 9.42753L10.0767 7.78151C9.84763 7.55827 9.97396 7.16921 10.2906 7.12304L12.6242 6.78413C12.7499 6.76573 12.8586 6.68687 12.9149 6.57284L13.9585 4.45831C14.1 4.17144 14.5092 4.17144 14.6508 4.45831Z" fill="#FBAC35"/>
<path d="M17.7065 54.3685C18.0077 51.2045 19.4913 48.3838 21.7097 46.3552C22.8101 45.3486 24.0897 44.5377 25.4972 43.974" stroke="#023540" stroke-width="1.5" stroke-miterlimit="10" stroke-linecap="round" stroke-linejoin="round"/>
<path d="M34.7527 43.974C38.9984 45.672 42.0933 49.6342 42.5433 54.3685" stroke="#023540" stroke-width="1.5" stroke-miterlimit="10" stroke-linecap="round" stroke-linejoin="round"/>
<path d="M30.1251 45.8096C26.3965 45.8096 23.3738 42.787 23.3738 39.0585V36.7805C23.3738 33.0519 26.3965 30.0293 30.1251 30.0293C33.8536 30.0293 36.8764 33.0519 36.8764 36.7805V39.0585C36.8764 42.787 33.8536 45.8096 30.1251 45.8096Z" stroke="#023540" stroke-width="1.5" stroke-miterlimit="10" stroke-linecap="round" stroke-linejoin="round"/>
<path d="M18.6146 15.8085H9.79297C7.85141 15.8085 6.27734 14.2344 6.27734 12.2929V4.49592C6.27734 2.55424 7.85141 0.980299 9.79297 0.980299H50.457C52.3987 0.980299 53.9727 2.55424 53.9727 4.49592V12.2929C53.9727 14.2344 52.3987 15.8085 50.457 15.8085H33.9805C33.7628 15.8085 33.5543 15.8949 33.4004 16.0487L30.7051 18.744C30.3847 19.0643 29.8653 19.0643 29.5449 18.744L26.8496 16.0487C26.6957 15.8949 26.4871 15.8085 26.2696 15.8085H18.6146Z" stroke="#023540" stroke-width="1.5" stroke-miterlimit="10" stroke-linecap="round" stroke-linejoin="round"/>
</g>
</g>
<defs>
<clipPath id="clip0_821_5715">
<rect width="60" height="60" fill="white" transform="translate(0.125 0.101318)"/>
</clipPath>
</defs>
</svg>
