<svg width="60" height="60" viewBox="0 0 60 60" fill="none" xmlns="http://www.w3.org/2000/svg">
<path d="M6.38803 5.64453H53.612C56.3778 5.64453 58.621 7.88667 58.621 10.6535V12.1685L53.1141 19.2023H6.31592L1.37903 12.1827V10.6535C1.37903 7.88678 3.62231 5.64453 6.38803 5.64453Z" fill="#FBAC35" stroke="#023540"/>
<path d="M58.621 12.8408V49.3466C58.621 52.1133 56.3777 54.3556 53.612 54.3556H6.38803C3.62231 54.3556 1.37903 52.1133 1.37903 49.3466V12.8408H58.621Z" fill="#F9F7F8" stroke="#023540"/>
<path d="M33.7171 41.191L37.1282 31.9304C37.2755 31.2485 36.5235 30.73 35.9386 31.1101L28.4994 37.6429L27.0909 39.1785L32.2988 42.9187L33.7171 41.191Z" fill="#FBAC35"/>
<path d="M33.2169 41.1313C33.2169 42.9405 31.7502 44.4072 29.941 44.4072C28.1318 44.4072 26.6652 42.9405 26.6652 41.1313C26.6652 39.3221 28.1318 37.8555 29.941 37.8555C31.7502 37.8555 33.2169 39.3221 33.2169 41.1313Z" fill="white" stroke="#023540"/>
<path d="M37.4136 18.388C42.1919 20.071 46.2322 23.3221 48.9139 27.5242L49.1796 29.6849L45.9177 31.1346L44.7726 30.5057C42.7294 27.1844 39.6011 24.6003 35.8816 23.2501L34.7831 21.5821L35.9272 18.8556L37.4136 18.388Z" fill="white" stroke="#023540"/>
<path d="M52.4251 39.0099L52.4251 39.0109C52.4266 39.0629 52.3837 39.109 52.328 39.109H47.4265C47.3759 39.109 47.3334 39.0696 47.3317 39.0157L47.3317 39.0154C47.2346 36.1153 46.4273 33.3948 45.0785 31.0228L49.2502 28.0679C51.1758 31.2813 52.321 35.0148 52.4251 39.0099Z" fill="#FBAC35" stroke="#023540"/>
<path d="M10.9865 27.4969C13.6738 23.2992 17.7183 20.0537 22.4993 18.3774L24.4228 18.742L25.194 22.0409L24.0482 23.2331C20.3046 24.5799 17.1562 27.1753 15.1046 30.5149L13.6587 31.3868L10.9865 29.4659V27.4969Z" fill="white" stroke="#023540"/>
<path d="M23.0901 18.1798C25.2501 17.4895 27.5522 17.1172 29.9422 17.1172C32.3322 17.1172 34.6344 17.4895 36.7944 18.1798L35.2357 23.0295C33.5659 22.4964 31.7866 22.209 29.9422 22.209C28.0978 22.209 26.3185 22.4964 24.6487 23.0295L23.0901 18.1798Z" fill="white" stroke="#023540"/>
<path d="M12.5516 39.0154L12.5516 39.0157C12.5498 39.0696 12.5073 39.109 12.4568 39.109H7.55523C7.4996 39.109 7.45672 39.0629 7.45817 39.0109L7.4582 39.0099C7.56229 35.0148 8.70753 31.2813 10.6331 28.0679L14.8047 31.0228C13.456 33.3948 12.6487 36.1153 12.5516 39.0154Z" fill="white" stroke="#023540"/>
<path d="M6.28267 7.97461C5.79685 7.97461 5.4032 8.36826 5.4032 8.85408C5.4032 9.3399 5.79685 9.73355 6.28267 9.73355H6.65205C7.13786 9.73355 7.53151 9.3399 7.53151 8.85408C7.53151 8.36826 7.13786 7.97461 6.65205 7.97461H6.28267Z" fill="#023540"/>
<path d="M10.5932 7.97461C10.1074 7.97461 9.71375 8.36826 9.71375 8.85408C9.71375 9.3399 10.1074 9.73355 10.5932 9.73355H10.9626C11.4484 9.73355 11.8421 9.3399 11.8421 8.85408C11.8421 8.36826 11.4484 7.97461 10.9626 7.97461H10.5932Z" fill="#023540"/>
<path d="M14.9028 7.97461C14.417 7.97461 14.0233 8.36826 14.0233 8.85408C14.0233 9.3399 14.417 9.73355 14.9028 9.73355H15.2722C15.758 9.73355 16.1516 9.3399 16.1516 8.85408C16.1516 8.36826 15.758 7.97461 15.2722 7.97461H14.9028Z" fill="#023540"/>
</svg>
