<svg width="61" height="60" viewBox="0 0 61 60" fill="none" xmlns="http://www.w3.org/2000/svg">
<g clip-path="url(#clip0_657_2174)">
<mask id="mask0_657_2174" style="mask-type:luminance" maskUnits="userSpaceOnUse" x="0" y="0" width="61" height="60">
<path d="M0.322266 3.8147e-06H60.3223V60H0.322266V3.8147e-06Z" fill="white"/>
</mask>
<g mask="url(#mask0_657_2174)">
<path d="M25.1306 7.78387H18.0213C16.4931 7.78387 15.2542 9.02277 15.2542 10.551V18.3276C15.2542 19.8559 16.4931 21.0947 18.0213 21.0947H42.6233C44.1515 21.0947 45.3906 19.8559 45.3906 18.3276V10.551C45.3906 9.02277 44.1515 7.78387 42.6233 7.78387H35.5258H25.1306Z" fill="#FBAC35"/>
<path d="M12.0379 52.2148H4.26141C2.73316 52.2148 1.49414 50.9759 1.49414 49.4477V41.6711C1.49414 40.1428 2.73316 38.904 4.26141 38.904H12.0379C13.5661 38.904 14.805 40.1428 14.805 41.6711V49.4477C14.805 50.9759 13.5661 52.2148 12.0379 52.2148Z" fill="white"/>
<path d="M34.2105 52.2148H26.4341C24.9059 52.2148 23.6668 50.9759 23.6668 49.4477V41.6711C23.6668 40.1428 24.9059 38.904 26.4341 38.904H34.2105C35.7388 38.904 36.9777 40.1428 36.9777 41.6711V49.4477C36.9777 50.9759 35.7388 52.2148 34.2105 52.2148Z" fill="white"/>
<path d="M56.3832 52.2148H48.6068C47.0785 52.2148 45.8395 50.9759 45.8395 49.4477V41.6711C45.8395 40.1428 47.0785 38.904 48.6068 38.904H56.3832C57.9115 38.904 59.1504 40.1428 59.1504 41.6711V49.4477C59.1504 50.9759 57.9115 52.2148 56.3832 52.2148Z" fill="white"/>
<path d="M12.0379 52.2148H4.26141C2.73316 52.2148 1.49414 50.9759 1.49414 49.4477V41.6711C1.49414 40.1428 2.73316 38.904 4.26141 38.904H12.0379C13.5661 38.904 14.805 40.1428 14.805 41.6711V49.4477C14.805 50.9759 13.5661 52.2148 12.0379 52.2148Z" stroke="#023540" stroke-miterlimit="10" stroke-linecap="round" stroke-linejoin="round"/>
<path d="M34.2105 52.2148H26.4341C24.9059 52.2148 23.6668 50.9759 23.6668 49.4477V41.6711C23.6668 40.1428 24.9059 38.904 26.4341 38.904H34.2105C35.7388 38.904 36.9777 40.1428 36.9777 41.6711V49.4477C36.9777 50.9759 35.7388 52.2148 34.2105 52.2148Z" stroke="#023540" stroke-miterlimit="10" stroke-linecap="round" stroke-linejoin="round"/>
<path d="M56.3832 52.2148H48.6068C47.0785 52.2148 45.8395 50.9759 45.8395 49.4477V41.6711C45.8395 40.1428 47.0785 38.904 48.6068 38.904H56.3832C57.9115 38.904 59.1504 40.1428 59.1504 41.6711V49.4477C59.1504 50.9759 57.9115 52.2148 56.3832 52.2148Z" stroke="#023540" stroke-miterlimit="10" stroke-linecap="round" stroke-linejoin="round"/>
<path d="M8.14966 38.9043L14.5052 31.1362C15.0308 30.4936 15.817 30.1212 16.6469 30.1212H43.9503C44.7802 30.1212 45.5665 30.4936 46.0919 31.1362L52.4476 38.9043" stroke="#023540" stroke-miterlimit="10" stroke-linecap="round" stroke-linejoin="round"/>
<path d="M30.3223 38.9043V21.0954" stroke="#023540" stroke-miterlimit="10" stroke-linecap="round" stroke-linejoin="round"/>
</g>
</g>
<defs>
<clipPath id="clip0_657_2174">
<rect width="60" height="60" fill="white" transform="translate(0.322266)"/>
</clipPath>
</defs>
</svg>
