<svg width="31" height="31" viewBox="0 0 31 31" fill="none" xmlns="http://www.w3.org/2000/svg">
<g clip-path="url(#clip0_657_2146)">
<path d="M7.54684 15.0312V15.5168C7.54684 15.8066 7.36045 16.0634 7.08494 16.1533C6.77902 16.2532 6.48348 16.3759 6.20035 16.5197C5.9416 16.6511 5.62789 16.6019 5.42269 16.3967L5.07934 16.0533C4.81766 15.7916 4.39332 15.7916 4.13164 16.0533L2.98906 17.1959C2.72738 17.4576 2.72738 17.8819 2.98906 18.1436L3.33242 18.4869C3.53762 18.6921 3.58689 19.0058 3.45547 19.2646C3.31168 19.5477 3.18893 19.8433 3.08908 20.1492C2.99914 20.4247 2.74232 20.6111 2.45252 20.6111H1.96701C1.59687 20.6111 1.29688 20.9111 1.29688 21.2812V22.8971C1.29688 23.2672 1.59693 23.5672 1.96701 23.5672H2.45252C2.74232 23.5672 2.99914 23.7536 3.08908 24.0291C3.18893 24.3351 3.31168 24.6306 3.45547 24.9137C3.58689 25.1725 3.53768 25.4862 3.33242 25.6914L2.98906 26.0347C2.72738 26.2964 2.72738 26.7208 2.98906 26.9824L4.13164 28.125C4.39332 28.3867 4.81766 28.3867 5.07934 28.125L5.42269 27.7817C5.62789 27.5765 5.9416 27.5272 6.20035 27.6586C6.48348 27.8024 6.77902 27.9252 7.08494 28.025C7.36045 28.1149 7.54684 28.3718 7.54684 28.6616V29.1471C7.54684 29.5171 7.84689 29.8172 8.21697 29.8172H9.83287C10.203 29.8172 10.503 29.5172 10.503 29.1471V28.6616C10.503 28.3718 10.6894 28.1149 10.9649 28.025C11.2708 27.9252 11.5664 27.8023 11.8495 27.6586C12.1082 27.5272 12.422 27.5764 12.6271 27.7817L12.9705 28.125C13.2322 28.3867 13.6565 28.3867 13.9182 28.125L15.0608 26.9824C15.3225 26.7208 15.3225 26.2964 15.0608 26.0347L14.7175 25.6914C14.5123 25.4862 14.463 25.1725 14.5944 24.9137C14.7382 24.6306 14.861 24.3351 14.9608 24.0291C15.0507 23.7536 15.3076 23.5672 15.5974 23.5672H16.0829M12.0378 22.4243C11.8711 23.9407 10.5857 25.1204 9.02492 25.1204C7.35084 25.1204 5.99375 23.7633 5.99375 22.0892C5.99375 20.5284 7.17342 19.2431 8.68982 19.0763" stroke="#FBAC35" stroke-miterlimit="10" stroke-linecap="round" stroke-linejoin="round"/>
<path d="M28.9283 10.5272H28.1966C27.7597 10.5272 27.3726 10.2463 27.2371 9.831C27.0866 9.36986 26.9015 8.92438 26.6848 8.49764C26.4867 8.10758 26.5609 7.63479 26.8702 7.32547L27.3878 6.80791C27.7822 6.41346 27.7822 5.77385 27.3878 5.37939L25.6655 3.65709C25.271 3.26264 24.6314 3.26264 24.237 3.65709L23.7194 4.17465C23.4101 4.48396 22.9372 4.5582 22.5472 4.3601C22.1205 4.14336 21.675 3.95832 21.2138 3.80779C20.7986 3.67227 20.5176 3.28514 20.5176 2.84832V2.11654C20.5176 1.55867 20.0654 1.10645 19.5075 1.10645H17.0718C16.514 1.10645 16.0617 1.55867 16.0617 2.11654V2.84832C16.0617 3.28514 15.7808 3.67227 15.3655 3.80779C14.9044 3.95826 14.4589 4.14336 14.0322 4.3601C13.6421 4.5582 13.1693 4.48396 12.8599 4.17465L12.3424 3.65709C11.9479 3.26264 11.3083 3.26264 10.9139 3.65709L9.19157 5.37939C8.79711 5.77385 8.79711 6.41346 9.19157 6.80791L9.70912 7.32547C10.0184 7.63479 10.0927 8.10764 9.89457 8.49769C9.67783 8.92443 9.49279 9.36992 9.34227 9.83105C9.20674 10.2463 8.81961 10.5273 8.38274 10.5273H7.65096C7.09309 10.5273 6.64086 10.9795 6.64086 11.5374V13.973C6.64086 14.5309 7.09309 14.9831 7.65096 14.9831H8.38274C8.81955 14.9831 9.20668 15.264 9.34221 15.6794C9.49268 16.1405 9.67778 16.586 9.89451 17.0127C10.0926 17.4028 10.0184 17.8756 9.70906 18.1849L9.19151 18.7025C8.79705 19.097 8.79705 19.7366 9.19151 20.131L10.9138 21.8533C11.3083 22.2478 11.9479 22.2478 12.3423 21.8533L12.8599 21.3358C13.1692 21.0264 13.6421 20.9522 14.0321 21.1503C14.4588 21.3671 14.9043 21.5521 15.3655 21.7026C15.7807 21.8381 16.0617 22.2253 16.0617 22.6621V23.3939C16.0617 23.9517 16.5139 24.404 17.0718 24.404H19.5075C20.0653 24.404 20.5176 23.9517 20.5176 23.3939V22.6621C20.5176 22.2253 20.7985 21.8381 21.2138 21.7026C21.6749 21.5521 22.1204 21.3671 22.5471 21.1503C22.9372 20.9522 23.41 21.0264 23.7194 21.3358L24.2369 21.8533C24.6314 22.2478 25.271 22.2478 25.6654 21.8533L27.3877 20.131C27.7822 19.7366 27.7822 19.097 27.3877 18.7025L26.8702 18.1849C26.5609 17.8756 26.4866 17.4028 26.6847 17.0128C26.9015 16.586 27.0865 16.1405 27.237 15.6794C27.3726 15.2642 27.7597 14.9832 28.1965 14.9832H28.9283C29.4862 14.9832 29.9384 14.531 29.9384 13.9731V11.5373C29.9384 10.9794 29.4862 10.5272 28.9283 10.5272ZM18.2897 18.6359C15.0419 18.6359 12.409 16.003 12.409 12.7552C12.409 9.50732 15.0419 6.87447 18.2897 6.87447C21.5376 6.87447 24.1704 9.50738 24.1704 12.7552C24.1704 16.003 21.5376 18.6359 18.2897 18.6359Z" stroke="#FBAC35" stroke-miterlimit="10" stroke-linecap="round" stroke-linejoin="round"/>
<path d="M19.3431 10.7672L19.2623 10.7047C19.0847 10.5815 18.6255 10.3347 17.9958 10.5243C17.2455 10.7503 17.0592 11.777 17.569 12.1769C17.8618 12.4066 18.3023 12.5953 18.8961 12.8052C20.2249 13.2749 19.7337 15.1489 18.382 15.1579C17.8545 15.1614 17.6079 15.1279 17.1445 14.8248" stroke="#FBAC35" stroke-miterlimit="10" stroke-linecap="round" stroke-linejoin="round"/>
<path d="M18.3826 15.1582V15.8422" stroke="#FBAC35" stroke-miterlimit="10" stroke-linecap="round" stroke-linejoin="round"/>
<path d="M18.3827 9.82324V10.4559" stroke="#FBAC35" stroke-miterlimit="10" stroke-linecap="round" stroke-linejoin="round"/>
</g>
<defs>
<clipPath id="clip0_657_2146">
<rect width="30" height="30" fill="white" transform="translate(0.617188 0.461914)"/>
</clipPath>
</defs>
</svg>
