<svg width="61" height="60" viewBox="0 0 61 60" fill="none" xmlns="http://www.w3.org/2000/svg">
<path d="M40.9005 47.6117C45.3063 47.6117 48.9497 47.6117 53.3555 47.6117C55.391 47.6117 57.041 45.8809 57.041 43.7457V14.1934H3.60352V43.7457C3.60352 45.8809 5.25352 47.6117 7.28906 47.6117H18.5449L18.5684 47.6" stroke="#023540"/>
<path d="M56.9741 7.6082V14.6938H3.61523V7.6082C3.61523 5.7346 5.08419 4.24219 6.86433 4.24219H53.725C55.5052 4.24219 56.9741 5.7346 56.9741 7.6082ZM27.9826 9.54062C27.9826 7.8553 26.655 6.46367 24.984 6.46367C23.3133 6.46367 21.9842 7.85499 21.9842 9.54062C21.9842 11.226 23.313 12.6187 24.984 12.6187C26.6552 12.6187 27.9826 11.2256 27.9826 9.54062ZM19.8609 9.54062C19.8609 7.85499 18.5318 6.46367 16.8611 6.46367C15.1904 6.46367 13.8613 7.85499 13.8613 9.54062C13.8613 11.226 15.1901 12.6187 16.8611 12.6187C18.5321 12.6187 19.8609 11.226 19.8609 9.54062ZM11.7381 9.54062C11.7381 7.85499 10.409 6.46367 8.73828 6.46367C7.06728 6.46367 5.73968 7.8553 5.73968 9.54062C5.73968 11.2256 7.06699 12.6187 8.73828 12.6187C10.4093 12.6187 11.7381 11.226 11.7381 9.54062Z" fill="#FBAC35" stroke="#023540"/>
<path d="M38.6576 50.9676L38.6573 50.9678L30.3223 56.6526L21.9872 50.9678L21.9871 50.9677C20.8381 50.1847 19.7734 48.8664 19.014 47.3737C18.3128 45.9939 17.8965 44.511 17.8965 43.2328V31.4334L30.322 25.3479L42.748 31.4505V43.2328C42.748 44.5206 42.3304 46.007 41.6283 47.3851C40.8691 48.8729 39.8057 50.1855 38.6576 50.9676ZM39.2844 41.025C39.2844 39.2525 38.7588 37.5197 37.774 36.0459C36.7892 34.5721 35.3895 33.4234 33.7519 32.7451C32.1143 32.0668 30.3123 31.8893 28.5738 32.2351C26.8354 32.5809 25.2385 33.4345 23.9851 34.6878C22.7317 35.9412 21.8782 37.5381 21.5324 39.2766C21.1866 41.0151 21.364 42.817 22.0424 44.4547C22.7207 46.0923 23.8694 47.492 25.3432 48.4767C26.817 49.4615 28.5497 49.9871 30.3223 49.9871C32.6992 49.9871 34.9787 49.0428 36.6594 47.3621C38.3401 45.6814 39.2843 43.4019 39.2844 41.025Z" fill="white" stroke="#023540"/>
<path d="M30.3223 49.4867C34.9958 49.4867 38.7844 45.6981 38.7844 41.0246C38.7844 36.3511 34.9958 32.5625 30.3223 32.5625C25.6488 32.5625 21.8602 36.3511 21.8602 41.0246C21.8602 45.6981 25.6488 49.4867 30.3223 49.4867Z" fill="#FBAC35"/>
<path d="M33.7897 38.0654L29.1063 42.4853L26.8752 40.1943C26.745 40.0606 26.5672 39.9841 26.3807 39.9817C26.1942 39.9792 26.0143 40.0509 25.8807 40.181C25.747 40.3111 25.6705 40.489 25.668 40.6755C25.6655 40.862 25.7372 41.0418 25.8674 41.1755L28.5814 43.9622C28.7102 44.0944 28.8858 44.1707 29.0703 44.1745C29.2548 44.1784 29.4334 44.1096 29.5677 43.9829L34.7544 39.0881C34.8223 39.025 34.8771 38.949 34.9155 38.8645C34.9539 38.7801 34.9753 38.6889 34.9783 38.5962C34.9813 38.5034 34.966 38.411 34.9331 38.3243C34.9003 38.2375 34.8506 38.1581 34.7869 38.0907C34.7233 38.0232 34.6469 37.969 34.5621 37.9312C34.4774 37.8934 34.3861 37.8727 34.2933 37.8703C34.2006 37.868 34.1083 37.884 34.0218 37.9175C33.9353 37.951 33.8562 38.0013 33.7892 38.0654H33.7897Z" fill="#023540"/>
</svg>
