<svg width="1728" height="970" viewBox="0 0 1728 970" fill="none" xmlns="http://www.w3.org/2000/svg">
<g clip-path="url(#clip0_1059_3808)">
<rect width="1728" height="970" fill="#01236F"/>
<g filter="url(#filter0_f_1059_3808)">
<ellipse cx="1667.5" cy="843.5" rx="335.5" ry="272.5" fill="url(#paint0_radial_1059_3808)" fill-opacity="0.6"/>
</g>
<g filter="url(#filter1_f_1059_3808)">
<ellipse cx="248" cy="157.571" rx="327" ry="233.571" fill="url(#paint1_radial_1059_3808)" fill-opacity="0.6"/>
</g>
<path d="M1609.07 705.263L1463.32 765.725M1609.07 705.263L1555.92 522.662M1609.07 705.263L1726.17 457.171M1609.07 705.263L1770.19 667.107L1726.17 457.171M1463.32 765.725L1479.2 871.95M1463.32 765.725L1312.6 926.507L1253.71 778.185M1463.32 765.725L1388.52 630.851M1463.32 765.725L1253.71 778.185M1463.32 765.725L1555.92 522.662M1253.71 778.185L1114.48 870.411L1127.02 730.345M1253.71 778.185L1203.95 602.527M1253.71 778.185L1388.52 630.851M1127.02 730.345L1003.21 605.529M1127.02 730.345L1203.95 602.527M1203.95 602.527L1388.52 630.851M1388.52 630.851L1555.92 522.662M1388.52 630.851L1409.16 415.286M1555.92 522.662L1409.16 415.286M1555.92 522.662L1726.17 457.171M1555.92 522.662L1597.15 330.879M1409.16 415.286L1597.15 330.879M1726.17 457.171L1890.4 563.509M1726.17 457.171L1909.47 335.534M1726.17 457.171L1733.52 195.956L1597.15 330.879M1726.17 457.171L1597.15 330.879M1597.15 330.879L1511.4 248.507" stroke="url(#paint2_linear_1059_3808)" stroke-width="0.827674"/>
<path d="M620.501 857.361L674.635 792.058L773.649 823.431M773.649 823.431L875.919 777.066M773.649 823.431L805.097 706.34M875.919 777.066L805.097 706.34M875.919 777.066L975.786 754.443M875.919 777.066L916.492 674.699M805.097 706.34L916.492 674.699M975.786 754.443L1114 870M975.786 754.443L1127 731M975.786 754.443L1004.17 611.161L916.492 674.699M975.786 754.443L916.492 674.699M975.786 754.443L961.156 852.908M916.492 674.699L878.181 625.628" stroke="url(#paint3_linear_1059_3808)" stroke-width="0.461331"/>
<ellipse cx="1.47713" cy="1.59874" rx="1.47713" ry="1.59874" transform="matrix(-0.912607 -0.408837 0.467234 -0.884134 1114.7 872.035)" fill="white"/>
<ellipse cx="1.47713" cy="1.59874" rx="1.47713" ry="1.59874" transform="matrix(-0.912607 -0.408837 0.467234 -0.884134 961.696 855.035)" fill="white"/>
<ellipse cx="1.47839" cy="1.60011" rx="1.47839" ry="1.60011" transform="matrix(-0.912607 -0.408837 0.467234 -0.884134 1127.7 733.038)" fill="white"/>
<ellipse cx="1.47839" cy="1.60011" rx="1.47839" ry="1.60011" transform="matrix(-0.912607 -0.408837 0.467234 -0.884134 621.307 859.109)" fill="white"/>
<ellipse cx="1.47839" cy="1.60011" rx="1.47839" ry="1.60011" transform="matrix(-0.912607 -0.408837 0.467234 -0.884134 675.599 795.588)" fill="white"/>
<ellipse cx="1.47839" cy="1.60011" rx="1.47839" ry="1.60011" transform="matrix(-0.912607 -0.408837 0.467234 -0.884134 774.096 825.089)" fill="white"/>
<ellipse cx="1.47839" cy="1.60011" rx="1.47839" ry="1.60011" transform="matrix(-0.912607 -0.408837 0.467234 -0.884134 806.138 708.178)" fill="white"/>
<ellipse cx="1.47839" cy="1.60011" rx="1.47839" ry="1.60011" transform="matrix(-0.912607 -0.408837 0.467234 -0.884134 876.154 779.199)" fill="white"/>
<ellipse cx="1.47839" cy="1.60011" rx="1.47839" ry="1.60011" transform="matrix(-0.912607 -0.408837 0.467234 -0.884134 917.308 677.013)" fill="white"/>
<ellipse cx="1.47839" cy="1.60011" rx="1.47839" ry="1.60011" transform="matrix(-0.912607 -0.408837 0.467234 -0.884134 1005.51 613.117)" fill="white"/>
<ellipse cx="1.47839" cy="1.60011" rx="1.47839" ry="1.60011" transform="matrix(-0.912607 -0.408837 0.467234 -0.884134 975.837 756.253)" fill="white"/>
<ellipse cx="1.47839" cy="1.60011" rx="1.47839" ry="1.60011" transform="matrix(-0.912607 -0.408837 0.467234 -0.884134 1253.02 779.188)" fill="white"/>
<ellipse cx="1.47839" cy="1.60011" rx="1.47839" ry="1.60011" transform="matrix(-0.912607 -0.408837 0.467234 -0.884134 1464.25 768.263)" fill="white"/>
<ellipse cx="1.47839" cy="1.60011" rx="1.47839" ry="1.60011" transform="matrix(-0.912607 -0.408837 0.467234 -0.884134 1726.52 459.049)" fill="white"/>
<ellipse cx="1.47839" cy="1.60011" rx="1.47839" ry="1.60011" transform="matrix(-0.912607 -0.408837 0.467234 -0.884134 1598.35 333.398)" fill="white"/>
<rect width="173.63" height="269.486" rx="30.3891" transform="matrix(0.827334 -0.561711 0.524326 0.851518 -122 862.767)" fill="url(#paint4_linear_1059_3808)" fill-opacity="0.09"/>
<rect width="173.63" height="269.486" rx="30.3891" transform="matrix(0.827334 -0.561711 0.524326 0.851518 -78.9487 884.693)" fill="url(#paint5_linear_1059_3808)" fill-opacity="0.09"/>
<rect width="178.619" height="212.008" rx="28.5562" transform="matrix(0.827334 -0.561711 0.524326 0.851518 1622.03 158.332)" fill="url(#paint6_linear_1059_3808)" fill-opacity="0.09"/>
<rect width="178.619" height="212.008" rx="28.5562" transform="matrix(0.827334 -0.561711 0.524326 0.851518 1575 215.391)" fill="url(#paint7_linear_1059_3808)" fill-opacity="0.09"/>
</g>
<defs>
<filter id="filter0_f_1059_3808" x="1098.76" y="337.758" width="1137.48" height="1011.48" filterUnits="userSpaceOnUse" color-interpolation-filters="sRGB">
<feFlood flood-opacity="0" result="BackgroundImageFix"/>
<feBlend mode="normal" in="SourceGraphic" in2="BackgroundImageFix" result="shape"/>
<feGaussianBlur stdDeviation="116.621" result="effect1_foregroundBlur_1059_3808"/>
</filter>
<filter id="filter1_f_1059_3808" x="-317.368" y="-314.368" width="1130.74" height="943.88" filterUnits="userSpaceOnUse" color-interpolation-filters="sRGB">
<feFlood flood-opacity="0" result="BackgroundImageFix"/>
<feBlend mode="normal" in="SourceGraphic" in2="BackgroundImageFix" result="shape"/>
<feGaussianBlur stdDeviation="119.184" result="effect1_foregroundBlur_1059_3808"/>
</filter>
<radialGradient id="paint0_radial_1059_3808" cx="0" cy="0" r="1" gradientUnits="userSpaceOnUse" gradientTransform="translate(1573.29 843.5) rotate(35.7585) scale(191.112 189.093)">
<stop stop-color="#0952B8"/>
<stop offset="1" stop-color="#2C85FF" stop-opacity="0"/>
</radialGradient>
<radialGradient id="paint1_radial_1059_3808" cx="0" cy="0" r="1" gradientUnits="userSpaceOnUse" gradientTransform="translate(156.18 157.571) rotate(32.3457) scale(178.918 168.74)">
<stop stop-color="#0952B8"/>
<stop offset="1" stop-color="#2C85FF" stop-opacity="0"/>
</radialGradient>
<linearGradient id="paint2_linear_1059_3808" x1="1742.5" y1="366.543" x2="998.851" y2="964.836" gradientUnits="userSpaceOnUse">
<stop stop-color="#DEE2F0" stop-opacity="0.22"/>
<stop offset="1" stop-color="#F2F5FF" stop-opacity="0"/>
</linearGradient>
<linearGradient id="paint3_linear_1059_3808" x1="993.231" y1="705.823" x2="525.476" y2="972.286" gradientUnits="userSpaceOnUse">
<stop stop-color="#DEE2F0" stop-opacity="0.27"/>
<stop offset="1" stop-color="#F2F5FF" stop-opacity="0.26"/>
</linearGradient>
<linearGradient id="paint4_linear_1059_3808" x1="86.7197" y1="12.2656" x2="87.836" y2="336.23" gradientUnits="userSpaceOnUse">
<stop stop-color="#D9D9D9"/>
<stop offset="0.4535" stop-color="#737373" stop-opacity="0"/>
</linearGradient>
<linearGradient id="paint5_linear_1059_3808" x1="86.7197" y1="12.2656" x2="87.836" y2="336.23" gradientUnits="userSpaceOnUse">
<stop stop-color="#D9D9D9"/>
<stop offset="0.4535" stop-color="#737373" stop-opacity="0"/>
</linearGradient>
<linearGradient id="paint6_linear_1059_3808" x1="89.2113" y1="9.64955" x2="89.8829" y2="264.518" gradientUnits="userSpaceOnUse">
<stop stop-color="#D9D9D9"/>
<stop offset="0.4535" stop-color="#737373" stop-opacity="0"/>
</linearGradient>
<linearGradient id="paint7_linear_1059_3808" x1="89.2113" y1="9.64955" x2="89.8829" y2="264.518" gradientUnits="userSpaceOnUse">
<stop stop-color="#D9D9D9"/>
<stop offset="0.4535" stop-color="#737373" stop-opacity="0"/>
</linearGradient>
<clipPath id="clip0_1059_3808">
<rect width="1728" height="970" fill="white"/>
</clipPath>
</defs>
</svg>
