<svg width="73" height="73" viewBox="0 0 73 73" fill="none" xmlns="http://www.w3.org/2000/svg">
<path d="M66.1562 1.7112H6.84375C5.49799 1.69751 4.20176 2.21823 3.23948 3.15913C2.27721 4.10002 1.72748 5.38422 1.71094 6.72995V66.282C1.73048 67.6257 2.28151 68.907 3.24346 69.8454C4.20542 70.7839 5.49994 71.303 6.84375 71.2893H66.1562C67.5021 71.3 68.7974 70.7775 69.7592 69.836C70.721 68.8945 71.271 67.6106 71.2891 66.2649V6.71284C71.2651 5.37106 70.7124 4.09298 69.7513 3.15641C68.7902 2.21983 67.4982 1.70047 66.1562 1.7112Z" fill="white"/>
<path d="M12.0115 27.7893H22.3399V61.0214H12.0115V27.7893ZM17.1785 11.2502C18.3631 11.2502 19.5211 11.6016 20.506 12.2598C21.4909 12.9181 22.2585 13.8537 22.7115 14.9482C23.1646 16.0428 23.2828 17.2471 23.0513 18.4089C22.8198 19.5706 22.2489 20.6376 21.4109 21.4749C20.5728 22.3121 19.5053 22.882 18.3433 23.1124C17.1813 23.3429 15.9771 23.2234 14.883 22.7693C13.7888 22.3152 12.854 21.5468 12.1967 20.5613C11.5394 19.5758 11.1891 18.4174 11.1902 17.2328C11.1918 15.6456 11.8233 14.1239 12.9462 13.0022C14.069 11.8804 15.5913 11.2502 17.1785 11.2502ZM28.8186 27.7893H38.7192V32.3518H38.8561C40.2363 29.7398 43.6011 26.9852 48.6256 26.9852C59.0851 26.9624 61.0242 33.846 61.0242 42.7714V61.0214H50.6958V44.8531C50.6958 41.0034 50.6274 36.0474 45.3292 36.0474C40.031 36.0474 39.1299 40.2449 39.1299 44.6021V61.0214H28.8186V27.7893Z" fill="#00256A"/>
</svg>
