<svg width="120" height="121" viewBox="0 0 120 121" fill="none" xmlns="http://www.w3.org/2000/svg">
<g filter="url(#filter0_d_680_3146)">
<rect x="15" y="16.2545" width="90" height="90" rx="45" fill="#6DAFFE" fill-opacity="0.36" shape-rendering="crispEdges"/>
</g>
<path d="M35.2815 48.0396C37.597 43.6932 44.5968 34.7186 54.0716 33.5909M66.7122 33.5909C70.8499 34.2174 80.2411 37.9842 84.7052 48.0396M35.2815 73.1779C39.7228 80.1086 42.2281 85.1597 54.0716 88.5663M66.7122 88.5663C71.3813 87.4699 79.6945 84.5724 84.7052 73.1779" stroke="#00256A" stroke-width="1.36981" stroke-linecap="round"/>
<path d="M33.2316 51.4456C30.8402 54.3822 28.6765 54.2648 28.1071 54.3823L28.5626 67.8911C32.89 70.4754 39.1534 71.1802 40.1783 71.1802H49.858C52.8189 71.1802 52.4773 68.402 51.2246 68.402H43.9363C43.0253 68.402 42.7975 66.9513 44.2779 66.9513H54.4132C56.9186 66.9513 56.5769 63.6622 54.8687 63.6622H44.9612C43.8224 63.6622 43.8224 62.4875 44.9612 62.4875H56.6908C59.5378 62.2526 59.0823 59.5508 56.6908 59.5508H44.9612C43.3669 59.1985 43.8224 57.4363 44.9612 57.4363H55.552C56.6908 57.4363 56.6908 54.9695 54.1855 54.9695H40.406L38.2423 56.7315C37.2174 57.9063 36.4203 57.4363 36.9897 56.7315L40.1783 52.8551L45.9861 52.5026C47.9221 52.5026 48.3776 49.4485 46.3278 49.2137H39.1534C38.2423 49.2135 35.4116 48.7687 33.2316 51.4456Z" fill="#00256A"/>
<path d="M28.1071 54.3823L27.969 53.713L27.4046 53.8294L27.424 54.4053L28.1071 54.3823ZM33.2316 51.4456L32.7017 51.014V51.014L33.2316 51.4456ZM39.1534 49.2137L39.1533 49.8971H39.1534V49.2137ZM46.3278 49.2137L46.4056 48.5347L46.3668 48.5302H46.3278V49.2137ZM45.9861 52.5026V51.8192H45.9654L45.9447 51.8205L45.9861 52.5026ZM40.1783 52.8551L40.1369 52.1729L39.8396 52.1909L39.6505 52.4209L40.1783 52.8551ZM36.9897 56.7315L36.4618 56.2973L36.458 56.302L36.9897 56.7315ZM38.2423 56.7315L37.8108 56.2016L37.7656 56.2383L37.7273 56.2822L38.2423 56.7315ZM40.406 54.9695V54.286C40.2488 54.286 40.0964 54.3403 39.9745 54.4395L40.406 54.9695ZM44.9612 59.5508L44.8138 60.2181L44.8866 60.2342H44.9612V59.5508ZM56.6908 62.4875V63.1709H56.7189L56.747 63.1686L56.6908 62.4875ZM28.5626 67.8911L27.8795 67.9141L27.8921 68.2867L28.2122 68.4778L28.5626 67.8911ZM28.2451 55.0517C28.3662 55.0267 29.2612 54.9843 30.2326 54.6085C31.2603 54.211 32.4949 53.4325 33.7616 51.8772L32.7017 51.014C31.5769 52.3953 30.5339 53.0264 29.7395 53.3337C28.8889 53.6627 28.4173 53.6205 27.969 53.713L28.2451 55.0517ZM33.7616 51.8772C35.6981 49.4992 38.1439 49.897 39.1533 49.8971L39.1535 48.5302C38.3408 48.5301 35.1252 48.0381 32.7017 51.014L33.7616 51.8772ZM39.1534 49.8971H46.3278V48.5302H39.1534V49.8971ZM46.25 49.8927C46.5776 49.9302 46.7486 50.0662 46.8447 50.2087C46.9518 50.3675 47.0065 50.5983 46.9735 50.861C46.905 51.4061 46.5226 51.8192 45.9861 51.8192V53.1861C47.3856 53.1861 48.1989 52.0722 48.3297 51.0315C48.3964 50.5013 48.3016 49.9245 47.9781 49.4446C47.6436 48.9485 47.1029 48.6146 46.4056 48.5347L46.25 49.8927ZM45.9447 51.8205L40.1369 52.1729L40.2197 53.5372L46.0275 53.1848L45.9447 51.8205ZM39.6505 52.4209L36.4618 56.2974L37.5175 57.1657L40.7061 53.2892L39.6505 52.4209ZM36.458 56.302C36.2574 56.5504 36.0885 56.8831 36.1201 57.2523C36.1367 57.4466 36.2105 57.6437 36.356 57.8065C36.5004 57.968 36.6841 58.061 36.8654 58.1025C37.2121 58.182 37.5626 58.0831 37.8516 57.9315C38.154 57.7729 38.4601 57.5215 38.7573 57.1808L37.7273 56.2822C37.5121 56.5289 37.3343 56.6593 37.2167 56.721C37.0858 56.7897 37.0804 56.7495 37.1709 56.7702C37.224 56.7824 37.3045 56.8166 37.3751 56.8955C37.4468 56.9757 37.4761 57.0664 37.482 57.1358C37.4922 57.2554 37.4372 57.2651 37.5213 57.161L36.458 56.302ZM38.6739 57.2615L40.8376 55.4994L39.9745 54.4395L37.8108 56.2016L38.6739 57.2615ZM40.406 55.6529H54.1855V54.286H40.406V55.6529ZM54.1855 55.6529C55.1845 55.6529 55.5013 56.1133 55.5766 56.3853C55.6228 56.552 55.5948 56.6783 55.5657 56.7341C55.5527 56.7588 55.5447 56.7611 55.5513 56.7568C55.5609 56.7506 55.566 56.7529 55.552 56.7529V58.1198C56.1228 58.1198 56.5534 57.7948 56.7768 57.3677C56.9896 56.9609 57.0186 56.4705 56.8939 56.0205C56.6277 55.0591 55.6918 54.286 54.1855 54.286V55.6529ZM55.552 56.7529H44.9612V58.1198H55.552V56.7529ZM44.9612 56.7529C44.0002 56.7529 43.3494 57.4996 43.2575 58.2817C43.21 58.6859 43.3055 59.1195 43.585 59.4861C43.8649 59.8533 44.2896 60.1023 44.8138 60.2181L45.1087 58.8834C44.8357 58.8231 44.7194 58.7197 44.672 58.6574C44.624 58.5945 44.6056 58.5216 44.6151 58.4412C44.637 58.2542 44.7835 58.1198 44.9612 58.1198V56.7529ZM44.9612 60.2342H56.6908V58.8673H44.9612V60.2342ZM56.6908 60.2342C57.6474 60.2342 57.9543 60.7419 57.974 60.9861C57.9843 61.1132 57.9429 61.2679 57.7727 61.42C57.5934 61.5803 57.2442 61.7561 56.6346 61.8064L56.747 63.1686C57.5609 63.1015 58.2224 62.8514 58.6837 62.4391C59.1541 62.0186 59.3831 61.4537 59.3364 60.876C59.2423 59.7105 58.1257 58.8673 56.6908 58.8673V60.2342ZM56.6908 61.8041H44.9612V63.1709H56.6908V61.8041ZM44.9612 61.8041C44.1879 61.8041 43.4237 62.2509 43.4237 63.0748C43.4237 63.8987 44.1879 64.3456 44.9612 64.3456V62.9787C44.7904 62.9787 44.7348 62.935 44.7388 62.9381C44.7408 62.9396 44.7543 62.951 44.7676 62.9766C44.781 63.0025 44.7906 63.0364 44.7906 63.0748C44.7906 63.1133 44.781 63.1472 44.7676 63.1731C44.7543 63.1987 44.7408 63.2101 44.7388 63.2116C44.7348 63.2147 44.7904 63.1709 44.9612 63.1709V61.8041ZM44.9612 64.3456H54.8687V62.9787H44.9612V64.3456ZM54.8687 64.3456C55.052 64.3456 55.2025 64.4257 55.3253 64.5882C55.4571 64.7626 55.5425 65.0207 55.5377 65.2949C55.533 65.5654 55.4424 65.8025 55.2866 65.9661C55.1404 66.1196 54.881 66.2679 54.4132 66.2679V67.6348C55.1981 67.6348 55.8355 67.3719 56.2765 66.9087C56.7079 66.4556 56.8948 65.8703 56.9044 65.3186C56.9139 64.7705 56.7501 64.2063 56.4157 63.764C56.0724 63.3098 55.5395 62.9787 54.8687 62.9787V64.3456ZM54.4132 66.2679H44.2779V67.6348H54.4132V66.2679ZM44.2779 66.2679C43.8008 66.2679 43.374 66.385 43.0489 66.6412C42.7163 66.9032 42.5422 67.2724 42.5274 67.6499C42.4988 68.3774 43.0704 69.0855 43.9363 69.0855V67.7186C43.9145 67.7186 43.905 67.7146 43.903 67.7137C43.9004 67.7126 43.8991 67.7115 43.8979 67.7102C43.893 67.705 43.8934 67.6998 43.8932 67.7035C43.8927 67.7183 43.8823 67.7247 43.8949 67.7148C43.9149 67.699 44.0149 67.6348 44.2779 67.6348V66.2679ZM43.9363 69.0855H51.2246V67.7186H43.9363V69.0855ZM51.2246 69.0855C51.2571 69.0855 51.3129 69.0963 51.3755 69.197C51.4426 69.3048 51.4842 69.4777 51.4493 69.6671C51.4166 69.8445 51.3167 70.035 51.0997 70.1899C50.8782 70.3481 50.4936 70.4967 49.858 70.4967V71.8636C50.7029 71.8636 51.386 71.665 51.894 71.3023C52.4065 70.9363 52.6981 70.4323 52.7935 69.9151C52.8867 69.41 52.7931 68.8883 52.5363 68.4753C52.2751 68.055 51.8184 67.7186 51.2246 67.7186V69.0855ZM49.858 70.4967H40.1783V71.8636H49.858V70.4967ZM40.1783 70.4967C39.7345 70.4967 37.9661 70.331 35.7579 69.8377C33.5552 69.3457 30.9875 68.5431 28.913 67.3043L28.2122 68.4778C30.4651 69.8233 33.1928 70.6653 35.4599 71.1717C37.7214 71.6769 39.5971 71.8636 40.1783 71.8636V70.4967ZM29.2456 67.868L28.7901 54.3593L27.424 54.4053L27.8795 67.9141L29.2456 67.868Z" fill="white"/>
<path d="M87.0646 51.4829C89.4179 54.4315 91.5471 54.3137 92.1074 54.4317L91.6591 67.9956C87.4008 70.5905 81.2374 71.2982 80.2288 71.2982H70.7036C67.79 71.2982 68.1262 68.5087 69.3588 68.5087H76.5308C77.4273 68.5087 77.6514 67.052 76.1946 67.052H66.2211C63.7558 67.052 64.0919 63.7495 65.7729 63.7495H75.5222C76.6429 63.7495 76.6429 62.57 75.5222 62.57H63.9799C61.1783 62.3342 61.6266 59.6213 63.9799 59.6213H75.5222C77.0911 59.2675 76.6429 57.4982 75.5222 57.4982H65.1005C63.9799 57.4982 63.9799 55.0213 66.4452 55.0213H80.0047L82.1339 56.7905C83.1424 57.9701 83.9269 57.4982 83.3666 56.7905L80.2288 52.8982L74.5137 52.5443C72.6086 52.5443 72.1604 49.4777 74.1775 49.2419H81.2374C82.1339 49.2418 84.9194 48.7951 87.0646 51.4829Z" fill="#00256A"/>
<path d="M92.1074 54.4317L92.2481 53.7629L92.8094 53.881L92.7904 54.4542L92.1074 54.4317ZM87.0646 51.4829L87.5988 51.0566V51.0566L87.0646 51.4829ZM81.2374 49.2419L81.2375 49.9254H81.2374V49.2419ZM74.1775 49.2419L74.0981 48.5631L74.1377 48.5585H74.1775V49.2419ZM74.5137 52.5443V51.8609H74.5348L74.5559 51.8622L74.5137 52.5443ZM80.2288 52.8982L80.2711 52.216L80.5718 52.2347L80.7609 52.4692L80.2288 52.8982ZM83.3666 56.7905L83.8987 56.3615L83.9024 56.3662L83.3666 56.7905ZM82.1339 56.7905L82.5707 56.2648L82.6155 56.3021L82.6533 56.3463L82.1339 56.7905ZM80.0047 55.0213V54.3378C80.1643 54.3378 80.3188 54.3936 80.4415 54.4956L80.0047 55.0213ZM75.5222 59.6213L75.6726 60.288L75.5983 60.3047H75.5222V59.6213ZM63.9799 62.57V63.2534H63.9512L63.9226 63.251L63.9799 62.57ZM91.6591 67.9956L92.3422 68.0182L92.33 68.3871L92.0148 68.5792L91.6591 67.9956ZM91.9666 55.1005C91.8529 55.0765 90.9652 55.0326 90.0074 54.6545C88.9929 54.254 87.7767 53.4709 86.5304 51.9093L87.5988 51.0566C88.7057 52.4436 89.7308 53.0758 90.5093 53.3831C91.3445 53.7128 91.8015 53.6689 92.2481 53.7629L91.9666 55.1005ZM86.5304 51.9093C84.6283 49.526 82.2313 49.9252 81.2375 49.9254L81.2373 48.5585C82.0364 48.5584 85.2105 48.0642 87.5988 51.0566L86.5304 51.9093ZM81.2374 49.9254H74.1775V48.5585H81.2374V49.9254ZM74.2569 49.9207C73.9422 49.9575 73.7764 50.0903 73.6814 50.2342C73.5749 50.3953 73.5201 50.6305 73.5531 50.898C73.622 51.4573 74.0032 51.8609 74.5137 51.8609V53.2278C73.1191 53.2278 72.3237 52.0981 72.1965 51.0651C72.1314 50.5365 72.2236 49.9609 72.5409 49.4807C72.8696 48.9832 73.4043 48.6442 74.0981 48.5631L74.2569 49.9207ZM74.5559 51.8622L80.2711 52.216L80.1866 53.5803L74.4714 53.2265L74.5559 51.8622ZM80.7609 52.4692L83.8986 56.3616L82.8345 57.2194L79.6967 53.3271L80.7609 52.4692ZM83.9024 56.3662C84.1004 56.6163 84.2638 56.9474 84.2332 57.312C84.2172 57.5034 84.1459 57.6995 84.0027 57.8629C83.8601 58.0257 83.677 58.1209 83.4942 58.1637C83.1451 58.2454 82.7942 58.1432 82.5083 57.9902C82.2088 57.8299 81.9068 57.5766 81.6144 57.2346L82.6533 56.3463C82.8652 56.5942 83.0395 56.7242 83.1533 56.7851C83.2806 56.8532 83.2798 56.81 83.1829 56.8327C83.1261 56.846 83.0446 56.8823 82.9746 56.9621C82.9041 57.0426 82.8766 57.1318 82.8711 57.1978C82.8615 57.3118 82.9129 57.3185 82.8307 57.2147L83.9024 56.3662ZM81.6971 57.3161L79.5679 55.5469L80.4415 54.4956L82.5707 56.2648L81.6971 57.3161ZM80.0047 55.7047H66.4452V54.3378H80.0047V55.7047ZM66.4452 55.7047C65.4758 55.7047 65.1637 56.1588 65.0877 56.4388C65.0414 56.6095 65.0692 56.7406 65.0993 56.7993C65.1127 56.8255 65.1207 56.8272 65.1124 56.8217C65.1007 56.814 65.0918 56.8147 65.1005 56.8147V58.1816C64.527 58.1816 64.1011 57.8484 63.883 57.423C63.675 57.0173 63.6468 56.5292 63.7686 56.0807C64.0287 55.1222 64.9493 54.3378 66.4452 54.3378V55.7047ZM65.1005 56.8147H75.5222V58.1816H65.1005V56.8147ZM75.5222 56.8147C76.4852 56.8147 77.1207 57.5755 77.2097 58.3489C77.256 58.7501 77.1635 59.1822 76.8892 59.5493C76.6136 59.9183 76.1934 60.1705 75.6726 60.288L75.3719 58.9546C75.6355 58.8951 75.7476 58.7935 75.7942 58.7312C75.8421 58.6672 75.8617 58.5905 75.8518 58.5053C75.8288 58.3056 75.6799 58.1816 75.5222 58.1816V56.8147ZM75.5222 60.3047H63.9799V58.9378H75.5222V60.3047ZM63.9799 60.3047C63.0549 60.3047 62.7484 60.8046 62.7281 61.0611C62.7175 61.1953 62.7614 61.3531 62.9276 61.5048C63.1021 61.664 63.4419 61.8388 64.0372 61.8889L63.9226 63.251C63.1171 63.1832 62.4623 62.9305 62.0065 62.5147C61.5424 62.0914 61.3201 61.5268 61.3655 60.9532C61.4573 59.7943 62.5516 58.9378 63.9799 58.9378V60.3047ZM63.9799 61.8865H75.5222V63.2534H63.9799V61.8865ZM75.5222 61.8865C76.3005 61.8865 77.0461 62.3456 77.0461 63.1597C77.0461 63.9738 76.3005 64.4329 75.5222 64.4329V63.066C75.6855 63.066 75.7357 63.0236 75.7291 63.0287C75.7262 63.0311 75.713 63.0427 75.7005 63.0674C75.688 63.0921 75.6793 63.124 75.6793 63.1597C75.6793 63.1954 75.688 63.2274 75.7005 63.2521C75.713 63.2768 75.7262 63.2884 75.7291 63.2907C75.7357 63.2959 75.6855 63.2534 75.5222 63.2534V61.8865ZM75.5222 64.4329H65.7729V63.066H75.5222V64.4329ZM65.7729 64.4329C65.6023 64.4329 65.4578 64.5083 65.3362 64.6723C65.2059 64.8482 65.1207 65.11 65.1255 65.3892C65.1302 65.6651 65.221 65.9054 65.3743 66.0697C65.5169 66.2225 65.7677 66.3686 66.2211 66.3686V67.7355C65.4419 67.7355 64.8102 67.4687 64.3749 67.0023C63.9505 66.5474 63.7681 65.9621 63.7588 65.4123C63.7495 64.8659 63.9095 64.302 64.2379 63.8586C64.5751 63.4035 65.103 63.066 65.7729 63.066V64.4329ZM66.2211 66.3686H76.1946V67.7355H66.2211V66.3686ZM76.1946 66.3686C76.6688 66.3686 77.0934 66.4876 77.416 66.747C77.7451 67.0115 77.9138 67.3808 77.9281 67.7541C77.9556 68.4689 77.4027 69.1921 76.5308 69.1921V67.8252C76.5404 67.8252 76.5464 67.8243 76.5496 67.8236C76.5527 67.8229 76.5542 67.8223 76.5545 67.8222C76.5547 67.8221 76.555 67.8221 76.5559 67.821C76.5573 67.8195 76.5594 67.8165 76.5608 67.8125C76.5623 67.8084 76.5622 67.8061 76.5622 67.8066C76.5626 67.8157 76.5702 67.8208 76.5595 67.8123C76.5425 67.7986 76.4488 67.7355 76.1946 67.7355V66.3686ZM76.5308 69.1921H69.3588V67.8252H76.5308V69.1921ZM69.3588 69.1921C69.338 69.1921 69.2859 69.1967 69.2228 69.3001C69.1558 69.4102 69.1138 69.5875 69.1489 69.7819C69.1819 69.9643 69.282 70.1559 69.4934 70.3099C69.7086 70.4667 70.0826 70.6147 70.7036 70.6147V71.9816C69.8678 71.9816 69.1912 71.781 68.6885 71.4147C68.182 71.0457 67.8969 70.5399 67.8038 70.025C67.7129 69.522 67.8039 69.0019 68.0556 68.5889C68.3112 68.1694 68.7634 67.8252 69.3588 67.8252V69.1921ZM70.7036 70.6147H80.2288V71.9816H70.7036V70.6147ZM80.2288 70.6147C80.663 70.6147 82.4013 70.4487 84.5734 69.9536C86.7396 69.4599 89.2642 68.6547 91.3035 67.412L92.0148 68.5792C89.7957 69.9314 87.1094 70.7775 84.8772 71.2863C82.6509 71.7938 80.8032 71.9816 80.2288 71.9816V70.6147ZM90.976 67.973L91.4243 54.4091L92.7904 54.4542L92.3422 68.0182L90.976 67.973Z" fill="white"/>
<path d="M64.7761 32.8855C64.7761 35.3178 62.8699 37.2532 60.5627 37.2532C58.2556 37.2532 56.3493 35.3178 56.3493 32.8855C56.3493 30.4531 58.2556 28.5178 60.5627 28.5178C62.8699 28.5178 64.7761 30.4531 64.7761 32.8855Z" stroke="#00256A" stroke-width="1.36688"/>
<path d="M64.7761 89.2706C64.7761 91.703 62.8699 93.6384 60.5627 93.6384C58.2556 93.6384 56.3493 91.703 56.3493 89.2706C56.3493 86.8383 58.2556 84.9029 60.5627 84.9029C62.8699 84.9029 64.7761 86.8383 64.7761 89.2706Z" stroke="#00256A" stroke-width="1.36688"/>
<path d="M62.9541 75.6437C62.9541 77.0381 61.8636 78.1319 60.5628 78.1319C59.2619 78.1319 58.1715 77.0381 58.1715 75.6437C58.1715 74.2494 59.2619 73.1555 60.5628 73.1555C61.8636 73.1555 62.9541 74.2494 62.9541 75.6437Z" stroke="#00256A" stroke-width="1.36688"/>
<path d="M62.9541 46.9812C62.9541 48.3755 61.8636 49.4694 60.5628 49.4694C59.2619 49.4694 58.1715 48.3755 58.1715 46.9812C58.1715 45.5868 59.2619 44.493 60.5628 44.493C61.8636 44.493 62.9541 45.5868 62.9541 46.9812Z" stroke="#00256A" stroke-width="1.36688"/>
<defs>
<filter id="filter0_d_680_3146" x="0.169316" y="0.74033" width="119.661" height="119.661" filterUnits="userSpaceOnUse" color-interpolation-filters="sRGB">
<feFlood flood-opacity="0" result="BackgroundImageFix"/>
<feColorMatrix in="SourceAlpha" type="matrix" values="0 0 0 0 0 0 0 0 0 0 0 0 0 0 0 0 0 0 127 0" result="hardAlpha"/>
<feMorphology radius="2.73377" operator="dilate" in="SourceAlpha" result="effect1_dropShadow_680_3146"/>
<feOffset dy="-0.683442"/>
<feGaussianBlur stdDeviation="6.04846"/>
<feComposite in2="hardAlpha" operator="out"/>
<feColorMatrix type="matrix" values="0 0 0 0 0 0 0 0 0 0 0 0 0 0 0 0 0 0 0.08 0"/>
<feBlend mode="normal" in2="BackgroundImageFix" result="effect1_dropShadow_680_3146"/>
<feBlend mode="normal" in="SourceGraphic" in2="effect1_dropShadow_680_3146" result="shape"/>
</filter>
</defs>
</svg>
