<svg width="124" height="125" viewBox="0 0 124 125" fill="none" xmlns="http://www.w3.org/2000/svg">
<g filter="url(#filter0_d_680_3189)">
<rect x="17" y="18.2796" width="90" height="90.2387" rx="45" fill="#6DAFFE" fill-opacity="0.36" shape-rendering="crispEdges"/>
</g>
<path d="M60.6137 61.6898C58.7016 63.7621 54.5247 66.2832 52.8459 67.3694C53.3012 68.2329 54.6214 70.0936 56.2604 70.6284C58.309 71.2968 63.772 69.4585 65.5646 67.9544C66.9986 66.7512 69.2351 67.4531 70.174 67.9544L81.4416 74.6392L85.3681 73.0516L79.7344 58.6793C78.767 59.1528 76.4395 60.15 74.8688 60.3505C72.9056 60.6012 71.7959 59.6838 68.7229 58.6811C65.65 57.6784 63.0038 59.0994 60.6137 61.6898Z" stroke="#003474" stroke-width="1.93646" stroke-linejoin="round"/>
<path d="M61.7552 34.4724L53.2786 38.7664V48.6962C53.6246 53.5627 59.0738 57.3438 61.7552 58.6261C62.9661 58.0893 64.2635 57.9104 66.2529 56.8369C70.2317 54.6899 71.5868 48.9944 71.7021 45.923V38.7664L61.7552 34.4724Z" stroke="#003474" stroke-width="1.93646" stroke-linejoin="round"/>
<path d="M61.1496 47.0849L58.0357 44.3117C54.9219 42.7911 54.5759 46.1905 55.9599 47.0849L60.3094 51.5084C60.7692 51.976 61.5245 51.9707 61.9777 51.4967L68.8476 44.3117C70.5775 41.7174 67.9827 40.1075 66.3393 41.7175L61.1496 47.0849Z" fill="#003474" stroke="white" stroke-width="1.52646" stroke-linejoin="round"/>
<path d="M48.7809 50.4851C48.8647 53.3478 51.3469 56.6577 52.5867 58.268L53.4516 59.252C54.6238 58.7132 56.2455 58.3962 57.0332 58.2862C57.1244 58.2734 57.2177 58.2787 57.307 58.3011C59.6317 58.8828 60.6307 59.9677 60.6307 59.9677C63.4678 57.5344 67.5503 58.268 69.8856 59.252C73.2763 56.4609 75.5079 50.4851 75.5079 47.8908L75.1619 36.0824L61.7552 30.2676L48.7809 36.4402C48.7521 40.1378 48.7118 48.1234 48.7809 50.4851Z" stroke="#003474" stroke-width="1.93646" stroke-linejoin="round"/>
<path d="M49.2936 58.9091L49.7558 58.0584C49.7429 58.0514 49.7299 58.0447 49.7168 58.0383L49.2936 58.9091ZM55.684 58.9091L55.2883 58.0255V58.0255L55.684 58.9091ZM61.3835 60.0822L62.2358 60.5417C62.4399 60.1631 62.3698 59.6952 62.0636 59.393L61.3835 60.0822ZM52.9323 67.0343L52.6624 66.1045C52.304 66.2085 52.0373 66.5093 51.9768 66.8776L52.9323 67.0343ZM57.776 70.881L57.9741 71.8288L57.776 70.881ZM64.9551 68.5641L65.3378 69.4535C65.3547 69.4462 65.3714 69.4384 65.3879 69.4302L64.9551 68.5641ZM69.2799 68.1078L69.736 67.2537C69.712 67.2409 69.6875 67.2291 69.6625 67.2184L69.2799 68.1078ZM79.8323 73.7437L80.4446 72.9936C80.396 72.954 80.3437 72.9191 80.2884 72.8896L79.8323 73.7437ZM69.9895 74.6761C69.5278 74.4063 68.9348 74.5619 68.6651 75.0236C68.3953 75.4854 68.551 76.0783 69.0127 76.3481L69.9895 74.6761ZM64.9016 78.7407C64.4421 78.4671 63.8479 78.6176 63.5742 79.0771C63.3005 79.5365 63.4511 80.1307 63.9105 80.4044L64.9016 78.7407ZM70.192 89.5885L69.6559 90.3947C69.77 90.4707 69.8991 90.5215 70.0344 90.5438L70.192 89.5885ZM45.157 57.9753L48.8703 59.78L49.7168 58.0383L46.0034 56.2336L45.157 57.9753ZM48.8313 59.7599C51.3373 61.1215 53.8841 60.776 56.0797 59.7928L55.2883 58.0255C53.4478 58.8496 51.5677 59.0428 49.7558 58.0584L48.8313 59.7599ZM56.0797 59.7928C57.983 58.9405 59.8126 59.8922 60.7035 60.7713L62.0636 59.393C60.8819 58.2268 58.2209 56.7122 55.2883 58.0255L56.0797 59.7928ZM60.5313 59.6226C59.6519 61.2534 57.9885 62.7981 56.3204 64.0041C55.4976 64.5989 54.6977 65.0942 54.0339 65.4599C53.3494 65.8371 52.8658 66.0454 52.6624 66.1045L53.2022 67.9642C53.6206 67.8427 54.2587 67.5471 54.9685 67.156C55.699 66.7534 56.5659 66.2161 57.455 65.5733C59.2106 64.304 61.1511 62.5531 62.2358 60.5417L60.5313 59.6226ZM51.9768 66.8776C51.9151 67.254 52.0096 67.6083 52.1082 67.8653C52.2139 68.1406 52.3682 68.4157 52.5424 68.6753C52.8917 69.1961 53.3805 69.7423 53.9274 70.2273C54.4737 70.7117 55.1129 71.1659 55.7766 71.4749C56.4233 71.776 57.203 71.9899 57.9741 71.8288L57.578 69.9332C57.3895 69.9726 57.0624 69.9375 56.594 69.7194C56.1426 69.5093 55.6584 69.1741 55.2121 68.7784C54.7664 68.3831 54.3932 67.9583 54.1504 67.5964C54.0286 67.4148 53.9542 67.2707 53.916 67.1713C53.8709 67.0536 53.9063 67.0778 53.8877 67.1911L51.9768 66.8776ZM57.9741 71.8288C59.1649 71.5799 61.7361 71.0031 65.3378 69.4535L64.5725 67.6747C61.1274 69.1569 58.69 69.7009 57.578 69.9332L57.9741 71.8288ZM65.3879 69.4302C66.3158 68.9665 66.9783 68.7798 67.4967 68.7396C67.9954 68.7009 68.4224 68.7929 68.8972 68.9972L69.6625 67.2184C68.9629 66.9174 68.2207 66.7412 67.3471 66.8089C66.4933 66.8751 65.5807 67.1691 64.5223 67.698L65.3879 69.4302ZM68.8237 68.9619L79.3762 74.5977L80.2884 72.8896L69.736 67.2537L68.8237 68.9619ZM79.22 74.4937C79.2761 74.5395 79.3948 74.6818 79.5204 74.9845C79.6397 75.2721 79.7373 75.6378 79.7969 76.0433C79.92 76.8803 79.858 77.7135 79.6554 78.2214L81.4542 78.9386C81.8274 78.0027 81.8646 76.7938 81.7128 75.7615C81.635 75.2324 81.5016 74.7067 81.3091 74.2426C81.1229 73.7936 80.849 73.3238 80.4446 72.9936L79.22 74.4937ZM79.6554 78.2214C79.5663 78.4449 79.3432 78.8003 79.0102 79.0448C78.7109 79.2646 78.3197 79.4034 77.7678 79.265L77.2968 81.1434C78.4721 81.4381 79.4482 81.1258 80.1564 80.6056C80.8309 80.1102 81.2554 79.437 81.4542 78.9386L79.6554 78.2214ZM78.0207 79.3682L69.9895 74.6761L69.0127 76.3481L77.0439 81.0402L78.0207 79.3682ZM76.7635 80.7928C77.1657 81.3181 77.233 82.3459 76.7307 83.1976C76.4963 83.5951 76.157 83.9123 75.7187 84.0926C75.284 84.2715 74.6855 84.3429 73.8859 84.1387L73.4066 86.0149C74.55 86.307 75.5815 86.2431 76.4556 85.8834C77.3263 85.5251 77.9746 84.9004 78.3987 84.1813C79.2134 82.7998 79.2806 80.8949 78.3011 79.6156L76.7635 80.7928ZM74.1418 84.245L64.9016 78.7407L63.9105 80.4044L73.1507 85.9086L74.1418 84.245ZM72.8696 85.6549C73.2463 86.1611 73.3464 87.0526 72.9899 87.7391C72.8243 88.058 72.5621 88.3284 72.1726 88.5C71.7774 88.6741 71.191 88.772 70.3496 88.6332L70.0344 90.5438C71.1619 90.7298 72.1429 90.6291 72.9534 90.272C73.7697 89.9124 74.3516 89.3188 74.7085 88.6316C75.3969 87.3058 75.2552 85.6167 74.4229 84.4987L72.8696 85.6549ZM70.7281 88.7822L63.1286 83.7291L62.0564 85.3417L69.6559 90.3947L70.7281 88.7822Z" fill="#003474"/>
<rect x="0.549095" y="1.42259" width="7.05344" height="24.7217" rx="1.2587" transform="matrix(0.909173 0.416419 -0.393618 0.919274 40.4518 48.7124)" stroke="#003474" stroke-width="2.13011"/>
<rect x="0.366102" y="1.48401" width="4.70168" height="11.5956" rx="2.35084" transform="matrix(0.848086 0.529859 -0.504346 0.863502 51.9229 77.1145)" stroke="#003474" stroke-width="2.13011"/>
<rect x="0.366102" y="1.48401" width="4.70168" height="10.2681" rx="2.35084" transform="matrix(0.848086 0.529859 -0.504346 0.863502 56.9459 79.8258)" stroke="#003474" stroke-width="2.13011"/>
<rect x="0.394985" y="1.47609" width="4.69767" height="9.679" rx="2.34883" transform="matrix(0.858468 0.512868 -0.487609 0.873062 61.8575 82.7272)" stroke="#003474" stroke-width="2.13011"/>
<rect x="1.24159" y="0.53878" width="7.33977" height="25.001" rx="1.35553" transform="matrix(0.925866 -0.377853 0.35646 0.93431 76.8308 53.4511)" stroke="#003474" stroke-width="1.93646"/>
<rect x="1.44065" y="-0.354327" width="4.80941" height="5.0407" rx="2.40471" transform="matrix(0.504946 -0.863151 0.847706 0.530467 62.6473 93.1898)" stroke="#003474" stroke-width="2.13011"/>
<ellipse cx="42.207" cy="55.3154" rx="1.29743" ry="1.25241" fill="#003474"/>
<path d="M39.6121 72.8505L42.0339 74.0134C42.4952 74.9378 43.5735 77.6991 43.5043 79.202" stroke="#003474" stroke-width="1.93646" stroke-linejoin="round"/>
<rect x="0.366102" y="1.48401" width="4.70168" height="9.89473" rx="2.35084" transform="matrix(0.848086 0.529859 -0.504346 0.863502 46.9471 73.5063)" stroke="#003474" stroke-width="2.13011"/>
<ellipse cx="83.0326" cy="56.6582" rx="1.29743" ry="1.34187" fill="#003474"/>
<defs>
<filter id="filter0_d_680_3189" x="0.437882" y="0.954283" width="123.124" height="123.363" filterUnits="userSpaceOnUse" color-interpolation-filters="sRGB">
<feFlood flood-opacity="0" result="BackgroundImageFix"/>
<feColorMatrix in="SourceAlpha" type="matrix" values="0 0 0 0 0 0 0 0 0 0 0 0 0 0 0 0 0 0 127 0" result="hardAlpha"/>
<feMorphology radius="3.05292" operator="dilate" in="SourceAlpha" result="effect1_dropShadow_680_3189"/>
<feOffset dy="-0.763231"/>
<feGaussianBlur stdDeviation="6.7546"/>
<feComposite in2="hardAlpha" operator="out"/>
<feColorMatrix type="matrix" values="0 0 0 0 0 0 0 0 0 0 0 0 0 0 0 0 0 0 0.08 0"/>
<feBlend mode="normal" in2="BackgroundImageFix" result="effect1_dropShadow_680_3189"/>
<feBlend mode="normal" in="SourceGraphic" in2="effect1_dropShadow_680_3189" result="shape"/>
</filter>
</defs>
</svg>
