<svg width="577" height="463" viewBox="0 0 577 463" fill="none" xmlns="http://www.w3.org/2000/svg">
<g opacity="0.15">
<path d="M231.271 288.751C231.271 256.988 205.522 231.238 173.758 231.238V231.238C141.995 231.238 116.245 256.988 116.245 288.751V346.265H173.758C205.522 346.265 231.271 320.515 231.271 288.751V288.751Z" stroke="#FBAC35" stroke-width="2"/>
<path d="M116.245 403.778C116.245 372.014 141.995 346.265 173.758 346.265V346.265C205.522 346.265 231.271 372.014 231.271 403.778V461.291H173.758C141.995 461.291 116.245 435.541 116.245 403.778V403.778Z" stroke="#FBAC35" stroke-width="2"/>
<path d="M116.245 288.752C116.245 320.515 90.4956 346.265 58.732 346.265V346.265C26.9684 346.265 1.21888 320.515 1.21888 288.752V231.238H58.732C90.4956 231.238 116.245 256.988 116.245 288.752V288.752Z" stroke="#FBAC35" stroke-width="2"/>
<path d="M1.21924 403.778C1.21924 435.541 26.9688 461.291 58.7324 461.291V461.291C90.496 461.291 116.245 435.541 116.245 403.778V346.265H58.7324C26.9688 346.265 1.21924 372.014 1.21924 403.778V403.778Z" stroke="#FBAC35" stroke-width="2"/>
<path d="M231.271 58.6989C231.271 26.9353 205.522 1.18579 173.758 1.18579V1.18579C141.995 1.18579 116.245 26.9353 116.245 58.6989V116.212H173.758C205.522 116.212 231.271 90.4625 231.271 58.6989V58.6989Z" stroke="#FBAC35" stroke-width="2"/>
<path d="M116.245 173.725C116.245 141.962 141.995 116.212 173.758 116.212V116.212C205.522 116.212 231.271 141.962 231.271 173.725V231.238H173.758C141.995 231.238 116.245 205.489 116.245 173.725V173.725Z" stroke="#FBAC35" stroke-width="2"/>
<path d="M1.21924 173.725C1.21924 205.489 26.9688 231.238 58.7324 231.238V231.238C90.496 231.238 116.245 205.489 116.245 173.725V116.212H58.7324C26.9688 116.212 1.21924 141.962 1.21924 173.725V173.725Z" stroke="#FBAC35" stroke-width="2"/>
<path d="M461.324 288.751C461.324 256.988 435.575 231.238 403.811 231.238V231.238C372.047 231.238 346.298 256.988 346.298 288.751V346.265H403.811C435.575 346.265 461.324 320.515 461.324 288.751V288.751Z" stroke="#FBAC35" stroke-width="2"/>
<path d="M346.298 403.778C346.298 372.014 372.048 346.264 403.811 346.264V346.264C435.575 346.264 461.324 372.014 461.324 403.777V461.291H403.811C372.048 461.291 346.298 435.541 346.298 403.778V403.778Z" stroke="#FBAC35" stroke-width="2"/>
<path d="M346.298 288.751C346.298 320.515 320.549 346.264 288.785 346.264V346.264C257.021 346.264 231.272 320.515 231.272 288.751V231.238H288.785C320.549 231.238 346.298 256.988 346.298 288.751V288.751Z" stroke="#FBAC35" stroke-width="2"/>
<path d="M231.271 403.778C231.271 435.541 257.021 461.291 288.785 461.291V461.291C320.548 461.291 346.298 435.541 346.298 403.778V346.265H288.785C257.021 346.265 231.271 372.014 231.271 403.778V403.778Z" stroke="#FBAC35" stroke-width="2"/>
<path d="M575.708 288.751C575.708 320.515 549.958 346.264 518.194 346.264V346.264C486.431 346.264 460.681 320.515 460.681 288.751V231.238H518.194C549.958 231.238 575.708 256.988 575.708 288.751V288.751Z" stroke="#FBAC35" stroke-width="2"/>
<path d="M460.681 403.778C460.681 435.541 486.431 461.291 518.195 461.291V461.291C549.958 461.291 575.708 435.541 575.708 403.778V346.265H518.195C486.431 346.265 460.681 372.014 460.681 403.778V403.778Z" stroke="#FBAC35" stroke-width="2"/>
</g>
</svg>
