<svg width="704" height="680" viewBox="0 0 704 680" fill="none" xmlns="http://www.w3.org/2000/svg">
<ellipse cx="355.307" cy="347.781" rx="302.335" ry="301.226" fill="white"/>
<g filter="url(#filter0_d_680_2797)">
<ellipse cx="355.19" cy="350.861" rx="227.697" ry="226.862" fill="white"/>
</g>
<g filter="url(#filter1_d_680_2797)">
<path d="M502.815 348.259C502.815 429.212 436.948 494.838 355.695 494.838C274.443 494.838 208.576 429.212 208.576 348.259C208.576 267.306 274.443 201.68 355.695 201.68C436.948 201.68 502.815 267.306 502.815 348.259Z" stroke="#00256A" stroke-width="0.473816" shape-rendering="crispEdges"/>
</g>
<g filter="url(#filter2_d_680_2797)">
<ellipse cx="71.2558" cy="340.517" rx="68.2559" ry="68.0055" fill="white"/>
</g>
<path d="M64.5064 311.66H51.6491C47.9854 311.417 40.4093 313.219 39.4139 322.369V349.611C38.93 353.424 40.6996 361.381 51.6491 362.712H68.7057M100.071 344.828C100.934 346.284 102.178 352.523 98.9308 356.682C94.5472 362.296 89.3569 362.643 85.7624 362.712H68.7057M64.5064 352.938H74.9788M68.7057 362.712V372.278M68.7057 372.278H83.3776M68.7057 372.278H56.0039" stroke="#235CE0" stroke-width="3.92618" stroke-linecap="round"/>
<path d="M78.7185 344.828C78.7185 345.912 79.5974 346.791 80.6816 346.791C81.7658 346.791 82.6447 345.912 82.6447 344.828H78.7185ZM88.88 344.828C88.88 345.912 89.7589 346.791 90.8431 346.791C91.9273 346.791 92.8062 345.912 92.8062 344.828H88.88ZM92.8062 308.956C92.8062 307.872 91.9273 306.993 90.8431 306.993C89.7589 306.993 88.88 307.872 88.88 308.956H92.8062ZM82.6447 308.956C82.6447 307.872 81.7658 306.993 80.6816 306.993C79.5974 306.993 78.7185 307.872 78.7185 308.956H82.6447ZM67.8243 320.094C66.7401 320.094 65.8612 320.973 65.8612 322.057C65.8612 323.141 66.7401 324.02 67.8243 324.02V320.094ZM67.8243 330.284C66.7401 330.284 65.8612 331.163 65.8612 332.247C65.8612 333.331 66.7401 334.21 67.8243 334.21V330.284ZM102.767 324.02C103.851 324.02 104.73 323.141 104.73 322.057C104.73 320.973 103.851 320.094 102.767 320.094V324.02ZM102.767 334.21C103.851 334.21 104.73 333.331 104.73 332.247C104.73 331.163 103.851 330.284 102.767 330.284V334.21ZM78.7185 337.654V344.828H82.6447V337.654H78.7185ZM88.88 337.654V344.828H92.8062V337.654H88.88ZM88.88 308.956V316.962H92.8062V308.956H88.88ZM78.7185 308.956V316.962H82.6447V308.956H78.7185ZM67.8243 324.02H75.1862V320.094H67.8243V324.02ZM67.8243 334.21H75.1862V330.284H67.8243V334.21ZM95.3017 324.02H102.767V320.094H95.3017V324.02ZM95.3017 334.21H102.767V330.284H95.3017V334.21Z" fill="#FF6A00"/>
<mask id="path-7-inside-1_680_2797" fill="white">
<rect x="73.9426" y="315.506" width="23.0188" height="22.6669" rx="3.31802"/>
</mask>
<rect x="73.9426" y="315.506" width="23.0188" height="22.6669" rx="3.31802" stroke="#235CE0" stroke-width="7.85237" mask="url(#path-7-inside-1_680_2797)"/>
<g filter="url(#filter3_d_680_2797)">
<ellipse cx="355.641" cy="69.0055" rx="68.2559" ry="68.0055" fill="white"/>
</g>
<path d="M367.483 45.4879L366.566 46.7288L367.483 45.4879ZM365.488 67.1771C364.886 67.7806 364.887 68.7577 365.491 69.3595C366.094 69.9613 367.071 69.96 367.673 69.3565L365.488 67.1771ZM371.715 58.9819L370.19 58.749L371.715 58.9819ZM373.95 83.3506C373.2 83.7551 372.919 84.6912 373.324 85.4414C373.729 86.1915 374.665 86.4717 375.415 86.0672L373.95 83.3506ZM350.008 60.1997C350.68 60.7232 351.65 60.6023 352.173 59.9297C352.697 59.2571 352.576 58.2875 351.903 57.764L350.008 60.1997ZM327.422 64.5915L325.991 64.0126L327.422 64.5915ZM335.834 86.1066C336.606 86.4678 337.525 86.1349 337.886 85.363C338.247 84.591 337.914 83.6724 337.142 83.3111L335.834 86.1066ZM345.554 84.7089C345.554 83.8566 344.863 83.1657 344.011 83.1657C343.159 83.1657 342.468 83.8566 342.468 84.7089H345.554ZM344.011 89.9317L345.281 90.8084L345.554 90.4126V89.9317H344.011ZM357.514 84.7089C357.514 83.8566 356.823 83.1657 355.971 83.1657C355.119 83.1657 354.428 83.8566 354.428 84.7089H357.514ZM368.124 84.7089C368.124 83.8566 367.433 83.1657 366.58 83.1657C365.728 83.1657 365.037 83.8566 365.037 84.7089H368.124ZM366.58 89.9317H365.037V90.5803L365.501 91.0341L366.58 89.9317ZM342.082 55.5C342.082 51.3046 345.371 47.1217 350.312 44.9618C355.178 42.8349 361.316 42.8473 366.566 46.7288L368.401 44.247C362.139 39.6175 354.804 39.6299 349.076 42.1338C343.423 44.6047 338.996 49.6834 338.996 55.5H342.082ZM366.566 46.7288C368.415 48.0958 369.494 49.7137 370.039 51.625C370.596 53.5772 370.621 55.9231 370.19 58.749L373.241 59.2147C373.708 56.1558 373.732 53.3192 373.007 50.7779C372.27 48.1956 370.784 46.0089 368.401 44.247L366.566 46.7288ZM370.19 58.749C369.799 61.3094 368.472 64.1842 365.488 67.1771L367.673 69.3565C371.051 65.9697 372.737 62.5162 373.241 59.2147L370.19 58.749ZM372.098 60.4769C373.775 60.0477 375.878 60.5096 377.901 61.8205C379.905 63.1191 381.656 65.1481 382.596 67.5173C383.527 69.8615 383.662 72.5233 382.492 75.2007C381.313 77.8953 378.739 80.7677 373.95 83.3506L375.415 86.0672C380.625 83.2572 383.791 79.9331 385.319 76.4373C386.856 72.9243 386.665 69.402 385.465 66.3784C384.274 63.3797 382.089 60.8571 379.579 59.2304C377.088 57.616 374.098 56.7788 371.333 57.4869L372.098 60.4769ZM351.903 57.764C349.485 55.8815 344.597 53.8273 339.539 53.9994C336.975 54.0866 334.313 54.7484 331.909 56.3474C329.497 57.9517 327.438 60.4368 325.991 64.0126L328.852 65.1704C330.096 62.0961 331.787 60.1357 333.618 58.9173C335.458 57.6938 337.536 57.1557 339.644 57.084C343.93 56.9382 348.119 58.7293 350.008 60.1997L351.903 57.764ZM325.991 64.0126C324.985 66.4996 324.303 70.524 325.452 74.697C326.62 78.9435 329.652 83.2136 335.834 86.1066L337.142 83.3111C331.75 80.788 329.348 77.2239 328.427 73.878C327.486 70.4586 328.058 67.1324 328.852 65.1704L325.991 64.0126ZM342.468 84.7089V89.9317H345.554V84.7089H342.468ZM342.741 89.0549L339.269 94.0842L341.809 95.8377L345.281 90.8084L342.741 89.0549ZM354.428 84.7089V94.961H357.514V84.7089H354.428ZM365.037 84.7089V89.9317H368.124V84.7089H365.037ZM365.501 91.0341L370.635 96.0635L372.795 93.8585L367.66 88.8292L365.501 91.0341Z" fill="#235CE0"/>
<ellipse cx="337.875" cy="97.2826" rx="4.6296" ry="4.64247" fill="#FF6A00"/>
<ellipse cx="355.778" cy="97.2826" rx="4.6296" ry="4.64247" fill="#FF6A00"/>
<ellipse cx="373.525" cy="97.2826" rx="4.6296" ry="4.64247" fill="#FF6A00"/>
<g filter="url(#filter4_d_680_2797)">
<ellipse cx="355.642" cy="604.74" rx="69.1703" ry="68.9166" fill="white"/>
</g>
<path d="M345.206 591.549C345.833 592.186 346.858 592.195 347.495 591.567C348.132 590.94 348.14 589.915 347.513 589.278L345.206 591.549ZM349.058 575.94L348.909 574.328L348.738 574.344L348.574 574.395L349.058 575.94ZM345.415 631.942L344.304 633.119L344.415 633.223L344.542 633.305L345.415 631.942ZM342.852 625.99L344.467 625.875C344.42 625.219 343.982 624.657 343.358 624.452L342.852 625.99ZM341.439 611.019C342.135 610.459 342.246 609.44 341.686 608.743C341.125 608.046 340.107 607.936 339.41 608.496L341.439 611.019ZM336.108 614.418L337.499 615.245L336.108 614.418ZM335.028 596.772L335.907 598.131C336.63 597.664 336.861 596.712 336.432 595.966L335.028 596.772ZM342.535 582.974L344.152 582.89L342.535 582.974ZM363.626 588.795C362.732 588.795 362.008 589.52 362.008 590.414C362.008 591.308 362.732 592.033 363.626 592.033V588.795ZM370.776 590.414V592.033H371.435L371.907 591.571L370.776 590.414ZM363.534 604.083C362.642 604.134 361.959 604.899 362.01 605.791C362.061 606.684 362.826 607.366 363.718 607.315L363.534 604.083ZM363.626 618.554C362.732 618.554 362.008 619.279 362.008 620.173C362.008 621.067 362.732 621.792 363.626 621.792V618.554ZM370.776 620.173L371.922 619.03L371.447 618.554H370.776V620.173ZM349.206 577.552C350.482 577.434 351.977 577.771 353.207 579.255C354.494 580.809 355.667 583.829 355.667 589.467H358.905C358.905 583.472 357.672 579.57 355.7 577.19C353.67 574.74 351.051 574.13 348.909 574.328L349.206 577.552ZM355.667 589.467V627.478H358.905V589.467H355.667ZM355.667 627.478C355.667 629.285 354.829 631.036 353.441 631.857C352.156 632.616 349.871 632.873 346.289 630.579L344.542 633.305C348.73 635.988 352.38 636.245 355.088 634.644C357.693 633.104 358.905 630.134 358.905 627.478H355.667ZM346.526 630.764C346.009 630.276 344.65 628.438 344.467 625.875L341.238 626.105C341.487 629.601 343.293 632.165 344.304 633.119L346.526 630.764ZM343.358 624.452C341.342 623.79 339.067 622.56 337.739 620.942C337.094 620.157 336.71 619.329 336.625 618.456C336.541 617.593 336.733 616.533 337.499 615.245L334.716 613.591C333.659 615.369 333.241 617.111 333.403 618.77C333.564 620.419 334.282 621.834 335.237 622.997C337.108 625.276 340.029 626.766 342.347 627.528L343.358 624.452ZM337.499 615.245C338.227 614.02 339.467 612.605 341.439 611.019L339.41 608.496C337.239 610.242 335.699 611.937 334.716 613.591L337.499 615.245ZM336.751 612.933C335.449 612.368 334.014 611.548 332.79 610.534C331.555 609.512 330.627 608.371 330.184 607.19C329.764 606.069 329.742 604.823 330.471 603.386C331.232 601.889 332.854 600.103 335.907 598.131L334.15 595.412C330.836 597.553 328.701 599.722 327.585 601.92C326.438 604.179 326.419 606.37 327.152 608.326C327.863 610.221 329.238 611.797 330.726 613.028C332.225 614.269 333.933 615.24 335.464 615.903L336.751 612.933ZM347.513 589.278C345.883 587.622 344.267 585.119 344.152 582.89L340.918 583.058C341.095 586.463 343.37 589.684 345.206 591.549L347.513 589.278ZM344.152 582.89C344.099 581.881 344.351 580.934 345.073 580.064C345.822 579.164 347.176 578.226 349.542 577.485L348.574 574.395C345.833 575.254 343.855 576.464 342.583 577.996C341.285 579.559 340.829 581.329 340.918 583.058L344.152 582.89ZM336.432 595.966C335.478 594.303 334.762 591.828 335.355 589.677C335.893 587.725 337.663 585.524 342.83 584.566L342.24 581.382C336.253 582.493 333.197 585.322 332.234 588.817C331.326 592.113 332.434 595.503 333.625 597.577L336.432 595.966ZM363.626 592.033H370.776V588.795H363.626V592.033ZM371.907 591.571L377.303 586.296L375.04 583.981L369.644 589.256L371.907 591.571ZM363.718 607.315L375.589 606.639L375.405 603.407L363.534 604.083L363.718 607.315ZM363.626 621.792H370.776V618.554H363.626V621.792ZM369.629 621.316L374.351 626.051L376.643 623.765L371.922 619.03L369.629 621.316Z" fill="#235CE0"/>
<ellipse cx="377.509" cy="626.367" rx="4.45152" ry="4.4639" fill="#FF6A00"/>
<ellipse cx="377.509" cy="604.725" rx="4.45152" ry="4.4639" fill="#FF6A00"/>
<ellipse cx="377.509" cy="583.08" rx="4.45152" ry="4.4639" fill="#FF6A00"/>
<g filter="url(#filter5_d_680_2797)">
<ellipse cx="631.849" cy="340.516" rx="68.2559" ry="68.0055" fill="white"/>
</g>
<path d="M632.503 349.656C632.503 348.773 631.787 348.057 630.904 348.057C630.021 348.057 629.305 348.773 629.305 349.656H632.503ZM632.503 370.113V349.656H629.305V370.113H632.503Z" fill="#235CE0"/>
<path d="M613.686 314.857C614.555 315.011 615.385 314.431 615.54 313.562C615.694 312.693 615.114 311.863 614.245 311.708L613.686 314.857ZM599.951 317.249L598.383 316.936L598.352 317.091V317.249H599.951ZM599.951 349.209H598.352V349.209L599.951 349.209ZM602.776 359.239L603.206 357.699L602.776 359.239ZM630.975 370.119L630.026 371.406C630.59 371.822 631.36 371.822 631.924 371.406L630.975 370.119ZM648.686 311.8C647.867 312.13 647.471 313.062 647.801 313.881C648.132 314.7 649.063 315.096 649.882 314.765L648.686 311.8ZM614.245 311.708C613.308 311.542 611.677 311.297 610.126 311.095C608.621 310.898 607.039 310.72 606.28 310.72V313.918C606.787 313.918 608.144 314.061 609.712 314.266C611.236 314.465 612.815 314.702 613.686 314.857L614.245 311.708ZM606.28 310.72C605.468 310.72 603.794 310.737 602.169 311.547C600.441 312.409 598.955 314.067 598.383 316.936L601.519 317.562C601.907 315.614 602.795 314.808 603.596 314.409C604.499 313.958 605.51 313.918 606.28 313.918V310.72ZM598.352 317.249V349.209H601.55V317.249H598.352ZM598.352 349.209C598.352 350.994 598.249 353.478 598.579 355.563C598.899 357.58 599.757 360.058 602.347 360.78L603.206 357.699C602.583 357.526 602.027 356.887 601.738 355.062C601.459 353.305 601.55 351.222 601.55 349.209L598.352 349.209ZM602.347 360.78C604.539 361.39 606.352 361.555 608.039 361.674C609.734 361.793 611.236 361.866 613.024 362.248C616.55 363.002 621.352 365.009 630.026 371.406L631.924 368.833C623.08 362.31 617.852 360.01 613.692 359.121C611.637 358.682 609.883 358.598 608.265 358.484C606.639 358.369 605.082 358.222 603.206 357.699L602.347 360.78ZM631.924 371.406C636.97 367.684 643.232 360.838 657.859 360.838V357.641C641.971 357.641 634.813 365.302 630.026 368.833L631.924 371.406ZM657.859 360.838C661.197 360.838 664.897 358.163 664.897 353.006H661.7C661.7 356.336 659.493 357.641 657.859 357.641V360.838ZM664.897 353.006V317.249H661.7V353.006H664.897ZM664.897 317.249C664.897 314.627 663.4 312.09 660.496 310.861C657.65 309.657 653.677 309.786 648.686 311.8L649.882 314.765C654.441 312.926 657.475 313.055 659.25 313.806C660.965 314.532 661.7 315.905 661.7 317.249H664.897Z" fill="#235CE0"/>
<path d="M627.171 338.669C627.171 339.552 627.886 340.268 628.769 340.268C629.652 340.268 630.368 339.552 630.368 338.669H627.171ZM633.511 338.669C633.511 339.552 634.227 340.268 635.11 340.268C635.993 340.268 636.709 339.552 636.709 338.669H633.511ZM636.709 316.285C636.709 315.402 635.993 314.687 635.11 314.687C634.227 314.687 633.511 315.402 633.511 316.285H636.709ZM630.368 316.285C630.368 315.402 629.652 314.687 628.769 314.687C627.886 314.687 627.171 315.402 627.171 316.285H630.368ZM620.747 322.861C619.864 322.861 619.148 323.577 619.148 324.46C619.148 325.343 619.864 326.059 620.747 326.059V322.861ZM620.747 329.22C619.864 329.22 619.148 329.935 619.148 330.818C619.148 331.701 619.864 332.417 620.747 332.417V329.22ZM642.55 326.059C643.433 326.059 644.149 325.343 644.149 324.46C644.149 323.577 643.433 322.861 642.55 322.861V326.059ZM642.55 332.417C643.433 332.417 644.149 331.701 644.149 330.818C644.149 329.935 643.433 329.22 642.55 329.22V332.417ZM627.171 334.192V338.669H630.368V334.192H627.171ZM633.511 334.192V338.669H636.709V334.192H633.511ZM633.511 316.285V321.281H636.709V316.285H633.511ZM627.171 316.285V321.281H630.368V316.285H627.171ZM620.747 326.059H625.34V322.861H620.747V326.059ZM620.747 332.417H625.34V329.22H620.747V332.417ZM637.892 326.059H642.55V322.861H637.892V326.059ZM637.892 332.417H642.55V329.22H637.892V332.417Z" fill="#FF6A00"/>
<mask id="path-22-inside-2_680_2797" fill="white">
<rect x="624.564" y="320.372" width="14.3633" height="14.1438" rx="2.07039"/>
</mask>
<rect x="624.564" y="320.372" width="14.3633" height="14.1438" rx="2.07039" stroke="#235CE0" stroke-width="6.39516" mask="url(#path-22-inside-2_680_2797)"/>
<path d="M337.606 324.232L350.243 346.124M337.606 395.762L350.243 372.852M373.781 357.579H400.05" stroke="#FF6A00" stroke-width="5.94706"/>
<path d="M430.529 358.596C430.529 367.292 423.686 374.205 415.413 374.205C407.14 374.205 400.298 367.292 400.298 358.596C400.298 349.899 407.14 342.987 415.413 342.987C423.686 342.987 430.529 349.899 430.529 358.596Z" stroke="#235CE0" stroke-width="5.94706"/>
<path d="M373.536 359.107C373.536 367.803 366.693 374.716 358.42 374.716C350.147 374.716 343.305 367.803 343.305 359.107C343.305 350.41 350.147 343.498 358.42 343.498C366.693 343.498 373.536 350.41 373.536 359.107Z" stroke="#235CE0" stroke-width="5.94706"/>
<path d="M343.304 307.685C343.304 316.382 336.462 323.294 328.189 323.294C319.916 323.294 313.073 316.382 313.073 307.685C313.073 298.988 319.916 292.076 328.189 292.076C336.462 292.076 343.304 298.988 343.304 307.685Z" stroke="#235CE0" stroke-width="5.94706"/>
<path d="M343.304 410.525C343.304 419.221 336.462 426.134 328.189 426.134C319.916 426.134 313.073 419.221 313.073 410.525C313.073 401.828 319.916 394.916 328.189 394.916C336.462 394.916 343.304 401.828 343.304 410.525Z" stroke="#235CE0" stroke-width="5.94706"/>
<defs>
<filter id="filter0_d_680_2797" x="117.71" y="115.017" width="474.961" height="473.29" filterUnits="userSpaceOnUse" color-interpolation-filters="sRGB">
<feFlood flood-opacity="0" result="BackgroundImageFix"/>
<feColorMatrix in="SourceAlpha" type="matrix" values="0 0 0 0 0 0 0 0 0 0 0 0 0 0 0 0 0 0 127 0" result="hardAlpha"/>
<feMorphology radius="3.20766" operator="dilate" in="SourceAlpha" result="effect1_dropShadow_680_2797"/>
<feOffset dy="0.801914"/>
<feGaussianBlur stdDeviation="3.28785"/>
<feComposite in2="hardAlpha" operator="out"/>
<feColorMatrix type="matrix" values="0 0 0 0 0 0 0 0 0 0.533333 0 0 0 0 1 0 0 0 0.07 0"/>
<feBlend mode="normal" in2="BackgroundImageFix" result="effect1_dropShadow_680_2797"/>
<feBlend mode="normal" in="SourceGraphic" in2="effect1_dropShadow_680_2797" result="shape"/>
</filter>
<filter id="filter1_d_680_2797" x="202.007" y="195.63" width="307.376" height="306.295" filterUnits="userSpaceOnUse" color-interpolation-filters="sRGB">
<feFlood flood-opacity="0" result="BackgroundImageFix"/>
<feColorMatrix in="SourceAlpha" type="matrix" values="0 0 0 0 0 0 0 0 0 0 0 0 0 0 0 0 0 0 127 0" result="hardAlpha"/>
<feMorphology radius="2.07587" operator="dilate" in="SourceAlpha" result="effect1_dropShadow_680_2797"/>
<feOffset dy="0.518968"/>
<feGaussianBlur stdDeviation="2.12777"/>
<feComposite in2="hardAlpha" operator="out"/>
<feColorMatrix type="matrix" values="0 0 0 0 0 0 0 0 0 0.533333 0 0 0 0 1 0 0 0 0.07 0"/>
<feBlend mode="normal" in2="BackgroundImageFix" result="effect1_dropShadow_680_2797"/>
<feBlend mode="normal" in="SourceGraphic" in2="effect1_dropShadow_680_2797" result="shape"/>
</filter>
<filter id="filter2_d_680_2797" x="0.0671734" y="272.305" width="142.377" height="141.876" filterUnits="userSpaceOnUse" color-interpolation-filters="sRGB">
<feFlood flood-opacity="0" result="BackgroundImageFix"/>
<feColorMatrix in="SourceAlpha" type="matrix" values="0 0 0 0 0 0 0 0 0 0 0 0 0 0 0 0 0 0 127 0" result="hardAlpha"/>
<feMorphology radius="0.961547" operator="dilate" in="SourceAlpha" result="effect1_dropShadow_680_2797"/>
<feOffset dy="2.72574"/>
<feGaussianBlur stdDeviation="0.985586"/>
<feComposite in2="hardAlpha" operator="out"/>
<feColorMatrix type="matrix" values="0 0 0 0 0 0 0 0 0 0.533333 0 0 0 0 1 0 0 0 0.07 0"/>
<feBlend mode="normal" in2="BackgroundImageFix" result="effect1_dropShadow_680_2797"/>
<feBlend mode="normal" in="SourceGraphic" in2="effect1_dropShadow_680_2797" result="shape"/>
</filter>
<filter id="filter3_d_680_2797" x="284.452" y="0.793017" width="142.377" height="141.876" filterUnits="userSpaceOnUse" color-interpolation-filters="sRGB">
<feFlood flood-opacity="0" result="BackgroundImageFix"/>
<feColorMatrix in="SourceAlpha" type="matrix" values="0 0 0 0 0 0 0 0 0 0 0 0 0 0 0 0 0 0 127 0" result="hardAlpha"/>
<feMorphology radius="0.961547" operator="dilate" in="SourceAlpha" result="effect1_dropShadow_680_2797"/>
<feOffset dy="2.72574"/>
<feGaussianBlur stdDeviation="0.985586"/>
<feComposite in2="hardAlpha" operator="out"/>
<feColorMatrix type="matrix" values="0 0 0 0 0 0 0 0 0 0.533333 0 0 0 0 1 0 0 0 0.07 0"/>
<feBlend mode="normal" in2="BackgroundImageFix" result="effect1_dropShadow_680_2797"/>
<feBlend mode="normal" in="SourceGraphic" in2="effect1_dropShadow_680_2797" result="shape"/>
</filter>
<filter id="filter4_d_680_2797" x="283.499" y="535.613" width="144.285" height="143.777" filterUnits="userSpaceOnUse" color-interpolation-filters="sRGB">
<feFlood flood-opacity="0" result="BackgroundImageFix"/>
<feColorMatrix in="SourceAlpha" type="matrix" values="0 0 0 0 0 0 0 0 0 0 0 0 0 0 0 0 0 0 127 0" result="hardAlpha"/>
<feMorphology radius="0.97443" operator="dilate" in="SourceAlpha" result="effect1_dropShadow_680_2797"/>
<feOffset dy="2.76226"/>
<feGaussianBlur stdDeviation="0.998791"/>
<feComposite in2="hardAlpha" operator="out"/>
<feColorMatrix type="matrix" values="0 0 0 0 0 0 0 0 0 0.533333 0 0 0 0 1 0 0 0 0.07 0"/>
<feBlend mode="normal" in2="BackgroundImageFix" result="effect1_dropShadow_680_2797"/>
<feBlend mode="normal" in="SourceGraphic" in2="effect1_dropShadow_680_2797" result="shape"/>
</filter>
<filter id="filter5_d_680_2797" x="560.66" y="272.304" width="142.377" height="141.876" filterUnits="userSpaceOnUse" color-interpolation-filters="sRGB">
<feFlood flood-opacity="0" result="BackgroundImageFix"/>
<feColorMatrix in="SourceAlpha" type="matrix" values="0 0 0 0 0 0 0 0 0 0 0 0 0 0 0 0 0 0 127 0" result="hardAlpha"/>
<feMorphology radius="0.961547" operator="dilate" in="SourceAlpha" result="effect1_dropShadow_680_2797"/>
<feOffset dy="2.72574"/>
<feGaussianBlur stdDeviation="0.985586"/>
<feComposite in2="hardAlpha" operator="out"/>
<feColorMatrix type="matrix" values="0 0 0 0 0 0 0 0 0 0.533333 0 0 0 0 1 0 0 0 0.07 0"/>
<feBlend mode="normal" in2="BackgroundImageFix" result="effect1_dropShadow_680_2797"/>
<feBlend mode="normal" in="SourceGraphic" in2="effect1_dropShadow_680_2797" result="shape"/>
</filter>
</defs>
</svg>
