<svg width="1046" height="771" viewBox="0 0 1046 771" fill="none" xmlns="http://www.w3.org/2000/svg">
<g opacity="0.5" clip-path="url(#clip0_1265_767)">
<path d="M578.327 595.7C578.327 563.494 604.436 537.385 636.642 537.385V537.385C668.848 537.385 694.957 563.494 694.957 595.7V654.015H636.642C604.436 654.015 578.327 627.906 578.327 595.7V595.7Z" stroke="white" stroke-width="2.4881"/>
<path d="M694.956 712.329C694.956 680.123 668.848 654.015 636.642 654.015V654.015C604.435 654.015 578.327 680.123 578.327 712.329V770.644H636.642C668.848 770.644 694.956 744.536 694.956 712.329V712.329Z" stroke="white" stroke-width="2.4881"/>
<path d="M694.956 595.7C694.956 627.906 721.065 654.015 753.271 654.015V654.015C785.477 654.015 811.586 627.906 811.586 595.7V537.385H753.271C721.065 537.385 694.956 563.494 694.956 595.7V595.7Z" stroke="white" stroke-width="2.4881"/>
<path d="M811.586 712.329C811.586 744.536 785.478 770.644 753.271 770.644V770.644C721.065 770.644 694.957 744.536 694.957 712.329V654.015H753.271C785.478 654.015 811.586 680.123 811.586 712.329V712.329Z" stroke="white" stroke-width="2.4881"/>
<path d="M811.586 595.7C811.586 563.494 837.695 537.385 869.901 537.385V537.385C902.107 537.385 928.216 563.494 928.216 595.7V654.015H869.901C837.695 654.015 811.586 627.906 811.586 595.7V595.7Z" stroke="white" stroke-width="2.4881"/>
<path d="M928.216 712.329C928.216 680.123 902.108 654.015 869.901 654.015V654.015C837.695 654.015 811.587 680.123 811.587 712.329V770.644H869.901C902.108 770.644 928.216 744.536 928.216 712.329V712.329Z" stroke="white" stroke-width="2.4881"/>
<path d="M928.216 595.7C928.216 627.906 954.324 654.015 986.531 654.015V654.015C1018.74 654.015 1044.85 627.906 1044.85 595.7V537.385H986.531C954.324 537.385 928.216 563.494 928.216 595.7V595.7Z" stroke="white" stroke-width="2.4881"/>
<path d="M1044.84 712.329C1044.84 744.536 1018.74 770.644 986.53 770.644V770.644C954.324 770.644 928.216 744.536 928.216 712.329V654.015H986.53C1018.74 654.015 1044.84 680.123 1044.84 712.329V712.329Z" stroke="white" stroke-width="2.4881"/>
<path d="M578.327 362.441C578.327 330.235 604.436 304.126 636.642 304.126V304.126C668.848 304.126 694.957 330.235 694.957 362.441V420.756H636.642C604.436 420.756 578.327 394.648 578.327 362.441V362.441Z" stroke="white" stroke-width="2.4881"/>
<path d="M694.956 479.071C694.956 446.864 668.848 420.756 636.642 420.756V420.756C604.435 420.756 578.327 446.864 578.327 479.071V537.385H636.642C668.848 537.385 694.956 511.277 694.956 479.071V479.071Z" stroke="white" stroke-width="2.4881"/>
<path d="M694.956 362.441C694.956 394.647 721.065 420.756 753.271 420.756V420.756C785.477 420.756 811.586 394.647 811.586 362.441V304.126H753.271C721.065 304.126 694.956 330.235 694.956 362.441V362.441Z" stroke="white" stroke-width="2.4881"/>
<path d="M811.586 479.071C811.586 511.277 785.478 537.385 753.271 537.385V537.385C721.065 537.385 694.957 511.277 694.957 479.071V420.756H753.271C785.478 420.756 811.586 446.864 811.586 479.071V479.071Z" stroke="white" stroke-width="2.4881"/>
<path d="M811.586 362.441C811.586 330.235 837.695 304.126 869.901 304.126V304.126C902.107 304.126 928.216 330.235 928.216 362.441V420.756H869.901C837.695 420.756 811.586 394.648 811.586 362.441V362.441Z" stroke="white" stroke-width="2.4881"/>
<path d="M928.216 479.071C928.216 446.864 902.108 420.756 869.901 420.756V420.756C837.695 420.756 811.587 446.864 811.587 479.071V537.385H869.901C902.108 537.385 928.216 511.277 928.216 479.071V479.071Z" stroke="white" stroke-width="2.4881"/>
<path d="M928.216 362.441C928.216 394.647 954.324 420.756 986.531 420.756V420.756C1018.74 420.756 1044.85 394.647 1044.85 362.441V304.126H986.531C954.324 304.126 928.216 330.235 928.216 362.441V362.441Z" stroke="white" stroke-width="2.4881"/>
<path d="M1044.84 479.071C1044.84 511.277 1018.74 537.385 986.53 537.385V537.385C954.324 537.385 928.216 511.277 928.216 479.071V420.756H986.53C1018.74 420.756 1044.84 446.864 1044.84 479.071V479.071Z" stroke="white" stroke-width="2.4881"/>
<path d="M578.327 129.182C578.327 96.9756 604.436 70.8672 636.642 70.8672V70.8672C668.848 70.8672 694.957 96.9756 694.957 129.182V187.497H636.642C604.436 187.497 578.327 161.388 578.327 129.182V129.182Z" stroke="white" stroke-width="2.4881"/>
<path d="M694.956 245.811C694.956 213.605 668.848 187.497 636.642 187.497V187.497C604.435 187.497 578.327 213.605 578.327 245.811V304.126H636.642C668.848 304.126 694.956 278.018 694.956 245.811V245.811Z" stroke="white" stroke-width="2.4881"/>
<path d="M694.956 129.182C694.956 161.388 721.065 187.497 753.271 187.497V187.497C785.477 187.497 811.586 161.388 811.586 129.182V70.8671H753.271C721.065 70.8671 694.956 96.9755 694.956 129.182V129.182Z" stroke="white" stroke-width="2.4881"/>
<path d="M811.586 245.811C811.586 278.018 785.478 304.126 753.271 304.126V304.126C721.065 304.126 694.957 278.018 694.957 245.811V187.497H753.271C785.478 187.497 811.586 213.605 811.586 245.811V245.811Z" stroke="white" stroke-width="2.4881"/>
<path d="M811.586 129.182C811.586 96.9756 837.695 70.8672 869.901 70.8672V70.8672C902.107 70.8672 928.216 96.9756 928.216 129.182V187.497H869.901C837.695 187.497 811.586 161.388 811.586 129.182V129.182Z" stroke="white" stroke-width="2.4881"/>
<path d="M928.216 245.811C928.216 213.605 902.108 187.497 869.901 187.497V187.497C837.695 187.497 811.587 213.605 811.587 245.811V304.126H869.901C902.108 304.126 928.216 278.018 928.216 245.811V245.811Z" stroke="white" stroke-width="2.4881"/>
<path d="M928.216 129.182C928.216 161.388 954.324 187.497 986.531 187.497V187.497C1018.74 187.497 1044.85 161.388 1044.85 129.182V70.8671H986.531C954.324 70.8671 928.216 96.9755 928.216 129.182V129.182Z" stroke="white" stroke-width="2.4881"/>
<path d="M1044.84 245.811C1044.84 278.018 1018.74 304.126 986.53 304.126V304.126C954.324 304.126 928.216 278.018 928.216 245.811V187.497H986.53C1018.74 187.497 1044.84 213.605 1044.84 245.811V245.811Z" stroke="white" stroke-width="2.4881"/>
<path d="M694.956 12.5525C694.956 -19.6538 668.848 -45.7622 636.642 -45.7622V-45.7622C604.435 -45.7622 578.327 -19.6538 578.327 12.5525V70.8673H636.642C668.848 70.8673 694.956 44.7589 694.956 12.5525V12.5525Z" stroke="white" stroke-width="2.4881"/>
<path d="M811.586 12.5525C811.586 44.7588 785.478 70.8672 753.271 70.8672V70.8672C721.065 70.8672 694.957 44.7588 694.957 12.5525V-45.7623H753.271C785.478 -45.7623 811.586 -19.6539 811.586 12.5525V12.5525Z" stroke="white" stroke-width="2.4881"/>
<path d="M928.216 12.5525C928.216 -19.6538 902.108 -45.7622 869.901 -45.7622V-45.7622C837.695 -45.7622 811.587 -19.6538 811.587 12.5525V70.8673H869.901C902.108 70.8673 928.216 44.7589 928.216 12.5525V12.5525Z" stroke="white" stroke-width="2.4881"/>
<path d="M1044.84 12.5525C1044.84 44.7588 1018.74 70.8672 986.53 70.8672V70.8672C954.324 70.8672 928.216 44.7588 928.216 12.5525V-45.7623H986.53C1018.74 -45.7623 1044.84 -19.6539 1044.84 12.5525V12.5525Z" stroke="white" stroke-width="2.4881"/>
<path d="M111.81 595.7C111.81 563.494 137.918 537.385 170.125 537.385V537.385C202.331 537.385 228.439 563.494 228.439 595.7V654.015H170.125C137.918 654.015 111.81 627.906 111.81 595.7V595.7Z" stroke="white" stroke-width="2.4881"/>
<path d="M228.44 712.329C228.44 680.123 202.331 654.015 170.125 654.015V654.015C137.919 654.015 111.81 680.123 111.81 712.329V770.644H170.125C202.331 770.644 228.44 744.536 228.44 712.329V712.329Z" stroke="white" stroke-width="2.4881"/>
<path d="M228.44 595.7C228.44 627.906 254.548 654.015 286.754 654.015V654.015C318.961 654.015 345.069 627.906 345.069 595.7V537.385H286.754C254.548 537.385 228.44 563.494 228.44 595.7V595.7Z" stroke="white" stroke-width="2.4881"/>
<path d="M345.069 712.329C345.069 744.536 318.96 770.644 286.754 770.644V770.644C254.548 770.644 228.439 744.536 228.439 712.329V654.015H286.754C318.96 654.015 345.069 680.123 345.069 712.329V712.329Z" stroke="white" stroke-width="2.4881"/>
<path d="M345.069 595.7C345.069 563.494 371.177 537.385 403.384 537.385V537.385C435.59 537.385 461.698 563.494 461.698 595.7V654.015H403.384C371.177 654.015 345.069 627.906 345.069 595.7V595.7Z" stroke="white" stroke-width="2.4881"/>
<path d="M461.698 712.329C461.698 680.123 435.59 654.015 403.384 654.015V654.015C371.177 654.015 345.069 680.123 345.069 712.329V770.644H403.383C435.59 770.644 461.698 744.536 461.698 712.329V712.329Z" stroke="white" stroke-width="2.4881"/>
<path d="M461.698 595.7C461.698 627.906 487.807 654.015 520.013 654.015V654.015C552.219 654.015 578.328 627.906 578.328 595.7V537.385H520.013C487.807 537.385 461.698 563.494 461.698 595.7V595.7Z" stroke="white" stroke-width="2.4881"/>
<path d="M578.327 712.329C578.327 744.536 552.219 770.644 520.013 770.644V770.644C487.806 770.644 461.698 744.536 461.698 712.329V654.015H520.013C552.219 654.015 578.327 680.123 578.327 712.329V712.329Z" stroke="white" stroke-width="2.4881"/>
<path d="M-4.81995 595.7C-4.81995 627.906 21.2885 654.015 53.4948 654.015V654.015C85.7011 654.015 111.81 627.906 111.81 595.7V537.385H53.4948C21.2885 537.385 -4.81995 563.494 -4.81995 595.7V595.7Z" stroke="white" stroke-width="2.4881"/>
<path d="M111.81 712.329C111.81 744.536 85.7014 770.644 53.4951 770.644V770.644C21.2888 770.644 -4.81965 744.536 -4.81965 712.329V654.015H53.4951C85.7014 654.015 111.81 680.123 111.81 712.329V712.329Z" stroke="white" stroke-width="2.4881"/>
<path d="M-4.81995 362.441C-4.81995 394.647 21.2885 420.756 53.4948 420.756V420.756C85.7011 420.756 111.81 394.647 111.81 362.441V304.126H53.4948C21.2885 304.126 -4.81995 330.235 -4.81995 362.441V362.441Z" stroke="white" stroke-width="2.4881"/>
<path d="M111.81 479.071C111.81 511.277 85.7015 537.385 53.4952 537.385V537.385C21.2889 537.385 -4.81953 511.277 -4.81953 479.071V420.756H53.4952C85.7015 420.756 111.81 446.864 111.81 479.071V479.071Z" stroke="white" stroke-width="2.4881"/>
<path d="M111.81 362.441C111.81 330.235 137.918 304.126 170.125 304.126V304.126C202.331 304.126 228.439 330.235 228.439 362.441V420.756H170.125C137.918 420.756 111.81 394.648 111.81 362.441V362.441Z" stroke="white" stroke-width="2.4881"/>
<path d="M228.44 479.071C228.44 446.864 202.331 420.756 170.125 420.756V420.756C137.919 420.756 111.81 446.864 111.81 479.071V537.385H170.125C202.331 537.385 228.44 511.277 228.44 479.071V479.071Z" stroke="white" stroke-width="2.4881"/>
<path d="M228.44 362.441C228.44 394.647 254.548 420.756 286.754 420.756V420.756C318.961 420.756 345.069 394.647 345.069 362.441V304.126H286.754C254.548 304.126 228.44 330.235 228.44 362.441V362.441Z" stroke="white" stroke-width="2.4881"/>
<path d="M345.069 479.071C345.069 511.277 318.96 537.385 286.754 537.385V537.385C254.548 537.385 228.439 511.277 228.439 479.071V420.756H286.754C318.96 420.756 345.069 446.864 345.069 479.071V479.071Z" stroke="white" stroke-width="2.4881"/>
<path d="M345.069 362.441C345.069 330.235 371.177 304.126 403.384 304.126V304.126C435.59 304.126 461.698 330.235 461.698 362.441V420.756H403.384C371.177 420.756 345.069 394.648 345.069 362.441V362.441Z" stroke="white" stroke-width="2.4881"/>
<path d="M461.698 479.071C461.698 446.864 435.59 420.756 403.384 420.756V420.756C371.177 420.756 345.069 446.864 345.069 479.071V537.385H403.383C435.59 537.385 461.698 511.277 461.698 479.071V479.071Z" stroke="white" stroke-width="2.4881"/>
<path d="M461.698 362.441C461.698 394.647 487.807 420.756 520.013 420.756V420.756C552.219 420.756 578.328 394.647 578.328 362.441V304.126H520.013C487.807 304.126 461.698 330.235 461.698 362.441V362.441Z" stroke="white" stroke-width="2.4881"/>
<path d="M578.327 479.071C578.327 511.277 552.219 537.385 520.013 537.385V537.385C487.806 537.385 461.698 511.277 461.698 479.071V420.756H520.013C552.219 420.756 578.327 446.864 578.327 479.071V479.071Z" stroke="white" stroke-width="2.4881"/>
<path d="M111.81 129.182C111.81 96.9756 137.918 70.8672 170.125 70.8672V70.8672C202.331 70.8672 228.439 96.9756 228.439 129.182V187.497H170.125C137.918 187.497 111.81 161.388 111.81 129.182V129.182Z" stroke="white" stroke-width="2.4881"/>
<path d="M228.44 245.811C228.44 213.605 202.331 187.497 170.125 187.497V187.497C137.919 187.497 111.81 213.605 111.81 245.811V304.126H170.125C202.331 304.126 228.44 278.018 228.44 245.811V245.811Z" stroke="white" stroke-width="2.4881"/>
<path d="M228.44 129.182C228.44 161.388 254.548 187.497 286.754 187.497V187.497C318.961 187.497 345.069 161.388 345.069 129.182V70.8671H286.754C254.548 70.8671 228.44 96.9755 228.44 129.182V129.182Z" stroke="white" stroke-width="2.4881"/>
<path d="M345.069 245.811C345.069 278.018 318.96 304.126 286.754 304.126V304.126C254.548 304.126 228.439 278.018 228.439 245.811V187.497H286.754C318.96 187.497 345.069 213.605 345.069 245.811V245.811Z" stroke="white" stroke-width="2.4881"/>
<path d="M345.069 129.182C345.069 96.9756 371.177 70.8672 403.384 70.8672V70.8672C435.59 70.8672 461.698 96.9756 461.698 129.182V187.497H403.384C371.177 187.497 345.069 161.388 345.069 129.182V129.182Z" stroke="white" stroke-width="2.4881"/>
<path d="M461.698 245.811C461.698 213.605 435.59 187.497 403.384 187.497V187.497C371.177 187.497 345.069 213.605 345.069 245.811V304.126H403.383C435.59 304.126 461.698 278.018 461.698 245.811V245.811Z" stroke="white" stroke-width="2.4881"/>
<path d="M461.698 129.182C461.698 161.388 487.807 187.497 520.013 187.497V187.497C552.219 187.497 578.328 161.388 578.328 129.182V70.8671H520.013C487.807 70.8671 461.698 96.9755 461.698 129.182V129.182Z" stroke="white" stroke-width="2.4881"/>
<path d="M578.327 245.811C578.327 278.018 552.219 304.126 520.013 304.126V304.126C487.806 304.126 461.698 278.018 461.698 245.811V187.497H520.013C552.219 187.497 578.327 213.605 578.327 245.811V245.811Z" stroke="white" stroke-width="2.4881"/>
<path d="M461.698 12.5525C461.698 -19.6538 435.59 -45.7622 403.384 -45.7622V-45.7622C371.177 -45.7622 345.069 -19.6538 345.069 12.5525V70.8673H403.383C435.59 70.8673 461.698 44.7589 461.698 12.5525V12.5525Z" stroke="white" stroke-width="2.4881"/>
<path d="M578.327 12.5525C578.327 44.7588 552.219 70.8672 520.013 70.8672V70.8672C487.806 70.8672 461.698 44.7588 461.698 12.5525V-45.7623H520.013C552.219 -45.7623 578.327 -19.6539 578.327 12.5525V12.5525Z" stroke="white" stroke-width="2.4881"/>
</g>
<defs>
<clipPath id="clip0_1265_767">
<rect width="1045" height="770" fill="white" transform="translate(0.123413 0.59668)"/>
</clipPath>
</defs>
</svg>
