<svg xmlns="http://www.w3.org/2000/svg" xmlns:xlink="http://www.w3.org/1999/xlink" width="120" height="37" viewBox="0 0 120 37">
  <defs>
    <clipPath id="clip-Foraml_Logo_1">
      <rect width="120" height="37"/>
    </clipPath>
  </defs>
  <g id="Foraml_Logo_1" data-name="Foraml_Logo – 1" clip-path="url(#clip-Foraml_Logo_1)">
    <g id="Engro-logo-Formal" transform="translate(-0.31 1.012)">
      <path id="Path_22368" data-name="Path 22368" d="M29.206,14.528H10.115c.684,3.58,3.667,5.855,7.937,5.855A8.8,8.8,0,0,0,24.6,17.826a.12.12,0,0,1,.164-.023c.006.006.018.012.023.023l2.93,3.34a.141.141,0,0,1,0,.175c-2.205,2.556-5.615,3.907-9.762,3.907-8.118.018-13.4-5.094-13.57-12.2A12.683,12.683,0,0,1,16.894.18h.175c7.153,0,12.388,5,12.388,12.686a10.115,10.115,0,0,1-.088,1.573.123.123,0,0,1-.135.1.043.043,0,0,1-.035-.012ZM10.063,10.72h13.9a6.669,6.669,0,0,0-6.89-5.954A6.771,6.771,0,0,0,10.063,10.72Z" transform="translate(-1.485 -0.08)" fill="#fff"/>
      <path id="Path_22369" data-name="Path 22369" d="M152.9.856V5.611a.139.139,0,0,1-.129.135c-3.287.222-5.211,2.334-5.211,6.434V25.346a.132.132,0,0,1-.135.135h-5.457a.132.132,0,0,1-.135-.135v-13.9c0-7.323,5.112-10.68,10.932-10.739a.132.132,0,0,1,.135.135V.856Z" transform="translate(-58.538 -0.3)" fill="#fff"/>
      <path id="Path_22370" data-name="Path 22370" d="M63.245.18H61.01C55.553.443,49.95,3.847,49.95,11.229v13.9a.132.132,0,0,0,.135.135H55.5a.132.132,0,0,0,.135-.135V11.96c0-4.159,1.954-6.264,5.34-6.44h.871a12.237,12.237,0,0,1,1.31,0C66.526,5.7,68.5,7.8,68.5,11.96V25.126a.132.132,0,0,0,.135.135h5.457a.132.132,0,0,0,.135-.135v-13.9C74.264,3.847,68.462.338,63.245.18Z" transform="translate(-20.398 -0.08)" fill="#fff"/>
      <path id="Path_22371" data-name="Path 22371" d="M119.828,13.173V12.36C119.553,5.341,114.149.44,106.75.44S93.73,5.622,93.73,12.974s5.5,12.564,13.02,12.564a13.9,13.9,0,0,0,7.34-1.954c-.146,4.667-2.538,7-7.808,7a14.854,14.854,0,0,1-8.92-2.843.138.138,0,0,0-.193,0h0l-2.4,4.088a.158.158,0,0,0,0,.187c2.843,2.246,7.329,3.4,11.862,3.4,8.58,0,13.207-4.03,13.207-12.932V13.167ZM106.779,20.56a7.65,7.65,0,1,1,7.65-7.65h0A7.65,7.65,0,0,1,106.779,20.56Z" transform="translate(-38.571 -0.188)" fill="#fff"/>
      <path id="Path_22372" data-name="Path 22372" d="M184.251,18.7a8.149,8.149,0,0,0,3.989-1.959,9.192,9.192,0,0,0,2.626-10.487A10.121,10.121,0,0,0,185.152.609a7.7,7.7,0,0,0-7.9,1.123s4.919.275,7.627,4.129c0,0,4.679,7.738-.62,12.833Z" transform="translate(-73.241 0)" fill="#fff"/>
      <path id="Path_22373" data-name="Path 22373" d="M172.546,23.412a7.645,7.645,0,0,0,1.79,4.071c1.907,2.293,6.212,4.515,10.423,2.854a10.207,10.207,0,0,0,5.767-5.592,7.7,7.7,0,0,0-.948-7.925s.409,3.819-3.966,7.5a11.271,11.271,0,0,1-13.072-.912Z" transform="translate(-71.286 -6.987)" fill="#e16526"/>
      <path id="Path_22374" data-name="Path 22374" d="M171,11.84a8.233,8.233,0,0,0-4.077,1.977,9.6,9.6,0,0,0-2.55,10.5,9.971,9.971,0,0,0,5.755,5.6,7.7,7.7,0,0,0,7.9-1.181s-3.8.521-7.615-3.743A11.446,11.446,0,0,1,171,11.84Z" transform="translate(-67.632 -4.92)" fill="#fff"/>
      <path id="Path_22375" data-name="Path 22375" d="M179.339,10.214a8.66,8.66,0,0,0-1.907-3.86C175.59,4,171.075,1.8,166.916,3.593a10.2,10.2,0,0,0-5.586,5.773,7.7,7.7,0,0,0,1.2,7.89s-.532-3.8,3.72-7.627a11.339,11.339,0,0,1,13.084.579Z" transform="translate(-66.387 -1.223)" fill="#faaa34"/>
      <path id="Path_22376" data-name="Path 22376" d="M181.04,18.35a5.671,5.671,0,0,0-4.393,2.205,5.671,5.671,0,0,0-.269,4.919,5.652,5.652,0,0,0,4.393-2.223A5.623,5.623,0,0,0,181.04,18.35Z" transform="translate(-72.691 -7.622)" fill="#e16526"/>
      <g id="Group_16941" data-name="Group 16941" transform="translate(0.81 28.667)">
        <path id="Path_22377" data-name="Path 22377" d="M.81,49.13h.953a1.631,1.631,0,0,1,1.755,1.86c0,1.217-.638,1.9-1.725,1.9H.81V49.13Zm.918,3.287c.784,0,1.2-.485,1.2-1.421S2.512,49.6,1.728,49.6H1.389v2.813Z" transform="translate(-0.81 -49.066)" fill="#fff"/>
        <path id="Path_22378" data-name="Path 22378" d="M7.02,49.13H8.237c.772,0,1.351.275,1.351,1.088s-.579,1.141-1.351,1.141H7.6v1.527H7.026V49.13ZM8.166,50.9c.55,0,.848-.228.848-.678s-.3-.626-.848-.626H7.6v1.3Zm.386-.018,1.158,2.006H9.061L8.12,51.206l.433-.328Z" transform="translate(-3.388 -49.066)" fill="#fff"/>
        <path id="Path_22379" data-name="Path 22379" d="M13.12,52.4h.918V49.615H13.12V49.13h2.41v.485h-.918V52.4h.918v.485H13.12Z" transform="translate(-5.92 -49.066)" fill="#fff"/>
        <path id="Path_22380" data-name="Path 22380" d="M18.71,49.13h.614l.561,1.954c.129.433.216.8.345,1.228h.023c.129-.427.222-.8.345-1.228l.562-1.954h.591l-1.176,3.755H19.9L18.716,49.13Z" transform="translate(-8.24 -49.066)" fill="#fff"/>
        <path id="Path_22381" data-name="Path 22381" d="M25.37,52.4h.918V49.615H25.37V49.13h2.41v.485h-.918V52.4h.918v.485H25.37V52.4Z" transform="translate(-11.005 -49.066)" fill="#fff"/>
        <path id="Path_22382" data-name="Path 22382" d="M31.38,49.13h.614l1.094,2.228.351.79h.012c-.023-.38-.076-.825-.076-1.234V49.13h.55v3.755H33.31l-1.094-2.228-.351-.79h-.012c.023.392.076.819.076,1.222v1.8h-.55V49.136Z" transform="translate(-13.5 -49.066)" fill="#fff"/>
        <path id="Path_22383" data-name="Path 22383" d="M37.24,50.968a1.719,1.719,0,0,1,1.685-1.948,1.426,1.426,0,0,1,1.053.462l-.322.363a.934.934,0,0,0-.725-.322c-.649,0-1.082.544-1.082,1.433s.386,1.451,1.082,1.451a.853.853,0,0,0,.573-.187v-.895h-.69v-.474H40.03v1.62a1.627,1.627,0,0,1-1.135.439c-.948,0-1.649-.708-1.649-1.942Z" transform="translate(-15.932 -49.02)" fill="#fff"/>
        <path id="Path_22384" data-name="Path 22384" d="M49.8,49.13h.953a1.631,1.631,0,0,1,1.755,1.86c0,1.217-.638,1.9-1.725,1.9H49.8V49.13Zm.918,3.287c.784,0,1.2-.485,1.2-1.421S51.5,49.6,50.718,49.6h-.339v2.813Z" transform="translate(-21.146 -49.066)" fill="#fff"/>
        <path id="Path_22385" data-name="Path 22385" d="M55.99,52.4h.918V49.615H55.99V49.13H58.4v.485h-.918V52.4H58.4v.485H55.99Z" transform="translate(-23.715 -49.066)" fill="#fff"/>
        <path id="Path_22386" data-name="Path 22386" d="M61.73,50.968a1.719,1.719,0,0,1,1.685-1.948,1.426,1.426,0,0,1,1.053.462l-.322.363a.934.934,0,0,0-.725-.322c-.649,0-1.082.544-1.082,1.433s.386,1.451,1.082,1.451a.853.853,0,0,0,.573-.187v-.895H63.3v-.474H64.52v1.62a1.627,1.627,0,0,1-1.135.439c-.948,0-1.649-.708-1.649-1.942Z" transform="translate(-26.098 -49.02)" fill="#fff"/>
        <path id="Path_22387" data-name="Path 22387" d="M68.24,52.4h.918V49.615H68.24V49.13h2.41v.485h-.918V52.4h.918v.485H68.24Z" transform="translate(-28.8 -49.066)" fill="#fff"/>
        <path id="Path_22388" data-name="Path 22388" d="M75.071,49.615H73.86V49.13h3v.485H75.65v3.27h-.573v-3.27Z" transform="translate(-31.133 -49.066)" fill="#fff"/>
        <path id="Path_22389" data-name="Path 22389" d="M81.094,49.13h.673l1.24,3.755h-.614l-.6-2.041c-.123-.4-.246-.825-.351-1.252h-.023c-.111.427-.228.842-.351,1.252l-.614,2.041H79.86L81.1,49.13Zm-.544,2.223h1.743v.462H80.55Z" transform="translate(-33.624 -49.066)" fill="#fff"/>
        <path id="Path_22390" data-name="Path 22390" d="M86.97,49.13h.573V52.4h1.807v.485H86.976V49.13Z" transform="translate(-36.575 -49.066)" fill="#fff"/>
      </g>
      <g id="Group_16942" data-name="Group 16942" transform="translate(83.672 29.111)">
        <path id="Path_22391" data-name="Path 22391" d="M142.48,49.9h2.363v.485h-1.79V51.45h1.515v.485h-1.515V53.17H144.9v.485H142.48V49.9Z" transform="translate(-142.48 -49.83)" fill="#fff"/>
        <path id="Path_22392" data-name="Path 22392" d="M148.61,49.9h.614l.562,1.954c.129.433.216.8.345,1.228h.023c.129-.427.222-.8.345-1.228l.561-1.954h.591l-1.176,3.755H149.8L148.616,49.9Z" transform="translate(-145.025 -49.83)" fill="#fff"/>
        <path id="Path_22393" data-name="Path 22393" d="M155.58,51.71c0-1.222.6-1.93,1.456-1.93s1.456.7,1.456,1.93-.6,1.959-1.456,1.959S155.58,52.95,155.58,51.71Zm2.322,0c0-.9-.345-1.427-.866-1.427s-.866.521-.866,1.427.345,1.456.866,1.456S157.9,52.628,157.9,51.71Z" transform="translate(-147.918 -49.78)" fill="#fff"/>
        <path id="Path_22394" data-name="Path 22394" d="M163.23,49.9h.573v3.27h1.807v.485h-2.375V49.9Z" transform="translate(-151.093 -49.83)" fill="#fff"/>
        <path id="Path_22395" data-name="Path 22395" d="M169.576,52.228V49.9h.579v2.357c0,.69.292.959.714.959s.725-.269.725-.959V49.9h.556v2.328c0,1.047-.5,1.491-1.281,1.491s-1.3-.445-1.3-1.491Z" transform="translate(-153.725 -49.83)" fill="#fff"/>
        <path id="Path_22396" data-name="Path 22396" d="M177.291,50.385H176.08V49.9h3v.485H177.87v3.27H177.3v-3.27Z" transform="translate(-156.427 -49.83)" fill="#fff"/>
        <path id="Path_22397" data-name="Path 22397" d="M183.44,53.17h.918V50.385h-.918V49.9h2.41v.485h-.918V53.17h.918v.485h-2.41V53.17Z" transform="translate(-159.483 -49.83)" fill="#fff"/>
        <path id="Path_22398" data-name="Path 22398" d="M189.87,51.71c0-1.222.6-1.93,1.456-1.93s1.456.7,1.456,1.93-.6,1.959-1.456,1.959S189.87,52.95,189.87,51.71Zm2.322,0c0-.9-.345-1.427-.866-1.427s-.866.521-.866,1.427.345,1.456.866,1.456S192.192,52.628,192.192,51.71Z" transform="translate(-162.152 -49.78)" fill="#fff"/>
        <path id="Path_22399" data-name="Path 22399" d="M197.05,49.9h.614l1.094,2.228.351.79h.012c-.023-.38-.076-.825-.076-1.234V49.9h.55v3.755h-.614l-1.094-2.228-.351-.79h-.012c.023.392.076.819.076,1.222v1.8h-.55V49.906Z" transform="translate(-165.132 -49.83)" fill="#fff"/>
      </g>
    </g>
  </g>
</svg>
