<svg width="120" height="36" viewBox="0 0 120 36" fill="none" xmlns="http://www.w3.org/2000/svg">
<path d="M25.4886 14.7614H5.9811C6.67991 18.4199 9.73096 20.7447 14.0883 20.7447C16.5867 20.8452 19.012 19.8952 20.7796 18.1322C20.8207 18.0819 20.8938 18.0682 20.9486 18.1093C20.9577 18.1139 20.9623 18.123 20.9714 18.1322L23.9631 21.544C24.0042 21.5988 24.0042 21.6719 23.9631 21.7222C21.7113 24.3347 18.231 25.7095 13.9924 25.7095C5.69335 25.7278 0.299205 20.5027 0.130209 13.245C0.0297259 6.08783 5.75272 0.200408 12.9145 0.104492C12.9738 0.104492 13.0332 0.104492 13.0972 0.104492C20.4051 0.104492 25.7535 5.21088 25.7535 13.0669C25.7535 13.4962 25.7535 14.1357 25.6622 14.6746C25.653 14.7386 25.5891 14.7842 25.5252 14.7751C25.516 14.7751 25.5023 14.7705 25.4932 14.766L25.4886 14.7614ZM5.93085 10.8699H20.131C19.7519 7.30734 16.6735 4.64452 13.0926 4.78611C9.48432 4.63539 6.36476 7.2845 5.93085 10.8699Z" fill="#134C5C"/>
<path d="M93.5714 0.57016V5.42535C93.5714 5.49843 93.512 5.5578 93.4435 5.56694C90.0818 5.79531 88.1178 7.95114 88.1178 12.1395V25.5906C88.1178 25.6682 88.0539 25.7322 87.9762 25.7322H82.3994C82.3218 25.7322 82.2578 25.6682 82.2578 25.5906V11.3904C82.2578 3.90896 87.483 0.47881 93.4252 0.419434C93.5028 0.419434 93.5668 0.483379 93.5668 0.556458V0.565595L93.5714 0.57016Z" fill="#134C5C"/>
<path d="M40.9449 0.0998535H38.6612C33.0843 0.369332 27.3613 3.84972 27.3613 11.3906V25.5907C27.3613 25.6684 27.4253 25.7323 27.5029 25.7323H33.0387C33.1163 25.7323 33.1802 25.6684 33.1802 25.5907V12.1396C33.1802 7.8919 35.1762 5.73607 38.6338 5.55794H39.5198C39.9629 5.5351 40.4105 5.5351 40.8581 5.55794C44.2974 5.73607 46.3116 7.8919 46.3116 12.1396V25.5907C46.3116 25.6684 46.3756 25.7323 46.4532 25.7323H52.0301C52.1077 25.7323 52.1716 25.6684 52.1716 25.5907V11.3906C52.2127 3.84972 46.2888 0.259714 40.954 0.0998535H40.9449Z" fill="#134C5C"/>
<path d="M80.1888 13.2633V12.4366C79.9102 5.26568 74.3836 0.259766 66.8245 0.259766C59.2654 0.259766 53.5195 5.55342 53.5195 13.0623C53.5195 20.5712 59.1329 25.8968 66.8245 25.8968C69.4599 25.9425 72.0588 25.2482 74.3242 23.9008C74.1735 28.6692 71.7299 31.0534 66.3449 31.0534C63.0746 31.0945 59.8774 30.076 57.2283 28.1531C57.1735 28.0983 57.0867 28.0983 57.0319 28.1531L54.5792 32.3323C54.5381 32.3871 54.5381 32.4648 54.5792 32.5196C57.4795 34.8124 62.0698 36 66.6966 36C75.4615 36 80.1888 31.8801 80.1888 22.7864V13.2633ZM66.8564 20.8132C62.5402 20.8132 59.037 17.3146 59.037 12.9938C59.037 8.67299 62.5357 5.17432 66.8564 5.17432C71.1727 5.17432 74.6759 8.67299 74.6759 12.9938C74.6759 17.31 71.1772 20.8132 66.8564 20.8132Z" fill="#134C5C"/>
<path d="M110.589 19.1096C110.589 19.1096 112.64 18.8721 114.664 17.1091C116.961 15.1086 119.254 11.1166 117.345 6.39847C116.541 4.40706 114.897 2.0457 111.503 0.634357C111.503 0.634357 107.411 -1.38444 103.428 1.78079C103.428 1.78079 108.456 2.0594 111.22 6.00109C111.22 6.00109 116.002 13.9028 110.585 19.1142L110.589 19.1096Z" fill="#134C5C"/>
<path d="M100.623 16.785C100.623 16.785 100.737 18.8814 102.455 20.9459C104.405 23.2844 108.799 25.559 113.106 23.8645C115.102 23.0789 117.513 21.5123 118.998 18.1552C118.998 18.1552 121.103 14.1084 118.03 10.0571C118.03 10.0571 118.45 13.9577 113.978 17.7213C113.978 17.7213 107.47 22.1426 100.623 16.7895V16.785Z" fill="#E36526"/>
<path d="M102.78 7.06976C102.78 7.06976 100.633 7.3164 98.6142 9.08856C96.1295 11.2718 94.3482 15.5698 96.0107 19.8175C96.7917 21.818 98.4908 24.1565 101.894 25.5405C101.894 25.5405 106 27.5273 109.96 24.3347C109.96 24.3347 106.073 24.8645 102.177 20.5117C102.177 20.5117 97.6276 14.0671 102.78 7.06519V7.06976Z" fill="#134C5C"/>
<path d="M112.572 9.1846C112.572 9.1846 112.366 7.46725 110.626 5.24291C108.739 2.8313 104.131 0.588688 99.8832 2.4248C97.9146 3.27434 95.5533 4.91405 94.1785 8.32135C94.1785 8.32135 92.2008 12.4366 95.4071 16.3829C95.4071 16.3829 94.8636 12.496 99.2072 8.59084C99.2072 8.59084 105.556 4.05537 112.576 9.1846H112.572Z" fill="#FBAC35"/>
<path d="M107.867 10.9614C107.867 10.9614 104.861 10.9614 103.377 13.2132C101.892 15.4649 103.103 18.2419 103.103 18.2419C103.103 18.2419 106.108 18.2419 107.593 15.9719C109.077 13.7019 107.867 10.9614 107.867 10.9614Z" fill="#E36526"/>
</svg>
