<svg width="578" height="463" viewBox="0 0 578 463" fill="none" xmlns="http://www.w3.org/2000/svg">
<g opacity="0.15">
<path d="M346.063 289.162C346.063 257.398 371.812 231.649 403.576 231.649V231.649C435.339 231.649 461.089 257.398 461.089 289.162V346.675H403.576C371.812 346.675 346.063 320.926 346.063 289.162V289.162Z" stroke="#FBAC35" stroke-width="2"/>
<path d="M461.089 404.188C461.089 372.425 435.339 346.675 403.576 346.675V346.675C371.812 346.675 346.063 372.425 346.063 404.188V461.702H403.576C435.339 461.702 461.089 435.952 461.089 404.188V404.188Z" stroke="#FBAC35" stroke-width="2"/>
<path d="M461.089 289.162C461.089 320.926 486.838 346.675 518.602 346.675V346.675C550.366 346.675 576.115 320.926 576.115 289.162V231.649H518.602C486.838 231.649 461.089 257.399 461.089 289.162V289.162Z" stroke="#FBAC35" stroke-width="2"/>
<path d="M576.115 404.188C576.115 435.952 550.366 461.701 518.602 461.701V461.701C486.839 461.701 461.089 435.952 461.089 404.188V346.675H518.602C550.366 346.675 576.115 372.425 576.115 404.188V404.188Z" stroke="#FBAC35" stroke-width="2"/>
<path d="M346.063 59.1096C346.063 27.346 371.812 1.59644 403.576 1.59644V1.59644C435.339 1.59644 461.089 27.3459 461.089 59.1095V116.623H403.576C371.812 116.623 346.063 90.8732 346.063 59.1096V59.1096Z" stroke="#FBAC35" stroke-width="2"/>
<path d="M461.089 174.136C461.089 142.372 435.339 116.623 403.576 116.623V116.623C371.812 116.623 346.063 142.372 346.063 174.136V231.649H403.576C435.339 231.649 461.089 205.9 461.089 174.136V174.136Z" stroke="#FBAC35" stroke-width="2"/>
<path d="M576.115 174.136C576.115 205.899 550.366 231.649 518.602 231.649V231.649C486.839 231.649 461.089 205.899 461.089 174.136V116.623H518.602C550.366 116.623 576.115 142.372 576.115 174.136V174.136Z" stroke="#FBAC35" stroke-width="2"/>
<path d="M116.01 289.162C116.01 257.398 141.759 231.649 173.523 231.649V231.649C205.286 231.649 231.036 257.398 231.036 289.162V346.675H173.523C141.759 346.675 116.01 320.926 116.01 289.162V289.162Z" stroke="#FBAC35" stroke-width="2"/>
<path d="M231.036 404.188C231.036 372.425 205.286 346.675 173.523 346.675V346.675C141.759 346.675 116.01 372.425 116.01 404.188V461.701H173.523C205.286 461.701 231.036 435.952 231.036 404.188V404.188Z" stroke="#FBAC35" stroke-width="2"/>
<path d="M231.036 289.162C231.036 320.926 256.785 346.675 288.549 346.675V346.675C320.313 346.675 346.062 320.926 346.062 289.162V231.649H288.549C256.785 231.649 231.036 257.398 231.036 289.162V289.162Z" stroke="#FBAC35" stroke-width="2"/>
<path d="M346.062 404.188C346.062 435.952 320.313 461.701 288.549 461.701V461.701C256.786 461.701 231.036 435.952 231.036 404.188V346.675H288.549C320.313 346.675 346.062 372.425 346.062 404.188V404.188Z" stroke="#FBAC35" stroke-width="2"/>
<path d="M1.62598 289.162C1.62598 320.926 27.3755 346.675 59.1391 346.675V346.675C90.9027 346.675 116.652 320.926 116.652 289.162V231.649H59.1391C27.3755 231.649 1.62598 257.398 1.62598 289.162V289.162Z" stroke="#FBAC35" stroke-width="2"/>
<path d="M116.652 404.188C116.652 435.952 90.9026 461.701 59.139 461.701V461.701C27.3754 461.701 1.62586 435.952 1.62586 404.188V346.675H59.139C90.9026 346.675 116.652 372.425 116.652 404.188V404.188Z" stroke="#FBAC35" stroke-width="2"/>
</g>
</svg>
