<svg width="40" height="41" viewBox="0 0 40 41" fill="none" xmlns="http://www.w3.org/2000/svg">
<rect x="0.5" y="1.37793" width="39" height="39" rx="11.5" fill="#023540"/>
<rect x="0.5" y="1.37793" width="39" height="39" rx="11.5" stroke="white"/>
<g clip-path="url(#clip0_1240_3266)">
<g clip-path="url(#clip1_1240_3266)">
<path d="M19.9997 18.1276C19.2704 18.1276 18.5709 18.4173 18.0551 18.9331C17.5394 19.4488 17.2497 20.1483 17.2497 20.8776C17.2497 21.6069 17.5394 22.3064 18.0551 22.8221C18.5709 23.3378 19.2704 23.6276 19.9997 23.6276C20.729 23.6276 21.4285 23.3378 21.9442 22.8221C22.4599 22.3064 22.7497 21.6069 22.7497 20.8776C22.7497 20.1483 22.4599 19.4488 21.9442 18.9331C21.4285 18.4173 20.729 18.1276 19.9997 18.1276ZM19.9997 16.2943C21.2153 16.2943 22.3811 16.7772 23.2405 17.6367C24.1001 18.4962 24.583 19.662 24.583 20.8776C24.583 22.0932 24.1001 23.259 23.2405 24.1185C22.3811 24.978 21.2153 25.4609 19.9997 25.4609C18.7841 25.4609 17.6183 24.978 16.7588 24.1185C15.8992 23.259 15.4163 22.0932 15.4163 20.8776C15.4163 19.662 15.8992 18.4962 16.7588 17.6367C17.6183 16.7772 18.7841 16.2943 19.9997 16.2943ZM25.958 16.0651C25.958 16.369 25.8373 16.6604 25.6224 16.8753C25.4075 17.0902 25.116 17.2109 24.8122 17.2109C24.5083 17.2109 24.2168 17.0902 24.0019 16.8753C23.7871 16.6604 23.6663 16.369 23.6663 16.0651C23.6663 15.7612 23.7871 15.4698 24.0019 15.2549C24.2168 15.04 24.5083 14.9193 24.8122 14.9193C25.116 14.9193 25.4075 15.04 25.6224 15.2549C25.8373 15.4698 25.958 15.7612 25.958 16.0651ZM19.9997 13.5443C17.7318 13.5443 17.3615 13.5507 16.3064 13.5974C15.5878 13.6314 15.1056 13.7276 14.6583 13.9018C14.2604 14.0558 13.9735 14.24 13.6683 14.5462C13.3814 14.8234 13.1607 15.1618 13.0229 15.5362C12.8488 15.9854 12.7525 16.4666 12.7195 17.1844C12.6718 18.1964 12.6663 18.5502 12.6663 20.8776C12.6663 23.1454 12.6728 23.5158 12.7195 24.5709C12.7534 25.2886 12.8497 25.7717 13.0229 26.2181C13.1788 26.6169 13.3621 26.9038 13.6664 27.2081C13.9753 27.5161 14.2623 27.7004 14.6564 27.8525C15.1093 28.0276 15.5914 28.1248 16.3064 28.1578C17.3184 28.2054 17.6723 28.2109 19.9997 28.2109C22.2675 28.2109 22.6378 28.2045 23.6929 28.1578C24.4098 28.1239 24.8928 28.0276 25.3402 27.8544C25.7371 27.6994 26.0258 27.5152 26.3302 27.2109C26.6391 26.9019 26.8233 26.615 26.9755 26.2209C27.1497 25.7689 27.2468 25.2859 27.2798 24.5709C27.3275 23.5589 27.333 23.205 27.333 20.8776C27.333 18.6098 27.3266 18.2394 27.2798 17.1844C27.2459 16.4675 27.1497 15.9835 26.9755 15.5362C26.8374 15.1622 26.6172 14.8239 26.3311 14.5462C26.054 14.2591 25.7155 14.0385 25.3411 13.9009C24.8919 13.7267 24.4098 13.6304 23.6929 13.5974C22.6809 13.5498 22.3271 13.5443 19.9997 13.5443ZM19.9997 11.7109C22.4903 11.7109 22.801 11.7201 23.7782 11.7659C24.7544 11.8118 25.419 11.9649 26.0038 12.1922C26.6088 12.425 27.1185 12.7404 27.6282 13.2491C28.0943 13.7073 28.455 14.2616 28.6851 14.8734C28.9115 15.4574 29.0655 16.1229 29.1113 17.0991C29.1544 18.0763 29.1663 18.387 29.1663 20.8776C29.1663 23.3682 29.1572 23.6789 29.1113 24.6561C29.0655 25.6324 28.9115 26.2969 28.6851 26.8818C28.4557 27.4939 28.0949 28.0483 27.6282 28.5061C27.1698 28.972 26.6155 29.3328 26.0038 29.563C25.4199 29.7894 24.7544 29.9434 23.7782 29.9893C22.801 30.0324 22.4903 30.0443 19.9997 30.0443C17.5091 30.0443 17.1983 30.0351 16.2212 29.9893C15.2449 29.9434 14.5803 29.7894 13.9955 29.563C13.3835 29.3334 12.8291 28.9726 12.3712 28.5061C11.905 28.048 11.5443 27.4936 11.3143 26.8818C11.0869 26.2979 10.9338 25.6324 10.888 24.6561C10.8449 23.6789 10.833 23.3682 10.833 20.8776C10.833 18.387 10.8422 18.0763 10.888 17.0991C10.9338 16.1219 11.0869 15.4583 11.3143 14.8734C11.5436 14.2613 11.9044 13.7068 12.3712 13.2491C12.8292 12.7827 13.3836 12.422 13.9955 12.1922C14.5803 11.9649 15.244 11.8118 16.2212 11.7659C17.1983 11.7229 17.5091 11.7109 19.9997 11.7109Z" fill="white"/>
</g>
</g>
<defs>
<clipPath id="clip0_1240_3266">
<rect width="22" height="22" fill="white" transform="translate(9 9.87793)"/>
</clipPath>
<clipPath id="clip1_1240_3266">
<rect width="22" height="22" fill="white" transform="translate(9 9.87793)"/>
</clipPath>
</defs>
</svg>
