<svg width="24" height="25" viewBox="0 0 24 25" fill="none" xmlns="http://www.w3.org/2000/svg">
<g clip-path="url(#clip0_1278_7379)">
<path d="M12 13.5581C13.6569 13.5581 15 12.215 15 10.5581C15 8.90125 13.6569 7.55811 12 7.55811C10.3431 7.55811 9 8.90125 9 10.5581C9 12.215 10.3431 13.5581 12 13.5581Z" stroke="rgba(199, 232, 232, 1)" stroke-width="1.2" stroke-linecap="round" stroke-linejoin="round"/>
<path d="M19.5 10.5581C19.5 17.3081 12 22.5581 12 22.5581C12 22.5581 4.5 17.3081 4.5 10.5581C4.5 8.56898 5.29018 6.66133 6.6967 5.2548C8.10322 3.84828 10.0109 3.05811 12 3.05811C13.9891 3.05811 15.8968 3.84828 17.3033 5.2548C18.7098 6.66133 19.5 8.56898 19.5 10.5581Z" stroke="rgba(199, 232, 232, 1)" stroke-width="1.2" stroke-linecap="round" stroke-linejoin="round"/>
</g>
<defs>
<clipPath id="clip0_1278_7379">
<rect width="24" height="24" fill="white" transform="translate(0 0.808105)"/>
</clipPath>
</defs>
</svg>
