<svg width="404" height="164" viewBox="0 0 404 164" fill="none" xmlns="http://www.w3.org/2000/svg">
<g opacity="0.2">
<path d="M161.97 41.5659C161.97 19.3406 143.953 1.32349 121.727 1.32349V1.32349C99.502 1.32349 81.4849 19.3406 81.4849 41.5659V81.8083H121.727C143.953 81.8083 161.97 63.7912 161.97 41.5659V41.5659Z" stroke="#FBAC35" stroke-width="2"/>
<path d="M81.4849 122.051C81.4849 99.8257 99.502 81.8086 121.727 81.8086V81.8086C143.953 81.8086 161.97 99.8257 161.97 122.051V162.293H121.727C99.502 162.293 81.4849 144.276 81.4849 122.051V122.051Z" stroke="#FBAC35" stroke-width="2"/>
<path d="M81.4849 41.5662C81.4849 63.7914 63.4677 81.8086 41.2424 81.8086V81.8086C19.0172 81.8086 1.00001 63.7914 1.00001 41.5662V1.32374H41.2424C63.4677 1.32374 81.4849 19.3409 81.4849 41.5662V41.5662Z" stroke="#FBAC35" stroke-width="2"/>
<path d="M1 122.051C1 144.276 19.0171 162.293 41.2424 162.293V162.293C63.4677 162.293 81.4849 144.276 81.4849 122.051V81.8084H41.2424C19.0171 81.8084 1 99.8255 1 122.051V122.051Z" stroke="#FBAC35" stroke-width="2"/>
<path d="M322.939 41.5662C322.939 19.3409 304.922 1.32373 282.697 1.32373V1.32373C260.472 1.32373 242.455 19.3409 242.455 41.5662V81.8086H282.697C304.922 81.8086 322.939 63.7914 322.939 41.5662V41.5662Z" stroke="#FBAC35" stroke-width="2"/>
<path d="M242.455 122.051C242.455 99.8253 260.472 81.8081 282.697 81.8081V81.8081C304.922 81.8081 322.939 99.8253 322.939 122.051V162.293H282.697C260.472 162.293 242.455 144.276 242.455 122.051V122.051Z" stroke="#FBAC35" stroke-width="2"/>
<path d="M242.455 41.5657C242.455 63.791 224.437 81.8081 202.212 81.8081V81.8081C179.987 81.8081 161.97 63.791 161.97 41.5657V1.32325H202.212C224.437 1.32325 242.455 19.3404 242.455 41.5657V41.5657Z" stroke="#FBAC35" stroke-width="2"/>
<path d="M161.969 122.051C161.969 144.276 179.986 162.293 202.212 162.293V162.293C224.437 162.293 242.454 144.276 242.454 122.051V81.8084H202.212C179.986 81.8084 161.969 99.8255 161.969 122.051V122.051Z" stroke="#FBAC35" stroke-width="2"/>
<path d="M402.975 41.5657C402.975 63.791 384.957 81.8081 362.732 81.8081V81.8081C340.507 81.8081 322.49 63.791 322.49 41.5657V1.32325H362.732C384.957 1.32325 402.975 19.3404 402.975 41.5657V41.5657Z" stroke="#FBAC35" stroke-width="2"/>
<path d="M322.49 122.051C322.49 144.276 340.507 162.293 362.732 162.293V162.293C384.957 162.293 402.975 144.276 402.975 122.051V81.8084H362.732C340.507 81.8084 322.49 99.8255 322.49 122.051V122.051Z" stroke="#FBAC35" stroke-width="2"/>
</g>
</svg>
