<?xml version="1.0" encoding="UTF-8"?>
<svg version="1.1" xmlns="http://www.w3.org/2000/svg" width="1200" height="800">
<path d="M0 0 C1.34634726 -0.00551503 1.34634726 -0.00551503 2.71989346 -0.01114148 C5.72814442 -0.02215622 8.73636081 -0.02601844 11.74462891 -0.02983093 C13.90158701 -0.03609734 16.05854403 -0.0427443 18.21549988 -0.04974365 C25.30072276 -0.07076861 32.38594582 -0.08114588 39.47119141 -0.09111023 C41.9129945 -0.09515863 44.35479748 -0.09927558 46.79660034 -0.10346031 C58.27142599 -0.12251002 69.74624522 -0.13674047 81.22108364 -0.14507228 C94.45203768 -0.15483854 107.68282416 -0.1811432 120.91371918 -0.22157317 C131.14918405 -0.25177277 141.38460101 -0.26654489 151.62010956 -0.26985329 C157.72889138 -0.27219973 163.83749414 -0.28110732 169.94622803 -0.30631447 C175.69841878 -0.32966675 181.45031349 -0.33379955 187.20253944 -0.32355309 C189.30631815 -0.32305933 191.41011179 -0.3293322 193.51384544 -0.34310913 C208.90147792 -0.43818856 222.32565924 -0.07422882 234.09619141 11.14717102 C234.65951172 11.6705304 235.22283203 12.19388977 235.80322266 12.73310852 C244.88059193 22.15518802 246.25405956 34.67466637 246.22990417 47.12149048 C246.23216973 47.99036131 246.23443529 48.85923213 246.2367695 49.75443238 C246.24306759 52.64748467 246.24228284 55.54048961 246.24145508 58.43354797 C246.24444917 60.51537638 246.24785228 62.59720424 246.25163269 64.67903137 C246.26045111 70.32168122 246.26280989 75.9643159 246.26344848 81.60697198 C246.26416017 85.13552714 246.26629675 88.66407847 246.26894569 92.19263268 C246.27819177 104.51170979 246.28228148 116.8307761 246.28149414 129.14985657 C246.28089345 140.61849598 246.29144543 152.08708835 246.3072378 163.55571586 C246.32032851 173.41499309 246.3256774 183.27425496 246.32503873 193.13354081 C246.32478421 199.01635435 246.3276103 204.89912606 246.33821678 210.78193092 C246.34792358 216.31658888 246.34795923 221.85116522 246.34070015 227.38582611 C246.33965754 229.41142331 246.34199789 231.43702566 246.34806061 233.46261406 C246.43529107 264.63792836 246.43529107 264.63792836 234.72119141 277.02217102 C221.7488141 288.86158961 207.3045169 288.59081803 190.64306641 288.55122375 C188.47212372 288.55693268 186.30118402 288.56389895 184.13024902 288.57202148 C178.25840469 288.58990848 172.38671016 288.58879308 166.5148468 288.5830791 C161.6043122 288.57998135 156.69380613 288.58608611 151.7832756 288.59211785 C140.19615031 288.60614631 128.60909878 288.60461523 117.02197266 288.59321594 C105.08457486 288.58173129 93.14740163 288.59582021 81.21003342 288.62261242 C70.94304196 288.64478933 60.67612091 288.65140244 50.40910721 288.64553601 C44.28484973 288.64217064 38.16073626 288.64455396 32.03649902 288.66178703 C26.27764068 288.67728613 20.51911453 288.67326744 14.76026917 288.65448189 C12.65243085 288.65080452 10.54456775 288.65387949 8.43675232 288.66436768 C-12.00867479 288.75830021 -12.00867479 288.75830021 -20.90380859 284.14717102 C-22.37914062 283.38726868 -22.37914062 283.38726868 -23.88427734 282.61201477 C-33.83403327 275.72643146 -39.71273483 267.04408018 -42.51939392 255.27261591 C-43.9273798 247.48780281 -43.39942108 239.34243956 -43.32958984 231.46699524 C-43.32514037 229.2957639 -43.32241581 227.12452845 -43.3212738 224.95329285 C-43.31281305 219.08969271 -43.27891157 213.22650019 -43.23918152 207.36303854 C-43.20074297 201.21033048 -43.18229744 195.05755556 -43.16064453 188.9047699 C-43.12099966 178.57709303 -43.06437759 168.24961093 -42.99804688 157.92207336 C-42.92172177 145.9995047 -42.87424094 134.07707841 -42.84175777 122.15431583 C-42.81306768 111.89570283 -42.7689088 101.63724088 -42.71187687 91.37874615 C-42.6778684 85.26127315 -42.64908121 79.14390025 -42.63418579 73.02634811 C-42.61930773 67.27557731 -42.584941 61.52523902 -42.53581429 55.77466202 C-42.52095885 53.67008374 -42.51274956 51.56544594 -42.51183891 49.46081543 C-42.4996178 34.52010424 -41.75705137 22.48770225 -30.90380859 11.14717102 C-21.80019671 2.82386872 -12.06708883 -0.00265966 0 0 Z " fill="#0595DA" transform="translate(179.90380859375,255.8528289794922)"/>
<path d="M0 0 C10.23 0 20.46 0 31 0 C31.33 3.3 31.66 6.6 32 10 C33.155 8.906875 34.31 7.81375 35.5 6.6875 C43.00818223 0.24819094 50.17649746 -0.86034279 59.94140625 -0.484375 C67.31889778 0.13490983 73.97793716 3.74979128 79.25 8.875 C79.8275 9.57625 80.405 10.2775 81 11 C83.70988866 9.85350865 85.41340929 8.62596302 87.625 6.625 C95.19084183 0.31388937 103.64183637 -0.80050802 113.22265625 -0.3828125 C118.20862156 0.12248698 121.81396482 1.28991746 126 4 C126.72960937 4.47050781 127.45921875 4.94101562 128.2109375 5.42578125 C133.42007468 9.06465506 136.77187741 12.6129398 138 19 C138.11691877 21.5156309 138.18479735 24.00608455 138.20532227 26.52246094 C138.21522186 27.27406998 138.22512146 28.02567902 138.23532104 28.80006409 C138.26684466 31.27813596 138.29165723 33.75622698 138.31640625 36.234375 C138.33698367 37.95502209 138.35798036 39.6756642 138.37937927 41.39630127 C138.43451851 45.92047092 138.48396367 50.44468557 138.53222656 54.96893311 C138.58250113 59.5874023 138.63815609 64.2058063 138.69335938 68.82421875 C138.80084127 77.88275678 138.90230832 86.94135147 139 96 C139.9632979 94.4386752 140.92092516 92.87385102 141.8762207 91.30761719 C142.67706841 90.00108185 142.67706841 90.00108185 143.49409485 88.66815186 C144.89893591 86.17906463 145.9815946 83.75138018 146.98046875 81.078125 C149.55248655 74.26380958 153.32604297 68.11764766 157.01757812 61.859375 C160.04975064 56.66062495 160.04975064 56.66062495 161.12890625 50.859375 C159.56667322 46.90243873 157.68173787 43.22090013 155.625 39.5 C154.71783034 37.82151138 153.81297815 36.14176868 152.91015625 34.4609375 C152.43594238 33.57889648 151.96172852 32.69685547 151.47314453 31.78808594 C148.42368186 26.01664682 145.5558701 20.15253981 142.66845703 14.29882812 C140.92990399 10.78958614 139.20913964 7.34631725 137.18359375 3.9921875 C136 2 136 2 136 0 C146.23 0 156.46 0 167 0 C168.65 3.25875 170.3 6.5175 172 9.875 C172.52207031 10.90093262 173.04414063 11.92686523 173.58203125 12.98388672 C173.98808594 13.79100098 174.39414062 14.59811523 174.8125 15.4296875 C175.23144531 16.25710449 175.65039062 17.08452148 176.08203125 17.93701172 C177 20 177 20 177 22 C177.66 22 178.32 22 179 22 C179.24492187 21.18273437 179.48984375 20.36546875 179.7421875 19.5234375 C181.22560439 15.36802745 183.11839679 11.54673963 185.125 7.625 C186.40375 5.10875 187.6825 2.5925 189 0 C199.23 0 209.46 0 220 0 C219.20681269 3.17274925 218.46645961 5.29195326 217.00634766 8.12255859 C216.59567047 8.92374115 216.18499329 9.72492371 215.76187134 10.55038452 C215.09470596 11.83642075 215.09470596 11.83642075 214.4140625 13.1484375 C213.95647552 14.03858551 213.49888855 14.92873352 213.0274353 15.84585571 C211.5638528 18.69093 210.09456316 21.53301103 208.625 24.375 C207.64284052 26.28104978 206.66106529 28.18729762 205.6796875 30.09375 C204.29319456 32.787133 202.9061643 35.48022114 201.51602173 38.17172241 C200.70097155 39.75007135 199.88831584 41.32966019 199.07859802 42.91075134 C198.12682252 44.75434427 197.14693126 46.58336361 196.1628418 48.40991211 C194.71319258 50.97708056 194.71319258 50.97708056 195.54296875 53.85546875 C197.34628625 57.747347 199.27537444 61.53832173 201.3125 65.3125 C202.20232452 66.98541038 203.0916181 68.65860323 203.98046875 70.33203125 C204.4604834 71.23260254 204.94049805 72.13317383 205.43505859 73.06103516 C208.34826598 78.53204771 211.24253285 84.01273638 214.125 89.5 C214.70548096 90.59223877 215.28596191 91.68447754 215.8840332 92.80981445 C216.41988037 93.83163818 216.95572754 94.85346191 217.5078125 95.90625 C218.22928467 97.27233398 218.22928467 97.27233398 218.96533203 98.66601562 C220 101 220 101 220 104 C209.77 104 199.54 104 189 104 C187.35 100.57625 185.7 97.1525 184 93.625 C183.47792969 92.54686035 182.95585937 91.4687207 182.41796875 90.35791016 C182.01191406 89.51019043 181.60585938 88.6624707 181.1875 87.7890625 C180.55908203 86.48509521 180.55908203 86.48509521 179.91796875 85.15478516 C179 83 179 83 179 81 C178.34 81 177.68 81 177 81 C176.34 82.98 175.68 84.96 175 87 C172.36 92.61 169.72 98.22 167 104 C147.53 104 128.06 104 108 104 C107.97421875 98.42738281 107.9484375 92.85476563 107.921875 87.11328125 C107.89670619 83.58133427 107.87037316 80.04947289 107.83984375 76.51757812 C107.79150499 70.91251303 107.74746194 65.30764609 107.72900391 59.70239258 C107.71385135 55.18287282 107.67943097 50.66387166 107.63169098 46.14458275 C107.61686267 44.42107846 107.60895815 42.69750014 107.60811615 40.97393227 C107.60574902 38.55798793 107.57869214 36.14347978 107.54589844 33.7277832 C107.5509288 33.01640198 107.55595917 32.30502075 107.56114197 31.57208252 C107.46093505 26.79555289 106.37771662 24.35935249 103 21 C100.4712083 19.73560415 98.51141971 19.68860196 95.6875 19.5625 C94.74261719 19.50191406 93.79773438 19.44132812 92.82421875 19.37890625 C89.45064699 20.12081207 88.16640544 21.53379956 86.05759621 24.20349503 C84.25739373 27.26144161 84.2986351 30.39979025 84.34057617 33.84130859 C84.33009247 34.60296326 84.31960876 35.36461792 84.30880737 36.14935303 C84.28016544 38.6494678 84.28633559 41.14818878 84.29296875 43.6484375 C84.27984704 45.38865892 84.26454135 47.12886512 84.24714661 48.86904907 C84.20733877 53.43605605 84.1971089 58.00266422 84.19311523 62.56982422 C84.18377581 67.2354743 84.14635721 71.90089083 84.11132812 76.56640625 C84.04679491 85.7109817 84.01611667 94.85521091 84 104 C74.1 104 64.2 104 54 104 C53.98541748 101.69362549 53.97083496 99.38725098 53.95581055 97.01098633 C53.90545416 89.38732306 53.83885723 81.76386382 53.76428509 74.14040089 C53.71957393 69.51866718 53.68031945 64.89702178 53.65356445 60.27514648 C53.6275389 55.81404792 53.58714183 51.35328902 53.53681374 46.89240074 C53.52013995 45.19122228 53.50862885 43.48998506 53.50238609 41.78873634 C53.49275043 39.40412486 53.46469866 37.02038334 53.43237305 34.63598633 C53.43380814 33.93395584 53.43524323 33.23192535 53.4367218 32.50862122 C53.35370235 28.17320535 52.60623461 25.47317161 50 22 C46.86077611 19.23009657 44.50080691 18.77314871 40.4375 19 C37.24905994 19.26524285 36.21555818 19.78857369 33.89764404 22.0620575 C31.54551122 25.70364192 31.42481021 28.62282418 31.45410156 32.81958008 C31.44376389 33.59084229 31.43342621 34.36210449 31.42277527 35.15673828 C31.39338379 37.69454997 31.39184892 40.23156286 31.390625 42.76953125 C31.37564083 44.53360003 31.35891318 46.2976548 31.34051514 48.06169128 C31.29685582 52.69604136 31.27684572 57.3302022 31.26177979 61.96472168 C31.24220357 66.69729801 31.20023413 71.42967012 31.16015625 76.16210938 C31.08486927 85.4413778 31.03663917 94.7204984 31 104 C20.77 104 10.54 104 0 104 C0 69.68 0 35.36 0 0 Z " fill="#FBFDFE" transform="translate(174,348)"/>
<path d="M0 0 C0.68429077 -0.00095673 1.36858154 -0.00191345 2.0736084 -0.00289917 C3.52286877 -0.0035808 4.97213218 -0.00172773 6.42138672 0.00244141 C8.64687928 0.00778998 10.87217001 0.0024959 13.09765625 -0.00390625 C14.50260461 -0.00324547 15.90755285 -0.0019643 17.3125 0 C18.59962891 0.00112793 19.88675781 0.00225586 21.21289062 0.00341797 C24.15625 0.1328125 24.15625 0.1328125 25.15625 1.1328125 C25.61084858 3.78744371 25.85868238 6.45470388 26.15625 9.1328125 C26.91808594 8.51792969 26.91808594 8.51792969 27.6953125 7.890625 C28.38367188 7.35179687 29.07203125 6.81296875 29.78125 6.2578125 C30.45414063 5.72414063 31.12703125 5.19046875 31.8203125 4.640625 C39.181118 -0.11066417 49.48585116 -0.80327652 57.96875 0.7578125 C64.36925947 2.49912758 69.76839038 6.19647043 74.15625 11.1328125 C76.55129757 10.06834691 78.30297824 9.00334641 80.28125 7.2578125 C88.77922733 0.97669882 99.05848702 -0.89682731 109.44140625 0.609375 C118.48740781 2.64948935 124.85574396 6.45346489 130.15625 14.1328125 C132.4335652 18.57875271 132.42744452 22.80285645 132.38330078 27.68676758 C132.38359283 28.53605835 132.38388489 29.38534912 132.38418579 30.26037598 C132.38279634 33.05780375 132.36725323 35.8549627 132.3515625 38.65234375 C132.347831 40.59575759 132.34498468 42.53917332 132.34298706 44.48258972 C132.33536137 49.59045634 132.31572197 54.69820871 132.2935791 59.80603027 C132.27309778 65.02106175 132.26398045 70.23611174 132.25390625 75.45117188 C132.23247512 85.67843554 132.19835197 95.90561451 132.15625 106.1328125 C127.75968827 106.15746754 123.3631628 106.17565092 118.96655273 106.18774414 C117.46980082 106.19278371 115.97305384 106.19961537 114.47631836 106.20825195 C112.32925193 106.22033409 110.18225038 106.22604441 108.03515625 106.23046875 C106.09491577 106.23832397 106.09491577 106.23832397 104.11547852 106.24633789 C101.15625 106.1328125 101.15625 106.1328125 100.15625 105.1328125 C100.06126354 102.69885231 100.03066583 100.29338298 100.04272461 97.85913086 C100.04257858 97.09820633 100.04243256 96.3372818 100.0422821 95.55329895 C100.04298138 93.02638952 100.05077445 90.49955288 100.05859375 87.97265625 C100.06045788 86.2253066 100.0618818 84.47795643 100.06288147 82.73060608 C100.06670707 78.12249316 100.07653771 73.51441155 100.08758545 68.90631104 C100.09779866 64.20772729 100.1023789 59.50913851 100.10742188 54.81054688 C100.11815995 45.58462163 100.13523687 36.35871966 100.15625 27.1328125 C99.49625 26.8028125 98.83625 26.4728125 98.15625 26.1328125 C97.0734375 24.864375 97.0734375 24.864375 95.96875 23.5703125 C93.32501645 20.83461391 93.32501645 20.83461391 89.65625 20.6328125 C85.91977602 21.1665945 84.01617812 21.68144554 81.15625 24.1328125 C79.21772676 28.72281386 78.88743817 32.74518402 78.83740234 37.69873047 C78.82735672 38.43112442 78.8173111 39.16351837 78.80696106 39.91810608 C78.77625991 42.32039663 78.75913069 44.72257641 78.7421875 47.125 C78.7234653 48.79795272 78.70389111 50.47089611 78.6835022 52.14382935 C78.63228602 56.53314699 78.5926042 60.92249522 78.55535889 65.31195068 C78.51525314 69.79658508 78.46419084 74.28109342 78.4140625 78.765625 C78.31742777 87.55460122 78.23298337 96.3436401 78.15625 105.1328125 C73.98964398 105.74884892 69.97927398 106.26013644 65.765625 106.265625 C64.33089844 106.26755859 64.33089844 106.26755859 62.8671875 106.26953125 C61.40152344 106.26373047 61.40152344 106.26373047 59.90625 106.2578125 C58.91367187 106.26167969 57.92109375 106.26554687 56.8984375 106.26953125 C55.94710937 106.26824219 54.99578125 106.26695312 54.015625 106.265625 C53.15420898 106.26449707 52.29279297 106.26336914 51.40527344 106.26220703 C49.15625 106.1328125 49.15625 106.1328125 46.15625 105.1328125 C46.15482498 104.15419754 46.15339996 103.17558258 46.15193176 102.16731262 C46.13525721 92.94162045 46.09246981 83.71636911 46.02415943 74.49091053 C45.98987858 69.7480265 45.96477776 65.00546496 45.96069336 60.26245117 C45.95641273 55.68450832 45.92796995 51.10729307 45.88281822 46.52957726 C45.86983561 44.78374152 45.86553826 43.03781874 45.87009621 41.29194069 C45.87499704 38.84462703 45.8489364 36.39944417 45.81567383 33.95239258 C45.82861229 32.87129463 45.82861229 32.87129463 45.84181213 31.76835632 C45.75306694 27.8697065 45.25202791 26.25049545 42.75761414 23.18559265 C40.07239341 21.06663986 39.0105376 20.44875814 35.65625 20.5078125 C34.55796875 20.48847656 34.55796875 20.48847656 33.4375 20.46875 C29.92652195 21.49078128 28.44690048 23.31827501 26.15625 26.1328125 C25.65764248 28.94115601 25.46328543 31.14983176 25.49682617 33.95239258 C25.48110062 35.10928589 25.48110062 35.10928589 25.46505737 36.28955078 C25.43635782 38.82756024 25.44259244 41.36420143 25.44921875 43.90234375 C25.43610054 45.66641444 25.42079593 47.43047012 25.40339661 49.19450378 C25.3635478 53.82892786 25.35335626 58.46295899 25.34936523 63.09753418 C25.34003355 67.83011799 25.3026198 72.56247095 25.26757812 77.29492188 C25.20300355 86.57420797 25.16976241 95.85332138 25.15625 105.1328125 C21.46047648 105.91506151 18.0880114 106.26136656 14.3046875 106.265625 C13.20640625 106.26691406 12.108125 106.26820313 10.9765625 106.26953125 C9.83960938 106.26566406 8.70265625 106.26179688 7.53125 106.2578125 C6.3865625 106.26167969 5.241875 106.26554687 4.0625 106.26953125 C2.96679688 106.26824219 1.87109375 106.26695312 0.7421875 106.265625 C-0.2576416 106.26449707 -1.2574707 106.26336914 -2.28759766 106.26220703 C-4.84375 106.1328125 -4.84375 106.1328125 -7.84375 105.1328125 C-7.8668706 91.59017072 -7.88466364 78.0475336 -7.89556217 64.50487614 C-7.90079162 58.21719226 -7.90789039 51.92952184 -7.91918945 45.6418457 C-7.93001614 39.57943527 -7.93602637 33.51703781 -7.93862724 27.45461845 C-7.94048189 25.13604973 -7.94410325 22.81748176 -7.94948006 20.49891853 C-7.95668758 17.26366742 -7.95774106 14.02847067 -7.95727539 10.79321289 C-7.96087067 9.82433136 -7.96446594 8.85544983 -7.96817017 7.85720825 C-7.9667955 6.98076157 -7.96542084 6.10431488 -7.96400452 5.2013092 C-7.96492631 4.43529923 -7.9658481 3.66928926 -7.96679783 2.88006687 C-7.66629081 -1.38707228 -3.35733676 0.00294208 0 0 Z " fill="#323333" transform="translate(487.84375,346.8671875)"/>
<path d="M0 0 C8.97677701 0.80459688 17.52461197 3.52461197 24 10 C27.98433548 15.8987601 31.12400761 20.85547888 31.12698364 28.09951782 C31.13121338 29.68118996 31.13121338 29.68118996 31.13552856 31.29481506 C31.13249222 33.02954323 31.13249222 33.02954323 31.12939453 34.79931641 C31.13202301 36.62635857 31.13202301 36.62635857 31.13470459 38.49031067 C31.13835491 41.83102447 31.13749493 45.17167645 31.1343255 48.5123868 C31.13179638 52.00462713 31.13414088 55.49686479 31.13571167 58.98910522 C31.13753126 64.85179113 31.13513205 70.71446444 31.13037109 76.57714844 C31.1249238 83.36354219 31.12669536 90.14990593 31.1321975 96.93629897 C31.13672856 102.7571363 31.13737937 108.57796458 31.13475883 114.39880311 C31.13319667 117.87803221 31.13300073 121.35724717 31.13629532 124.83647537 C31.13970783 128.71081978 31.13498445 132.58513025 31.12939453 136.45947266 C31.13141876 137.62000656 31.13344299 138.78054047 31.13552856 139.97624207 C31.13270874 141.02505051 31.12988892 142.07385895 31.12698364 143.15444946 C31.1264181 144.52991157 31.1264181 144.52991157 31.12584114 145.93316078 C31 148 31 148 30 149 C27.70848583 149.08790975 25.41427476 149.10694038 23.12109375 149.09765625 C22.09110008 149.09553383 22.09110008 149.09553383 21.04029846 149.09336853 C18.83932199 149.08775479 16.63844591 149.07520007 14.4375 149.0625 C12.94856917 149.05748676 11.45963676 149.05292355 9.97070312 149.04882812 C6.31376925 149.03778093 2.65689442 149.02050713 -1 149 C-1.33 148.01 -1.66 147.02 -2 146 C-3.5778125 146.928125 -3.5778125 146.928125 -5.1875 147.875 C-15.55033774 152.97446321 -25.96094891 152.15153919 -37 150 C-37 149.34 -37 148.68 -37 148 C-38.32 148 -39.64 148 -41 148 C-49.71403273 140.20646368 -53.4665523 130.32942619 -55 119 C-55.35790126 111.95804471 -55.31308487 104.8936742 -55.35009766 97.84423828 C-55.36662285 95.54205187 -55.393867 93.23991603 -55.43212891 90.93798828 C-55.83816792 66.33202378 -55.83816792 66.33202378 -50 57 C-49.51241211 56.20972412 -49.02482422 55.41944824 -48.52246094 54.60522461 C-45.0379819 49.27335992 -40.2957686 45.50593236 -34.26171875 43.390625 C-24.13596917 41.64179088 -13.16011438 42.10746327 -4 47 C-3.34 47.66 -2.68 48.32 -2 49 C-1.98969254 48.40087296 -1.97938507 47.80174591 -1.96876526 47.1844635 C-1.86093035 40.97189912 -1.74631456 34.75948659 -1.62768555 28.54711914 C-1.58426261 26.22586227 -1.54259316 23.90457192 -1.50268555 21.58325195 C-1.4451606 18.25461722 -1.38141575 14.92615215 -1.31640625 11.59765625 C-1.29133751 10.03048607 -1.29133751 10.03048607 -1.26576233 8.43165588 C-1.24581711 7.47073532 -1.22587189 6.50981476 -1.20532227 5.51977539 C-1.18977798 4.66928116 -1.1742337 3.81878693 -1.15821838 2.94252014 C-1 1 -1 1 0 0 Z M-17.5625 64.125 C-25.60447564 73.61040717 -25.34179306 84.98396269 -25.3125 96.8125 C-25.32861328 98.10220703 -25.34472656 99.39191406 -25.36132812 100.72070312 C-25.36651359 110.97236617 -24.87021212 121.84162311 -18 130 C-14.83226274 132.11182484 -14.2144984 132.29402035 -10.625 132 C-9.87476563 131.95875 -9.12453125 131.9175 -8.3515625 131.875 C-4.72996723 130.52742967 -2.7299998 128.36397054 -1 125 C-0.26535404 120.77983392 -0.32299444 116.61450738 -0.37109375 112.33984375 C-0.36747581 110.50589806 -0.36747581 110.50589806 -0.36378479 108.63490295 C-0.36476256 106.05531565 -0.37813902 103.47570719 -0.40307617 100.89624023 C-0.43741147 96.94768062 -0.42372156 93.00135577 -0.40429688 89.05273438 C-0.41119458 86.54426131 -0.42086627 84.03579401 -0.43359375 81.52734375 C-0.42863388 80.34704086 -0.42367401 79.16673798 -0.41856384 77.95066833 C-0.46401705 71.58162859 -0.46401705 71.58162859 -2.84790039 65.79907227 C-7.25118965 62.11809228 -12.84329867 60.21151597 -17.5625 64.125 Z " fill="#323333" transform="translate(884,304)"/>
<path d="M0 0 C10.23 0 20.46 0 31 0 C32.58272601 1.58272601 32.34735747 3.38034003 32.5625 5.5625 C32.64628906 6.38878906 32.73007812 7.21507812 32.81640625 8.06640625 C32.87699219 8.70449219 32.93757812 9.34257812 33 10 C33.9590625 8.88625 33.9590625 8.88625 34.9375 7.75 C40.98098976 1.82434988 48.40642669 0.30378229 56.6484375 -0.1015625 C65.36807687 0.162669 73.37640795 2.32056746 79.6171875 8.63671875 C85.01598367 14.59089348 86.30063667 19.41656112 86.22705078 27.4621582 C86.22734283 28.3016954 86.22763489 29.1412326 86.22793579 30.00621033 C86.22654647 32.77117376 86.21100402 35.5358651 86.1953125 38.30078125 C86.19158096 40.22177483 86.18873465 42.14277031 86.18673706 44.06376648 C86.17911175 49.11244997 86.15947269 54.16101785 86.1373291 59.20965576 C86.11684695 64.36436397 86.10773027 69.51909092 86.09765625 74.67382812 C86.07622579 84.7826028 86.04210311 94.89129177 86 105 C84.560924 105.16517834 83.1216763 105.32886125 81.68235779 105.49191284 C80.88089545 105.58322416 80.07943312 105.67453548 79.25368404 105.76861382 C76.69386476 106.03143097 74.17059769 106.12927303 71.59765625 106.1328125 C70.68822266 106.13410156 69.77878906 106.13539063 68.84179688 106.13671875 C67.92462891 106.13285156 67.00746094 106.12898438 66.0625 106.125 C64.64614258 106.13080078 64.64614258 106.13080078 63.20117188 106.13671875 C61.85055664 106.13478516 61.85055664 106.13478516 60.47265625 106.1328125 C59.66062744 106.13168457 58.84859863 106.13055664 58.01196289 106.12939453 C56 106 56 106 54 105 C53.99413376 104.06118988 53.98826752 103.12237976 53.98222351 102.15512085 C53.92495299 93.29770413 53.85216878 84.4405319 53.76428509 75.58336449 C53.71960172 71.03004102 53.68034114 66.47680661 53.65356445 61.92333984 C53.62751115 57.52707331 53.58709447 53.13114983 53.53681374 48.73509598 C53.52015871 47.0598643 53.50863594 45.38457329 53.50238609 43.70927048 C53.49272997 41.3583881 53.46465391 39.00838068 53.43237305 36.65771484 C53.43380814 35.96863037 53.43524323 35.2795459 53.4367218 34.56958008 C53.34853658 30.01391002 52.35888661 26.88687082 50 23 C46.65274664 20.37001522 43.1175848 20.56657002 39 21 C36.24670979 22.79562405 34.47372539 24.05254922 33 27 C32.87784515 29.5012233 32.81436719 31.97647987 32.79467773 34.47900391 C32.78477814 35.24982803 32.77487854 36.02065216 32.76467896 36.81483459 C32.7330317 39.3687124 32.70829383 41.92260882 32.68359375 44.4765625 C32.663027 46.24490855 32.64203061 48.01324965 32.62062073 49.78158569 C32.56537119 54.44059243 32.51597464 59.09964375 32.46777344 63.75872803 C32.41757944 68.51106747 32.36188242 73.26334202 32.30664062 78.015625 C32.19902381 87.34369459 32.09758667 96.67182047 32 106 C27.7641643 106.02469321 23.52836658 106.04285671 19.29248047 106.05493164 C17.8510668 106.05996474 16.40965824 106.06679173 14.96826172 106.07543945 C12.89809915 106.08754983 10.82800399 106.09323847 8.7578125 106.09765625 C7.5114502 106.10289307 6.26508789 106.10812988 4.98095703 106.11352539 C2 106 2 106 0 105 C0 70.35 0 35.7 0 0 Z " fill="#323333" transform="translate(731,347)"/>
<path d="M0 0 C9.38944693 6.78976293 12.94503624 14.15440253 15.3984375 25.421875 C15.3984375 34.331875 15.3984375 43.241875 15.3984375 52.421875 C-2.7515625 52.421875 -20.9015625 52.421875 -39.6015625 52.421875 C-39.22840172 70.51631158 -39.22840172 70.51631158 -34.6015625 77.421875 C-31.38301025 79.75255077 -28.49665724 79.88928637 -24.6015625 79.421875 C-21.21195123 78.13473919 -21.21195123 78.13473919 -18.6015625 75.421875 C-17.9415625 72.451875 -17.2815625 69.481875 -16.6015625 66.421875 C-6.0415625 66.421875 4.5184375 66.421875 15.3984375 66.421875 C14.55398529 74.86639714 14.09587419 78.18199641 9.3984375 84.421875 C8.8209375 85.288125 8.2434375 86.154375 7.6484375 87.046875 C-1.63155332 96.84242087 -14.46402 99.96712598 -27.6015625 100.421875 C-36.38036658 100.21124914 -44.92933757 98.90008354 -52.6015625 94.421875 C-53.6740625 93.803125 -54.7465625 93.184375 -55.8515625 92.546875 C-65.44321406 85.13514425 -68.41472896 75.14444999 -70.06713867 63.56054688 C-72.045511 47.79019432 -71.75552752 33.03859499 -68.6015625 17.421875 C-67.9415625 17.421875 -67.2815625 17.421875 -66.6015625 17.421875 C-66.385 16.2771875 -66.385 16.2771875 -66.1640625 15.109375 C-65.6015625 12.421875 -65.6015625 12.421875 -64.6015625 9.421875 C-63.9415625 9.421875 -63.2815625 9.421875 -62.6015625 9.421875 C-62.3334375 8.82375 -62.0653125 8.225625 -61.7890625 7.609375 C-58.04983915 0.721332 -50.76099637 -2.33360795 -43.6015625 -4.578125 C-29.80254811 -7.72567355 -12.30475605 -7.46414631 0 0 Z M-34.6015625 15.421875 C-39.9077405 20.9049256 -38.6015625 26.83765957 -38.6015625 34.421875 C-31.3415625 34.421875 -24.0815625 34.421875 -16.6015625 34.421875 C-16.5603125 32.194375 -16.5190625 29.966875 -16.4765625 27.671875 C-16.45335937 26.41890625 -16.43015625 25.1659375 -16.40625 23.875 C-16.58618948 20.69367008 -16.91157668 19.05665604 -18.6015625 16.421875 C-19.2615625 16.421875 -19.9215625 16.421875 -20.6015625 16.421875 C-20.6015625 15.761875 -20.6015625 15.101875 -20.6015625 14.421875 C-26.33403793 12.1990784 -29.03496559 12.21037678 -34.6015625 15.421875 Z " fill="#323333" transform="translate(702.6015625,353.578125)"/>
<path d="M0 0 C10.23 0 20.46 0 31 0 C32.629375 3.09375 34.25875 6.1875 35.9375 9.375 C36.45046631 10.34872559 36.96343262 11.32245117 37.49194336 12.32568359 C37.89550049 13.09219238 38.29905762 13.85870117 38.71484375 14.6484375 C39.12855225 15.43395996 39.54226074 16.21948242 39.96850586 17.02880859 C40.65788624 18.34621859 41.33504671 19.67009342 42 21 C42.49197876 20.09906616 42.49197876 20.09906616 42.99389648 19.17993164 C44.47330906 16.47313901 45.95536786 13.76780439 47.4375 11.0625 C47.95376953 10.11697266 48.47003906 9.17144531 49.00195312 8.19726562 C49.74155273 6.84858398 49.74155273 6.84858398 50.49609375 5.47265625 C50.95169678 4.64000244 51.4072998 3.80734863 51.87670898 2.94946289 C53 1 53 1 54 0 C56.29151417 -0.08790975 58.58572524 -0.10694038 60.87890625 -0.09765625 C61.90889992 -0.09553383 61.90889992 -0.09553383 62.95970154 -0.09336853 C65.16067801 -0.08775479 67.36155409 -0.07520007 69.5625 -0.0625 C71.05143083 -0.05748676 72.54036324 -0.05292355 74.02929688 -0.04882812 C77.68623075 -0.03778093 81.34310558 -0.02050713 85 0 C84.3784847 4.07702813 83.04520941 7.27117562 81.19140625 10.9453125 C80.61326172 12.09628418 80.03511719 13.24725586 79.43945312 14.43310547 C79.13273682 15.03620544 78.82602051 15.63930542 78.51000977 16.26068115 C77.55520696 18.13934978 76.6098443 20.02253573 75.66601562 21.90673828 C72.79850172 27.61125184 69.88150377 33.27873078 66.77734375 38.859375 C66.30417725 39.71772949 65.83101074 40.57608398 65.34350586 41.46044922 C64.4704304 43.02954176 63.58014472 44.58922417 62.67016602 46.13720703 C62.28401123 46.83185059 61.89785645 47.52649414 61.5 48.2421875 C61.1596875 48.8285498 60.819375 49.41491211 60.46875 50.01904297 C59.1307447 55.67350911 64.17301474 62.50771426 66.71875 67.4140625 C67.1772937 68.30612396 67.6358374 69.19818542 68.10827637 70.11727905 C69.56818403 72.95526727 71.03396042 75.79017535 72.5 78.625 C73.48607406 80.53885802 74.47175534 82.45291846 75.45703125 84.3671875 C77.62624108 88.58097865 79.79925805 92.79278211 81.97570801 97.00283813 C82.31372437 97.66190155 82.65174072 98.32096497 83 99 C83.37378784 99.68315277 83.74757568 100.36630554 84.13269043 101.07015991 C85 103 85 103 85 106 C80.67693146 106.1983934 76.35629654 106.34319621 72.0300293 106.43945312 C70.56015873 106.47958611 69.09060567 106.53411158 67.62182617 106.60351562 C55.45979199 107.1636364 55.45979199 107.1636364 52.0300293 104.4296875 C50.70298488 102.3319297 49.84355522 100.33067932 49 98 C48.3460325 96.78116312 47.67371859 95.57193003 46.98046875 94.375 C46.38878906 93.26125 45.79710937 92.1475 45.1875 91 C44.58292969 89.865625 43.97835937 88.73125 43.35546875 87.5625 C42.90816406 86.716875 42.46085938 85.87125 42 85 C41.70230713 85.60062256 41.40461426 86.20124512 41.09790039 86.82006836 C39.75483792 89.52691229 38.40871152 92.23222092 37.0625 94.9375 C36.59392578 95.88302734 36.12535156 96.82855469 35.64257812 97.80273438 C35.19462891 98.70185547 34.74667969 99.60097656 34.28515625 100.52734375 C33.87144775 101.35999756 33.45773926 102.19265137 33.03149414 103.05053711 C32 105 32 105 31 106 C28.70848583 106.08790975 26.41427476 106.10694038 24.12109375 106.09765625 C23.09110008 106.09553383 23.09110008 106.09553383 22.04029846 106.09336853 C19.83932199 106.08775479 17.63844591 106.07520007 15.4375 106.0625 C13.94856917 106.05748676 12.45963676 106.05292355 10.97070312 106.04882812 C7.31376925 106.03778093 3.65689442 106.02050713 0 106 C-0.33 104.68 -0.66 103.36 -1 102 C-0.34 102 0.32 102 1 102 C1.22977539 101.20722656 1.45955078 100.41445313 1.69628906 99.59765625 C3.36719802 94.98669849 5.58599067 90.7760888 7.859375 86.4375 C8.81996546 84.57080365 9.77957161 82.70360051 10.73828125 80.8359375 C12.24560197 77.90796331 13.75860677 74.98359496 15.28857422 72.06738281 C16.76805622 69.24149139 18.22182621 66.40358141 19.671875 63.5625 C20.13527283 62.69359131 20.59867065 61.82468262 21.07611084 60.92944336 C23.56983635 56.10634575 23.56983635 56.10634575 23.47021484 50.81396484 C22.98504395 49.88535645 22.49987305 48.95674805 22 48 C21.51257324 46.95021973 21.02514648 45.90043945 20.52294922 44.81884766 C19.67240967 43.133479 19.67240967 43.133479 18.8046875 41.4140625 C18.4957254 40.79914948 18.18676331 40.18423645 17.86843872 39.5506897 C17.21176281 38.24501312 16.55326446 36.94025173 15.89306641 35.63635254 C14.86851865 33.61219505 13.84958017 31.58530096 12.83203125 29.55761719 C9.97666475 23.87257581 7.10751505 18.19524584 4.1953125 12.5390625 C3.81391113 11.79317871 3.43250977 11.04729492 3.03955078 10.27880859 C2.36532567 8.96297706 1.68439568 7.65055125 0.99560547 6.34228516 C0.27005525 4.92414578 -0.37564092 3.46550951 -1 2 C-0.67 1.34 -0.34 0.68 0 0 Z " fill="#323334" transform="translate(977,347)"/>
<path d="M0 0 C0.68429077 -0.00095673 1.36858154 -0.00191345 2.0736084 -0.00289917 C3.52286877 -0.0035808 4.97213218 -0.00172773 6.42138672 0.00244141 C8.64687928 0.00778998 10.87217001 0.0024959 13.09765625 -0.00390625 C14.50260461 -0.00324547 15.90755285 -0.0019643 17.3125 0 C18.59962891 0.00112793 19.88675781 0.00225586 21.21289062 0.00341797 C24.15625 0.1328125 24.15625 0.1328125 25.15625 1.1328125 C25.25371311 2.4838857 25.28256579 3.83999623 25.28323364 5.19458008 C25.28605347 6.0695816 25.28887329 6.94458313 25.29177856 7.84609985 C25.28975433 8.81341034 25.2877301 9.78072083 25.28564453 10.77734375 C25.28739685 11.79025482 25.28914917 12.80316589 25.29095459 13.84677124 C25.29537522 17.21296881 25.29243437 20.57911434 25.2890625 23.9453125 C25.28973548 26.27319346 25.29070545 28.60107436 25.29196167 30.92895508 C25.29343893 35.81494819 25.29128318 40.70092306 25.28662109 45.58691406 C25.2809238 51.86553906 25.28420265 58.14412132 25.29019356 64.42274475 C25.29379841 69.23181483 25.29266093 74.04087469 25.29006577 78.84994507 C25.28939629 81.16572067 25.29022564 83.48149719 25.29254532 85.79727173 C25.29507061 89.02763341 25.29123299 92.25792483 25.28564453 95.48828125 C25.28766876 96.45559174 25.28969299 97.42290222 25.29177856 98.41952515 C25.28895874 99.29452667 25.28613892 100.1695282 25.28323364 101.07104492 C25.28285662 101.83575607 25.28247959 102.60046722 25.28209114 103.38835144 C25.15625 105.1328125 25.15625 105.1328125 24.15625 106.1328125 C21.87677208 106.2330218 19.59417865 106.26362553 17.3125 106.265625 C16.62820923 106.26658173 15.94391846 106.26753845 15.2388916 106.26852417 C13.78963123 106.2692058 12.34036782 106.26735273 10.89111328 106.26318359 C8.66562072 106.25783502 6.44032999 106.2631291 4.21484375 106.26953125 C2.80989539 106.26887047 1.40494715 106.2675893 0 106.265625 C-1.28712891 106.26449707 -2.57425781 106.26336914 -3.90039062 106.26220703 C-6.84375 106.1328125 -6.84375 106.1328125 -7.84375 105.1328125 C-7.94121311 103.7817393 -7.97006579 102.42562877 -7.97073364 101.07104492 C-7.97355347 100.1960434 -7.97637329 99.32104187 -7.97927856 98.41952515 C-7.97725433 97.45221466 -7.9752301 96.48490417 -7.97314453 95.48828125 C-7.97489685 94.47537018 -7.97664917 93.46245911 -7.97845459 92.41885376 C-7.98287522 89.05265619 -7.97993437 85.68651066 -7.9765625 82.3203125 C-7.97723548 79.99243154 -7.97820545 77.66455064 -7.97946167 75.33666992 C-7.98093893 70.45067681 -7.97878318 65.56470194 -7.97412109 60.67871094 C-7.9684238 54.40008594 -7.97170265 48.12150368 -7.97769356 41.84288025 C-7.98129841 37.03381017 -7.98016093 32.22475031 -7.97756577 27.41567993 C-7.97689629 25.09990433 -7.97772564 22.78412781 -7.98004532 20.46835327 C-7.98257061 17.23799159 -7.97873299 14.00770017 -7.97314453 10.77734375 C-7.97516876 9.81003326 -7.97719299 8.84272278 -7.97927856 7.84609985 C-7.97645874 6.97109833 -7.97363892 6.0960968 -7.97073364 5.19458008 C-7.97035662 4.42986893 -7.96997959 3.66515778 -7.96959114 2.87727356 C-7.66204519 -1.38605347 -3.35639957 0.00294126 0 0 Z " fill="#323435" transform="translate(939.84375,346.8671875)"/>
<path d="M0 0 C0.94617188 -0.020625 1.89234375 -0.04125 2.8671875 -0.0625 C11.65927099 -0.11189373 11.65927099 -0.11189373 15.625 3.25 C17.43726714 6.87453429 16.80970181 11.13478632 16.8125 15.125 C16.82474609 16.03636719 16.83699219 16.94773437 16.84960938 17.88671875 C16.85154297 18.76714844 16.85347656 19.64757812 16.85546875 20.5546875 C16.85957764 21.35890137 16.86368652 22.16311523 16.86791992 22.99169922 C16.59665953 25.51346671 15.9693958 27.10854211 14.625 29.25 C10.40542357 31.35978822 4.82345541 30.43492875 0.1875 30.4375 C-0.97072266 30.44974609 -2.12894531 30.46199219 -3.32226562 30.47460938 C-4.98612305 30.47750977 -4.98612305 30.47750977 -6.68359375 30.48046875 C-7.70251709 30.48457764 -8.72144043 30.48868652 -9.77124023 30.49291992 C-12.375 30.25 -12.375 30.25 -15.375 28.25 C-16.75547021 24.10858936 -16.59894602 20.21298777 -16.625 15.875 C-16.645625 15.02421875 -16.66625 14.1734375 -16.6875 13.296875 C-16.71738337 8.50059465 -16.63156477 5.06961569 -13.375 1.25 C-8.95269405 -0.22410198 -4.63271583 0.02504171 0 0 Z " fill="#323435" transform="translate(948.375,303.75)"/>
</svg>
