<svg width="75" height="57" viewBox="0 0 75 57" fill="none" xmlns="http://www.w3.org/2000/svg">
<path d="M38.7068 42.3271C36.8817 48.897 34.4487 51.3307 31.4071 54.7373H58.4166C65.3513 54.7373 69.0014 49.384 70.4613 47.4374C78.491 31.7426 65.7163 21.523 56.2265 22.2528C44.9072 22.2528 41.2469 33.1836 38.7068 42.3271Z" stroke="white" stroke-width="0.729983"/>
<path d="M36.152 35.0276C38.7069 21.8879 53.0634 17.3864 58.4166 18.238C55.4967 8.89436 48.4402 4.12504 45.2769 2.90834C40.605 0.572396 34.0839 1.20505 31.4073 1.81337C19.4356 5.31729 15.956 16.4131 15.7126 21.523C6.36883 22.6911 2.57293 31.0128 1.84296 35.0276C-0.200997 44.3714 7.68268 51.6956 11.3326 53.6422C29.5822 59.482 34.3777 44.1524 36.152 35.0276Z" stroke="white" stroke-width="0.729983"/>
<path d="M39.4368 38.3118C37.6907 45.4464 32.5175 52.4728 30.312 55.1013H59.8763C62.4494 55.1013 70.4771 52.0551 73.016 43.0566C76.0076 32.4537 68.5359 23.1834 58.2435 21.6814C47.951 20.1793 41.6423 29.2997 39.4368 38.3118Z" fill="url(#paint0_linear_767_2484)" stroke="white" stroke-width="0.919562"/>
<path d="M16.8071 21.5225L24.8369 15.3177M16.8071 21.5225L24.1069 31.7423M16.8071 21.5225L14.6171 38.6771M16.8071 21.5225L7.31728 26.6324L14.6171 38.6771M24.8369 15.3177L21.5519 9.11281M24.8369 15.3177L31.0417 2.90796L37.9766 10.9378M24.8369 15.3177L32.5017 22.2525M24.8369 15.3177L37.9766 10.9378M24.8369 15.3177L24.1069 31.7423M37.9766 10.9378L44.9114 2.90796L47.1014 11.6678M37.9766 10.9378L44.9114 20.7925M37.9766 10.9378L32.5017 22.2525M47.1014 11.6678L57.6861 17.1426M47.1014 11.6678L44.9114 20.7925M44.9114 20.7925L32.5017 22.2525M32.5017 22.2525L24.1069 31.7423M32.5017 22.2525L35.7866 35.7572M24.1069 31.7423L35.7866 35.7572M24.1069 31.7423L14.6171 38.6771M24.1069 31.7423L25.5669 44.152M35.7866 35.7572L25.5669 44.152M14.6171 38.6771L1.84241 35.0272M14.6171 38.6771L5.49232 49.2619M14.6171 38.6771L19.727 54.7368L25.5669 44.152M14.6171 38.6771L25.5669 44.152M25.5669 44.152L32.5017 47.4369" stroke="white" stroke-width="0.919562"/>
<circle cx="13.5221" cy="39.042" r="1.75196" fill="white" stroke="white" stroke-width="0.87598"/>
<circle cx="5.49164" cy="49.262" r="1.16797" fill="white" stroke="white" stroke-width="0.583987"/>
<circle cx="1.8426" cy="34.6619" r="1.16797" fill="white" stroke="white" stroke-width="0.583987"/>
<circle cx="6.95221" cy="26.6322" r="1.16797" fill="white" stroke="white" stroke-width="0.583987"/>
<circle cx="15.712" cy="22.2529" r="1.16797" fill="white" stroke="white" stroke-width="0.583987"/>
<circle cx="25.5668" cy="14.5875" r="1.45997" fill="white" stroke="white" stroke-width="0.729983"/>
<circle cx="20.8221" cy="8.74805" r="1.16797" fill="white" stroke="white" stroke-width="0.583986"/>
<circle cx="31.0413" cy="2.17786" r="1.45997" fill="white" stroke="white" stroke-width="0.729983"/>
<circle cx="37.6119" cy="10.9378" r="1.75196" fill="white" stroke="white" stroke-width="0.87598"/>
<circle cx="45.2765" cy="2.90784" r="1.45997" fill="white" stroke="white" stroke-width="0.729983"/>
<circle cx="46.7371" cy="11.6672" r="1.45997" fill="white" stroke="white" stroke-width="0.729983"/>
<circle cx="57.6862" cy="17.5071" r="1.45997" fill="white" stroke="white" stroke-width="0.729983"/>
<circle cx="44.5466" cy="21.8872" r="1.45997" fill="white" stroke="white" stroke-width="0.729983"/>
<circle cx="32.1365" cy="22.6179" r="1.45997" fill="white" stroke="white" stroke-width="0.729983"/>
<circle cx="23.7417" cy="31.3771" r="1.75196" fill="white" stroke="white" stroke-width="0.87598"/>
<circle cx="25.9318" cy="44.152" r="1.75196" fill="white" stroke="white" stroke-width="0.87598"/>
<circle cx="19.7269" cy="54.7377" r="1.45997" fill="white" stroke="white" stroke-width="0.729983"/>
<circle cx="32.8665" cy="47.4365" r="1.45997" fill="white" stroke="white" stroke-width="0.729983"/>
<circle cx="35.7868" cy="35.7575" r="1.45997" fill="white" stroke="white" stroke-width="0.729983"/>
<defs>
<linearGradient id="paint0_linear_767_2484" x1="67.9706" y1="27.9396" x2="30.7284" y2="55.5265" gradientUnits="userSpaceOnUse">
<stop stop-color="white"/>
<stop offset="1" stop-color="#056FE7"/>
</linearGradient>
</defs>
</svg>
