<svg width="1659" height="579" viewBox="0 0 1659 579" fill="none" xmlns="http://www.w3.org/2000/svg">
<g clip-path="url(#clip0_1106_14)">
<rect width="1659" height="579" rx="50.74" fill="url(#paint0_linear_1106_14)"/>
<path d="M1684.67 127.901C1684.67 169.068 1649.24 202.473 1605.5 202.473C1561.76 202.473 1526.33 169.068 1526.33 127.901C1526.33 86.7338 1561.76 53.3285 1605.5 53.3285C1649.24 53.3285 1684.67 86.7338 1684.67 127.901Z" stroke="white" stroke-opacity="0.37" stroke-width="0.657025"/>
<path d="M1673.53 128.23C1673.53 163.438 1643.23 192.009 1605.82 192.009C1568.41 192.009 1538.11 163.438 1538.11 128.23C1538.11 93.021 1568.41 64.4506 1605.82 64.4506C1643.23 64.4506 1673.53 93.021 1673.53 128.23Z" stroke="white" stroke-opacity="0.37" stroke-width="0.561929"/>
<path d="M1661.74 127.901C1661.74 157.151 1636.56 180.886 1605.48 180.886C1574.4 180.886 1549.23 157.151 1549.23 127.901C1549.23 98.6507 1574.4 74.9153 1605.48 74.9153C1636.56 74.9153 1661.74 98.6507 1661.74 127.901Z" stroke="white" stroke-opacity="0.37" stroke-width="0.466833"/>
<path d="M1649.86 128.23C1649.86 151.16 1630.13 169.768 1605.76 169.768C1581.4 169.768 1561.66 151.16 1561.66 128.23C1561.66 105.299 1581.4 86.6915 1605.76 86.6915C1630.13 86.6915 1649.86 105.299 1649.86 128.23Z" stroke="white" stroke-opacity="0.37" stroke-width="0.365974"/>
<path d="M1059.16 596.69C1059.16 632.795 1028.09 662.092 989.724 662.092C951.359 662.092 920.288 632.795 920.288 596.69C920.288 560.586 951.359 531.288 989.724 531.288C1028.09 531.288 1059.16 560.586 1059.16 596.69Z" stroke="white" stroke-opacity="0.39" stroke-width="0.576229"/>
<path d="M1049.39 596.978C1049.39 627.857 1022.82 652.914 990.004 652.914C957.192 652.914 930.618 627.857 930.618 596.978C930.618 566.099 957.192 541.042 990.004 541.042C1022.82 541.042 1049.39 566.099 1049.39 596.978Z" stroke="white" stroke-opacity="0.39" stroke-width="0.492827"/>
<path d="M1039.04 596.69C1039.04 622.343 1016.97 643.16 989.708 643.16C962.449 643.16 940.372 622.343 940.372 596.69C940.372 571.037 962.449 550.22 989.708 550.22C1016.97 550.22 1039.04 571.037 1039.04 596.69Z" stroke="white" stroke-opacity="0.39" stroke-width="0.409426"/>
<path d="M1028.63 596.978C1028.63 617.089 1011.32 633.408 989.954 633.408C968.584 633.408 951.277 617.089 951.277 596.978C951.277 576.867 968.584 560.548 989.954 560.548C1011.32 560.548 1028.63 576.867 1028.63 596.978Z" stroke="white" stroke-opacity="0.39" stroke-width="0.32097"/>
<path d="M1270.77 66.2314C1270.77 95.4884 1245.59 119.229 1214.5 119.229C1183.41 119.229 1158.23 95.4884 1158.23 66.2314C1158.23 36.9744 1183.41 13.2335 1214.5 13.2335C1245.59 13.2335 1270.77 36.9744 1270.77 66.2314Z" stroke="white" stroke-opacity="0.39" stroke-width="0.466942"/>
<path d="M1262.85 66.4648C1262.85 91.4873 1241.32 111.792 1214.73 111.792C1188.14 111.792 1166.6 91.4873 1166.6 66.4648C1166.6 41.4424 1188.14 21.1377 1214.73 21.1377C1241.32 21.1377 1262.85 41.4424 1262.85 66.4648Z" stroke="white" stroke-opacity="0.39" stroke-width="0.399358"/>
<path d="M1254.47 66.2315C1254.47 87.0194 1236.58 103.888 1214.49 103.888C1192.4 103.888 1174.51 87.0194 1174.51 66.2315C1174.51 45.4436 1192.4 28.5751 1214.49 28.5751C1236.58 28.5751 1254.47 45.4436 1254.47 66.2315Z" stroke="white" stroke-opacity="0.39" stroke-width="0.331775"/>
<path d="M1246.03 66.465C1246.03 82.7617 1232 95.9858 1214.69 95.9858C1197.37 95.9858 1183.34 82.7617 1183.34 66.465C1183.34 50.1684 1197.37 36.9443 1214.69 36.9443C1232 36.9443 1246.03 50.1684 1246.03 66.465Z" stroke="white" stroke-opacity="0.39" stroke-width="0.260095"/>
<path d="M1561.15 590.5C1561.15 614.408 1540.58 633.809 1515.17 633.809C1489.77 633.809 1469.19 614.408 1469.19 590.5C1469.19 566.592 1489.77 547.191 1515.17 547.191C1540.58 547.191 1561.15 566.592 1561.15 590.5Z" stroke="white" stroke-opacity="0.54" stroke-width="0.381579"/>
<path d="M1554.68 590.691C1554.68 611.139 1537.08 627.732 1515.36 627.732C1493.63 627.732 1476.03 611.139 1476.03 590.691C1476.03 570.243 1493.63 553.65 1515.36 553.65C1537.08 553.65 1554.68 570.243 1554.68 590.691Z" stroke="white" stroke-opacity="0.54" stroke-width="0.326351"/>
<path d="M1547.83 590.5C1547.83 607.488 1533.21 621.272 1515.16 621.272C1497.11 621.272 1482.49 607.488 1482.49 590.5C1482.49 573.512 1497.11 559.728 1515.16 559.728C1533.21 559.728 1547.83 573.512 1547.83 590.5Z" stroke="white" stroke-opacity="0.54" stroke-width="0.271122"/>
<path d="M1540.93 590.691C1540.93 604.008 1529.47 614.815 1515.32 614.815C1501.17 614.815 1489.71 604.008 1489.71 590.691C1489.71 577.373 1501.17 566.567 1515.32 566.567C1529.47 566.567 1540.93 577.373 1540.93 590.691Z" stroke="white" stroke-opacity="0.54" stroke-width="0.212546"/>
<path d="M1642.95 339C1642.95 345.229 1637.59 350.283 1630.97 350.283C1624.35 350.283 1618.99 345.229 1618.99 339C1618.99 332.771 1624.35 327.717 1630.97 327.717C1637.59 327.717 1642.95 332.771 1642.95 339Z" stroke="white" stroke-opacity="0.54" stroke-width="0.0994096"/>
<path d="M1641.27 339.05C1641.27 344.377 1636.68 348.7 1631.02 348.7C1625.36 348.7 1620.77 344.377 1620.77 339.05C1620.77 333.722 1625.36 329.4 1631.02 329.4C1636.68 329.4 1641.27 333.722 1641.27 339.05Z" stroke="white" stroke-opacity="0.54" stroke-width="0.0850214"/>
<path d="M1639.48 339C1639.48 343.426 1635.67 347.017 1630.97 347.017C1626.27 347.017 1622.46 343.426 1622.46 339C1622.46 334.574 1626.27 330.983 1630.97 330.983C1635.67 330.983 1639.48 334.574 1639.48 339Z" stroke="white" stroke-opacity="0.54" stroke-width="0.0706332"/>
<path d="M1637.68 339.05C1637.68 342.519 1634.7 345.335 1631.01 345.335C1627.32 345.335 1624.34 342.519 1624.34 339.05C1624.34 335.58 1627.32 332.765 1631.01 332.765C1634.7 332.765 1637.68 335.58 1637.68 339.05Z" stroke="white" stroke-opacity="0.54" stroke-width="0.0553729"/>
<ellipse cy="494.19" rx="14" ry="13.1901" fill="white" fill-opacity="0.09"/>
<ellipse cx="670.232" cy="-12.5" rx="47.2325" ry="44.5" fill="white" fill-opacity="0.09"/>
<ellipse cx="207.5" cy="234" rx="124.5" ry="115" fill="white" fill-opacity="0.09"/>
<ellipse cx="6.36842" cy="6" rx="6.36842" ry="6" transform="matrix(-1 0 0 1 742 512)" fill="white" fill-opacity="0.09"/>
<circle cx="1448.47" cy="170.474" r="19.5569" transform="rotate(-2.75304 1448.47 170.474)" fill="#18377C" fill-opacity="0.55"/>
</g>
<defs>
<linearGradient id="paint0_linear_1106_14" x1="2.10697e-08" y1="311" x2="1659" y2="311" gradientUnits="userSpaceOnUse">
<stop stop-color="#00256A"/>
<stop offset="1" stop-color="#021F75"/>
</linearGradient>
<clipPath id="clip0_1106_14">
<rect width="1659" height="579" rx="50.74" fill="white"/>
</clipPath>
</defs>
</svg>
